%TF.GenerationSoftware,KiCad,Pcbnew,(6.0.6)*%
%TF.CreationDate,2023-08-27T23:28:48-04:00*%
%TF.ProjectId,STM32,53544d33-322e-46b6-9963-61645f706362,rev?*%
%TF.SameCoordinates,Original*%
%TF.FileFunction,Copper,L1,Top*%
%TF.FilePolarity,Positive*%
%FSLAX46Y46*%
G04 Gerber Fmt 4.6, Leading zero omitted, Abs format (unit mm)*
G04 Created by KiCad (PCBNEW (6.0.6)) date 2023-08-27 23:28:48*
%MOMM*%
%LPD*%
G01*
G04 APERTURE LIST*
G04 Aperture macros list*
%AMRoundRect*
0 Rectangle with rounded corners*
0 $1 Rounding radius*
0 $2 $3 $4 $5 $6 $7 $8 $9 X,Y pos of 4 corners*
0 Add a 4 corners polygon primitive as box body*
4,1,4,$2,$3,$4,$5,$6,$7,$8,$9,$2,$3,0*
0 Add four circle primitives for the rounded corners*
1,1,$1+$1,$2,$3*
1,1,$1+$1,$4,$5*
1,1,$1+$1,$6,$7*
1,1,$1+$1,$8,$9*
0 Add four rect primitives between the rounded corners*
20,1,$1+$1,$2,$3,$4,$5,0*
20,1,$1+$1,$4,$5,$6,$7,0*
20,1,$1+$1,$6,$7,$8,$9,0*
20,1,$1+$1,$8,$9,$2,$3,0*%
G04 Aperture macros list end*
%TA.AperFunction,SMDPad,CuDef*%
%ADD10RoundRect,0.200000X0.275000X-0.200000X0.275000X0.200000X-0.275000X0.200000X-0.275000X-0.200000X0*%
%TD*%
%TA.AperFunction,SMDPad,CuDef*%
%ADD11R,0.750000X2.100000*%
%TD*%
%TA.AperFunction,SMDPad,CuDef*%
%ADD12R,1.900000X2.500000*%
%TD*%
%TA.AperFunction,ComponentPad*%
%ADD13R,1.700000X1.700000*%
%TD*%
%TA.AperFunction,ComponentPad*%
%ADD14O,1.700000X1.700000*%
%TD*%
%TA.AperFunction,SMDPad,CuDef*%
%ADD15R,1.200000X1.400000*%
%TD*%
%TA.AperFunction,SMDPad,CuDef*%
%ADD16RoundRect,0.135000X0.185000X-0.135000X0.185000X0.135000X-0.185000X0.135000X-0.185000X-0.135000X0*%
%TD*%
%TA.AperFunction,SMDPad,CuDef*%
%ADD17RoundRect,0.135000X-0.135000X-0.185000X0.135000X-0.185000X0.135000X0.185000X-0.135000X0.185000X0*%
%TD*%
%TA.AperFunction,SMDPad,CuDef*%
%ADD18RoundRect,0.140000X0.170000X-0.140000X0.170000X0.140000X-0.170000X0.140000X-0.170000X-0.140000X0*%
%TD*%
%TA.AperFunction,SMDPad,CuDef*%
%ADD19R,1.000000X0.800000*%
%TD*%
%TA.AperFunction,SMDPad,CuDef*%
%ADD20R,0.700000X1.500000*%
%TD*%
%TA.AperFunction,SMDPad,CuDef*%
%ADD21RoundRect,0.225000X0.225000X0.250000X-0.225000X0.250000X-0.225000X-0.250000X0.225000X-0.250000X0*%
%TD*%
%TA.AperFunction,ComponentPad*%
%ADD22R,2.400000X2.400000*%
%TD*%
%TA.AperFunction,ComponentPad*%
%ADD23C,2.400000*%
%TD*%
%TA.AperFunction,SMDPad,CuDef*%
%ADD24RoundRect,0.200000X-0.200000X-0.275000X0.200000X-0.275000X0.200000X0.275000X-0.200000X0.275000X0*%
%TD*%
%TA.AperFunction,SMDPad,CuDef*%
%ADD25RoundRect,0.075000X-0.700000X-0.075000X0.700000X-0.075000X0.700000X0.075000X-0.700000X0.075000X0*%
%TD*%
%TA.AperFunction,SMDPad,CuDef*%
%ADD26RoundRect,0.075000X-0.075000X-0.700000X0.075000X-0.700000X0.075000X0.700000X-0.075000X0.700000X0*%
%TD*%
%TA.AperFunction,SMDPad,CuDef*%
%ADD27RoundRect,0.218750X0.256250X-0.218750X0.256250X0.218750X-0.256250X0.218750X-0.256250X-0.218750X0*%
%TD*%
%TA.AperFunction,SMDPad,CuDef*%
%ADD28RoundRect,0.140000X-0.140000X-0.170000X0.140000X-0.170000X0.140000X0.170000X-0.140000X0.170000X0*%
%TD*%
%TA.AperFunction,SMDPad,CuDef*%
%ADD29R,1.200000X0.900000*%
%TD*%
%TA.AperFunction,SMDPad,CuDef*%
%ADD30RoundRect,0.200000X-0.275000X0.200000X-0.275000X-0.200000X0.275000X-0.200000X0.275000X0.200000X0*%
%TD*%
%TA.AperFunction,SMDPad,CuDef*%
%ADD31RoundRect,0.135000X-0.185000X0.135000X-0.185000X-0.135000X0.185000X-0.135000X0.185000X0.135000X0*%
%TD*%
%TA.AperFunction,SMDPad,CuDef*%
%ADD32RoundRect,0.150000X-0.150000X0.512500X-0.150000X-0.512500X0.150000X-0.512500X0.150000X0.512500X0*%
%TD*%
%TA.AperFunction,SMDPad,CuDef*%
%ADD33RoundRect,0.250000X-0.625000X0.375000X-0.625000X-0.375000X0.625000X-0.375000X0.625000X0.375000X0*%
%TD*%
%TA.AperFunction,SMDPad,CuDef*%
%ADD34RoundRect,0.135000X0.135000X0.185000X-0.135000X0.185000X-0.135000X-0.185000X0.135000X-0.185000X0*%
%TD*%
%TA.AperFunction,SMDPad,CuDef*%
%ADD35RoundRect,0.225000X-0.250000X0.225000X-0.250000X-0.225000X0.250000X-0.225000X0.250000X0.225000X0*%
%TD*%
%TA.AperFunction,SMDPad,CuDef*%
%ADD36RoundRect,0.225000X-0.225000X-0.250000X0.225000X-0.250000X0.225000X0.250000X-0.225000X0.250000X0*%
%TD*%
%TA.AperFunction,SMDPad,CuDef*%
%ADD37RoundRect,0.250000X-0.650000X0.325000X-0.650000X-0.325000X0.650000X-0.325000X0.650000X0.325000X0*%
%TD*%
%TA.AperFunction,SMDPad,CuDef*%
%ADD38RoundRect,0.150000X-0.150000X0.587500X-0.150000X-0.587500X0.150000X-0.587500X0.150000X0.587500X0*%
%TD*%
%TA.AperFunction,SMDPad,CuDef*%
%ADD39RoundRect,0.147500X0.147500X0.172500X-0.147500X0.172500X-0.147500X-0.172500X0.147500X-0.172500X0*%
%TD*%
%TA.AperFunction,ComponentPad*%
%ADD40C,0.900000*%
%TD*%
%TA.AperFunction,ComponentPad*%
%ADD41C,8.600000*%
%TD*%
%TA.AperFunction,SMDPad,CuDef*%
%ADD42RoundRect,0.140000X0.140000X0.170000X-0.140000X0.170000X-0.140000X-0.170000X0.140000X-0.170000X0*%
%TD*%
%TA.AperFunction,SMDPad,CuDef*%
%ADD43RoundRect,0.140000X-0.170000X0.140000X-0.170000X-0.140000X0.170000X-0.140000X0.170000X0.140000X0*%
%TD*%
%TA.AperFunction,SMDPad,CuDef*%
%ADD44RoundRect,0.218750X-0.381250X0.218750X-0.381250X-0.218750X0.381250X-0.218750X0.381250X0.218750X0*%
%TD*%
%TA.AperFunction,SMDPad,CuDef*%
%ADD45RoundRect,0.225000X0.250000X-0.225000X0.250000X0.225000X-0.250000X0.225000X-0.250000X-0.225000X0*%
%TD*%
%TA.AperFunction,SMDPad,CuDef*%
%ADD46RoundRect,0.150000X0.512500X0.150000X-0.512500X0.150000X-0.512500X-0.150000X0.512500X-0.150000X0*%
%TD*%
%TA.AperFunction,SMDPad,CuDef*%
%ADD47RoundRect,0.218750X0.218750X0.256250X-0.218750X0.256250X-0.218750X-0.256250X0.218750X-0.256250X0*%
%TD*%
%TA.AperFunction,SMDPad,CuDef*%
%ADD48RoundRect,0.075000X-0.075000X0.350000X-0.075000X-0.350000X0.075000X-0.350000X0.075000X0.350000X0*%
%TD*%
%TA.AperFunction,SMDPad,CuDef*%
%ADD49RoundRect,0.075000X-0.350000X-0.075000X0.350000X-0.075000X0.350000X0.075000X-0.350000X0.075000X0*%
%TD*%
%TA.AperFunction,SMDPad,CuDef*%
%ADD50R,1.350000X0.400000*%
%TD*%
%TA.AperFunction,SMDPad,CuDef*%
%ADD51R,1.550000X1.200000*%
%TD*%
%TA.AperFunction,SMDPad,CuDef*%
%ADD52R,1.550000X1.500000*%
%TD*%
%TA.AperFunction,ComponentPad*%
%ADD53O,0.950000X1.250000*%
%TD*%
%TA.AperFunction,ComponentPad*%
%ADD54O,1.550000X0.890000*%
%TD*%
%TA.AperFunction,ViaPad*%
%ADD55C,0.800000*%
%TD*%
%TA.AperFunction,Conductor*%
%ADD56C,1.000000*%
%TD*%
%TA.AperFunction,Conductor*%
%ADD57C,0.300000*%
%TD*%
%TA.AperFunction,Conductor*%
%ADD58C,0.500000*%
%TD*%
%TA.AperFunction,Conductor*%
%ADD59C,0.750000*%
%TD*%
%TA.AperFunction,Conductor*%
%ADD60C,0.261112*%
%TD*%
G04 APERTURE END LIST*
D10*
%TO.P,R3,1*%
%TO.N,Net-(R2-Pad2)*%
X104452696Y-90402508D03*
%TO.P,R3,2*%
%TO.N,GND*%
X104452696Y-88752508D03*
%TD*%
D11*
%TO.P,J4,1,Pin_1*%
%TO.N,+3.3V*%
X119380000Y-77260000D03*
%TO.P,J4,2,Pin_2*%
%TO.N,Net-(J4-Pad2)*%
X119380000Y-73660000D03*
%TO.P,J4,3,Pin_3*%
%TO.N,GND*%
X118110000Y-77260000D03*
%TO.P,J4,4,Pin_4*%
%TO.N,Net-(J4-Pad4)*%
X118110000Y-73660000D03*
%TO.P,J4,5,Pin_5*%
%TO.N,GND*%
X116840000Y-77260000D03*
%TO.P,J4,6,Pin_6*%
%TO.N,Net-(J4-Pad6)*%
X116840000Y-73660000D03*
%TO.P,J4,7,Pin_7*%
%TO.N,unconnected-(J4-Pad7)*%
X115570000Y-77260000D03*
%TO.P,J4,8,Pin_8*%
%TO.N,unconnected-(J4-Pad8)*%
X115570000Y-73660000D03*
%TO.P,J4,9,Pin_9*%
%TO.N,GND*%
X114300000Y-77260000D03*
%TO.P,J4,10,Pin_10*%
%TO.N,Net-(J4-Pad10)*%
X114300000Y-73660000D03*
%TD*%
D12*
%TO.P,L1,1*%
%TO.N,BUCK_SW*%
X112775503Y-93980000D03*
%TO.P,L1,2*%
%TO.N,+3.3V*%
X116875503Y-93980000D03*
%TD*%
D13*
%TO.P,J6,1,Pin_1*%
%TO.N,GND*%
X104130000Y-74930000D03*
D14*
%TO.P,J6,2,Pin_2*%
%TO.N,UART3_TX*%
X101590000Y-74930000D03*
%TO.P,J6,3,Pin_3*%
%TO.N,UART3_RX*%
X99050000Y-74930000D03*
%TO.P,J6,4,Pin_4*%
%TO.N,+3.3V*%
X96510000Y-74930000D03*
%TD*%
D15*
%TO.P,Crystal1,1,1*%
%TO.N,/HSE_IN*%
X76817265Y-93122981D03*
%TO.P,Crystal1,2,2*%
%TO.N,GND*%
X76817265Y-95322981D03*
%TO.P,Crystal1,3,3*%
%TO.N,Net-(C14-Pad1)*%
X78517265Y-95322981D03*
%TO.P,Crystal1,4,4*%
%TO.N,GND*%
X78517265Y-93122981D03*
%TD*%
D16*
%TO.P,R12,1*%
%TO.N,I2C1_SDA*%
X86131664Y-83775939D03*
%TO.P,R12,2*%
%TO.N,+3.3V*%
X86131664Y-82755939D03*
%TD*%
D17*
%TO.P,R16,1*%
%TO.N,Net-(C14-Pad1)*%
X80234611Y-95309226D03*
%TO.P,R16,2*%
%TO.N,/HSE_OUT*%
X81254611Y-95309226D03*
%TD*%
D18*
%TO.P,C17,1*%
%TO.N,+3.3V*%
X96520000Y-90949667D03*
%TO.P,C17,2*%
%TO.N,GND*%
X96520000Y-89989667D03*
%TD*%
D19*
%TO.P,SW1,*%
%TO.N,*%
X82561308Y-75710000D03*
X89861308Y-75710000D03*
X82561308Y-73500000D03*
X89861308Y-73500000D03*
D20*
%TO.P,SW1,1,A*%
%TO.N,GND*%
X88461308Y-76360000D03*
%TO.P,SW1,2,B*%
%TO.N,/SW_BOOT*%
X85461308Y-76360000D03*
%TO.P,SW1,3,C*%
%TO.N,+3.3V*%
X83961308Y-76360000D03*
%TD*%
D21*
%TO.P,C9,1*%
%TO.N,+3.3V*%
X81834265Y-91382353D03*
%TO.P,C9,2*%
%TO.N,GND*%
X80284265Y-91382353D03*
%TD*%
D22*
%TO.P,J1,1,Pin_1*%
%TO.N,+12V*%
X134648944Y-97166594D03*
D23*
%TO.P,J1,2,Pin_2*%
%TO.N,GND*%
X134648944Y-93666594D03*
%TD*%
D24*
%TO.P,R11,1*%
%TO.N,Net-(D3-Pad1)*%
X82359797Y-105596222D03*
%TO.P,R11,2*%
%TO.N,GND*%
X84009797Y-105596222D03*
%TD*%
D25*
%TO.P,U4,1,VBAT*%
%TO.N,+3.3V*%
X83225000Y-92770000D03*
%TO.P,U4,2,PC13*%
%TO.N,unconnected-(U4-Pad2)*%
X83225000Y-93270000D03*
%TO.P,U4,3,PC14*%
%TO.N,unconnected-(U4-Pad3)*%
X83225000Y-93770000D03*
%TO.P,U4,4,PC15*%
%TO.N,unconnected-(U4-Pad4)*%
X83225000Y-94270000D03*
%TO.P,U4,5,PH0*%
%TO.N,/HSE_IN*%
X83225000Y-94770000D03*
%TO.P,U4,6,PH1*%
%TO.N,/HSE_OUT*%
X83225000Y-95270000D03*
%TO.P,U4,7,NRST*%
%TO.N,NRST*%
X83225000Y-95770000D03*
%TO.P,U4,8,PC0*%
%TO.N,unconnected-(U4-Pad8)*%
X83225000Y-96270000D03*
%TO.P,U4,9,PC1*%
%TO.N,unconnected-(U4-Pad9)*%
X83225000Y-96770000D03*
%TO.P,U4,10,PC2*%
%TO.N,unconnected-(U4-Pad10)*%
X83225000Y-97270000D03*
%TO.P,U4,11,PC3*%
%TO.N,unconnected-(U4-Pad11)*%
X83225000Y-97770000D03*
%TO.P,U4,12,VSSA*%
%TO.N,GND*%
X83225000Y-98270000D03*
%TO.P,U4,13,VDDA*%
%TO.N,+3.3VA*%
X83225000Y-98770000D03*
%TO.P,U4,14,PA0*%
%TO.N,unconnected-(U4-Pad14)*%
X83225000Y-99270000D03*
%TO.P,U4,15,PA1*%
%TO.N,unconnected-(U4-Pad15)*%
X83225000Y-99770000D03*
%TO.P,U4,16,PA2*%
%TO.N,LED_STATUS*%
X83225000Y-100270000D03*
D26*
%TO.P,U4,17,PA3*%
%TO.N,unconnected-(U4-Pad17)*%
X85150000Y-102195000D03*
%TO.P,U4,18,VSS*%
%TO.N,GND*%
X85650000Y-102195000D03*
%TO.P,U4,19,VDD*%
%TO.N,+3.3V*%
X86150000Y-102195000D03*
%TO.P,U4,20,PA4*%
%TO.N,unconnected-(U4-Pad20)*%
X86650000Y-102195000D03*
%TO.P,U4,21,PA5*%
%TO.N,GPIO_AN1*%
X87150000Y-102195000D03*
%TO.P,U4,22,PA6*%
%TO.N,GPIO_AN2*%
X87650000Y-102195000D03*
%TO.P,U4,23,PA7*%
%TO.N,GPIO_AN3*%
X88150000Y-102195000D03*
%TO.P,U4,24,PC4*%
%TO.N,GPIO_AN4*%
X88650000Y-102195000D03*
%TO.P,U4,25,PC5*%
%TO.N,unconnected-(U4-Pad25)*%
X89150000Y-102195000D03*
%TO.P,U4,26,PB0*%
%TO.N,unconnected-(U4-Pad26)*%
X89650000Y-102195000D03*
%TO.P,U4,27,PB1*%
%TO.N,unconnected-(U4-Pad27)*%
X90150000Y-102195000D03*
%TO.P,U4,28,PB2*%
%TO.N,unconnected-(U4-Pad28)*%
X90650000Y-102195000D03*
%TO.P,U4,29,PB10*%
%TO.N,I2C2_SCL*%
X91150000Y-102195000D03*
%TO.P,U4,30,PB11*%
%TO.N,I2C2_SDA*%
X91650000Y-102195000D03*
%TO.P,U4,31,VCAP_1*%
%TO.N,Net-(C13-Pad1)*%
X92150000Y-102195000D03*
%TO.P,U4,32,VDD*%
%TO.N,+3.3V*%
X92650000Y-102195000D03*
D25*
%TO.P,U4,33,PB12*%
%TO.N,GPIO_OUT5*%
X94575000Y-100270000D03*
%TO.P,U4,34,PB13*%
%TO.N,GPIO_OUT4*%
X94575000Y-99770000D03*
%TO.P,U4,35,PB14*%
%TO.N,GPIO_OUT3*%
X94575000Y-99270000D03*
%TO.P,U4,36,PB15*%
%TO.N,GPIO_OUT2*%
X94575000Y-98770000D03*
%TO.P,U4,37,PC6*%
%TO.N,GPIO_OUT1*%
X94575000Y-98270000D03*
%TO.P,U4,38,PC7*%
%TO.N,GPIO_IN5*%
X94575000Y-97770000D03*
%TO.P,U4,39,PC8*%
%TO.N,GPIO_IN4*%
X94575000Y-97270000D03*
%TO.P,U4,40,PC9*%
%TO.N,GPIO_IN3*%
X94575000Y-96770000D03*
%TO.P,U4,41,PA8*%
%TO.N,GPIO_IN2*%
X94575000Y-96270000D03*
%TO.P,U4,42,PA9*%
%TO.N,GPIO_IN1*%
X94575000Y-95770000D03*
%TO.P,U4,43,PA10*%
%TO.N,unconnected-(U4-Pad43)*%
X94575000Y-95270000D03*
%TO.P,U4,44,PA11*%
%TO.N,USB_D-*%
X94575000Y-94770000D03*
%TO.P,U4,45,PA12*%
%TO.N,USB_D+*%
X94575000Y-94270000D03*
%TO.P,U4,46,PA13*%
%TO.N,SWDIO*%
X94575000Y-93770000D03*
%TO.P,U4,47,VCAP_2*%
%TO.N,Net-(C16-Pad1)*%
X94575000Y-93270000D03*
%TO.P,U4,48,VDD*%
%TO.N,+3.3V*%
X94575000Y-92770000D03*
D26*
%TO.P,U4,49,PA14*%
%TO.N,SWCLK*%
X92650000Y-90845000D03*
%TO.P,U4,50,PA15*%
%TO.N,unconnected-(U4-Pad50)*%
X92150000Y-90845000D03*
%TO.P,U4,51,PC10*%
%TO.N,UART3_TX*%
X91650000Y-90845000D03*
%TO.P,U4,52,PC11*%
%TO.N,UART3_RX*%
X91150000Y-90845000D03*
%TO.P,U4,53,PC12*%
%TO.N,unconnected-(U4-Pad53)*%
X90650000Y-90845000D03*
%TO.P,U4,54,PD2*%
%TO.N,unconnected-(U4-Pad54)*%
X90150000Y-90845000D03*
%TO.P,U4,55,PB3*%
%TO.N,SWO*%
X89650000Y-90845000D03*
%TO.P,U4,56,PB4*%
%TO.N,unconnected-(U4-Pad56)*%
X89150000Y-90845000D03*
%TO.P,U4,57,PB5*%
%TO.N,IMU_IINT*%
X88650000Y-90845000D03*
%TO.P,U4,58,PB6*%
%TO.N,I2C1_SCL*%
X88150000Y-90845000D03*
%TO.P,U4,59,PB7*%
%TO.N,I2C1_SDA*%
X87650000Y-90845000D03*
%TO.P,U4,60,BOOT0*%
%TO.N,/BOOT0*%
X87150000Y-90845000D03*
%TO.P,U4,61,PB8*%
%TO.N,unconnected-(U4-Pad61)*%
X86650000Y-90845000D03*
%TO.P,U4,62,PB9*%
%TO.N,unconnected-(U4-Pad62)*%
X86150000Y-90845000D03*
%TO.P,U4,63,VSS*%
%TO.N,GND*%
X85650000Y-90845000D03*
%TO.P,U4,64,VDD*%
%TO.N,+3.3V*%
X85150000Y-90845000D03*
%TD*%
D24*
%TO.P,R17,1*%
%TO.N,Net-(D4-Pad1)*%
X76845000Y-106640000D03*
%TO.P,R17,2*%
%TO.N,GND*%
X78495000Y-106640000D03*
%TD*%
D27*
%TO.P,D3,1,K*%
%TO.N,Net-(D3-Pad1)*%
X82117703Y-103645784D03*
%TO.P,D3,2,A*%
%TO.N,LED_STATUS*%
X82117703Y-102070784D03*
%TD*%
D28*
%TO.P,C15,1*%
%TO.N,+3.3V*%
X94102693Y-102869102D03*
%TO.P,C15,2*%
%TO.N,GND*%
X95062693Y-102869102D03*
%TD*%
D29*
%TO.P,D1,1,K*%
%TO.N,Net-(D1-Pad1)*%
X120727845Y-99343495D03*
%TO.P,D1,2,A*%
%TO.N,+5V*%
X120727845Y-102643495D03*
%TD*%
D28*
%TO.P,C11,1*%
%TO.N,+3.3V*%
X84107345Y-89184616D03*
%TO.P,C11,2*%
%TO.N,GND*%
X85067345Y-89184616D03*
%TD*%
D16*
%TO.P,R8,1*%
%TO.N,NRST*%
X93921369Y-90386847D03*
%TO.P,R8,2*%
%TO.N,Net-(J4-Pad10)*%
X93921369Y-89366847D03*
%TD*%
D30*
%TO.P,R4,1*%
%TO.N,BUCK_IN*%
X105938658Y-99232047D03*
%TO.P,R4,2*%
%TO.N,BUCK_EN*%
X105938658Y-100882047D03*
%TD*%
D31*
%TO.P,R10,1*%
%TO.N,/SW_BOOT*%
X86335785Y-87777662D03*
%TO.P,R10,2*%
%TO.N,/BOOT0*%
X86335785Y-88797662D03*
%TD*%
D17*
%TO.P,R15,1*%
%TO.N,I2C2_SDA*%
X76193788Y-112927611D03*
%TO.P,R15,2*%
%TO.N,+3.3V*%
X77213788Y-112927611D03*
%TD*%
D32*
%TO.P,U1,1,BST*%
%TO.N,BUCK_BST*%
X101857123Y-92880993D03*
%TO.P,U1,2,GND*%
%TO.N,GND*%
X100907123Y-92880993D03*
%TO.P,U1,3,FB*%
%TO.N,BUCK_FB*%
X99957123Y-92880993D03*
%TO.P,U1,4,EN*%
%TO.N,BUCK_EN*%
X99957123Y-95155993D03*
%TO.P,U1,5,IN*%
%TO.N,BUCK_IN*%
X100907123Y-95155993D03*
%TO.P,U1,6,SW*%
%TO.N,BUCK_SW*%
X101857123Y-95155993D03*
%TD*%
D33*
%TO.P,F2,1*%
%TO.N,Net-(D1-Pad1)*%
X116840000Y-99378812D03*
%TO.P,F2,2*%
%TO.N,Net-(F2-Pad2)*%
X116840000Y-102178812D03*
%TD*%
D24*
%TO.P,R5,1*%
%TO.N,BUCK_EN*%
X102481799Y-97516390D03*
%TO.P,R5,2*%
%TO.N,GND*%
X104131799Y-97516390D03*
%TD*%
D13*
%TO.P,J5,1,Pin_1*%
%TO.N,GPIO_AN1*%
X82550000Y-116840000D03*
D14*
%TO.P,J5,2,Pin_2*%
%TO.N,GPIO_AN2*%
X85090000Y-116840000D03*
%TO.P,J5,3,Pin_3*%
%TO.N,GPIO_AN3*%
X87630000Y-116840000D03*
%TO.P,J5,4,Pin_4*%
%TO.N,GPIO_AN4*%
X90170000Y-116840000D03*
%TO.P,J5,5,Pin_5*%
%TO.N,GND*%
X92710000Y-116840000D03*
%TO.P,J5,6,Pin_6*%
%TO.N,+3.3V*%
X95250000Y-116840000D03*
%TD*%
D34*
%TO.P,R14,1*%
%TO.N,I2C2_SCL*%
X73762970Y-112936297D03*
%TO.P,R14,2*%
%TO.N,+3.3V*%
X72742970Y-112936297D03*
%TD*%
D35*
%TO.P,C8,1*%
%TO.N,Net-(C8-Pad1)*%
X84121833Y-86139150D03*
%TO.P,C8,2*%
%TO.N,GND*%
X84121833Y-87689150D03*
%TD*%
D36*
%TO.P,C13,1*%
%TO.N,Net-(C13-Pad1)*%
X93265551Y-104454008D03*
%TO.P,C13,2*%
%TO.N,GND*%
X94815551Y-104454008D03*
%TD*%
D28*
%TO.P,C10,1*%
%TO.N,/HSE_IN*%
X77172530Y-91262492D03*
%TO.P,C10,2*%
%TO.N,GND*%
X78132530Y-91262492D03*
%TD*%
D37*
%TO.P,C1,1*%
%TO.N,BUCK_IN*%
X108249667Y-99330230D03*
%TO.P,C1,2*%
%TO.N,GND*%
X108249667Y-102280230D03*
%TD*%
D16*
%TO.P,R6,1*%
%TO.N,SWCLK*%
X92710000Y-88081041D03*
%TO.P,R6,2*%
%TO.N,Net-(J4-Pad4)*%
X92710000Y-87061041D03*
%TD*%
D38*
%TO.P,Q1,1,G*%
%TO.N,GND*%
X126462206Y-99117255D03*
%TO.P,Q1,2,S*%
%TO.N,Net-(D1-Pad1)*%
X124562206Y-99117255D03*
%TO.P,Q1,3,D*%
%TO.N,+12V*%
X125512206Y-100992255D03*
%TD*%
D13*
%TO.P,J2,1,Pin_1*%
%TO.N,GPIO_IN1*%
X127000000Y-116840000D03*
D14*
%TO.P,J2,2,Pin_2*%
%TO.N,GPIO_IN2*%
X124460000Y-116840000D03*
%TO.P,J2,3,Pin_3*%
%TO.N,GPIO_IN3*%
X121920000Y-116840000D03*
%TO.P,J2,4,Pin_4*%
%TO.N,GPIO_IN4*%
X119380000Y-116840000D03*
%TO.P,J2,5,Pin_5*%
%TO.N,GPIO_IN5*%
X116840000Y-116840000D03*
%TO.P,J2,6,Pin_6*%
%TO.N,GPIO_OUT1*%
X114300000Y-116840000D03*
%TO.P,J2,7,Pin_7*%
%TO.N,GPIO_OUT2*%
X111760000Y-116840000D03*
%TO.P,J2,8,Pin_8*%
%TO.N,GPIO_OUT3*%
X109220000Y-116840000D03*
%TO.P,J2,9,Pin_9*%
%TO.N,GPIO_OUT4*%
X106680000Y-116840000D03*
%TO.P,J2,10,Pin_10*%
%TO.N,GPIO_OUT5*%
X104140000Y-116840000D03*
%TO.P,J2,11,Pin_11*%
%TO.N,GND*%
X101600000Y-116840000D03*
%TO.P,J2,12,Pin_12*%
%TO.N,+3.3V*%
X99060000Y-116840000D03*
%TD*%
D39*
%TO.P,L2,1*%
%TO.N,+3.3VA*%
X78699123Y-101571865D03*
%TO.P,L2,2*%
%TO.N,+3.3V*%
X77729123Y-101571865D03*
%TD*%
D30*
%TO.P,R2,1*%
%TO.N,BUCK_FB*%
X102359369Y-88709078D03*
%TO.P,R2,2*%
%TO.N,Net-(R2-Pad2)*%
X102359369Y-90359078D03*
%TD*%
D40*
%TO.P,H2,1,1*%
%TO.N,GND*%
X65780419Y-78480419D03*
X61219581Y-73919581D03*
X66725000Y-76200000D03*
X63500000Y-72975000D03*
X65780419Y-73919581D03*
X61219581Y-78480419D03*
D41*
X63500000Y-76200000D03*
D40*
X60275000Y-76200000D03*
X63500000Y-79425000D03*
%TD*%
D18*
%TO.P,C19,1*%
%TO.N,+3.3V*%
X80700537Y-98745230D03*
%TO.P,C19,2*%
%TO.N,GND*%
X80700537Y-97785230D03*
%TD*%
D42*
%TO.P,C21,1*%
%TO.N,NRST*%
X81260023Y-96526186D03*
%TO.P,C21,2*%
%TO.N,GND*%
X80300023Y-96526186D03*
%TD*%
D43*
%TO.P,C7,1*%
%TO.N,Net-(C7-Pad1)*%
X76241586Y-85765238D03*
%TO.P,C7,2*%
%TO.N,GND*%
X76241586Y-86725238D03*
%TD*%
D44*
%TO.P,FB1,1*%
%TO.N,BUCK_IN*%
X112285503Y-99267500D03*
%TO.P,FB1,2*%
%TO.N,Net-(F2-Pad2)*%
X112285503Y-101392500D03*
%TD*%
D41*
%TO.P,H4,1,1*%
%TO.N,GND*%
X134620000Y-116840000D03*
D40*
X136900419Y-114559581D03*
X136900419Y-119120419D03*
X134620000Y-113615000D03*
X132339581Y-119120419D03*
X131395000Y-116840000D03*
X132339581Y-114559581D03*
X134620000Y-120065000D03*
X137845000Y-116840000D03*
%TD*%
D31*
%TO.P,R13,1*%
%TO.N,I2C1_SCL*%
X85526143Y-84872849D03*
%TO.P,R13,2*%
%TO.N,+3.3V*%
X85526143Y-85892849D03*
%TD*%
D45*
%TO.P,C5,1*%
%TO.N,GND*%
X76337132Y-83982082D03*
%TO.P,C5,2*%
%TO.N,+3.3V*%
X76337132Y-82432082D03*
%TD*%
D16*
%TO.P,R9,1*%
%TO.N,SWDIO*%
X95269215Y-90927551D03*
%TO.P,R9,2*%
%TO.N,Net-(J4-Pad2)*%
X95269215Y-89907551D03*
%TD*%
D40*
%TO.P,H1,1,1*%
%TO.N,GND*%
X61219581Y-119120419D03*
X63500000Y-120065000D03*
X61219581Y-114559581D03*
X65780419Y-114559581D03*
D41*
X63500000Y-116840000D03*
D40*
X63500000Y-113615000D03*
X60275000Y-116840000D03*
X65780419Y-119120419D03*
X66725000Y-116840000D03*
%TD*%
D46*
%TO.P,U2,1,I/O1*%
%TO.N,USB_CONN_D-*%
X129407500Y-106076291D03*
%TO.P,U2,2,GND*%
%TO.N,GND*%
X129407500Y-105126291D03*
%TO.P,U2,3,I/O2*%
%TO.N,USB_CONN_D+*%
X129407500Y-104176291D03*
%TO.P,U2,4,I/O2*%
%TO.N,USB_D+*%
X127132500Y-104176291D03*
%TO.P,U2,5,VBUS*%
%TO.N,+5V*%
X127132500Y-105126291D03*
%TO.P,U2,6,I/O1*%
%TO.N,USB_D-*%
X127132500Y-106076291D03*
%TD*%
D16*
%TO.P,R7,1*%
%TO.N,SWO*%
X88900000Y-88682400D03*
%TO.P,R7,2*%
%TO.N,Net-(J4-Pad6)*%
X88900000Y-87662400D03*
%TD*%
D18*
%TO.P,C20,1*%
%TO.N,+3.3V*%
X79349232Y-98744453D03*
%TO.P,C20,2*%
%TO.N,GND*%
X79349232Y-97784453D03*
%TD*%
D37*
%TO.P,C2,1*%
%TO.N,+3.3V*%
X120008151Y-93813219D03*
%TO.P,C2,2*%
%TO.N,GND*%
X120008151Y-96763219D03*
%TD*%
D42*
%TO.P,C14,1*%
%TO.N,Net-(C14-Pad1)*%
X78171837Y-97197715D03*
%TO.P,C14,2*%
%TO.N,GND*%
X77211837Y-97197715D03*
%TD*%
D47*
%TO.P,D4,1,K*%
%TO.N,Net-(D4-Pad1)*%
X74447500Y-106680000D03*
%TO.P,D4,2,A*%
%TO.N,+3.3V*%
X72872500Y-106680000D03*
%TD*%
D13*
%TO.P,J7,1,Pin_1*%
%TO.N,GND*%
X78740000Y-116840000D03*
D14*
%TO.P,J7,2,Pin_2*%
%TO.N,I2C2_SDA*%
X76200000Y-116840000D03*
%TO.P,J7,3,Pin_3*%
%TO.N,I2C2_SCL*%
X73660000Y-116840000D03*
%TO.P,J7,4,Pin_4*%
%TO.N,+3.3V*%
X71120000Y-116840000D03*
%TD*%
D36*
%TO.P,C16,1*%
%TO.N,Net-(C16-Pad1)*%
X96682122Y-92710000D03*
%TO.P,C16,2*%
%TO.N,GND*%
X98232122Y-92710000D03*
%TD*%
D37*
%TO.P,C3,1*%
%TO.N,BUCK_BST*%
X104421734Y-92197603D03*
%TO.P,C3,2*%
%TO.N,BUCK_SW*%
X104421734Y-95147603D03*
%TD*%
D48*
%TO.P,U3,1,CLKIN*%
%TO.N,GND*%
X81687447Y-83475068D03*
%TO.P,U3,2,NC*%
%TO.N,unconnected-(U3-Pad2)*%
X81187447Y-83475068D03*
%TO.P,U3,3,NC*%
%TO.N,unconnected-(U3-Pad3)*%
X80687447Y-83475068D03*
%TO.P,U3,4,NC*%
%TO.N,unconnected-(U3-Pad4)*%
X80187447Y-83475068D03*
%TO.P,U3,5,NC*%
%TO.N,unconnected-(U3-Pad5)*%
X79687447Y-83475068D03*
%TO.P,U3,6,AUX_SDA*%
%TO.N,unconnected-(U3-Pad6)*%
X79187447Y-83475068D03*
D49*
%TO.P,U3,7,AUX_SCL*%
%TO.N,unconnected-(U3-Pad7)*%
X78487447Y-84175068D03*
%TO.P,U3,8,VDDIO*%
%TO.N,+3.3V*%
X78487447Y-84675068D03*
%TO.P,U3,9,AD0*%
%TO.N,GND*%
X78487447Y-85175068D03*
%TO.P,U3,10,REGOUT*%
%TO.N,Net-(C7-Pad1)*%
X78487447Y-85675068D03*
%TO.P,U3,11,FSYNC*%
%TO.N,GND*%
X78487447Y-86175068D03*
%TO.P,U3,12,INT*%
%TO.N,IMU_IINT*%
X78487447Y-86675068D03*
D48*
%TO.P,U3,13,VDD*%
%TO.N,+3.3V*%
X79187447Y-87375068D03*
%TO.P,U3,14,NC*%
%TO.N,unconnected-(U3-Pad14)*%
X79687447Y-87375068D03*
%TO.P,U3,15,NC*%
%TO.N,unconnected-(U3-Pad15)*%
X80187447Y-87375068D03*
%TO.P,U3,16,NC*%
%TO.N,unconnected-(U3-Pad16)*%
X80687447Y-87375068D03*
%TO.P,U3,17,NC*%
%TO.N,unconnected-(U3-Pad17)*%
X81187447Y-87375068D03*
%TO.P,U3,18,GND*%
%TO.N,GND*%
X81687447Y-87375068D03*
D49*
%TO.P,U3,19,NC*%
%TO.N,unconnected-(U3-Pad19)*%
X82387447Y-86675068D03*
%TO.P,U3,20,CPOUT*%
%TO.N,Net-(C8-Pad1)*%
X82387447Y-86175068D03*
%TO.P,U3,21,NC*%
%TO.N,unconnected-(U3-Pad21)*%
X82387447Y-85675068D03*
%TO.P,U3,22,NC*%
%TO.N,unconnected-(U3-Pad22)*%
X82387447Y-85175068D03*
%TO.P,U3,23,SCL*%
%TO.N,I2C1_SCL*%
X82387447Y-84675068D03*
%TO.P,U3,24,SDA*%
%TO.N,I2C1_SDA*%
X82387447Y-84175068D03*
%TD*%
D40*
%TO.P,H3,1,1*%
%TO.N,GND*%
X131395000Y-76200000D03*
X136900419Y-73919581D03*
X132339581Y-78480419D03*
X132339581Y-73919581D03*
X137845000Y-76200000D03*
X136900419Y-78480419D03*
X134620000Y-79425000D03*
D41*
X134620000Y-76200000D03*
D40*
X134620000Y-72975000D03*
%TD*%
D50*
%TO.P,J3,1,VBUS*%
%TO.N,+5V*%
X135514065Y-107050371D03*
%TO.P,J3,2,D-*%
%TO.N,USB_CONN_D-*%
X135514065Y-106400371D03*
%TO.P,J3,3,D+*%
%TO.N,USB_CONN_D+*%
X135514065Y-105750371D03*
%TO.P,J3,4,ID*%
%TO.N,unconnected-(J3-Pad4)*%
X135514065Y-105100371D03*
%TO.P,J3,5,GND*%
%TO.N,GND*%
X135514065Y-104450371D03*
D51*
%TO.P,J3,6,Shield*%
%TO.N,unconnected-(J3-Pad6)*%
X138214065Y-102850371D03*
D52*
X138214065Y-104750371D03*
D53*
X135514065Y-108250371D03*
D51*
X138214065Y-108650371D03*
D52*
X138214065Y-106750371D03*
D53*
X135514065Y-103250371D03*
D54*
X138214065Y-109250371D03*
X138214065Y-102250371D03*
%TD*%
D37*
%TO.P,C4,1*%
%TO.N,+3.3V*%
X123343676Y-93839429D03*
%TO.P,C4,2*%
%TO.N,GND*%
X123343676Y-96789429D03*
%TD*%
D28*
%TO.P,C18,1*%
%TO.N,+3.3V*%
X77755465Y-100330000D03*
%TO.P,C18,2*%
%TO.N,GND*%
X78715465Y-100330000D03*
%TD*%
D29*
%TO.P,D2,1,K*%
%TO.N,BUCK_SW*%
X108438259Y-94010085D03*
%TO.P,D2,2,A*%
%TO.N,GND*%
X108438259Y-97310085D03*
%TD*%
D42*
%TO.P,C12,1*%
%TO.N,+3.3V*%
X86385796Y-104052653D03*
%TO.P,C12,2*%
%TO.N,GND*%
X85425796Y-104052653D03*
%TD*%
D24*
%TO.P,R1,1*%
%TO.N,+3.3V*%
X98339888Y-90873566D03*
%TO.P,R1,2*%
%TO.N,BUCK_FB*%
X99989888Y-90873566D03*
%TD*%
D42*
%TO.P,C6,1*%
%TO.N,+3.3V*%
X80010000Y-89897047D03*
%TO.P,C6,2*%
%TO.N,GND*%
X79050000Y-89897047D03*
%TD*%
D55*
%TO.N,GND*%
X80348754Y-92239112D03*
X102348839Y-117901535D03*
X102322781Y-115803865D03*
X107073591Y-103055301D03*
X79567013Y-118125528D03*
X123538752Y-97790000D03*
X96896528Y-89297056D03*
X122235851Y-97607593D03*
X78820548Y-91252063D03*
X76224214Y-87426535D03*
X118761450Y-97433873D03*
X77812441Y-115623959D03*
X100772330Y-115869010D03*
X94822551Y-105346414D03*
X104974512Y-97529419D03*
X134561236Y-103897029D03*
X84939935Y-88180234D03*
X127119229Y-99880171D03*
X109474393Y-97705639D03*
X83875271Y-104664315D03*
X100850504Y-117862448D03*
X95773668Y-102831816D03*
X79575699Y-115597901D03*
X77200733Y-97928976D03*
X116840000Y-78740000D03*
X126454750Y-97964907D03*
X109424603Y-103016696D03*
X77881929Y-118099470D03*
X79272741Y-106622093D03*
X98262234Y-93597588D03*
X81682451Y-82589482D03*
X81708509Y-88236090D03*
X78377031Y-89885205D03*
X107415810Y-97627465D03*
X101087219Y-91780596D03*
X79428037Y-100321313D03*
X104140000Y-76200000D03*
X118110000Y-78740000D03*
X75442474Y-83926075D03*
X88450499Y-77470000D03*
X120865306Y-97710841D03*
X114300000Y-78740000D03*
X104461382Y-87909795D03*
X79328804Y-97043003D03*
X104140000Y-73660000D03*
X133612423Y-103889070D03*
%TO.N,+3.3V*%
X99060000Y-118110000D03*
X72023875Y-106653941D03*
X96520000Y-76200000D03*
X69850000Y-116840000D03*
X115908754Y-92350718D03*
X97790000Y-116840000D03*
X71120000Y-118110000D03*
X123352534Y-92859505D03*
X80244522Y-99365853D03*
X96520000Y-116840000D03*
X77062809Y-100332661D03*
X115921783Y-95607969D03*
X124642406Y-93849709D03*
X99060000Y-115570000D03*
X119530817Y-92832791D03*
X77045437Y-101571865D03*
X86132320Y-82073582D03*
X96520000Y-73660000D03*
X81814585Y-90482696D03*
X98303661Y-89974564D03*
X93132073Y-103172175D03*
X95250000Y-74930000D03*
X83414735Y-89193302D03*
X117511321Y-92311631D03*
X77906230Y-112941209D03*
X75442474Y-82414710D03*
X78620239Y-98749147D03*
X86371581Y-104780747D03*
X79122184Y-88216701D03*
X72056776Y-112875495D03*
X117602524Y-95634027D03*
X120690399Y-92832791D03*
X95250000Y-118110000D03*
X95250000Y-115570000D03*
X83949238Y-77470000D03*
X85506928Y-86591626D03*
X97521921Y-90886595D03*
X80708567Y-89938373D03*
X119380000Y-78740000D03*
X71120000Y-115570000D03*
%TO.N,GPIO_IN4*%
X102870000Y-110490000D03*
X110947871Y-111302129D03*
%TO.N,unconnected-(J3-Pad6)*%
X135514065Y-103250371D03*
X137160000Y-101600000D03*
%TO.N,Net-(J4-Pad4)*%
X107950000Y-76200000D03*
X110490000Y-76200000D03*
%TO.N,Net-(J4-Pad6)*%
X90170000Y-87630000D03*
X92710000Y-85090000D03*
%TO.N,I2C1_SCL*%
X88900000Y-85090000D03*
X86900500Y-85108825D03*
%TO.N,/SW_BOOT*%
X86648639Y-86737181D03*
X90170000Y-86360000D03*
%TO.N,I2C2_SCL*%
X86111470Y-106431470D03*
X90170000Y-105410000D03*
%TO.N,I2C2_SDA*%
X84841470Y-107701470D03*
X91440000Y-107950000D03*
%TD*%
D56*
%TO.N,BUCK_IN*%
X108312397Y-99267500D02*
X108249667Y-99330230D01*
X112285503Y-99267500D02*
X108312397Y-99267500D01*
D57*
X105938658Y-97048658D02*
X105410000Y-96520000D01*
X105938658Y-99232047D02*
X108151484Y-99232047D01*
X105410000Y-96520000D02*
X101851523Y-96520000D01*
X105938658Y-99232047D02*
X105938658Y-97048658D01*
X100907123Y-95575600D02*
X100907123Y-95155993D01*
X101851523Y-96520000D02*
X100907123Y-95575600D01*
X108151484Y-99232047D02*
X108249667Y-99330230D01*
D58*
%TO.N,GND*%
X100907123Y-92880993D02*
X100907123Y-91960692D01*
D59*
X104140000Y-74920000D02*
X104130000Y-74930000D01*
X124134380Y-96789429D02*
X126462206Y-99117255D01*
D56*
X77881929Y-118099470D02*
X77881929Y-117698071D01*
X107098205Y-103055301D02*
X107085898Y-103042994D01*
X122235851Y-97607593D02*
X123356345Y-97607593D01*
X102322781Y-117875477D02*
X102348839Y-117901535D01*
D57*
X104461382Y-88743822D02*
X104452696Y-88752508D01*
D56*
X108249667Y-102280230D02*
X107848662Y-102280230D01*
D57*
X85650000Y-89767271D02*
X85067345Y-89184616D01*
D56*
X77881929Y-118099470D02*
X77881929Y-115981929D01*
D59*
X126462206Y-99117255D02*
X126462206Y-97972363D01*
D57*
X85425796Y-104180223D02*
X84009797Y-105596222D01*
X85650000Y-102195000D02*
X85650000Y-103828449D01*
D59*
X120008151Y-96763219D02*
X119432104Y-96763219D01*
D56*
X108438259Y-97310085D02*
X109078839Y-97310085D01*
D57*
X78517265Y-93122981D02*
X78517265Y-91647227D01*
X134561236Y-103897029D02*
X135114578Y-104450371D01*
X85650000Y-103828449D02*
X85425796Y-104052653D01*
D56*
X77907987Y-118125528D02*
X77881929Y-118099470D01*
X79567013Y-118125528D02*
X79567013Y-117667013D01*
D59*
X127337476Y-99117255D02*
X126462206Y-99117255D01*
D56*
X108438259Y-97310085D02*
X107733190Y-97310085D01*
X107733190Y-97310085D02*
X107415810Y-97627465D01*
D58*
X78388873Y-89897047D02*
X78377031Y-89885205D01*
D57*
X81687447Y-87375068D02*
X81687447Y-88215028D01*
D56*
X102322781Y-116117219D02*
X101600000Y-116840000D01*
D57*
X78810119Y-91262492D02*
X78820548Y-91252063D01*
D59*
X120865306Y-97710841D02*
X119038418Y-97710841D01*
X134648944Y-93666594D02*
X132788137Y-93666594D01*
X127119229Y-99880171D02*
X127119229Y-98629386D01*
D57*
X130810000Y-102870000D02*
X129344184Y-102870000D01*
D58*
X98262234Y-93597588D02*
X98262234Y-92740112D01*
X80348754Y-91446842D02*
X80284265Y-91382353D01*
D56*
X100772330Y-116012330D02*
X101600000Y-116840000D01*
X79549641Y-115623959D02*
X79575699Y-115597901D01*
X100850504Y-117589496D02*
X101600000Y-116840000D01*
D59*
X104140000Y-73660000D02*
X104140000Y-74920000D01*
D56*
X100850504Y-117862448D02*
X100850504Y-117589496D01*
D57*
X80300023Y-97384716D02*
X80700537Y-97785230D01*
D56*
X122525512Y-97607593D02*
X123343676Y-96789429D01*
D57*
X78724152Y-100321313D02*
X78715465Y-100330000D01*
X85067345Y-88307644D02*
X85067345Y-89184616D01*
D56*
X102322781Y-115803865D02*
X102322781Y-117875477D01*
X79567013Y-117667013D02*
X78740000Y-116840000D01*
X77881929Y-117698071D02*
X78740000Y-116840000D01*
X102348839Y-117901535D02*
X102348839Y-117588839D01*
X79575699Y-116004301D02*
X78740000Y-116840000D01*
D59*
X120008151Y-96763219D02*
X120008151Y-96853686D01*
X120034361Y-96789429D02*
X120008151Y-96763219D01*
D57*
X84448851Y-87689150D02*
X84121833Y-87689150D01*
D56*
X123538752Y-96984505D02*
X123343676Y-96789429D01*
D57*
X77961406Y-86175068D02*
X77411236Y-86725238D01*
D56*
X108688137Y-102280230D02*
X109424603Y-103016696D01*
D57*
X135514065Y-104450371D02*
X132390371Y-104450371D01*
D56*
X109424603Y-103016696D02*
X109385998Y-103055301D01*
X77812441Y-115912441D02*
X78740000Y-116840000D01*
D57*
X84009797Y-105596222D02*
X84009797Y-104798841D01*
D56*
X102309752Y-117862448D02*
X102348839Y-117901535D01*
D57*
X79349232Y-97063431D02*
X79328804Y-97043003D01*
D56*
X109078839Y-97310085D02*
X109474393Y-97705639D01*
D57*
X78487447Y-86175068D02*
X77961406Y-86175068D01*
X84009797Y-104798841D02*
X83875271Y-104664315D01*
D59*
X116840000Y-77260000D02*
X116840000Y-78740000D01*
D58*
X79050000Y-89897047D02*
X78388873Y-89897047D01*
D57*
X79428037Y-100321313D02*
X78724152Y-100321313D01*
D56*
X79567013Y-118125528D02*
X77907987Y-118125528D01*
D57*
X79349232Y-97784453D02*
X79349232Y-97063431D01*
X76224214Y-87426535D02*
X76224214Y-86742610D01*
X95099979Y-102831816D02*
X95062693Y-102869102D01*
D56*
X122235851Y-97607593D02*
X122525512Y-97607593D01*
D57*
X80743502Y-97785230D02*
X80700537Y-97785230D01*
D56*
X100850504Y-117862448D02*
X102309752Y-117862448D01*
X100772330Y-115869010D02*
X100772330Y-116012330D01*
D57*
X80700537Y-97785230D02*
X79350009Y-97785230D01*
X95773668Y-102831816D02*
X95099979Y-102831816D01*
D56*
X79575699Y-117658327D02*
X79567013Y-117667013D01*
X109396219Y-97627465D02*
X109474393Y-97705639D01*
D58*
X84939935Y-88180234D02*
X84448851Y-87689150D01*
D57*
X77411236Y-86725238D02*
X76241586Y-86725238D01*
X76337132Y-83982082D02*
X75498481Y-83982082D01*
X77530118Y-85175068D02*
X76337132Y-83982082D01*
D59*
X120008151Y-96853686D02*
X120865306Y-97710841D01*
D57*
X81687447Y-82594478D02*
X81682451Y-82589482D01*
D56*
X123356345Y-97607593D02*
X123538752Y-97790000D01*
X107848662Y-102280230D02*
X107085898Y-103042994D01*
D59*
X104130000Y-74930000D02*
X104130000Y-76190000D01*
D56*
X107415810Y-97627465D02*
X109396219Y-97627465D01*
X123538752Y-97790000D02*
X123538752Y-96984505D01*
D57*
X77211837Y-95717553D02*
X76817265Y-95322981D01*
X78487447Y-85175068D02*
X77530118Y-85175068D01*
D56*
X102257636Y-115869010D02*
X102322781Y-115803865D01*
D57*
X75498481Y-83982082D02*
X75442474Y-83926075D01*
D59*
X104130000Y-76190000D02*
X104140000Y-76200000D01*
D57*
X104961483Y-97516390D02*
X104974512Y-97529419D01*
X84189160Y-87756477D02*
X84121833Y-87689150D01*
X85425796Y-104052653D02*
X85425796Y-104180223D01*
D58*
X133612423Y-103889070D02*
X134553277Y-103889070D01*
D57*
X128395000Y-104533398D02*
X128987893Y-105126291D01*
X96896528Y-89613139D02*
X96520000Y-89989667D01*
X77211837Y-97197715D02*
X77211837Y-97917872D01*
X104461382Y-87909795D02*
X104461382Y-88743822D01*
X81687447Y-88215028D02*
X81708509Y-88236090D01*
D56*
X79575699Y-115597901D02*
X79575699Y-116004301D01*
D59*
X118110000Y-77260000D02*
X118110000Y-78740000D01*
D58*
X134553277Y-103889070D02*
X134561236Y-103897029D01*
D56*
X108249667Y-102280230D02*
X108688137Y-102280230D01*
D59*
X123343676Y-96789429D02*
X120034361Y-96789429D01*
X119038418Y-97710841D02*
X118761450Y-97433873D01*
D56*
X77812441Y-115623959D02*
X79549641Y-115623959D01*
D59*
X88450499Y-76370809D02*
X88461308Y-76360000D01*
X119432104Y-96763219D02*
X118761450Y-97433873D01*
D57*
X81228272Y-98270000D02*
X80743502Y-97785230D01*
D56*
X77812441Y-115623959D02*
X77812441Y-115912441D01*
D57*
X132390371Y-104450371D02*
X130810000Y-102870000D01*
X76224214Y-86742610D02*
X76241586Y-86725238D01*
X129344184Y-102870000D02*
X128395000Y-103819184D01*
D56*
X109385998Y-103055301D02*
X107098205Y-103055301D01*
D57*
X81687447Y-83475068D02*
X81687447Y-82594478D01*
X78517265Y-91647227D02*
X78132530Y-91262492D01*
D59*
X132788137Y-93666594D02*
X127337476Y-99117255D01*
D57*
X94822551Y-105346414D02*
X94822551Y-104461008D01*
D59*
X88450499Y-77470000D02*
X88450499Y-76370809D01*
D57*
X85650000Y-90845000D02*
X85650000Y-89767271D01*
X84939935Y-88180234D02*
X85067345Y-88307644D01*
D58*
X80348754Y-92239112D02*
X80348754Y-91446842D01*
D57*
X78512907Y-106622093D02*
X78495000Y-106640000D01*
X83225000Y-98270000D02*
X81228272Y-98270000D01*
D56*
X100772330Y-115869010D02*
X100772330Y-117784274D01*
D57*
X79272741Y-106622093D02*
X78512907Y-106622093D01*
X79350009Y-97785230D02*
X79349232Y-97784453D01*
D59*
X123343676Y-96789429D02*
X124134380Y-96789429D01*
D57*
X128395000Y-103819184D02*
X128395000Y-104533398D01*
D56*
X79575699Y-115597901D02*
X79575699Y-117658327D01*
D57*
X128987893Y-105126291D02*
X129407500Y-105126291D01*
D59*
X126462206Y-97972363D02*
X126454750Y-97964907D01*
D57*
X77211837Y-97197715D02*
X77211837Y-95717553D01*
X104131799Y-97516390D02*
X104961483Y-97516390D01*
D59*
X127119229Y-98629386D02*
X126454750Y-97964907D01*
D56*
X77881929Y-115981929D02*
X77812441Y-115912441D01*
D57*
X77211837Y-97917872D02*
X77200733Y-97928976D01*
X96896528Y-89297056D02*
X96896528Y-89613139D01*
D56*
X102322781Y-115803865D02*
X102322781Y-116117219D01*
D57*
X94822551Y-104461008D02*
X94815551Y-104454008D01*
X80300023Y-96526186D02*
X80300023Y-97384716D01*
D59*
X114300000Y-77260000D02*
X114300000Y-78740000D01*
D56*
X102348839Y-117588839D02*
X101600000Y-116840000D01*
D57*
X78132530Y-91262492D02*
X78810119Y-91262492D01*
X135114578Y-104450371D02*
X135514065Y-104450371D01*
D58*
X100907123Y-91960692D02*
X101087219Y-91780596D01*
X98232122Y-92710000D02*
X98262234Y-92740112D01*
D56*
X100772330Y-117784274D02*
X100850504Y-117862448D01*
X100772330Y-115869010D02*
X102257636Y-115869010D01*
D57*
%TO.N,+3.3V*%
X83221912Y-92770000D02*
X81834265Y-91382353D01*
X77906230Y-112941209D02*
X77227386Y-112941209D01*
D59*
X116875503Y-94654249D02*
X115921783Y-95607969D01*
D56*
X120690399Y-93130971D02*
X120008151Y-93813219D01*
D57*
X84107345Y-89184616D02*
X83423421Y-89184616D01*
X75459846Y-82432082D02*
X75442474Y-82414710D01*
X76337132Y-82432082D02*
X75459846Y-82432082D01*
D59*
X96520000Y-73660000D02*
X96520000Y-74920000D01*
X96520000Y-74920000D02*
X96510000Y-74930000D01*
D57*
X79122184Y-88216701D02*
X79122184Y-87440331D01*
D59*
X115908754Y-95594940D02*
X115921783Y-95607969D01*
X119841370Y-93980000D02*
X120008151Y-93813219D01*
D56*
X97790000Y-116840000D02*
X99060000Y-115570000D01*
D59*
X86131664Y-82755939D02*
X86131664Y-82074238D01*
X98339888Y-90873566D02*
X97534950Y-90873566D01*
D57*
X77470000Y-84407844D02*
X77470000Y-83564950D01*
X94699667Y-92770000D02*
X94575000Y-92770000D01*
D56*
X119530817Y-92832791D02*
X119530817Y-93335885D01*
D57*
X85526143Y-85892849D02*
X85526143Y-86572411D01*
D58*
X77755465Y-100330000D02*
X77065470Y-100330000D01*
D59*
X115908754Y-92350718D02*
X115908754Y-95594940D01*
X117576466Y-95607969D02*
X117602524Y-95634027D01*
D57*
X96520000Y-90949667D02*
X94699667Y-92770000D01*
X77470000Y-83564950D02*
X76337132Y-82432082D01*
D56*
X96520000Y-116840000D02*
X95250000Y-116840000D01*
D59*
X117472234Y-92350718D02*
X117511321Y-92311631D01*
X116875503Y-93980000D02*
X119841370Y-93980000D01*
X98303661Y-89974564D02*
X98303661Y-90104855D01*
D56*
X96520000Y-116840000D02*
X95250000Y-118110000D01*
D57*
X79122184Y-87440331D02*
X79187447Y-87375068D01*
D56*
X71120000Y-115570000D02*
X71120000Y-116840000D01*
D59*
X98303661Y-90104855D02*
X97521921Y-90886595D01*
D57*
X86150000Y-103816857D02*
X86385796Y-104052653D01*
D56*
X119530817Y-93335885D02*
X120008151Y-93813219D01*
D57*
X86150000Y-102195000D02*
X86150000Y-103816857D01*
D59*
X115921783Y-95607969D02*
X117576466Y-95607969D01*
D57*
X86385796Y-104052653D02*
X86385796Y-104766532D01*
D59*
X116875503Y-92947449D02*
X117511321Y-92311631D01*
D56*
X71120000Y-115570000D02*
X69850000Y-116840000D01*
D59*
X116875503Y-94907006D02*
X117602524Y-95634027D01*
D56*
X71120000Y-118110000D02*
X71120000Y-116840000D01*
D59*
X72049934Y-106680000D02*
X72023875Y-106653941D01*
D57*
X77227386Y-112941209D02*
X77213788Y-112927611D01*
X93132073Y-103172175D02*
X93012175Y-103172175D01*
D59*
X98339888Y-90873566D02*
X98339888Y-90010791D01*
X97534950Y-90873566D02*
X97521921Y-90886595D01*
D56*
X123352534Y-93830571D02*
X123343676Y-93839429D01*
D59*
X115908754Y-92350718D02*
X117472234Y-92350718D01*
X120008151Y-93813219D02*
X123317466Y-93813219D01*
D57*
X80708567Y-89938373D02*
X80051326Y-89938373D01*
D59*
X96520000Y-74940000D02*
X96510000Y-74930000D01*
X116875503Y-93980000D02*
X116875503Y-92947449D01*
D57*
X78487447Y-84675068D02*
X77737224Y-84675068D01*
D59*
X116875503Y-93980000D02*
X116875503Y-94907006D01*
D56*
X119530817Y-92832791D02*
X120690399Y-92832791D01*
D57*
X78624933Y-98744453D02*
X78620239Y-98749147D01*
X77737224Y-84675068D02*
X77470000Y-84407844D01*
D56*
X95250000Y-115570000D02*
X95250000Y-116840000D01*
D57*
X85526143Y-86572411D02*
X85506928Y-86591626D01*
D59*
X97521921Y-90886595D02*
X96583072Y-90886595D01*
D58*
X72117578Y-112936297D02*
X72056776Y-112875495D01*
D56*
X123353956Y-93849709D02*
X123343676Y-93839429D01*
D57*
X80244522Y-99201245D02*
X80700537Y-98745230D01*
D58*
X77729123Y-101571865D02*
X77045437Y-101571865D01*
D56*
X99060000Y-115570000D02*
X99060000Y-116840000D01*
D57*
X86385796Y-104766532D02*
X86371581Y-104780747D01*
X81814585Y-90482696D02*
X81814585Y-91362673D01*
X83225000Y-92770000D02*
X83221912Y-92770000D01*
D56*
X69850000Y-116840000D02*
X71120000Y-118110000D01*
D58*
X72742970Y-112936297D02*
X72117578Y-112936297D01*
D57*
X79349232Y-98744453D02*
X78624933Y-98744453D01*
D59*
X116875503Y-93980000D02*
X116875503Y-94654249D01*
D56*
X99060000Y-118110000D02*
X99060000Y-116840000D01*
D59*
X72872500Y-106680000D02*
X72049934Y-106680000D01*
X96520000Y-76200000D02*
X96520000Y-74940000D01*
X95250000Y-74930000D02*
X96510000Y-74930000D01*
D56*
X69850000Y-116840000D02*
X71120000Y-116840000D01*
D57*
X92650000Y-102195000D02*
X93428591Y-102195000D01*
X80051326Y-89938373D02*
X80010000Y-89897047D01*
D56*
X124642406Y-93849709D02*
X123353956Y-93849709D01*
D59*
X96583072Y-90886595D02*
X96520000Y-90949667D01*
D56*
X95250000Y-118110000D02*
X95250000Y-116840000D01*
D59*
X116875503Y-93980000D02*
X116875503Y-93317467D01*
D57*
X80244522Y-99365853D02*
X80244522Y-99201245D01*
X93012175Y-103172175D02*
X92710000Y-102870000D01*
D56*
X95250000Y-115570000D02*
X96520000Y-116840000D01*
X123652202Y-92859505D02*
X124642406Y-93849709D01*
D59*
X83949238Y-76188418D02*
X83949238Y-77470000D01*
D57*
X85150000Y-90845000D02*
X84107345Y-89802345D01*
D56*
X97790000Y-116840000D02*
X99060000Y-116840000D01*
D59*
X86131664Y-82074238D02*
X86132320Y-82073582D01*
X119380000Y-77260000D02*
X119380000Y-78740000D01*
X123317466Y-93813219D02*
X123343676Y-93839429D01*
D58*
X77065470Y-100330000D02*
X77062809Y-100332661D01*
D59*
X98339888Y-90010791D02*
X98303661Y-89974564D01*
D57*
X81814585Y-91362673D02*
X81834265Y-91382353D01*
D56*
X123352534Y-92859505D02*
X123352534Y-93830571D01*
D57*
X83423421Y-89184616D02*
X83414735Y-89193302D01*
X84107345Y-89802345D02*
X84107345Y-89184616D01*
X93428591Y-102195000D02*
X94102693Y-102869102D01*
D59*
X116875503Y-93317467D02*
X115908754Y-92350718D01*
D56*
X123352534Y-92859505D02*
X123652202Y-92859505D01*
X99060000Y-118110000D02*
X97790000Y-116840000D01*
X120690399Y-92832791D02*
X120690399Y-93130971D01*
D59*
%TO.N,BUCK_BST*%
X102540513Y-92197603D02*
X101857123Y-92880993D01*
X104421734Y-92197603D02*
X102540513Y-92197603D01*
%TO.N,BUCK_SW*%
X112775503Y-93980000D02*
X108468344Y-93980000D01*
X104421734Y-95147603D02*
X101865513Y-95147603D01*
X101865513Y-95147603D02*
X101857123Y-95155993D01*
X108468344Y-93980000D02*
X108438259Y-94010085D01*
X108438259Y-94010085D02*
X105559252Y-94010085D01*
X105559252Y-94010085D02*
X104421734Y-95147603D01*
D57*
%TO.N,Net-(C7-Pad1)*%
X78487447Y-85675068D02*
X76331756Y-85675068D01*
X76331756Y-85675068D02*
X76241586Y-85765238D01*
%TO.N,Net-(C8-Pad1)*%
X84085915Y-86175068D02*
X84121833Y-86139150D01*
X82387447Y-86175068D02*
X84085915Y-86175068D01*
%TO.N,/HSE_IN*%
X81124260Y-94172981D02*
X77662981Y-94172981D01*
X77172530Y-91262492D02*
X77172530Y-92767716D01*
X76817265Y-93327265D02*
X76817265Y-93122981D01*
X77662981Y-94172981D02*
X76817265Y-93327265D01*
X77172530Y-92767716D02*
X76817265Y-93122981D01*
X83225000Y-94770000D02*
X81721279Y-94770000D01*
X81721279Y-94770000D02*
X81124260Y-94172981D01*
%TO.N,Net-(C13-Pad1)*%
X92150000Y-102195000D02*
X92150000Y-103338457D01*
X92150000Y-103338457D02*
X93265551Y-104454008D01*
%TO.N,Net-(C14-Pad1)*%
X78171837Y-95668409D02*
X78517265Y-95322981D01*
X78171837Y-97197715D02*
X78171837Y-95668409D01*
X80234611Y-95309226D02*
X78531020Y-95309226D01*
X78531020Y-95309226D02*
X78517265Y-95322981D01*
%TO.N,Net-(C16-Pad1)*%
X96122122Y-93270000D02*
X96682122Y-92710000D01*
X94575000Y-93270000D02*
X96122122Y-93270000D01*
%TO.N,NRST*%
X93921369Y-90949672D02*
X93921369Y-90386847D01*
X83225000Y-95770000D02*
X88380000Y-95770000D01*
X83225000Y-95770000D02*
X82016209Y-95770000D01*
X88380000Y-95770000D02*
X92180000Y-91970000D01*
X92901041Y-91970000D02*
X93921369Y-90949672D01*
X92180000Y-91970000D02*
X92901041Y-91970000D01*
X82016209Y-95770000D02*
X81260023Y-96526186D01*
D59*
%TO.N,Net-(D1-Pad1)*%
X120727845Y-99343495D02*
X116875317Y-99343495D01*
X124562206Y-99117255D02*
X120954085Y-99117255D01*
X116875317Y-99343495D02*
X116840000Y-99378812D01*
X120954085Y-99117255D02*
X120727845Y-99343495D01*
D57*
%TO.N,+5V*%
X127132500Y-105126291D02*
X127552107Y-105126291D01*
X135297675Y-101717255D02*
X128387255Y-101717255D01*
X127461015Y-102643495D02*
X120727845Y-102643495D01*
X128270000Y-106797518D02*
X128633038Y-107160556D01*
X136489065Y-107050371D02*
X137089065Y-106450371D01*
X137089065Y-103508645D02*
X135297675Y-101717255D01*
X128270000Y-105844184D02*
X128270000Y-106797518D01*
X128633038Y-107160556D02*
X135403880Y-107160556D01*
X135514065Y-107050371D02*
X136489065Y-107050371D01*
X135403880Y-107160556D02*
X135514065Y-107050371D01*
X127552107Y-105126291D02*
X128270000Y-105844184D01*
X137089065Y-106450371D02*
X137089065Y-103508645D01*
X128387255Y-101717255D02*
X127461015Y-102643495D01*
%TO.N,Net-(D3-Pad1)*%
X82359797Y-103887878D02*
X82117703Y-103645784D01*
X82359797Y-105596222D02*
X82359797Y-103887878D01*
%TO.N,LED_STATUS*%
X83225000Y-100963487D02*
X82117703Y-102070784D01*
X83225000Y-100270000D02*
X83225000Y-100963487D01*
D59*
%TO.N,+12V*%
X130823283Y-100992255D02*
X125512206Y-100992255D01*
X134648944Y-97166594D02*
X130823283Y-100992255D01*
D57*
%TO.N,GPIO_IN1*%
X97040000Y-95770000D02*
X110490000Y-109220000D01*
X94575000Y-95770000D02*
X97040000Y-95770000D01*
X120794212Y-109220000D02*
X127000000Y-115425788D01*
X127000000Y-115425788D02*
X127000000Y-116840000D01*
X110490000Y-109220000D02*
X120794212Y-109220000D01*
%TO.N,GPIO_IN2*%
X120587106Y-109720000D02*
X124460000Y-113592894D01*
X110282894Y-109720000D02*
X120587106Y-109720000D01*
X94575000Y-96270000D02*
X96832894Y-96270000D01*
X96832894Y-96270000D02*
X110282894Y-109720000D01*
X124460000Y-113592894D02*
X124460000Y-116840000D01*
%TO.N,GPIO_IN3*%
X96625788Y-96770000D02*
X110075788Y-110220000D01*
X121920000Y-111760000D02*
X121920000Y-116840000D01*
X110075788Y-110220000D02*
X120380000Y-110220000D01*
X120380000Y-110220000D02*
X121920000Y-111760000D01*
X94575000Y-96770000D02*
X96625788Y-96770000D01*
%TO.N,GPIO_IN4*%
X95812894Y-101600000D02*
X93980000Y-101600000D01*
X92710000Y-97790000D02*
X93230000Y-97270000D01*
X93980000Y-101600000D02*
X92710000Y-100330000D01*
X92710000Y-100330000D02*
X92710000Y-97790000D01*
X102870000Y-110490000D02*
X102870000Y-108657106D01*
X93230000Y-97270000D02*
X94575000Y-97270000D01*
X119380000Y-116840000D02*
X113842129Y-111302129D01*
X113842129Y-111302129D02*
X110947871Y-111302129D01*
X102870000Y-108657106D02*
X95812894Y-101600000D01*
%TO.N,GPIO_IN5*%
X94575000Y-97770000D02*
X96355788Y-97770000D01*
X96355788Y-97770000D02*
X112885788Y-114300000D01*
X114300000Y-114300000D02*
X116840000Y-116840000D01*
X112885788Y-114300000D02*
X114300000Y-114300000D01*
%TO.N,GPIO_OUT1*%
X94575000Y-98270000D02*
X96148682Y-98270000D01*
X114300000Y-116421318D02*
X114300000Y-116840000D01*
X96148682Y-98270000D02*
X114300000Y-116421318D01*
%TO.N,GPIO_OUT2*%
X95941576Y-98770000D02*
X111760000Y-114588424D01*
X94575000Y-98770000D02*
X95941576Y-98770000D01*
X111760000Y-114588424D02*
X111760000Y-116840000D01*
%TO.N,GPIO_OUT3*%
X95734470Y-99270000D02*
X109220000Y-112755530D01*
X94575000Y-99270000D02*
X95734470Y-99270000D01*
X109220000Y-112755530D02*
X109220000Y-116840000D01*
%TO.N,GPIO_OUT4*%
X95527364Y-99770000D02*
X106680000Y-110922636D01*
X94575000Y-99770000D02*
X95527364Y-99770000D01*
X106680000Y-110922636D02*
X106680000Y-116840000D01*
%TO.N,GPIO_OUT5*%
X104140000Y-109220000D02*
X104140000Y-116840000D01*
X95190000Y-100270000D02*
X104140000Y-109220000D01*
X94575000Y-100270000D02*
X95190000Y-100270000D01*
D60*
%TO.N,USB_CONN_D-*%
X130650863Y-106076291D02*
X131254572Y-106680000D01*
X131254572Y-106680000D02*
X134221935Y-106680000D01*
X129407500Y-106076291D02*
X130650863Y-106076291D01*
X134221935Y-106680000D02*
X134501564Y-106400371D01*
X134501564Y-106400371D02*
X135514065Y-106400371D01*
%TO.N,USB_CONN_D+*%
X134501564Y-105750371D02*
X135514065Y-105750371D01*
X134161193Y-105410000D02*
X134501564Y-105750371D01*
X129407500Y-104176291D02*
X129799609Y-104176291D01*
X129799609Y-104176291D02*
X131033318Y-105410000D01*
X131033318Y-105410000D02*
X134161193Y-105410000D01*
D57*
%TO.N,unconnected-(J3-Pad6)*%
X138214065Y-102250371D02*
X137810371Y-102250371D01*
X137214065Y-108250371D02*
X138214065Y-109250371D01*
X138214065Y-106750371D02*
X138214065Y-104750371D01*
X138214065Y-108650371D02*
X138214065Y-106750371D01*
X138214065Y-104750371D02*
X138214065Y-102850371D01*
X135514065Y-108250371D02*
X137214065Y-108250371D01*
X137810371Y-102250371D02*
X137160000Y-101600000D01*
%TO.N,Net-(J4-Pad2)*%
X95250000Y-88900000D02*
X95250000Y-89888336D01*
X97790000Y-86360000D02*
X95250000Y-88900000D01*
X95250000Y-89888336D02*
X95269215Y-89907551D01*
X119380000Y-73660000D02*
X120650000Y-74930000D01*
X115570000Y-86360000D02*
X97790000Y-86360000D01*
X120650000Y-81280000D02*
X115570000Y-86360000D01*
X120650000Y-74930000D02*
X120650000Y-81280000D01*
%TO.N,Net-(J4-Pad4)*%
X117565000Y-75060000D02*
X118110000Y-74515000D01*
X114170000Y-75060000D02*
X117565000Y-75060000D01*
X110490000Y-76200000D02*
X113030000Y-76200000D01*
X113030000Y-76200000D02*
X114170000Y-75060000D01*
X106381110Y-76200000D02*
X107950000Y-76200000D01*
X95520069Y-87061041D02*
X106381110Y-76200000D01*
X118110000Y-74515000D02*
X118110000Y-73660000D01*
X92710000Y-87061041D02*
X95520069Y-87061041D01*
%TO.N,Net-(J4-Pad6)*%
X92710000Y-85090000D02*
X96370000Y-85090000D01*
X88900000Y-87662400D02*
X90137600Y-87662400D01*
X116840000Y-72540000D02*
X116840000Y-73660000D01*
X96370000Y-85090000D02*
X109200000Y-72260000D01*
X90137600Y-87662400D02*
X90170000Y-87630000D01*
X109200000Y-72260000D02*
X116560000Y-72260000D01*
X116560000Y-72260000D02*
X116840000Y-72540000D01*
%TO.N,GPIO_AN1*%
X87150000Y-106452894D02*
X82550000Y-111052894D01*
X87150000Y-102195000D02*
X87150000Y-106452894D01*
X82550000Y-111052894D02*
X82550000Y-116840000D01*
%TO.N,GPIO_AN2*%
X87650000Y-106660000D02*
X85090000Y-109220000D01*
X87650000Y-102195000D02*
X87650000Y-106660000D01*
X85090000Y-109220000D02*
X85090000Y-116840000D01*
%TO.N,GPIO_AN3*%
X87630000Y-107387106D02*
X87630000Y-116840000D01*
X88150000Y-102195000D02*
X88150000Y-106867106D01*
X88150000Y-106867106D02*
X87630000Y-107387106D01*
%TO.N,GPIO_AN4*%
X88650000Y-115320000D02*
X90170000Y-116840000D01*
X88650000Y-102195000D02*
X88650000Y-115320000D01*
%TO.N,UART3_TX*%
X91650000Y-84870000D02*
X101590000Y-74930000D01*
X91650000Y-90845000D02*
X91650000Y-84870000D01*
%TO.N,UART3_RX*%
X91150000Y-82830000D02*
X99050000Y-74930000D01*
X91150000Y-90845000D02*
X91150000Y-82830000D01*
%TO.N,I2C1_SDA*%
X87650000Y-84567137D02*
X87650000Y-90845000D01*
X85732535Y-84175068D02*
X86131664Y-83775939D01*
X86858802Y-83775939D02*
X87650000Y-84567137D01*
X82387447Y-84175068D02*
X85732535Y-84175068D01*
X86131664Y-83775939D02*
X86858802Y-83775939D01*
%TO.N,I2C1_SCL*%
X85822833Y-84675068D02*
X86079548Y-84931783D01*
X86723458Y-84931783D02*
X86900500Y-85108825D01*
X88900000Y-85090000D02*
X88150000Y-85840000D01*
X86079548Y-84931783D02*
X86723458Y-84931783D01*
X82387447Y-84675068D02*
X85822833Y-84675068D01*
X88150000Y-85840000D02*
X88150000Y-90845000D01*
%TO.N,+3.3VA*%
X83225000Y-98770000D02*
X82348959Y-98770000D01*
X79547094Y-101571865D02*
X78699123Y-101571865D01*
X82348959Y-98770000D02*
X79547094Y-101571865D01*
D59*
%TO.N,BUCK_FB*%
X99989888Y-92848228D02*
X99957123Y-92880993D01*
D57*
X99989888Y-89240112D02*
X99989888Y-90873566D01*
D59*
X99989888Y-90873566D02*
X99989888Y-92848228D01*
D57*
X100520922Y-88709078D02*
X99989888Y-89240112D01*
X102359369Y-88709078D02*
X100520922Y-88709078D01*
%TO.N,Net-(R2-Pad2)*%
X104452696Y-90402508D02*
X102402799Y-90402508D01*
X102402799Y-90402508D02*
X102359369Y-90359078D01*
%TO.N,BUCK_EN*%
X101897913Y-97516390D02*
X102481799Y-97516390D01*
X102573001Y-97516390D02*
X105938658Y-100882047D01*
X99957123Y-95155993D02*
X99957123Y-95575600D01*
X102481799Y-97516390D02*
X102573001Y-97516390D01*
X99957123Y-95575600D02*
X101897913Y-97516390D01*
%TO.N,SWCLK*%
X92650000Y-88141041D02*
X92710000Y-88081041D01*
X92650000Y-90845000D02*
X92650000Y-88141041D01*
%TO.N,SWO*%
X89650000Y-90845000D02*
X89650000Y-89432400D01*
X89650000Y-89432400D02*
X88900000Y-88682400D01*
%TO.N,Net-(J4-Pad10)*%
X111760000Y-73660000D02*
X114300000Y-73660000D01*
X97790000Y-85498216D02*
X99921784Y-85498216D01*
X93921369Y-89366847D02*
X97790000Y-85498216D01*
X99921784Y-85498216D02*
X111760000Y-73660000D01*
%TO.N,SWDIO*%
X94650597Y-90927551D02*
X93450000Y-92128148D01*
X93698959Y-93770000D02*
X94575000Y-93770000D01*
X95269215Y-90927551D02*
X94650597Y-90927551D01*
X93450000Y-92128148D02*
X93450000Y-93521041D01*
X93450000Y-93521041D02*
X93698959Y-93770000D01*
%TO.N,/SW_BOOT*%
X85461308Y-76360000D02*
X90170000Y-81068692D01*
X86335785Y-87050035D02*
X86335785Y-87777662D01*
X86648639Y-86737181D02*
X86335785Y-87050035D01*
X90170000Y-81068692D02*
X90170000Y-86360000D01*
%TO.N,/BOOT0*%
X87150000Y-89690000D02*
X86360000Y-88900000D01*
X87150000Y-90845000D02*
X87150000Y-89690000D01*
%TO.N,I2C2_SCL*%
X84032279Y-107450000D02*
X80964293Y-107450000D01*
X85050809Y-106431470D02*
X84032279Y-107450000D01*
X86111470Y-106431470D02*
X85050809Y-106431470D01*
X76654293Y-111760000D02*
X74930000Y-111760000D01*
X73660000Y-113039267D02*
X73762970Y-112936297D01*
X90170000Y-105410000D02*
X91150000Y-104430000D01*
X80964293Y-107450000D02*
X76654293Y-111760000D01*
X91150000Y-104430000D02*
X91150000Y-102195000D01*
X73660000Y-116840000D02*
X73660000Y-113039267D01*
X74930000Y-111760000D02*
X73762970Y-112927030D01*
X73762970Y-112927030D02*
X73762970Y-112936297D01*
%TO.N,I2C2_SDA*%
X76193788Y-112927611D02*
X81171399Y-107950000D01*
X76200000Y-116840000D02*
X76200000Y-112933823D01*
X91650000Y-107740000D02*
X91650000Y-101987893D01*
X91440000Y-107950000D02*
X91650000Y-107740000D01*
X84592940Y-107950000D02*
X84841470Y-107701470D01*
X81171399Y-107950000D02*
X84592940Y-107950000D01*
X76200000Y-112933823D02*
X76193788Y-112927611D01*
%TO.N,/HSE_OUT*%
X81293837Y-95270000D02*
X81254611Y-95309226D01*
X83225000Y-95270000D02*
X81293837Y-95270000D01*
D60*
%TO.N,USB_D+*%
X107762454Y-104894134D02*
X126022548Y-104894134D01*
X94592843Y-94287843D02*
X97156163Y-94287843D01*
X97156163Y-94287843D02*
X107762454Y-104894134D01*
X94575000Y-94270000D02*
X94592843Y-94287843D01*
X126022548Y-104894134D02*
X126740391Y-104176291D01*
X126740391Y-104176291D02*
X127132500Y-104176291D01*
%TO.N,USB_D-*%
X96963837Y-94752157D02*
X107570128Y-105358448D01*
X94575000Y-94770000D02*
X94592843Y-94752157D01*
X126022548Y-105358448D02*
X126740391Y-106076291D01*
X126740391Y-106076291D02*
X127132500Y-106076291D01*
X94592843Y-94752157D02*
X96963837Y-94752157D01*
X107570128Y-105358448D02*
X126022548Y-105358448D01*
D57*
%TO.N,IMU_IINT*%
X84581626Y-91970000D02*
X88401041Y-91970000D01*
X78487447Y-86675068D02*
X78372184Y-86790331D01*
X78372184Y-86790331D02*
X78372184Y-88527362D01*
X78372184Y-88527362D02*
X78827311Y-88982489D01*
X81594115Y-88982489D02*
X84581626Y-91970000D01*
X78827311Y-88982489D02*
X81594115Y-88982489D01*
X88650000Y-91721041D02*
X88650000Y-90845000D01*
X88401041Y-91970000D02*
X88650000Y-91721041D01*
D59*
%TO.N,Net-(F2-Pad2)*%
X113071815Y-102178812D02*
X112285503Y-101392500D01*
X116840000Y-102178812D02*
X113071815Y-102178812D01*
D58*
%TO.N,Net-(D4-Pad1)*%
X74487500Y-106640000D02*
X74447500Y-106680000D01*
X76845000Y-106640000D02*
X74487500Y-106640000D01*
%TD*%
M02*
