%TF.GenerationSoftware,KiCad,Pcbnew,(6.0.6)*%
%TF.CreationDate,2023-08-27T23:28:48-04:00*%
%TF.ProjectId,STM32,53544d33-322e-46b6-9963-61645f706362,rev?*%
%TF.SameCoordinates,Original*%
%TF.FileFunction,Soldermask,Bot*%
%TF.FilePolarity,Negative*%
%FSLAX46Y46*%
G04 Gerber Fmt 4.6, Leading zero omitted, Abs format (unit mm)*
G04 Created by KiCad (PCBNEW (6.0.6)) date 2023-08-27 23:28:48*
%MOMM*%
%LPD*%
G01*
G04 APERTURE LIST*
%ADD10R,1.700000X1.700000*%
%ADD11O,1.700000X1.700000*%
%ADD12C,0.900000*%
%ADD13R,2.400000X2.400000*%
%ADD14C,2.400000*%
%ADD15C,8.600000*%
%ADD16O,0.950000X1.250000*%
%ADD17O,1.550000X0.890000*%
G04 APERTURE END LIST*
D10*
%TO.C,J6*%
X104130000Y-74930000D03*
D11*
X101590000Y-74930000D03*
X99050000Y-74930000D03*
X96510000Y-74930000D03*
%TD*%
D12*
%TO.C,SW1*%
X87711308Y-74600000D03*
X84711308Y-74600000D03*
%TD*%
D13*
%TO.C,J1*%
X134648944Y-97166594D03*
D14*
X134648944Y-93666594D03*
%TD*%
D10*
%TO.C,J5*%
X82550000Y-116840000D03*
D11*
X85090000Y-116840000D03*
X87630000Y-116840000D03*
X90170000Y-116840000D03*
X92710000Y-116840000D03*
X95250000Y-116840000D03*
%TD*%
D10*
%TO.C,J2*%
X127000000Y-116840000D03*
D11*
X124460000Y-116840000D03*
X121920000Y-116840000D03*
X119380000Y-116840000D03*
X116840000Y-116840000D03*
X114300000Y-116840000D03*
X111760000Y-116840000D03*
X109220000Y-116840000D03*
X106680000Y-116840000D03*
X104140000Y-116840000D03*
X101600000Y-116840000D03*
X99060000Y-116840000D03*
%TD*%
D12*
%TO.C,H2*%
X65780419Y-78480419D03*
X61219581Y-73919581D03*
X66725000Y-76200000D03*
X63500000Y-72975000D03*
X65780419Y-73919581D03*
X61219581Y-78480419D03*
D15*
X63500000Y-76200000D03*
D12*
X60275000Y-76200000D03*
X63500000Y-79425000D03*
%TD*%
D15*
%TO.C,H4*%
X134620000Y-116840000D03*
D12*
X136900419Y-114559581D03*
X136900419Y-119120419D03*
X134620000Y-113615000D03*
X132339581Y-119120419D03*
X131395000Y-116840000D03*
X132339581Y-114559581D03*
X134620000Y-120065000D03*
X137845000Y-116840000D03*
%TD*%
%TO.C,H1*%
X61219581Y-119120419D03*
X63500000Y-120065000D03*
X61219581Y-114559581D03*
X65780419Y-114559581D03*
D15*
X63500000Y-116840000D03*
D12*
X63500000Y-113615000D03*
X60275000Y-116840000D03*
X65780419Y-119120419D03*
X66725000Y-116840000D03*
%TD*%
D10*
%TO.C,J7*%
X78740000Y-116840000D03*
D11*
X76200000Y-116840000D03*
X73660000Y-116840000D03*
X71120000Y-116840000D03*
%TD*%
D12*
%TO.C,H3*%
X131395000Y-76200000D03*
X136900419Y-73919581D03*
X132339581Y-78480419D03*
X132339581Y-73919581D03*
X137845000Y-76200000D03*
X136900419Y-78480419D03*
X134620000Y-79425000D03*
D15*
X134620000Y-76200000D03*
D12*
X134620000Y-72975000D03*
%TD*%
D16*
%TO.C,J3*%
X135514065Y-108250371D03*
X135514065Y-103250371D03*
D17*
X138214065Y-109250371D03*
X138214065Y-102250371D03*
%TD*%
M02*
