M48
; DRILL file {KiCad (6.0.6)} date Sun Aug 27 23:28:44 2023
; FORMAT={-:-/ absolute / inch / decimal}
; #@! TF.CreationDate,2023-08-27T23:28:44-04:00
; #@! TF.GenerationSoftware,Kicad,Pcbnew,(6.0.6)
; #@! TF.FileFunction,Plated,1,4,PTH
FMAT,2
INCH
; #@! TA.AperFunction,Plated,PTH,ViaDrill
T1C0.0157
; #@! TA.AperFunction,Plated,PTH,ComponentDrill
T2C0.0197
; #@! TA.AperFunction,Plated,PTH,ComponentDrill
T3C0.0217
; #@! TA.AperFunction,Plated,PTH,ComponentDrill
T4C0.0236
; #@! TA.AperFunction,Plated,PTH,ComponentDrill
T5C0.0394
; #@! TA.AperFunction,Plated,PTH,ComponentDrill
T6C0.0472
; #@! TA.AperFunction,Plated,PTH,ComponentDrill
T7C0.1693
%
G90
G05
T1
X2.75Y-4.6
X2.8Y-4.55
X2.8Y-4.65
X2.8356Y-4.199
X2.8369Y-4.4439
X2.9702Y-3.2447
X2.9702Y-3.3042
X3.001Y-3.442
X3.0333Y-3.9989
X3.034Y-3.9501
X3.0394Y-3.8555
X3.0635Y-4.5521
X3.0662Y-4.6496
X3.0672Y-4.4465
X3.0857Y-3.5388
X3.0953Y-3.8878
X3.1032Y-3.5926
X3.115Y-3.4731
X3.121Y-4.1977
X3.1232Y-3.8206
X3.1271Y-3.9497
X3.1326Y-4.6506
X3.1329Y-4.5511
X3.1592Y-3.912
X3.1633Y-3.6315
X3.1775Y-3.5409
X3.2158Y-3.2516
X3.2169Y-3.4739
X3.221Y-3.5623
X3.284Y-3.5115
X3.3022Y-4.1206
X3.3051Y-3.05
X3.3402Y-4.2402
X3.3441Y-3.4717
X3.3664Y-3.4091
X3.3902Y-4.1902
X3.391Y-3.2312
X3.4005Y-4.1252
X3.4114Y-3.4148
X3.4213Y-3.3507
X3.4823Y-3.05
X3.5Y-3.35
X3.55Y-3.4
X3.55Y-3.45
X3.55Y-4.15
X3.6Y-4.25
X3.65Y-3.35
X3.6666Y-4.0619
X3.7332Y-4.1475
X3.75Y-2.95
X3.75Y-4.55
X3.75Y-4.65
X3.7706Y-4.0485
X3.8Y-2.9
X3.8Y-3.0
X3.8Y-4.6
X3.8148Y-3.5156
X3.8394Y-3.5782
X3.85Y-4.6
X3.8686Y-3.6849
X3.8702Y-3.5423
X3.9Y-4.55
X3.9Y-4.65
X3.9674Y-4.5618
X3.9705Y-4.6403
X3.9798Y-3.6134
X4.0285Y-4.5592
X4.0295Y-4.6418
X4.05Y-4.35
X4.1Y-2.9
X4.1Y-3.0
X4.1127Y-3.461
X4.1329Y-3.8397
X4.2155Y-4.0573
X4.229Y-3.8436
X4.25Y-3.0
X4.3081Y-4.0558
X4.31Y-3.8467
X4.35Y-3.0
X4.368Y-4.382
X4.5Y-3.1
X4.5633Y-3.6359
X4.5638Y-3.7641
X4.6Y-3.1
X4.6264Y-3.6343
X4.63Y-3.7651
X4.65Y-3.1
X4.6756Y-3.836
X4.7Y-3.1
X4.7059Y-3.6548
X4.7516Y-3.6548
X4.7585Y-3.8469
X4.8124Y-3.8428
X4.8564Y-3.6559
X4.8637Y-3.85
X4.9072Y-3.6949
X4.9785Y-3.8569
X5.0047Y-3.9323
X5.2603Y-4.0901
X5.2977Y-4.0904
X5.3352Y-4.065
X5.4Y-4.0
T4
X2.373Y-3.0
X2.373Y-4.6
X2.4102Y-2.9102
X2.4102Y-3.0898
X2.4102Y-4.5102
X2.4102Y-4.6898
X2.5Y-2.873
X2.5Y-3.127
X2.5Y-4.473
X2.5Y-4.727
X2.5898Y-2.9102
X2.5898Y-3.0898
X2.5898Y-4.5102
X2.5898Y-4.6898
X2.627Y-3.0
X2.627Y-4.6
X5.173Y-3.0
X5.173Y-4.6
X5.2102Y-2.9102
X5.2102Y-3.0898
X5.2102Y-4.5102
X5.2102Y-4.6898
X5.3Y-2.873
X5.3Y-3.127
X5.3Y-4.473
X5.3Y-4.727
X5.3898Y-2.9102
X5.3898Y-3.0898
X5.3898Y-4.5102
X5.3898Y-4.6898
X5.427Y-3.0
X5.427Y-4.6
T5
X2.8Y-4.6
X2.9Y-4.6
X3.0Y-4.6
X3.1Y-4.6
X3.25Y-4.6
X3.35Y-4.6
X3.45Y-4.6
X3.55Y-4.6
X3.65Y-4.6
X3.75Y-4.6
X3.7996Y-2.95
X3.8996Y-2.95
X3.9Y-4.6
X3.9996Y-2.95
X4.0Y-4.6
X4.0996Y-2.95
X4.1Y-4.6
X4.2Y-4.6
X4.3Y-4.6
X4.4Y-4.6
X4.5Y-4.6
X4.6Y-4.6
X4.7Y-4.6
X4.8Y-4.6
X4.9Y-4.6
X5.0Y-4.6
T6
X5.3011Y-3.6877
X5.3011Y-3.8255
T7
X2.5Y-3.0
X2.5Y-4.6
X5.3Y-3.0
X5.3Y-4.6
T2
G00X5.4287Y-4.0256
M15
G01X5.4543Y-4.0256
M16
G05
G00X5.4287Y-4.3012
M15
G01X5.4543Y-4.3012
M16
G05
T3
G00X5.3352Y-4.0709
M15
G01X5.3352Y-4.0591
M16
G05
G00X5.3352Y-4.2677
M15
G01X5.3352Y-4.2559
M16
G05
T0
M30
