%TF.GenerationSoftware,KiCad,Pcbnew,(6.0.6)*%
%TF.CreationDate,2023-08-27T23:28:48-04:00*%
%TF.ProjectId,STM32,53544d33-322e-46b6-9963-61645f706362,rev?*%
%TF.SameCoordinates,Original*%
%TF.FileFunction,Copper,L3,Inr*%
%TF.FilePolarity,Positive*%
%FSLAX46Y46*%
G04 Gerber Fmt 4.6, Leading zero omitted, Abs format (unit mm)*
G04 Created by KiCad (PCBNEW (6.0.6)) date 2023-08-27 23:28:48*
%MOMM*%
%LPD*%
G01*
G04 APERTURE LIST*
%TA.AperFunction,ComponentPad*%
%ADD10R,1.700000X1.700000*%
%TD*%
%TA.AperFunction,ComponentPad*%
%ADD11O,1.700000X1.700000*%
%TD*%
%TA.AperFunction,ComponentPad*%
%ADD12R,2.400000X2.400000*%
%TD*%
%TA.AperFunction,ComponentPad*%
%ADD13C,2.400000*%
%TD*%
%TA.AperFunction,ComponentPad*%
%ADD14C,0.900000*%
%TD*%
%TA.AperFunction,ComponentPad*%
%ADD15C,8.600000*%
%TD*%
%TA.AperFunction,ComponentPad*%
%ADD16O,0.950000X1.250000*%
%TD*%
%TA.AperFunction,ComponentPad*%
%ADD17O,1.550000X0.890000*%
%TD*%
%TA.AperFunction,ViaPad*%
%ADD18C,0.800000*%
%TD*%
G04 APERTURE END LIST*
D10*
%TO.N,GND*%
%TO.C,J6*%
X104130000Y-74930000D03*
D11*
%TO.N,UART3_TX*%
X101590000Y-74930000D03*
%TO.N,UART3_RX*%
X99050000Y-74930000D03*
%TO.N,+3.3V*%
X96510000Y-74930000D03*
%TD*%
D12*
%TO.N,+12V*%
%TO.C,J1*%
X134648944Y-97166594D03*
D13*
%TO.N,GND*%
X134648944Y-93666594D03*
%TD*%
D10*
%TO.N,GPIO_AN1*%
%TO.C,J5*%
X82550000Y-116840000D03*
D11*
%TO.N,GPIO_AN2*%
X85090000Y-116840000D03*
%TO.N,GPIO_AN3*%
X87630000Y-116840000D03*
%TO.N,GPIO_AN4*%
X90170000Y-116840000D03*
%TO.N,GND*%
X92710000Y-116840000D03*
%TO.N,+3.3V*%
X95250000Y-116840000D03*
%TD*%
D10*
%TO.N,GPIO_IN1*%
%TO.C,J2*%
X127000000Y-116840000D03*
D11*
%TO.N,GPIO_IN2*%
X124460000Y-116840000D03*
%TO.N,GPIO_IN3*%
X121920000Y-116840000D03*
%TO.N,GPIO_IN4*%
X119380000Y-116840000D03*
%TO.N,GPIO_IN5*%
X116840000Y-116840000D03*
%TO.N,GPIO_OUT1*%
X114300000Y-116840000D03*
%TO.N,GPIO_OUT2*%
X111760000Y-116840000D03*
%TO.N,GPIO_OUT3*%
X109220000Y-116840000D03*
%TO.N,GPIO_OUT4*%
X106680000Y-116840000D03*
%TO.N,GPIO_OUT5*%
X104140000Y-116840000D03*
%TO.N,GND*%
X101600000Y-116840000D03*
%TO.N,+3.3V*%
X99060000Y-116840000D03*
%TD*%
D14*
%TO.N,GND*%
%TO.C,H2*%
X65780419Y-78480419D03*
X61219581Y-73919581D03*
X66725000Y-76200000D03*
X63500000Y-72975000D03*
X65780419Y-73919581D03*
X61219581Y-78480419D03*
D15*
X63500000Y-76200000D03*
D14*
X60275000Y-76200000D03*
X63500000Y-79425000D03*
%TD*%
D15*
%TO.N,GND*%
%TO.C,H4*%
X134620000Y-116840000D03*
D14*
X136900419Y-114559581D03*
X136900419Y-119120419D03*
X134620000Y-113615000D03*
X132339581Y-119120419D03*
X131395000Y-116840000D03*
X132339581Y-114559581D03*
X134620000Y-120065000D03*
X137845000Y-116840000D03*
%TD*%
%TO.N,GND*%
%TO.C,H1*%
X61219581Y-119120419D03*
X63500000Y-120065000D03*
X61219581Y-114559581D03*
X65780419Y-114559581D03*
D15*
X63500000Y-116840000D03*
D14*
X63500000Y-113615000D03*
X60275000Y-116840000D03*
X65780419Y-119120419D03*
X66725000Y-116840000D03*
%TD*%
D10*
%TO.N,GND*%
%TO.C,J7*%
X78740000Y-116840000D03*
D11*
%TO.N,I2C2_SDA*%
X76200000Y-116840000D03*
%TO.N,I2C2_SCL*%
X73660000Y-116840000D03*
%TO.N,+3.3V*%
X71120000Y-116840000D03*
%TD*%
D14*
%TO.N,GND*%
%TO.C,H3*%
X131395000Y-76200000D03*
X136900419Y-73919581D03*
X132339581Y-78480419D03*
X132339581Y-73919581D03*
X137845000Y-76200000D03*
X136900419Y-78480419D03*
X134620000Y-79425000D03*
D15*
X134620000Y-76200000D03*
D14*
X134620000Y-72975000D03*
%TD*%
D16*
%TO.N,unconnected-(J3-Pad6)*%
%TO.C,J3*%
X135514065Y-108250371D03*
X135514065Y-103250371D03*
D17*
X138214065Y-109250371D03*
X138214065Y-102250371D03*
%TD*%
D18*
%TO.N,GND*%
X80348754Y-92239112D03*
X102348839Y-117901535D03*
X102322781Y-115803865D03*
X107073591Y-103055301D03*
X79567013Y-118125528D03*
X123538752Y-97790000D03*
X96896528Y-89297056D03*
X122235851Y-97607593D03*
X78820548Y-91252063D03*
X76224214Y-87426535D03*
X118761450Y-97433873D03*
X77812441Y-115623959D03*
X100772330Y-115869010D03*
X94822551Y-105346414D03*
X104974512Y-97529419D03*
X134561236Y-103897029D03*
X84939935Y-88180234D03*
X127119229Y-99880171D03*
X109474393Y-97705639D03*
X83875271Y-104664315D03*
X100850504Y-117862448D03*
X95773668Y-102831816D03*
X79575699Y-115597901D03*
X77200733Y-97928976D03*
X116840000Y-78740000D03*
X126454750Y-97964907D03*
X109424603Y-103016696D03*
X77881929Y-118099470D03*
X79272741Y-106622093D03*
X98262234Y-93597588D03*
X81682451Y-82589482D03*
X81708509Y-88236090D03*
X78377031Y-89885205D03*
X107415810Y-97627465D03*
X101087219Y-91780596D03*
X79428037Y-100321313D03*
X104140000Y-76200000D03*
X118110000Y-78740000D03*
X75442474Y-83926075D03*
X88450499Y-77470000D03*
X120865306Y-97710841D03*
X114300000Y-78740000D03*
X104461382Y-87909795D03*
X79328804Y-97043003D03*
X104140000Y-73660000D03*
X133612423Y-103889070D03*
%TO.N,+3.3V*%
X99060000Y-118110000D03*
X72023875Y-106653941D03*
X96520000Y-76200000D03*
X69850000Y-116840000D03*
X115908754Y-92350718D03*
X97790000Y-116840000D03*
X71120000Y-118110000D03*
X123352534Y-92859505D03*
X80244522Y-99365853D03*
X96520000Y-116840000D03*
X77062809Y-100332661D03*
X115921783Y-95607969D03*
X124642406Y-93849709D03*
X99060000Y-115570000D03*
X119530817Y-92832791D03*
X77045437Y-101571865D03*
X86132320Y-82073582D03*
X96520000Y-73660000D03*
X81814585Y-90482696D03*
X98303661Y-89974564D03*
X93132073Y-103172175D03*
X95250000Y-74930000D03*
X83414735Y-89193302D03*
X117511321Y-92311631D03*
X77906230Y-112941209D03*
X75442474Y-82414710D03*
X78620239Y-98749147D03*
X86371581Y-104780747D03*
X79122184Y-88216701D03*
X72056776Y-112875495D03*
X117602524Y-95634027D03*
X120690399Y-92832791D03*
X95250000Y-118110000D03*
X95250000Y-115570000D03*
X83949238Y-77470000D03*
X85506928Y-86591626D03*
X97521921Y-90886595D03*
X80708567Y-89938373D03*
X119380000Y-78740000D03*
X71120000Y-115570000D03*
%TO.N,GPIO_IN4*%
X102870000Y-110490000D03*
X110947871Y-111302129D03*
%TO.N,unconnected-(J3-Pad6)*%
X135514065Y-103250371D03*
X137160000Y-101600000D03*
%TO.N,Net-(J4-Pad4)*%
X107950000Y-76200000D03*
X110490000Y-76200000D03*
%TO.N,Net-(J4-Pad6)*%
X90170000Y-87630000D03*
X92710000Y-85090000D03*
%TO.N,I2C1_SCL*%
X88900000Y-85090000D03*
X86900500Y-85108825D03*
%TO.N,/SW_BOOT*%
X86648639Y-86737181D03*
X90170000Y-86360000D03*
%TO.N,I2C2_SCL*%
X86111470Y-106431470D03*
X90170000Y-105410000D03*
%TO.N,I2C2_SDA*%
X84841470Y-107701470D03*
X91440000Y-107950000D03*
%TD*%
%TA.AperFunction,Conductor*%
%TO.N,+3.3V*%
G36*
X132544543Y-71648502D02*
G01*
X132591036Y-71702158D01*
X132601140Y-71772432D01*
X132571646Y-71837012D01*
X132529173Y-71868926D01*
X132412361Y-71922777D01*
X132040880Y-72135957D01*
X132038577Y-72137566D01*
X132038570Y-72137571D01*
X131692129Y-72379701D01*
X131689820Y-72381315D01*
X131361961Y-72656909D01*
X131059899Y-72960557D01*
X130786025Y-73289855D01*
X130784431Y-73292162D01*
X130784429Y-73292164D01*
X130561311Y-73614989D01*
X130542508Y-73642194D01*
X130331276Y-74014786D01*
X130330117Y-74017335D01*
X130330115Y-74017339D01*
X130293315Y-74098277D01*
X130154002Y-74404680D01*
X130153080Y-74407306D01*
X130153075Y-74407318D01*
X130104157Y-74546618D01*
X130012089Y-74808790D01*
X130011398Y-74811510D01*
X130011397Y-74811514D01*
X129934171Y-75115594D01*
X129906661Y-75223914D01*
X129838552Y-75646768D01*
X129808302Y-76074001D01*
X129816151Y-76502233D01*
X129862036Y-76928071D01*
X129862582Y-76930817D01*
X129862583Y-76930822D01*
X129894787Y-77092721D01*
X129945594Y-77348144D01*
X130066163Y-77759127D01*
X130067190Y-77761740D01*
X130067190Y-77761741D01*
X130219293Y-78148866D01*
X130222789Y-78157765D01*
X130272492Y-78257237D01*
X130392161Y-78496731D01*
X130414231Y-78540901D01*
X130638974Y-78905502D01*
X130895239Y-79248682D01*
X130897100Y-79250760D01*
X130897101Y-79250761D01*
X131179127Y-79565637D01*
X131179133Y-79565643D01*
X131180995Y-79567722D01*
X131493981Y-79860098D01*
X131831719Y-80123493D01*
X132191533Y-80355822D01*
X132194012Y-80357126D01*
X132194015Y-80357128D01*
X132568077Y-80553932D01*
X132568083Y-80553935D01*
X132570577Y-80555247D01*
X132573175Y-80556331D01*
X132573179Y-80556333D01*
X132963263Y-80719109D01*
X132963268Y-80719111D01*
X132965847Y-80720187D01*
X132968512Y-80721030D01*
X132968518Y-80721032D01*
X133190561Y-80791254D01*
X133374214Y-80849336D01*
X133792446Y-80941673D01*
X133795220Y-80942031D01*
X133795221Y-80942031D01*
X134214460Y-80996109D01*
X134214467Y-80996110D01*
X134217230Y-80996466D01*
X134220017Y-80996576D01*
X134220023Y-80996576D01*
X134468238Y-81006328D01*
X134645203Y-81013281D01*
X134647995Y-81013142D01*
X134648000Y-81013142D01*
X135070172Y-80992125D01*
X135070181Y-80992124D01*
X135072976Y-80991985D01*
X135075753Y-80991597D01*
X135075755Y-80991597D01*
X135150066Y-80981219D01*
X135497163Y-80932747D01*
X135914404Y-80836036D01*
X136128307Y-80765915D01*
X136318744Y-80703487D01*
X136318750Y-80703485D01*
X136321397Y-80702617D01*
X136714918Y-80533547D01*
X137091852Y-80330164D01*
X137449214Y-80094080D01*
X137784175Y-79827162D01*
X138094082Y-79531525D01*
X138095919Y-79529431D01*
X138095927Y-79529422D01*
X138374635Y-79211616D01*
X138376482Y-79209510D01*
X138448043Y-79111556D01*
X138627490Y-78865923D01*
X138629139Y-78863666D01*
X138699640Y-78746565D01*
X138848601Y-78499142D01*
X138848606Y-78499133D01*
X138850052Y-78496731D01*
X138952204Y-78286823D01*
X138999998Y-78234323D01*
X139068588Y-78215997D01*
X139136198Y-78237663D01*
X139181362Y-78292442D01*
X139191500Y-78341959D01*
X139191500Y-101300246D01*
X139171498Y-101368367D01*
X139117842Y-101414860D01*
X139047568Y-101424964D01*
X139011992Y-101412930D01*
X139011638Y-101413748D01*
X138839717Y-101339351D01*
X138839716Y-101339351D01*
X138833861Y-101336817D01*
X138787765Y-101327187D01*
X138648992Y-101298195D01*
X138648988Y-101298195D01*
X138644247Y-101297204D01*
X138637893Y-101296871D01*
X138106062Y-101296871D01*
X138037941Y-101276869D01*
X137995769Y-101227727D01*
X137994527Y-101228444D01*
X137902341Y-101068774D01*
X137899040Y-101063056D01*
X137842426Y-101000179D01*
X137775675Y-100926045D01*
X137775674Y-100926044D01*
X137771253Y-100921134D01*
X137616752Y-100808882D01*
X137610724Y-100806198D01*
X137610722Y-100806197D01*
X137448319Y-100733891D01*
X137448318Y-100733891D01*
X137442288Y-100731206D01*
X137348888Y-100711353D01*
X137261944Y-100692872D01*
X137261939Y-100692872D01*
X137255487Y-100691500D01*
X137064513Y-100691500D01*
X137058061Y-100692872D01*
X137058056Y-100692872D01*
X136971112Y-100711353D01*
X136877712Y-100731206D01*
X136871682Y-100733891D01*
X136871681Y-100733891D01*
X136709278Y-100806197D01*
X136709276Y-100806198D01*
X136703248Y-100808882D01*
X136548747Y-100921134D01*
X136544326Y-100926044D01*
X136544325Y-100926045D01*
X136477575Y-101000179D01*
X136420960Y-101063056D01*
X136325473Y-101228444D01*
X136266458Y-101410072D01*
X136246496Y-101600000D01*
X136266458Y-101789928D01*
X136325473Y-101971556D01*
X136420960Y-102136944D01*
X136425378Y-102141851D01*
X136425379Y-102141852D01*
X136454145Y-102173800D01*
X136548747Y-102278866D01*
X136596794Y-102313774D01*
X136694105Y-102384475D01*
X136703248Y-102391118D01*
X136709276Y-102393802D01*
X136709278Y-102393803D01*
X136835581Y-102450036D01*
X136877712Y-102468794D01*
X136884167Y-102470166D01*
X136884173Y-102470168D01*
X136886397Y-102470641D01*
X136887559Y-102471268D01*
X136890451Y-102472208D01*
X136890279Y-102472737D01*
X136948869Y-102504372D01*
X136978444Y-102550378D01*
X137022646Y-102670513D01*
X137026004Y-102675929D01*
X137026006Y-102675933D01*
X137121358Y-102829721D01*
X137121361Y-102829725D01*
X137124721Y-102835144D01*
X137129107Y-102839782D01*
X137234542Y-102951276D01*
X137257816Y-102975888D01*
X137416492Y-103086994D01*
X137594269Y-103163925D01*
X137600517Y-103165230D01*
X137600516Y-103165230D01*
X137779138Y-103202547D01*
X137779142Y-103202547D01*
X137783883Y-103203538D01*
X137790237Y-103203871D01*
X138592473Y-103203871D01*
X138638226Y-103199224D01*
X138730433Y-103189858D01*
X138730435Y-103189858D01*
X138736781Y-103189213D01*
X138921626Y-103131286D01*
X138967404Y-103105911D01*
X139004414Y-103085396D01*
X139073691Y-103069865D01*
X139140367Y-103094253D01*
X139183274Y-103150817D01*
X139191500Y-103195598D01*
X139191500Y-108300246D01*
X139171498Y-108368367D01*
X139117842Y-108414860D01*
X139047568Y-108424964D01*
X139011992Y-108412930D01*
X139011638Y-108413748D01*
X138839717Y-108339351D01*
X138839716Y-108339351D01*
X138833861Y-108336817D01*
X138721954Y-108313438D01*
X138648992Y-108298195D01*
X138648988Y-108298195D01*
X138644247Y-108297204D01*
X138637893Y-108296871D01*
X137835657Y-108296871D01*
X137802430Y-108300246D01*
X137697697Y-108310884D01*
X137697695Y-108310884D01*
X137691349Y-108311529D01*
X137506504Y-108369456D01*
X137337083Y-108463368D01*
X137332235Y-108467524D01*
X137332234Y-108467524D01*
X137215498Y-108567579D01*
X137190006Y-108589428D01*
X137175136Y-108608598D01*
X137109642Y-108693033D01*
X137071281Y-108742487D01*
X136985758Y-108916294D01*
X136984151Y-108922464D01*
X136984149Y-108922469D01*
X136950746Y-109050706D01*
X136936930Y-109103747D01*
X136936596Y-109110127D01*
X136927227Y-109288894D01*
X136926792Y-109297189D01*
X136955758Y-109488720D01*
X136957961Y-109494708D01*
X136957962Y-109494711D01*
X136968240Y-109522645D01*
X137022646Y-109670513D01*
X137026004Y-109675929D01*
X137026006Y-109675933D01*
X137121358Y-109829721D01*
X137121361Y-109829725D01*
X137124721Y-109835144D01*
X137129107Y-109839782D01*
X137234542Y-109951276D01*
X137257816Y-109975888D01*
X137416492Y-110086994D01*
X137594269Y-110163925D01*
X137600517Y-110165230D01*
X137600516Y-110165230D01*
X137779138Y-110202547D01*
X137779142Y-110202547D01*
X137783883Y-110203538D01*
X137790237Y-110203871D01*
X138592473Y-110203871D01*
X138673921Y-110195598D01*
X138730433Y-110189858D01*
X138730435Y-110189858D01*
X138736781Y-110189213D01*
X138921626Y-110131286D01*
X138933455Y-110124729D01*
X139004414Y-110085396D01*
X139073691Y-110069865D01*
X139140367Y-110094253D01*
X139183274Y-110150817D01*
X139191500Y-110195598D01*
X139191500Y-114689490D01*
X139171498Y-114757611D01*
X139117842Y-114804104D01*
X139047568Y-114814208D01*
X138982988Y-114784714D01*
X138954300Y-114748740D01*
X138902939Y-114652347D01*
X138763050Y-114389807D01*
X138528840Y-114031214D01*
X138263680Y-113694860D01*
X137969670Y-113383409D01*
X137967579Y-113381556D01*
X137967571Y-113381548D01*
X137651237Y-113101188D01*
X137651235Y-113101186D01*
X137649137Y-113099327D01*
X137304621Y-112844863D01*
X137001850Y-112660413D01*
X136941237Y-112623487D01*
X136941230Y-112623483D01*
X136938848Y-112622032D01*
X136913710Y-112609635D01*
X136625172Y-112467344D01*
X136554714Y-112432598D01*
X136155262Y-112278062D01*
X135875344Y-112197532D01*
X135746335Y-112160417D01*
X135746329Y-112160415D01*
X135743654Y-112159646D01*
X135740917Y-112159117D01*
X135740911Y-112159115D01*
X135584258Y-112128807D01*
X135323148Y-112078289D01*
X135320374Y-112078005D01*
X135320362Y-112078003D01*
X135037111Y-112048982D01*
X134897076Y-112034634D01*
X134894286Y-112034597D01*
X134894278Y-112034597D01*
X134626825Y-112031096D01*
X134468809Y-112029028D01*
X134466009Y-112029241D01*
X134466008Y-112029241D01*
X134391364Y-112034919D01*
X134041740Y-112061514D01*
X133619249Y-112131836D01*
X133533671Y-112154048D01*
X133207400Y-112238731D01*
X133207389Y-112238734D01*
X133204682Y-112239437D01*
X133036952Y-112299328D01*
X132803964Y-112382520D01*
X132803959Y-112382522D01*
X132801321Y-112383464D01*
X132798781Y-112384635D01*
X132798776Y-112384637D01*
X132696930Y-112431589D01*
X132412361Y-112562777D01*
X132040880Y-112775957D01*
X132038577Y-112777566D01*
X132038570Y-112777571D01*
X131692129Y-113019701D01*
X131689820Y-113021315D01*
X131361961Y-113296909D01*
X131059899Y-113600557D01*
X130786025Y-113929855D01*
X130542508Y-114282194D01*
X130331276Y-114654786D01*
X130330117Y-114657335D01*
X130330115Y-114657339D01*
X130289201Y-114747325D01*
X130154002Y-115044680D01*
X130153080Y-115047306D01*
X130153075Y-115047318D01*
X130083065Y-115246680D01*
X130012089Y-115448790D01*
X130011398Y-115451510D01*
X130011397Y-115451514D01*
X129910990Y-115846870D01*
X129906661Y-115863914D01*
X129838552Y-116286768D01*
X129808302Y-116714001D01*
X129816151Y-117142233D01*
X129862036Y-117568071D01*
X129945594Y-117988144D01*
X130066163Y-118399127D01*
X130067190Y-118401740D01*
X130067190Y-118401741D01*
X130213226Y-118773425D01*
X130222789Y-118797765D01*
X130283532Y-118919331D01*
X130392161Y-119136731D01*
X130414231Y-119180901D01*
X130638974Y-119545502D01*
X130895239Y-119888682D01*
X130897100Y-119890760D01*
X130897101Y-119890761D01*
X131179127Y-120205637D01*
X131179133Y-120205643D01*
X131180995Y-120207722D01*
X131493981Y-120500098D01*
X131831719Y-120763493D01*
X132191533Y-120995822D01*
X132194012Y-120997126D01*
X132194015Y-120997128D01*
X132530178Y-121173992D01*
X132581151Y-121223411D01*
X132597314Y-121292544D01*
X132573535Y-121359440D01*
X132517364Y-121402860D01*
X132471511Y-121411500D01*
X65652547Y-121411500D01*
X65584426Y-121391498D01*
X65537933Y-121337842D01*
X65527829Y-121267568D01*
X65557323Y-121202988D01*
X65595166Y-121174006D01*
X65594918Y-121173547D01*
X65971852Y-120970164D01*
X66329214Y-120734080D01*
X66664175Y-120467162D01*
X66974082Y-120171525D01*
X66975919Y-120169431D01*
X66975927Y-120169422D01*
X67254635Y-119851616D01*
X67256482Y-119849510D01*
X67509139Y-119503666D01*
X67510585Y-119501265D01*
X67728601Y-119139142D01*
X67728606Y-119139133D01*
X67730052Y-119136731D01*
X67865551Y-118858299D01*
X67916238Y-118754145D01*
X67916239Y-118754142D01*
X67917471Y-118751611D01*
X68024336Y-118471026D01*
X68068918Y-118353971D01*
X68068920Y-118353964D01*
X68069914Y-118351355D01*
X68186173Y-117939132D01*
X68188018Y-117929322D01*
X68264811Y-117520954D01*
X68264813Y-117520942D01*
X68265327Y-117518207D01*
X68305190Y-117107966D01*
X69788257Y-117107966D01*
X69818565Y-117242446D01*
X69821645Y-117252275D01*
X69901770Y-117449603D01*
X69906413Y-117458794D01*
X70017694Y-117640388D01*
X70023777Y-117648699D01*
X70163213Y-117809667D01*
X70170580Y-117816883D01*
X70334434Y-117952916D01*
X70342881Y-117958831D01*
X70526756Y-118066279D01*
X70536042Y-118070729D01*
X70735001Y-118146703D01*
X70744899Y-118149579D01*
X70848250Y-118170606D01*
X70862299Y-118169410D01*
X70866000Y-118159065D01*
X70866000Y-118158517D01*
X71374000Y-118158517D01*
X71378064Y-118172359D01*
X71391478Y-118174393D01*
X71398184Y-118173534D01*
X71408262Y-118171392D01*
X71612255Y-118110191D01*
X71621842Y-118106433D01*
X71813095Y-118012739D01*
X71821945Y-118007464D01*
X71995328Y-117883792D01*
X72003200Y-117877139D01*
X72154052Y-117726812D01*
X72160730Y-117718965D01*
X72288022Y-117541819D01*
X72289279Y-117542722D01*
X72336373Y-117499362D01*
X72406311Y-117487145D01*
X72471751Y-117514678D01*
X72499579Y-117546511D01*
X72559987Y-117645088D01*
X72706250Y-117813938D01*
X72878126Y-117956632D01*
X73071000Y-118069338D01*
X73279692Y-118149030D01*
X73284760Y-118150061D01*
X73284763Y-118150062D01*
X73379862Y-118169410D01*
X73498597Y-118193567D01*
X73503772Y-118193757D01*
X73503774Y-118193757D01*
X73716673Y-118201564D01*
X73716677Y-118201564D01*
X73721837Y-118201753D01*
X73726957Y-118201097D01*
X73726959Y-118201097D01*
X73938288Y-118174025D01*
X73938289Y-118174025D01*
X73943416Y-118173368D01*
X73948366Y-118171883D01*
X74152429Y-118110661D01*
X74152434Y-118110659D01*
X74157384Y-118109174D01*
X74357994Y-118010896D01*
X74539860Y-117881173D01*
X74546279Y-117874777D01*
X74640268Y-117781115D01*
X74698096Y-117723489D01*
X74828453Y-117542077D01*
X74829776Y-117543028D01*
X74876645Y-117499857D01*
X74946580Y-117487625D01*
X75012026Y-117515144D01*
X75039875Y-117546994D01*
X75099987Y-117645088D01*
X75246250Y-117813938D01*
X75418126Y-117956632D01*
X75611000Y-118069338D01*
X75819692Y-118149030D01*
X75824760Y-118150061D01*
X75824763Y-118150062D01*
X75919862Y-118169410D01*
X76038597Y-118193567D01*
X76043772Y-118193757D01*
X76043774Y-118193757D01*
X76256673Y-118201564D01*
X76256677Y-118201564D01*
X76261837Y-118201753D01*
X76266957Y-118201097D01*
X76266959Y-118201097D01*
X76478288Y-118174025D01*
X76478289Y-118174025D01*
X76483416Y-118173368D01*
X76488366Y-118171883D01*
X76692429Y-118110661D01*
X76692434Y-118110659D01*
X76697384Y-118109174D01*
X76794225Y-118061732D01*
X76864199Y-118049725D01*
X76929556Y-118077455D01*
X76969546Y-118136118D01*
X76974967Y-118161713D01*
X76987275Y-118278814D01*
X76988387Y-118289398D01*
X77047402Y-118471026D01*
X77142889Y-118636414D01*
X77270676Y-118778336D01*
X77425177Y-118890588D01*
X77431205Y-118893272D01*
X77431207Y-118893273D01*
X77519183Y-118932442D01*
X77599641Y-118968264D01*
X77693042Y-118988117D01*
X77779985Y-119006598D01*
X77779990Y-119006598D01*
X77786442Y-119007970D01*
X77977416Y-119007970D01*
X77983868Y-119006598D01*
X77983873Y-119006598D01*
X78070816Y-118988117D01*
X78164217Y-118968264D01*
X78244675Y-118932442D01*
X78332651Y-118893273D01*
X78332653Y-118893272D01*
X78338681Y-118890588D01*
X78493182Y-118778336D01*
X78620969Y-118636414D01*
X78622966Y-118638212D01*
X78669739Y-118602150D01*
X78740476Y-118596079D01*
X78803265Y-118629215D01*
X78820635Y-118651522D01*
X78820789Y-118651410D01*
X78824139Y-118656021D01*
X78824562Y-118656564D01*
X78827973Y-118662472D01*
X78832391Y-118667379D01*
X78832392Y-118667380D01*
X78947438Y-118795152D01*
X78955760Y-118804394D01*
X79110261Y-118916646D01*
X79116289Y-118919330D01*
X79116291Y-118919331D01*
X79226197Y-118968264D01*
X79284725Y-118994322D01*
X79378126Y-119014175D01*
X79465069Y-119032656D01*
X79465074Y-119032656D01*
X79471526Y-119034028D01*
X79662500Y-119034028D01*
X79668952Y-119032656D01*
X79668957Y-119032656D01*
X79755900Y-119014175D01*
X79849301Y-118994322D01*
X79907829Y-118968264D01*
X80017735Y-118919331D01*
X80017737Y-118919330D01*
X80023765Y-118916646D01*
X80178266Y-118804394D01*
X80186588Y-118795152D01*
X80301634Y-118667380D01*
X80301635Y-118667379D01*
X80306053Y-118662472D01*
X80378839Y-118536403D01*
X80398236Y-118502807D01*
X80398237Y-118502806D01*
X80401540Y-118497084D01*
X80460555Y-118315456D01*
X80469777Y-118227719D01*
X80479827Y-118132093D01*
X80480517Y-118125528D01*
X80474805Y-118071181D01*
X80461245Y-117942163D01*
X80461245Y-117942161D01*
X80460555Y-117935600D01*
X80401540Y-117753972D01*
X80396125Y-117744592D01*
X80392396Y-117738134D01*
X81191500Y-117738134D01*
X81198255Y-117800316D01*
X81249385Y-117936705D01*
X81336739Y-118053261D01*
X81453295Y-118140615D01*
X81589684Y-118191745D01*
X81651866Y-118198500D01*
X83448134Y-118198500D01*
X83510316Y-118191745D01*
X83646705Y-118140615D01*
X83763261Y-118053261D01*
X83850615Y-117936705D01*
X83872799Y-117877529D01*
X83894598Y-117819382D01*
X83937240Y-117762618D01*
X84003802Y-117737918D01*
X84073150Y-117753126D01*
X84107817Y-117781114D01*
X84136250Y-117813938D01*
X84308126Y-117956632D01*
X84501000Y-118069338D01*
X84709692Y-118149030D01*
X84714760Y-118150061D01*
X84714763Y-118150062D01*
X84809862Y-118169410D01*
X84928597Y-118193567D01*
X84933772Y-118193757D01*
X84933774Y-118193757D01*
X85146673Y-118201564D01*
X85146677Y-118201564D01*
X85151837Y-118201753D01*
X85156957Y-118201097D01*
X85156959Y-118201097D01*
X85368288Y-118174025D01*
X85368289Y-118174025D01*
X85373416Y-118173368D01*
X85378366Y-118171883D01*
X85582429Y-118110661D01*
X85582434Y-118110659D01*
X85587384Y-118109174D01*
X85787994Y-118010896D01*
X85969860Y-117881173D01*
X85976279Y-117874777D01*
X86070268Y-117781115D01*
X86128096Y-117723489D01*
X86258453Y-117542077D01*
X86259776Y-117543028D01*
X86306645Y-117499857D01*
X86376580Y-117487625D01*
X86442026Y-117515144D01*
X86469875Y-117546994D01*
X86529987Y-117645088D01*
X86676250Y-117813938D01*
X86848126Y-117956632D01*
X87041000Y-118069338D01*
X87249692Y-118149030D01*
X87254760Y-118150061D01*
X87254763Y-118150062D01*
X87349862Y-118169410D01*
X87468597Y-118193567D01*
X87473772Y-118193757D01*
X87473774Y-118193757D01*
X87686673Y-118201564D01*
X87686677Y-118201564D01*
X87691837Y-118201753D01*
X87696957Y-118201097D01*
X87696959Y-118201097D01*
X87908288Y-118174025D01*
X87908289Y-118174025D01*
X87913416Y-118173368D01*
X87918366Y-118171883D01*
X88122429Y-118110661D01*
X88122434Y-118110659D01*
X88127384Y-118109174D01*
X88327994Y-118010896D01*
X88509860Y-117881173D01*
X88516279Y-117874777D01*
X88610268Y-117781115D01*
X88668096Y-117723489D01*
X88798453Y-117542077D01*
X88799776Y-117543028D01*
X88846645Y-117499857D01*
X88916580Y-117487625D01*
X88982026Y-117515144D01*
X89009875Y-117546994D01*
X89069987Y-117645088D01*
X89216250Y-117813938D01*
X89388126Y-117956632D01*
X89581000Y-118069338D01*
X89789692Y-118149030D01*
X89794760Y-118150061D01*
X89794763Y-118150062D01*
X89889862Y-118169410D01*
X90008597Y-118193567D01*
X90013772Y-118193757D01*
X90013774Y-118193757D01*
X90226673Y-118201564D01*
X90226677Y-118201564D01*
X90231837Y-118201753D01*
X90236957Y-118201097D01*
X90236959Y-118201097D01*
X90448288Y-118174025D01*
X90448289Y-118174025D01*
X90453416Y-118173368D01*
X90458366Y-118171883D01*
X90662429Y-118110661D01*
X90662434Y-118110659D01*
X90667384Y-118109174D01*
X90867994Y-118010896D01*
X91049860Y-117881173D01*
X91056279Y-117874777D01*
X91150268Y-117781115D01*
X91208096Y-117723489D01*
X91338453Y-117542077D01*
X91339776Y-117543028D01*
X91386645Y-117499857D01*
X91456580Y-117487625D01*
X91522026Y-117515144D01*
X91549875Y-117546994D01*
X91609987Y-117645088D01*
X91756250Y-117813938D01*
X91928126Y-117956632D01*
X92121000Y-118069338D01*
X92329692Y-118149030D01*
X92334760Y-118150061D01*
X92334763Y-118150062D01*
X92429862Y-118169410D01*
X92548597Y-118193567D01*
X92553772Y-118193757D01*
X92553774Y-118193757D01*
X92766673Y-118201564D01*
X92766677Y-118201564D01*
X92771837Y-118201753D01*
X92776957Y-118201097D01*
X92776959Y-118201097D01*
X92988288Y-118174025D01*
X92988289Y-118174025D01*
X92993416Y-118173368D01*
X92998366Y-118171883D01*
X93202429Y-118110661D01*
X93202434Y-118110659D01*
X93207384Y-118109174D01*
X93407994Y-118010896D01*
X93589860Y-117881173D01*
X93596279Y-117874777D01*
X93690268Y-117781115D01*
X93748096Y-117723489D01*
X93878453Y-117542077D01*
X93879640Y-117542930D01*
X93926960Y-117499362D01*
X93996897Y-117487145D01*
X94062338Y-117514678D01*
X94090166Y-117546511D01*
X94147694Y-117640388D01*
X94153777Y-117648699D01*
X94293213Y-117809667D01*
X94300580Y-117816883D01*
X94464434Y-117952916D01*
X94472881Y-117958831D01*
X94656756Y-118066279D01*
X94666042Y-118070729D01*
X94865001Y-118146703D01*
X94874899Y-118149579D01*
X94978250Y-118170606D01*
X94992299Y-118169410D01*
X94996000Y-118159065D01*
X94996000Y-118158517D01*
X95504000Y-118158517D01*
X95508064Y-118172359D01*
X95521478Y-118174393D01*
X95528184Y-118173534D01*
X95538262Y-118171392D01*
X95742255Y-118110191D01*
X95751842Y-118106433D01*
X95943095Y-118012739D01*
X95951945Y-118007464D01*
X96125328Y-117883792D01*
X96133200Y-117877139D01*
X96284052Y-117726812D01*
X96290730Y-117718965D01*
X96415003Y-117546020D01*
X96420313Y-117537183D01*
X96514670Y-117346267D01*
X96518469Y-117336672D01*
X96580377Y-117132910D01*
X96582555Y-117122837D01*
X96583986Y-117111962D01*
X96583363Y-117107966D01*
X97728257Y-117107966D01*
X97758565Y-117242446D01*
X97761645Y-117252275D01*
X97841770Y-117449603D01*
X97846413Y-117458794D01*
X97957694Y-117640388D01*
X97963777Y-117648699D01*
X98103213Y-117809667D01*
X98110580Y-117816883D01*
X98274434Y-117952916D01*
X98282881Y-117958831D01*
X98466756Y-118066279D01*
X98476042Y-118070729D01*
X98675001Y-118146703D01*
X98684899Y-118149579D01*
X98788250Y-118170606D01*
X98802299Y-118169410D01*
X98806000Y-118159065D01*
X98806000Y-118158517D01*
X99314000Y-118158517D01*
X99318064Y-118172359D01*
X99331478Y-118174393D01*
X99338184Y-118173534D01*
X99348262Y-118171392D01*
X99552255Y-118110191D01*
X99561842Y-118106433D01*
X99753095Y-118012739D01*
X99761948Y-118007462D01*
X99768526Y-118002770D01*
X99835600Y-117979498D01*
X99904608Y-117996184D01*
X99953640Y-118047530D01*
X99961522Y-118066411D01*
X100015977Y-118234004D01*
X100111464Y-118399392D01*
X100115882Y-118404299D01*
X100115883Y-118404300D01*
X100181116Y-118476749D01*
X100239251Y-118541314D01*
X100298394Y-118584284D01*
X100376900Y-118641322D01*
X100393752Y-118653566D01*
X100399780Y-118656250D01*
X100399782Y-118656251D01*
X100562185Y-118728557D01*
X100568216Y-118731242D01*
X100651662Y-118748979D01*
X100748560Y-118769576D01*
X100748565Y-118769576D01*
X100755017Y-118770948D01*
X100945991Y-118770948D01*
X100952443Y-118769576D01*
X100952448Y-118769576D01*
X101049346Y-118748979D01*
X101132792Y-118731242D01*
X101138823Y-118728557D01*
X101301226Y-118656251D01*
X101301228Y-118656250D01*
X101307256Y-118653566D01*
X101312598Y-118649685D01*
X101456413Y-118545197D01*
X101456415Y-118545195D01*
X101461757Y-118541314D01*
X101468189Y-118534170D01*
X101488439Y-118511681D01*
X101548885Y-118474442D01*
X101619869Y-118475794D01*
X101675709Y-118511680D01*
X101737586Y-118580401D01*
X101892087Y-118692653D01*
X101898115Y-118695337D01*
X101898117Y-118695338D01*
X102024509Y-118751611D01*
X102066551Y-118770329D01*
X102159952Y-118790182D01*
X102246895Y-118808663D01*
X102246900Y-118808663D01*
X102253352Y-118810035D01*
X102444326Y-118810035D01*
X102450778Y-118808663D01*
X102450783Y-118808663D01*
X102537726Y-118790182D01*
X102631127Y-118770329D01*
X102673169Y-118751611D01*
X102799561Y-118695338D01*
X102799563Y-118695337D01*
X102805591Y-118692653D01*
X102960092Y-118580401D01*
X103053421Y-118476749D01*
X103083460Y-118443387D01*
X103083461Y-118443386D01*
X103087879Y-118438479D01*
X103183366Y-118273091D01*
X103225386Y-118143767D01*
X103240341Y-118097742D01*
X103240341Y-118097740D01*
X103242381Y-118091463D01*
X103243071Y-118084900D01*
X103243779Y-118081568D01*
X103277508Y-118019095D01*
X103339658Y-117984775D01*
X103410497Y-117989504D01*
X103430592Y-117998978D01*
X103551000Y-118069338D01*
X103759692Y-118149030D01*
X103764760Y-118150061D01*
X103764763Y-118150062D01*
X103859862Y-118169410D01*
X103978597Y-118193567D01*
X103983772Y-118193757D01*
X103983774Y-118193757D01*
X104196673Y-118201564D01*
X104196677Y-118201564D01*
X104201837Y-118201753D01*
X104206957Y-118201097D01*
X104206959Y-118201097D01*
X104418288Y-118174025D01*
X104418289Y-118174025D01*
X104423416Y-118173368D01*
X104428366Y-118171883D01*
X104632429Y-118110661D01*
X104632434Y-118110659D01*
X104637384Y-118109174D01*
X104837994Y-118010896D01*
X105019860Y-117881173D01*
X105026279Y-117874777D01*
X105120268Y-117781115D01*
X105178096Y-117723489D01*
X105308453Y-117542077D01*
X105309776Y-117543028D01*
X105356645Y-117499857D01*
X105426580Y-117487625D01*
X105492026Y-117515144D01*
X105519875Y-117546994D01*
X105579987Y-117645088D01*
X105726250Y-117813938D01*
X105898126Y-117956632D01*
X106091000Y-118069338D01*
X106299692Y-118149030D01*
X106304760Y-118150061D01*
X106304763Y-118150062D01*
X106399862Y-118169410D01*
X106518597Y-118193567D01*
X106523772Y-118193757D01*
X106523774Y-118193757D01*
X106736673Y-118201564D01*
X106736677Y-118201564D01*
X106741837Y-118201753D01*
X106746957Y-118201097D01*
X106746959Y-118201097D01*
X106958288Y-118174025D01*
X106958289Y-118174025D01*
X106963416Y-118173368D01*
X106968366Y-118171883D01*
X107172429Y-118110661D01*
X107172434Y-118110659D01*
X107177384Y-118109174D01*
X107377994Y-118010896D01*
X107559860Y-117881173D01*
X107566279Y-117874777D01*
X107660268Y-117781115D01*
X107718096Y-117723489D01*
X107848453Y-117542077D01*
X107849776Y-117543028D01*
X107896645Y-117499857D01*
X107966580Y-117487625D01*
X108032026Y-117515144D01*
X108059875Y-117546994D01*
X108119987Y-117645088D01*
X108266250Y-117813938D01*
X108438126Y-117956632D01*
X108631000Y-118069338D01*
X108839692Y-118149030D01*
X108844760Y-118150061D01*
X108844763Y-118150062D01*
X108939862Y-118169410D01*
X109058597Y-118193567D01*
X109063772Y-118193757D01*
X109063774Y-118193757D01*
X109276673Y-118201564D01*
X109276677Y-118201564D01*
X109281837Y-118201753D01*
X109286957Y-118201097D01*
X109286959Y-118201097D01*
X109498288Y-118174025D01*
X109498289Y-118174025D01*
X109503416Y-118173368D01*
X109508366Y-118171883D01*
X109712429Y-118110661D01*
X109712434Y-118110659D01*
X109717384Y-118109174D01*
X109917994Y-118010896D01*
X110099860Y-117881173D01*
X110106279Y-117874777D01*
X110200268Y-117781115D01*
X110258096Y-117723489D01*
X110388453Y-117542077D01*
X110389776Y-117543028D01*
X110436645Y-117499857D01*
X110506580Y-117487625D01*
X110572026Y-117515144D01*
X110599875Y-117546994D01*
X110659987Y-117645088D01*
X110806250Y-117813938D01*
X110978126Y-117956632D01*
X111171000Y-118069338D01*
X111379692Y-118149030D01*
X111384760Y-118150061D01*
X111384763Y-118150062D01*
X111479862Y-118169410D01*
X111598597Y-118193567D01*
X111603772Y-118193757D01*
X111603774Y-118193757D01*
X111816673Y-118201564D01*
X111816677Y-118201564D01*
X111821837Y-118201753D01*
X111826957Y-118201097D01*
X111826959Y-118201097D01*
X112038288Y-118174025D01*
X112038289Y-118174025D01*
X112043416Y-118173368D01*
X112048366Y-118171883D01*
X112252429Y-118110661D01*
X112252434Y-118110659D01*
X112257384Y-118109174D01*
X112457994Y-118010896D01*
X112639860Y-117881173D01*
X112646279Y-117874777D01*
X112740268Y-117781115D01*
X112798096Y-117723489D01*
X112928453Y-117542077D01*
X112929776Y-117543028D01*
X112976645Y-117499857D01*
X113046580Y-117487625D01*
X113112026Y-117515144D01*
X113139875Y-117546994D01*
X113199987Y-117645088D01*
X113346250Y-117813938D01*
X113518126Y-117956632D01*
X113711000Y-118069338D01*
X113919692Y-118149030D01*
X113924760Y-118150061D01*
X113924763Y-118150062D01*
X114019862Y-118169410D01*
X114138597Y-118193567D01*
X114143772Y-118193757D01*
X114143774Y-118193757D01*
X114356673Y-118201564D01*
X114356677Y-118201564D01*
X114361837Y-118201753D01*
X114366957Y-118201097D01*
X114366959Y-118201097D01*
X114578288Y-118174025D01*
X114578289Y-118174025D01*
X114583416Y-118173368D01*
X114588366Y-118171883D01*
X114792429Y-118110661D01*
X114792434Y-118110659D01*
X114797384Y-118109174D01*
X114997994Y-118010896D01*
X115179860Y-117881173D01*
X115186279Y-117874777D01*
X115280268Y-117781115D01*
X115338096Y-117723489D01*
X115468453Y-117542077D01*
X115469776Y-117543028D01*
X115516645Y-117499857D01*
X115586580Y-117487625D01*
X115652026Y-117515144D01*
X115679875Y-117546994D01*
X115739987Y-117645088D01*
X115886250Y-117813938D01*
X116058126Y-117956632D01*
X116251000Y-118069338D01*
X116459692Y-118149030D01*
X116464760Y-118150061D01*
X116464763Y-118150062D01*
X116559862Y-118169410D01*
X116678597Y-118193567D01*
X116683772Y-118193757D01*
X116683774Y-118193757D01*
X116896673Y-118201564D01*
X116896677Y-118201564D01*
X116901837Y-118201753D01*
X116906957Y-118201097D01*
X116906959Y-118201097D01*
X117118288Y-118174025D01*
X117118289Y-118174025D01*
X117123416Y-118173368D01*
X117128366Y-118171883D01*
X117332429Y-118110661D01*
X117332434Y-118110659D01*
X117337384Y-118109174D01*
X117537994Y-118010896D01*
X117719860Y-117881173D01*
X117726279Y-117874777D01*
X117820268Y-117781115D01*
X117878096Y-117723489D01*
X118008453Y-117542077D01*
X118009776Y-117543028D01*
X118056645Y-117499857D01*
X118126580Y-117487625D01*
X118192026Y-117515144D01*
X118219875Y-117546994D01*
X118279987Y-117645088D01*
X118426250Y-117813938D01*
X118598126Y-117956632D01*
X118791000Y-118069338D01*
X118999692Y-118149030D01*
X119004760Y-118150061D01*
X119004763Y-118150062D01*
X119099862Y-118169410D01*
X119218597Y-118193567D01*
X119223772Y-118193757D01*
X119223774Y-118193757D01*
X119436673Y-118201564D01*
X119436677Y-118201564D01*
X119441837Y-118201753D01*
X119446957Y-118201097D01*
X119446959Y-118201097D01*
X119658288Y-118174025D01*
X119658289Y-118174025D01*
X119663416Y-118173368D01*
X119668366Y-118171883D01*
X119872429Y-118110661D01*
X119872434Y-118110659D01*
X119877384Y-118109174D01*
X120077994Y-118010896D01*
X120259860Y-117881173D01*
X120266279Y-117874777D01*
X120360268Y-117781115D01*
X120418096Y-117723489D01*
X120548453Y-117542077D01*
X120549776Y-117543028D01*
X120596645Y-117499857D01*
X120666580Y-117487625D01*
X120732026Y-117515144D01*
X120759875Y-117546994D01*
X120819987Y-117645088D01*
X120966250Y-117813938D01*
X121138126Y-117956632D01*
X121331000Y-118069338D01*
X121539692Y-118149030D01*
X121544760Y-118150061D01*
X121544763Y-118150062D01*
X121639862Y-118169410D01*
X121758597Y-118193567D01*
X121763772Y-118193757D01*
X121763774Y-118193757D01*
X121976673Y-118201564D01*
X121976677Y-118201564D01*
X121981837Y-118201753D01*
X121986957Y-118201097D01*
X121986959Y-118201097D01*
X122198288Y-118174025D01*
X122198289Y-118174025D01*
X122203416Y-118173368D01*
X122208366Y-118171883D01*
X122412429Y-118110661D01*
X122412434Y-118110659D01*
X122417384Y-118109174D01*
X122617994Y-118010896D01*
X122799860Y-117881173D01*
X122806279Y-117874777D01*
X122900268Y-117781115D01*
X122958096Y-117723489D01*
X123088453Y-117542077D01*
X123089776Y-117543028D01*
X123136645Y-117499857D01*
X123206580Y-117487625D01*
X123272026Y-117515144D01*
X123299875Y-117546994D01*
X123359987Y-117645088D01*
X123506250Y-117813938D01*
X123678126Y-117956632D01*
X123871000Y-118069338D01*
X124079692Y-118149030D01*
X124084760Y-118150061D01*
X124084763Y-118150062D01*
X124179862Y-118169410D01*
X124298597Y-118193567D01*
X124303772Y-118193757D01*
X124303774Y-118193757D01*
X124516673Y-118201564D01*
X124516677Y-118201564D01*
X124521837Y-118201753D01*
X124526957Y-118201097D01*
X124526959Y-118201097D01*
X124738288Y-118174025D01*
X124738289Y-118174025D01*
X124743416Y-118173368D01*
X124748366Y-118171883D01*
X124952429Y-118110661D01*
X124952434Y-118110659D01*
X124957384Y-118109174D01*
X125157994Y-118010896D01*
X125339860Y-117881173D01*
X125448091Y-117773319D01*
X125510462Y-117739404D01*
X125581268Y-117744592D01*
X125638030Y-117787238D01*
X125655012Y-117818341D01*
X125671547Y-117862448D01*
X125699385Y-117936705D01*
X125786739Y-118053261D01*
X125903295Y-118140615D01*
X126039684Y-118191745D01*
X126101866Y-118198500D01*
X127898134Y-118198500D01*
X127960316Y-118191745D01*
X128096705Y-118140615D01*
X128213261Y-118053261D01*
X128300615Y-117936705D01*
X128351745Y-117800316D01*
X128358500Y-117738134D01*
X128358500Y-115941866D01*
X128351745Y-115879684D01*
X128300615Y-115743295D01*
X128213261Y-115626739D01*
X128096705Y-115539385D01*
X127960316Y-115488255D01*
X127898134Y-115481500D01*
X126101866Y-115481500D01*
X126039684Y-115488255D01*
X125903295Y-115539385D01*
X125786739Y-115626739D01*
X125699385Y-115743295D01*
X125696233Y-115751703D01*
X125654919Y-115861907D01*
X125612277Y-115918671D01*
X125545716Y-115943371D01*
X125476367Y-115928163D01*
X125443743Y-115902476D01*
X125393151Y-115846875D01*
X125393142Y-115846866D01*
X125389670Y-115843051D01*
X125385619Y-115839852D01*
X125385615Y-115839848D01*
X125218414Y-115707800D01*
X125218410Y-115707798D01*
X125214359Y-115704598D01*
X125178028Y-115684542D01*
X125091472Y-115636761D01*
X125018789Y-115596638D01*
X125013920Y-115594914D01*
X125013916Y-115594912D01*
X124813087Y-115523795D01*
X124813083Y-115523794D01*
X124808212Y-115522069D01*
X124803119Y-115521162D01*
X124803116Y-115521161D01*
X124593373Y-115483800D01*
X124593367Y-115483799D01*
X124588284Y-115482894D01*
X124514452Y-115481992D01*
X124370081Y-115480228D01*
X124370079Y-115480228D01*
X124364911Y-115480165D01*
X124144091Y-115513955D01*
X123931756Y-115583357D01*
X123891206Y-115604466D01*
X123751705Y-115677086D01*
X123733607Y-115686507D01*
X123729474Y-115689610D01*
X123729471Y-115689612D01*
X123559100Y-115817530D01*
X123554965Y-115820635D01*
X123529541Y-115847240D01*
X123443729Y-115937037D01*
X123400629Y-115982138D01*
X123293201Y-116139621D01*
X123238293Y-116184621D01*
X123167768Y-116192792D01*
X123104021Y-116161538D01*
X123083324Y-116137054D01*
X123002822Y-116012617D01*
X123002820Y-116012614D01*
X123000014Y-116008277D01*
X122849670Y-115843051D01*
X122845619Y-115839852D01*
X122845615Y-115839848D01*
X122678414Y-115707800D01*
X122678410Y-115707798D01*
X122674359Y-115704598D01*
X122638028Y-115684542D01*
X122551472Y-115636761D01*
X122478789Y-115596638D01*
X122473920Y-115594914D01*
X122473916Y-115594912D01*
X122273087Y-115523795D01*
X122273083Y-115523794D01*
X122268212Y-115522069D01*
X122263119Y-115521162D01*
X122263116Y-115521161D01*
X122053373Y-115483800D01*
X122053367Y-115483799D01*
X122048284Y-115482894D01*
X121974452Y-115481992D01*
X121830081Y-115480228D01*
X121830079Y-115480228D01*
X121824911Y-115480165D01*
X121604091Y-115513955D01*
X121391756Y-115583357D01*
X121351206Y-115604466D01*
X121211705Y-115677086D01*
X121193607Y-115686507D01*
X121189474Y-115689610D01*
X121189471Y-115689612D01*
X121019100Y-115817530D01*
X121014965Y-115820635D01*
X120989541Y-115847240D01*
X120903729Y-115937037D01*
X120860629Y-115982138D01*
X120753201Y-116139621D01*
X120698293Y-116184621D01*
X120627768Y-116192792D01*
X120564021Y-116161538D01*
X120543324Y-116137054D01*
X120462822Y-116012617D01*
X120462820Y-116012614D01*
X120460014Y-116008277D01*
X120309670Y-115843051D01*
X120305619Y-115839852D01*
X120305615Y-115839848D01*
X120138414Y-115707800D01*
X120138410Y-115707798D01*
X120134359Y-115704598D01*
X120098028Y-115684542D01*
X120011472Y-115636761D01*
X119938789Y-115596638D01*
X119933920Y-115594914D01*
X119933916Y-115594912D01*
X119733087Y-115523795D01*
X119733083Y-115523794D01*
X119728212Y-115522069D01*
X119723119Y-115521162D01*
X119723116Y-115521161D01*
X119513373Y-115483800D01*
X119513367Y-115483799D01*
X119508284Y-115482894D01*
X119434452Y-115481992D01*
X119290081Y-115480228D01*
X119290079Y-115480228D01*
X119284911Y-115480165D01*
X119064091Y-115513955D01*
X118851756Y-115583357D01*
X118811206Y-115604466D01*
X118671705Y-115677086D01*
X118653607Y-115686507D01*
X118649474Y-115689610D01*
X118649471Y-115689612D01*
X118479100Y-115817530D01*
X118474965Y-115820635D01*
X118449541Y-115847240D01*
X118363729Y-115937037D01*
X118320629Y-115982138D01*
X118213201Y-116139621D01*
X118158293Y-116184621D01*
X118087768Y-116192792D01*
X118024021Y-116161538D01*
X118003324Y-116137054D01*
X117922822Y-116012617D01*
X117922820Y-116012614D01*
X117920014Y-116008277D01*
X117769670Y-115843051D01*
X117765619Y-115839852D01*
X117765615Y-115839848D01*
X117598414Y-115707800D01*
X117598410Y-115707798D01*
X117594359Y-115704598D01*
X117558028Y-115684542D01*
X117471472Y-115636761D01*
X117398789Y-115596638D01*
X117393920Y-115594914D01*
X117393916Y-115594912D01*
X117193087Y-115523795D01*
X117193083Y-115523794D01*
X117188212Y-115522069D01*
X117183119Y-115521162D01*
X117183116Y-115521161D01*
X116973373Y-115483800D01*
X116973367Y-115483799D01*
X116968284Y-115482894D01*
X116894452Y-115481992D01*
X116750081Y-115480228D01*
X116750079Y-115480228D01*
X116744911Y-115480165D01*
X116524091Y-115513955D01*
X116311756Y-115583357D01*
X116271206Y-115604466D01*
X116131705Y-115677086D01*
X116113607Y-115686507D01*
X116109474Y-115689610D01*
X116109471Y-115689612D01*
X115939100Y-115817530D01*
X115934965Y-115820635D01*
X115909541Y-115847240D01*
X115823729Y-115937037D01*
X115780629Y-115982138D01*
X115673201Y-116139621D01*
X115618293Y-116184621D01*
X115547768Y-116192792D01*
X115484021Y-116161538D01*
X115463324Y-116137054D01*
X115382822Y-116012617D01*
X115382820Y-116012614D01*
X115380014Y-116008277D01*
X115229670Y-115843051D01*
X115225619Y-115839852D01*
X115225615Y-115839848D01*
X115058414Y-115707800D01*
X115058410Y-115707798D01*
X115054359Y-115704598D01*
X115018028Y-115684542D01*
X114931472Y-115636761D01*
X114858789Y-115596638D01*
X114853920Y-115594914D01*
X114853916Y-115594912D01*
X114653087Y-115523795D01*
X114653083Y-115523794D01*
X114648212Y-115522069D01*
X114643119Y-115521162D01*
X114643116Y-115521161D01*
X114433373Y-115483800D01*
X114433367Y-115483799D01*
X114428284Y-115482894D01*
X114354452Y-115481992D01*
X114210081Y-115480228D01*
X114210079Y-115480228D01*
X114204911Y-115480165D01*
X113984091Y-115513955D01*
X113771756Y-115583357D01*
X113731206Y-115604466D01*
X113591705Y-115677086D01*
X113573607Y-115686507D01*
X113569474Y-115689610D01*
X113569471Y-115689612D01*
X113399100Y-115817530D01*
X113394965Y-115820635D01*
X113369541Y-115847240D01*
X113283729Y-115937037D01*
X113240629Y-115982138D01*
X113133201Y-116139621D01*
X113078293Y-116184621D01*
X113007768Y-116192792D01*
X112944021Y-116161538D01*
X112923324Y-116137054D01*
X112842822Y-116012617D01*
X112842820Y-116012614D01*
X112840014Y-116008277D01*
X112689670Y-115843051D01*
X112685619Y-115839852D01*
X112685615Y-115839848D01*
X112518414Y-115707800D01*
X112518410Y-115707798D01*
X112514359Y-115704598D01*
X112478028Y-115684542D01*
X112391472Y-115636761D01*
X112318789Y-115596638D01*
X112313920Y-115594914D01*
X112313916Y-115594912D01*
X112113087Y-115523795D01*
X112113083Y-115523794D01*
X112108212Y-115522069D01*
X112103119Y-115521162D01*
X112103116Y-115521161D01*
X111893373Y-115483800D01*
X111893367Y-115483799D01*
X111888284Y-115482894D01*
X111814452Y-115481992D01*
X111670081Y-115480228D01*
X111670079Y-115480228D01*
X111664911Y-115480165D01*
X111444091Y-115513955D01*
X111231756Y-115583357D01*
X111191206Y-115604466D01*
X111051705Y-115677086D01*
X111033607Y-115686507D01*
X111029474Y-115689610D01*
X111029471Y-115689612D01*
X110859100Y-115817530D01*
X110854965Y-115820635D01*
X110829541Y-115847240D01*
X110743729Y-115937037D01*
X110700629Y-115982138D01*
X110593201Y-116139621D01*
X110538293Y-116184621D01*
X110467768Y-116192792D01*
X110404021Y-116161538D01*
X110383324Y-116137054D01*
X110302822Y-116012617D01*
X110302820Y-116012614D01*
X110300014Y-116008277D01*
X110149670Y-115843051D01*
X110145619Y-115839852D01*
X110145615Y-115839848D01*
X109978414Y-115707800D01*
X109978410Y-115707798D01*
X109974359Y-115704598D01*
X109938028Y-115684542D01*
X109851472Y-115636761D01*
X109778789Y-115596638D01*
X109773920Y-115594914D01*
X109773916Y-115594912D01*
X109573087Y-115523795D01*
X109573083Y-115523794D01*
X109568212Y-115522069D01*
X109563119Y-115521162D01*
X109563116Y-115521161D01*
X109353373Y-115483800D01*
X109353367Y-115483799D01*
X109348284Y-115482894D01*
X109274452Y-115481992D01*
X109130081Y-115480228D01*
X109130079Y-115480228D01*
X109124911Y-115480165D01*
X108904091Y-115513955D01*
X108691756Y-115583357D01*
X108651206Y-115604466D01*
X108511705Y-115677086D01*
X108493607Y-115686507D01*
X108489474Y-115689610D01*
X108489471Y-115689612D01*
X108319100Y-115817530D01*
X108314965Y-115820635D01*
X108289541Y-115847240D01*
X108203729Y-115937037D01*
X108160629Y-115982138D01*
X108053201Y-116139621D01*
X107998293Y-116184621D01*
X107927768Y-116192792D01*
X107864021Y-116161538D01*
X107843324Y-116137054D01*
X107762822Y-116012617D01*
X107762820Y-116012614D01*
X107760014Y-116008277D01*
X107609670Y-115843051D01*
X107605619Y-115839852D01*
X107605615Y-115839848D01*
X107438414Y-115707800D01*
X107438410Y-115707798D01*
X107434359Y-115704598D01*
X107398028Y-115684542D01*
X107311472Y-115636761D01*
X107238789Y-115596638D01*
X107233920Y-115594914D01*
X107233916Y-115594912D01*
X107033087Y-115523795D01*
X107033083Y-115523794D01*
X107028212Y-115522069D01*
X107023119Y-115521162D01*
X107023116Y-115521161D01*
X106813373Y-115483800D01*
X106813367Y-115483799D01*
X106808284Y-115482894D01*
X106734452Y-115481992D01*
X106590081Y-115480228D01*
X106590079Y-115480228D01*
X106584911Y-115480165D01*
X106364091Y-115513955D01*
X106151756Y-115583357D01*
X106111206Y-115604466D01*
X105971705Y-115677086D01*
X105953607Y-115686507D01*
X105949474Y-115689610D01*
X105949471Y-115689612D01*
X105779100Y-115817530D01*
X105774965Y-115820635D01*
X105749541Y-115847240D01*
X105663729Y-115937037D01*
X105620629Y-115982138D01*
X105513201Y-116139621D01*
X105458293Y-116184621D01*
X105387768Y-116192792D01*
X105324021Y-116161538D01*
X105303324Y-116137054D01*
X105222822Y-116012617D01*
X105222820Y-116012614D01*
X105220014Y-116008277D01*
X105069670Y-115843051D01*
X105065619Y-115839852D01*
X105065615Y-115839848D01*
X104898414Y-115707800D01*
X104898410Y-115707798D01*
X104894359Y-115704598D01*
X104858028Y-115684542D01*
X104771472Y-115636761D01*
X104698789Y-115596638D01*
X104693920Y-115594914D01*
X104693916Y-115594912D01*
X104493087Y-115523795D01*
X104493083Y-115523794D01*
X104488212Y-115522069D01*
X104483119Y-115521162D01*
X104483116Y-115521161D01*
X104273373Y-115483800D01*
X104273367Y-115483799D01*
X104268284Y-115482894D01*
X104194452Y-115481992D01*
X104050081Y-115480228D01*
X104050079Y-115480228D01*
X104044911Y-115480165D01*
X103824091Y-115513955D01*
X103611756Y-115583357D01*
X103413607Y-115686507D01*
X103409465Y-115689617D01*
X103405525Y-115692098D01*
X103337223Y-115711472D01*
X103269289Y-115690843D01*
X103223292Y-115636761D01*
X103216539Y-115615988D01*
X103216323Y-115613937D01*
X103157308Y-115432309D01*
X103061821Y-115266921D01*
X102989195Y-115186261D01*
X102938456Y-115129910D01*
X102938452Y-115129906D01*
X102934034Y-115124999D01*
X102779533Y-115012747D01*
X102773505Y-115010063D01*
X102773503Y-115010062D01*
X102611100Y-114937756D01*
X102611099Y-114937756D01*
X102605069Y-114935071D01*
X102511358Y-114915152D01*
X102424725Y-114896737D01*
X102424720Y-114896737D01*
X102418268Y-114895365D01*
X102227294Y-114895365D01*
X102220842Y-114896737D01*
X102220837Y-114896737D01*
X102134204Y-114915152D01*
X102040493Y-114935071D01*
X102034463Y-114937756D01*
X102034462Y-114937756D01*
X101872059Y-115010062D01*
X101872057Y-115010063D01*
X101866029Y-115012747D01*
X101711528Y-115124999D01*
X101611862Y-115235690D01*
X101551417Y-115272928D01*
X101480433Y-115271576D01*
X101424591Y-115235688D01*
X101388005Y-115195055D01*
X101388004Y-115195054D01*
X101383583Y-115190144D01*
X101241639Y-115087015D01*
X101234424Y-115081773D01*
X101234423Y-115081772D01*
X101229082Y-115077892D01*
X101223054Y-115075208D01*
X101223052Y-115075207D01*
X101060649Y-115002901D01*
X101060648Y-115002901D01*
X101054618Y-115000216D01*
X100961218Y-114980363D01*
X100874274Y-114961882D01*
X100874269Y-114961882D01*
X100867817Y-114960510D01*
X100676843Y-114960510D01*
X100670391Y-114961882D01*
X100670386Y-114961882D01*
X100583442Y-114980363D01*
X100490042Y-115000216D01*
X100484012Y-115002901D01*
X100484011Y-115002901D01*
X100321608Y-115075207D01*
X100321606Y-115075208D01*
X100315578Y-115077892D01*
X100310237Y-115081772D01*
X100310236Y-115081773D01*
X100303021Y-115087015D01*
X100161077Y-115190144D01*
X100156656Y-115195054D01*
X100156655Y-115195055D01*
X100128482Y-115226345D01*
X100033290Y-115332066D01*
X100023724Y-115348635D01*
X99943607Y-115487402D01*
X99937803Y-115497454D01*
X99929805Y-115522069D01*
X99908951Y-115586250D01*
X99868877Y-115644855D01*
X99803480Y-115672492D01*
X99728224Y-115657622D01*
X99623107Y-115599594D01*
X99613705Y-115595369D01*
X99412959Y-115524280D01*
X99402988Y-115521646D01*
X99331837Y-115508972D01*
X99318540Y-115510432D01*
X99314000Y-115524989D01*
X99314000Y-118158517D01*
X98806000Y-118158517D01*
X98806000Y-117112115D01*
X98801525Y-117096876D01*
X98800135Y-117095671D01*
X98792452Y-117094000D01*
X97743225Y-117094000D01*
X97729694Y-117097973D01*
X97728257Y-117107966D01*
X96583363Y-117107966D01*
X96581775Y-117097778D01*
X96568617Y-117094000D01*
X95522115Y-117094000D01*
X95506876Y-117098475D01*
X95505671Y-117099865D01*
X95504000Y-117107548D01*
X95504000Y-118158517D01*
X94996000Y-118158517D01*
X94996000Y-116567885D01*
X95504000Y-116567885D01*
X95508475Y-116583124D01*
X95509865Y-116584329D01*
X95517548Y-116586000D01*
X96568344Y-116586000D01*
X96581875Y-116582027D01*
X96583002Y-116574183D01*
X97724389Y-116574183D01*
X97725912Y-116582607D01*
X97738292Y-116586000D01*
X98787885Y-116586000D01*
X98803124Y-116581525D01*
X98804329Y-116580135D01*
X98806000Y-116572452D01*
X98806000Y-115523102D01*
X98802082Y-115509758D01*
X98787806Y-115507771D01*
X98749324Y-115513660D01*
X98739288Y-115516051D01*
X98536868Y-115582212D01*
X98527359Y-115586209D01*
X98338463Y-115684542D01*
X98329738Y-115690036D01*
X98159433Y-115817905D01*
X98151726Y-115824748D01*
X98004590Y-115978717D01*
X97998104Y-115986727D01*
X97878098Y-116162649D01*
X97873000Y-116171623D01*
X97783338Y-116364783D01*
X97779775Y-116374470D01*
X97724389Y-116574183D01*
X96583002Y-116574183D01*
X96583180Y-116572947D01*
X96541214Y-116405875D01*
X96537894Y-116396124D01*
X96452972Y-116200814D01*
X96448105Y-116191739D01*
X96332426Y-116012926D01*
X96326136Y-116004757D01*
X96182806Y-115847240D01*
X96175273Y-115840215D01*
X96008139Y-115708222D01*
X95999552Y-115702517D01*
X95813117Y-115599599D01*
X95803705Y-115595369D01*
X95602959Y-115524280D01*
X95592988Y-115521646D01*
X95521837Y-115508972D01*
X95508540Y-115510432D01*
X95504000Y-115524989D01*
X95504000Y-116567885D01*
X94996000Y-116567885D01*
X94996000Y-115523102D01*
X94992082Y-115509758D01*
X94977806Y-115507771D01*
X94939324Y-115513660D01*
X94929288Y-115516051D01*
X94726868Y-115582212D01*
X94717359Y-115586209D01*
X94528463Y-115684542D01*
X94519738Y-115690036D01*
X94349433Y-115817905D01*
X94341726Y-115824748D01*
X94194590Y-115978717D01*
X94188109Y-115986722D01*
X94083498Y-116140074D01*
X94028587Y-116185076D01*
X93958062Y-116193247D01*
X93894315Y-116161993D01*
X93873618Y-116137509D01*
X93792822Y-116012617D01*
X93792820Y-116012614D01*
X93790014Y-116008277D01*
X93639670Y-115843051D01*
X93635619Y-115839852D01*
X93635615Y-115839848D01*
X93468414Y-115707800D01*
X93468410Y-115707798D01*
X93464359Y-115704598D01*
X93428028Y-115684542D01*
X93341472Y-115636761D01*
X93268789Y-115596638D01*
X93263920Y-115594914D01*
X93263916Y-115594912D01*
X93063087Y-115523795D01*
X93063083Y-115523794D01*
X93058212Y-115522069D01*
X93053119Y-115521162D01*
X93053116Y-115521161D01*
X92843373Y-115483800D01*
X92843367Y-115483799D01*
X92838284Y-115482894D01*
X92764452Y-115481992D01*
X92620081Y-115480228D01*
X92620079Y-115480228D01*
X92614911Y-115480165D01*
X92394091Y-115513955D01*
X92181756Y-115583357D01*
X92141206Y-115604466D01*
X92001705Y-115677086D01*
X91983607Y-115686507D01*
X91979474Y-115689610D01*
X91979471Y-115689612D01*
X91809100Y-115817530D01*
X91804965Y-115820635D01*
X91779541Y-115847240D01*
X91693729Y-115937037D01*
X91650629Y-115982138D01*
X91543201Y-116139621D01*
X91488293Y-116184621D01*
X91417768Y-116192792D01*
X91354021Y-116161538D01*
X91333324Y-116137054D01*
X91252822Y-116012617D01*
X91252820Y-116012614D01*
X91250014Y-116008277D01*
X91099670Y-115843051D01*
X91095619Y-115839852D01*
X91095615Y-115839848D01*
X90928414Y-115707800D01*
X90928410Y-115707798D01*
X90924359Y-115704598D01*
X90888028Y-115684542D01*
X90801472Y-115636761D01*
X90728789Y-115596638D01*
X90723920Y-115594914D01*
X90723916Y-115594912D01*
X90523087Y-115523795D01*
X90523083Y-115523794D01*
X90518212Y-115522069D01*
X90513119Y-115521162D01*
X90513116Y-115521161D01*
X90303373Y-115483800D01*
X90303367Y-115483799D01*
X90298284Y-115482894D01*
X90224452Y-115481992D01*
X90080081Y-115480228D01*
X90080079Y-115480228D01*
X90074911Y-115480165D01*
X89854091Y-115513955D01*
X89641756Y-115583357D01*
X89601206Y-115604466D01*
X89461705Y-115677086D01*
X89443607Y-115686507D01*
X89439474Y-115689610D01*
X89439471Y-115689612D01*
X89269100Y-115817530D01*
X89264965Y-115820635D01*
X89239541Y-115847240D01*
X89153729Y-115937037D01*
X89110629Y-115982138D01*
X89003201Y-116139621D01*
X88948293Y-116184621D01*
X88877768Y-116192792D01*
X88814021Y-116161538D01*
X88793324Y-116137054D01*
X88712822Y-116012617D01*
X88712820Y-116012614D01*
X88710014Y-116008277D01*
X88559670Y-115843051D01*
X88555619Y-115839852D01*
X88555615Y-115839848D01*
X88388414Y-115707800D01*
X88388410Y-115707798D01*
X88384359Y-115704598D01*
X88348028Y-115684542D01*
X88261472Y-115636761D01*
X88188789Y-115596638D01*
X88183920Y-115594914D01*
X88183916Y-115594912D01*
X87983087Y-115523795D01*
X87983083Y-115523794D01*
X87978212Y-115522069D01*
X87973119Y-115521162D01*
X87973116Y-115521161D01*
X87763373Y-115483800D01*
X87763367Y-115483799D01*
X87758284Y-115482894D01*
X87684452Y-115481992D01*
X87540081Y-115480228D01*
X87540079Y-115480228D01*
X87534911Y-115480165D01*
X87314091Y-115513955D01*
X87101756Y-115583357D01*
X87061206Y-115604466D01*
X86921705Y-115677086D01*
X86903607Y-115686507D01*
X86899474Y-115689610D01*
X86899471Y-115689612D01*
X86729100Y-115817530D01*
X86724965Y-115820635D01*
X86699541Y-115847240D01*
X86613729Y-115937037D01*
X86570629Y-115982138D01*
X86463201Y-116139621D01*
X86408293Y-116184621D01*
X86337768Y-116192792D01*
X86274021Y-116161538D01*
X86253324Y-116137054D01*
X86172822Y-116012617D01*
X86172820Y-116012614D01*
X86170014Y-116008277D01*
X86019670Y-115843051D01*
X86015619Y-115839852D01*
X86015615Y-115839848D01*
X85848414Y-115707800D01*
X85848410Y-115707798D01*
X85844359Y-115704598D01*
X85808028Y-115684542D01*
X85721472Y-115636761D01*
X85648789Y-115596638D01*
X85643920Y-115594914D01*
X85643916Y-115594912D01*
X85443087Y-115523795D01*
X85443083Y-115523794D01*
X85438212Y-115522069D01*
X85433119Y-115521162D01*
X85433116Y-115521161D01*
X85223373Y-115483800D01*
X85223367Y-115483799D01*
X85218284Y-115482894D01*
X85144452Y-115481992D01*
X85000081Y-115480228D01*
X85000079Y-115480228D01*
X84994911Y-115480165D01*
X84774091Y-115513955D01*
X84561756Y-115583357D01*
X84521206Y-115604466D01*
X84381705Y-115677086D01*
X84363607Y-115686507D01*
X84359474Y-115689610D01*
X84359471Y-115689612D01*
X84189100Y-115817530D01*
X84184965Y-115820635D01*
X84128537Y-115879684D01*
X84104283Y-115905064D01*
X84042759Y-115940494D01*
X83971846Y-115937037D01*
X83914060Y-115895791D01*
X83895207Y-115862243D01*
X83853767Y-115751703D01*
X83850615Y-115743295D01*
X83763261Y-115626739D01*
X83646705Y-115539385D01*
X83510316Y-115488255D01*
X83448134Y-115481500D01*
X81651866Y-115481500D01*
X81589684Y-115488255D01*
X81453295Y-115539385D01*
X81336739Y-115626739D01*
X81249385Y-115743295D01*
X81198255Y-115879684D01*
X81191500Y-115941866D01*
X81191500Y-117738134D01*
X80392396Y-117738134D01*
X80309354Y-117594302D01*
X80306053Y-117588584D01*
X80268171Y-117546511D01*
X80182688Y-117451573D01*
X80182687Y-117451572D01*
X80178266Y-117446662D01*
X80172919Y-117442777D01*
X80150438Y-117426443D01*
X80107085Y-117370220D01*
X80098500Y-117324508D01*
X80098500Y-116405231D01*
X80118502Y-116337110D01*
X80150440Y-116303295D01*
X80181604Y-116280654D01*
X80181612Y-116280646D01*
X80186952Y-116276767D01*
X80191374Y-116271856D01*
X80310320Y-116139753D01*
X80310321Y-116139752D01*
X80314739Y-116134845D01*
X80387813Y-116008277D01*
X80406922Y-115975180D01*
X80406923Y-115975179D01*
X80410226Y-115969457D01*
X80469241Y-115787829D01*
X80480881Y-115677086D01*
X80488513Y-115604466D01*
X80489203Y-115597901D01*
X80478044Y-115491731D01*
X80469931Y-115414536D01*
X80469931Y-115414534D01*
X80469241Y-115407973D01*
X80410226Y-115226345D01*
X80387084Y-115186261D01*
X80371710Y-115159634D01*
X80314739Y-115060957D01*
X80302459Y-115047318D01*
X80191374Y-114923946D01*
X80191373Y-114923945D01*
X80186952Y-114919035D01*
X80064621Y-114830156D01*
X80037793Y-114810664D01*
X80037792Y-114810663D01*
X80032451Y-114806783D01*
X80026423Y-114804099D01*
X80026421Y-114804098D01*
X79864018Y-114731792D01*
X79864017Y-114731792D01*
X79857987Y-114729107D01*
X79764586Y-114709254D01*
X79677643Y-114690773D01*
X79677638Y-114690773D01*
X79671186Y-114689401D01*
X79480212Y-114689401D01*
X79473760Y-114690773D01*
X79473755Y-114690773D01*
X79386812Y-114709254D01*
X79293411Y-114729107D01*
X79287381Y-114731792D01*
X79287380Y-114731792D01*
X79124977Y-114804098D01*
X79124975Y-114804099D01*
X79118947Y-114806783D01*
X79113606Y-114810663D01*
X79113605Y-114810664D01*
X79086777Y-114830156D01*
X78964446Y-114919035D01*
X78960025Y-114923945D01*
X78960024Y-114923946D01*
X78848940Y-115047318D01*
X78836659Y-115060957D01*
X78833358Y-115066675D01*
X78833355Y-115066679D01*
X78795667Y-115131957D01*
X78744285Y-115180951D01*
X78674572Y-115194388D01*
X78608660Y-115168001D01*
X78577429Y-115131958D01*
X78554782Y-115092733D01*
X78551481Y-115087015D01*
X78533171Y-115066679D01*
X78428116Y-114950004D01*
X78428115Y-114950003D01*
X78423694Y-114945093D01*
X78269193Y-114832841D01*
X78263165Y-114830157D01*
X78263163Y-114830156D01*
X78100760Y-114757850D01*
X78100759Y-114757850D01*
X78094729Y-114755165D01*
X78001328Y-114735312D01*
X77914385Y-114716831D01*
X77914380Y-114716831D01*
X77907928Y-114715459D01*
X77716954Y-114715459D01*
X77710502Y-114716831D01*
X77710497Y-114716831D01*
X77623554Y-114735312D01*
X77530153Y-114755165D01*
X77524123Y-114757850D01*
X77524122Y-114757850D01*
X77361719Y-114830156D01*
X77361717Y-114830157D01*
X77355689Y-114832841D01*
X77201188Y-114945093D01*
X77196767Y-114950003D01*
X77196766Y-114950004D01*
X77091712Y-115066679D01*
X77073401Y-115087015D01*
X76977914Y-115252403D01*
X76918899Y-115434031D01*
X76918209Y-115440592D01*
X76918209Y-115440594D01*
X76913383Y-115486512D01*
X76886370Y-115552169D01*
X76828148Y-115592798D01*
X76757203Y-115595501D01*
X76746017Y-115592115D01*
X76612321Y-115544771D01*
X76553087Y-115523795D01*
X76553083Y-115523794D01*
X76548212Y-115522069D01*
X76543119Y-115521162D01*
X76543116Y-115521161D01*
X76333373Y-115483800D01*
X76333367Y-115483799D01*
X76328284Y-115482894D01*
X76254452Y-115481992D01*
X76110081Y-115480228D01*
X76110079Y-115480228D01*
X76104911Y-115480165D01*
X75884091Y-115513955D01*
X75671756Y-115583357D01*
X75631206Y-115604466D01*
X75491705Y-115677086D01*
X75473607Y-115686507D01*
X75469474Y-115689610D01*
X75469471Y-115689612D01*
X75299100Y-115817530D01*
X75294965Y-115820635D01*
X75269541Y-115847240D01*
X75183729Y-115937037D01*
X75140629Y-115982138D01*
X75033201Y-116139621D01*
X74978293Y-116184621D01*
X74907768Y-116192792D01*
X74844021Y-116161538D01*
X74823324Y-116137054D01*
X74742822Y-116012617D01*
X74742820Y-116012614D01*
X74740014Y-116008277D01*
X74589670Y-115843051D01*
X74585619Y-115839852D01*
X74585615Y-115839848D01*
X74418414Y-115707800D01*
X74418410Y-115707798D01*
X74414359Y-115704598D01*
X74378028Y-115684542D01*
X74291472Y-115636761D01*
X74218789Y-115596638D01*
X74213920Y-115594914D01*
X74213916Y-115594912D01*
X74013087Y-115523795D01*
X74013083Y-115523794D01*
X74008212Y-115522069D01*
X74003119Y-115521162D01*
X74003116Y-115521161D01*
X73793373Y-115483800D01*
X73793367Y-115483799D01*
X73788284Y-115482894D01*
X73714452Y-115481992D01*
X73570081Y-115480228D01*
X73570079Y-115480228D01*
X73564911Y-115480165D01*
X73344091Y-115513955D01*
X73131756Y-115583357D01*
X73091206Y-115604466D01*
X72951705Y-115677086D01*
X72933607Y-115686507D01*
X72929474Y-115689610D01*
X72929471Y-115689612D01*
X72759100Y-115817530D01*
X72754965Y-115820635D01*
X72729541Y-115847240D01*
X72643729Y-115937037D01*
X72600629Y-115982138D01*
X72597720Y-115986403D01*
X72597714Y-115986411D01*
X72585404Y-116004457D01*
X72493112Y-116139753D01*
X72492898Y-116140066D01*
X72437987Y-116185069D01*
X72367462Y-116193240D01*
X72303715Y-116161986D01*
X72283018Y-116137502D01*
X72202426Y-116012926D01*
X72196136Y-116004757D01*
X72052806Y-115847240D01*
X72045273Y-115840215D01*
X71878139Y-115708222D01*
X71869552Y-115702517D01*
X71683117Y-115599599D01*
X71673705Y-115595369D01*
X71472959Y-115524280D01*
X71462988Y-115521646D01*
X71391837Y-115508972D01*
X71378540Y-115510432D01*
X71374000Y-115524989D01*
X71374000Y-118158517D01*
X70866000Y-118158517D01*
X70866000Y-117112115D01*
X70861525Y-117096876D01*
X70860135Y-117095671D01*
X70852452Y-117094000D01*
X69803225Y-117094000D01*
X69789694Y-117097973D01*
X69788257Y-117107966D01*
X68305190Y-117107966D01*
X68306750Y-117091911D01*
X68311603Y-116906590D01*
X68313289Y-116842234D01*
X68313289Y-116842220D01*
X68313347Y-116840000D01*
X68301509Y-116574183D01*
X69784389Y-116574183D01*
X69785912Y-116582607D01*
X69798292Y-116586000D01*
X70847885Y-116586000D01*
X70863124Y-116581525D01*
X70864329Y-116580135D01*
X70866000Y-116572452D01*
X70866000Y-115523102D01*
X70862082Y-115509758D01*
X70847806Y-115507771D01*
X70809324Y-115513660D01*
X70799288Y-115516051D01*
X70596868Y-115582212D01*
X70587359Y-115586209D01*
X70398463Y-115684542D01*
X70389738Y-115690036D01*
X70219433Y-115817905D01*
X70211726Y-115824748D01*
X70064590Y-115978717D01*
X70058104Y-115986727D01*
X69938098Y-116162649D01*
X69933000Y-116171623D01*
X69843338Y-116364783D01*
X69839775Y-116374470D01*
X69784389Y-116574183D01*
X68301509Y-116574183D01*
X68294291Y-116412121D01*
X68292143Y-116396124D01*
X68264892Y-116193240D01*
X68237275Y-115987630D01*
X68236033Y-115982138D01*
X68143368Y-115572618D01*
X68143368Y-115572617D01*
X68142750Y-115569887D01*
X68068006Y-115337784D01*
X68012318Y-115164856D01*
X68012316Y-115164849D01*
X68011463Y-115162202D01*
X67858635Y-114801285D01*
X67845550Y-114770384D01*
X67845548Y-114770379D01*
X67844456Y-114767801D01*
X67643050Y-114389807D01*
X67408840Y-114031214D01*
X67143680Y-113694860D01*
X66849670Y-113383409D01*
X66847579Y-113381556D01*
X66847571Y-113381548D01*
X66531237Y-113101188D01*
X66531235Y-113101186D01*
X66529137Y-113099327D01*
X66184621Y-112844863D01*
X65881850Y-112660413D01*
X65821237Y-112623487D01*
X65821230Y-112623483D01*
X65818848Y-112622032D01*
X65793710Y-112609635D01*
X65505172Y-112467344D01*
X65434714Y-112432598D01*
X65035262Y-112278062D01*
X64755344Y-112197532D01*
X64626335Y-112160417D01*
X64626329Y-112160415D01*
X64623654Y-112159646D01*
X64620917Y-112159117D01*
X64620911Y-112159115D01*
X64464258Y-112128807D01*
X64203148Y-112078289D01*
X64200374Y-112078005D01*
X64200362Y-112078003D01*
X63917111Y-112048982D01*
X63777076Y-112034634D01*
X63774286Y-112034597D01*
X63774278Y-112034597D01*
X63506825Y-112031096D01*
X63348809Y-112029028D01*
X63346009Y-112029241D01*
X63346008Y-112029241D01*
X63271364Y-112034919D01*
X62921740Y-112061514D01*
X62499249Y-112131836D01*
X62413671Y-112154048D01*
X62087400Y-112238731D01*
X62087389Y-112238734D01*
X62084682Y-112239437D01*
X61916952Y-112299328D01*
X61683964Y-112382520D01*
X61683959Y-112382522D01*
X61681321Y-112383464D01*
X61678781Y-112384635D01*
X61678776Y-112384637D01*
X61576930Y-112431589D01*
X61292361Y-112562777D01*
X60920880Y-112775957D01*
X60918577Y-112777566D01*
X60918570Y-112777571D01*
X60572129Y-113019701D01*
X60569820Y-113021315D01*
X60241961Y-113296909D01*
X59939899Y-113600557D01*
X59666025Y-113929855D01*
X59422508Y-114282194D01*
X59211276Y-114654786D01*
X59210117Y-114657335D01*
X59210115Y-114657339D01*
X59169201Y-114747325D01*
X59122797Y-114801058D01*
X59054710Y-114821174D01*
X58986556Y-114801285D01*
X58939974Y-114747707D01*
X58928500Y-114695174D01*
X58928500Y-110461489D01*
X70031227Y-110461489D01*
X70033096Y-110490000D01*
X70044263Y-110660380D01*
X70045684Y-110665976D01*
X70045685Y-110665981D01*
X70073869Y-110776953D01*
X70093326Y-110853564D01*
X70095743Y-110858807D01*
X70131725Y-110936858D01*
X70176772Y-111034573D01*
X70180105Y-111039289D01*
X70267021Y-111162272D01*
X70291807Y-111197344D01*
X70434578Y-111336425D01*
X70439382Y-111339635D01*
X70505634Y-111383903D01*
X70600304Y-111447160D01*
X70605607Y-111449438D01*
X70605610Y-111449440D01*
X70704805Y-111492057D01*
X70783435Y-111525839D01*
X70842849Y-111539283D01*
X70972201Y-111568553D01*
X70972207Y-111568554D01*
X70977838Y-111569828D01*
X70983609Y-111570055D01*
X70983611Y-111570055D01*
X71044556Y-111572449D01*
X71177001Y-111577653D01*
X71288278Y-111561519D01*
X71368535Y-111549883D01*
X71368540Y-111549882D01*
X71374256Y-111549053D01*
X71379728Y-111547195D01*
X71379730Y-111547195D01*
X71557532Y-111486839D01*
X71557534Y-111486838D01*
X71562996Y-111484984D01*
X71736899Y-111387594D01*
X71890143Y-111260143D01*
X72017594Y-111106899D01*
X72114984Y-110932996D01*
X72164400Y-110787424D01*
X72177195Y-110749730D01*
X72177195Y-110749728D01*
X72179053Y-110744256D01*
X72179882Y-110738540D01*
X72179883Y-110738535D01*
X72197159Y-110619380D01*
X72207653Y-110547001D01*
X72209146Y-110490000D01*
X101956496Y-110490000D01*
X101957186Y-110496565D01*
X101971019Y-110628174D01*
X101976458Y-110679928D01*
X102035473Y-110861556D01*
X102038776Y-110867278D01*
X102038777Y-110867279D01*
X102047664Y-110882672D01*
X102130960Y-111026944D01*
X102258747Y-111168866D01*
X102303497Y-111201379D01*
X102384379Y-111260143D01*
X102413248Y-111281118D01*
X102419276Y-111283802D01*
X102419278Y-111283803D01*
X102565101Y-111348727D01*
X102587712Y-111358794D01*
X102665103Y-111375244D01*
X102768056Y-111397128D01*
X102768061Y-111397128D01*
X102774513Y-111398500D01*
X102965487Y-111398500D01*
X102971939Y-111397128D01*
X102971944Y-111397128D01*
X103074897Y-111375244D01*
X103152288Y-111358794D01*
X103174899Y-111348727D01*
X103279561Y-111302129D01*
X110034367Y-111302129D01*
X110035057Y-111308694D01*
X110053586Y-111484984D01*
X110054329Y-111492057D01*
X110113344Y-111673685D01*
X110208831Y-111839073D01*
X110336618Y-111980995D01*
X110410838Y-112034919D01*
X110470138Y-112078003D01*
X110491119Y-112093247D01*
X110497147Y-112095931D01*
X110497149Y-112095932D01*
X110640254Y-112159646D01*
X110665583Y-112170923D01*
X110758983Y-112190776D01*
X110845927Y-112209257D01*
X110845932Y-112209257D01*
X110852384Y-112210629D01*
X111043358Y-112210629D01*
X111049810Y-112209257D01*
X111049815Y-112209257D01*
X111136758Y-112190776D01*
X111230159Y-112170923D01*
X111255488Y-112159646D01*
X111398593Y-112095932D01*
X111398595Y-112095931D01*
X111404623Y-112093247D01*
X111425605Y-112078003D01*
X111484904Y-112034919D01*
X111559124Y-111980995D01*
X111686911Y-111839073D01*
X111749025Y-111731489D01*
X127181227Y-111731489D01*
X127183096Y-111760000D01*
X127194263Y-111930380D01*
X127195684Y-111935976D01*
X127195685Y-111935981D01*
X127219326Y-112029065D01*
X127243326Y-112123564D01*
X127245743Y-112128807D01*
X127296744Y-112239437D01*
X127326772Y-112304573D01*
X127330105Y-112309289D01*
X127383356Y-112384637D01*
X127441807Y-112467344D01*
X127584578Y-112606425D01*
X127750304Y-112717160D01*
X127755607Y-112719438D01*
X127755610Y-112719440D01*
X127883902Y-112774558D01*
X127933435Y-112795839D01*
X128005516Y-112812149D01*
X128122201Y-112838553D01*
X128122207Y-112838554D01*
X128127838Y-112839828D01*
X128133609Y-112840055D01*
X128133611Y-112840055D01*
X128194556Y-112842449D01*
X128327001Y-112847653D01*
X128426959Y-112833160D01*
X128518535Y-112819883D01*
X128518540Y-112819882D01*
X128524256Y-112819053D01*
X128529728Y-112817195D01*
X128529730Y-112817195D01*
X128707532Y-112756839D01*
X128707534Y-112756838D01*
X128712996Y-112754984D01*
X128886899Y-112657594D01*
X129040143Y-112530143D01*
X129167594Y-112376899D01*
X129264984Y-112202996D01*
X129275872Y-112170923D01*
X129327195Y-112019730D01*
X129327195Y-112019728D01*
X129329053Y-112014256D01*
X129329882Y-112008540D01*
X129329883Y-112008535D01*
X129355282Y-111833355D01*
X129357653Y-111817001D01*
X129359146Y-111760000D01*
X129342370Y-111577426D01*
X129341437Y-111567273D01*
X129341436Y-111567270D01*
X129340908Y-111561519D01*
X129337627Y-111549883D01*
X129288373Y-111375244D01*
X129288372Y-111375242D01*
X129286805Y-111369685D01*
X129281435Y-111358794D01*
X129201205Y-111196104D01*
X129198650Y-111190923D01*
X129079393Y-111031219D01*
X128933030Y-110895922D01*
X128928147Y-110892841D01*
X128928143Y-110892838D01*
X128769346Y-110792645D01*
X128769341Y-110792643D01*
X128764462Y-110789564D01*
X128579334Y-110715705D01*
X128383847Y-110676820D01*
X128378072Y-110676744D01*
X128378068Y-110676744D01*
X128278588Y-110675442D01*
X128184547Y-110674211D01*
X128178850Y-110675190D01*
X128178849Y-110675190D01*
X128114741Y-110686206D01*
X127988108Y-110707966D01*
X127801111Y-110776953D01*
X127796149Y-110779905D01*
X127663526Y-110858807D01*
X127629816Y-110878862D01*
X127479961Y-111010281D01*
X127356565Y-111166809D01*
X127353876Y-111171920D01*
X127353874Y-111171923D01*
X127305518Y-111263834D01*
X127263760Y-111343202D01*
X127232477Y-111443950D01*
X127206654Y-111527114D01*
X127204654Y-111533554D01*
X127181227Y-111731489D01*
X111749025Y-111731489D01*
X111782398Y-111673685D01*
X111841413Y-111492057D01*
X111842157Y-111484984D01*
X111860685Y-111308694D01*
X111861375Y-111302129D01*
X111850362Y-111197344D01*
X111842103Y-111118764D01*
X111842103Y-111118762D01*
X111841413Y-111112201D01*
X111782398Y-110930573D01*
X111686911Y-110765185D01*
X111668067Y-110744256D01*
X111563546Y-110628174D01*
X111563545Y-110628173D01*
X111559124Y-110623263D01*
X111449054Y-110543292D01*
X111409965Y-110514892D01*
X111409964Y-110514891D01*
X111404623Y-110511011D01*
X111398595Y-110508327D01*
X111398593Y-110508326D01*
X111236190Y-110436020D01*
X111236189Y-110436020D01*
X111230159Y-110433335D01*
X111136759Y-110413482D01*
X111049815Y-110395001D01*
X111049810Y-110395001D01*
X111043358Y-110393629D01*
X110852384Y-110393629D01*
X110845932Y-110395001D01*
X110845927Y-110395001D01*
X110758983Y-110413482D01*
X110665583Y-110433335D01*
X110659553Y-110436020D01*
X110659552Y-110436020D01*
X110497149Y-110508326D01*
X110497147Y-110508327D01*
X110491119Y-110511011D01*
X110485778Y-110514891D01*
X110485777Y-110514892D01*
X110446688Y-110543292D01*
X110336618Y-110623263D01*
X110332197Y-110628173D01*
X110332196Y-110628174D01*
X110227676Y-110744256D01*
X110208831Y-110765185D01*
X110113344Y-110930573D01*
X110054329Y-111112201D01*
X110053639Y-111118762D01*
X110053639Y-111118764D01*
X110045380Y-111197344D01*
X110034367Y-111302129D01*
X103279561Y-111302129D01*
X103320722Y-111283803D01*
X103320724Y-111283802D01*
X103326752Y-111281118D01*
X103355622Y-111260143D01*
X103436503Y-111201379D01*
X103481253Y-111168866D01*
X103609040Y-111026944D01*
X103692336Y-110882672D01*
X103701223Y-110867279D01*
X103701224Y-110867278D01*
X103704527Y-110861556D01*
X103763542Y-110679928D01*
X103768982Y-110628174D01*
X103782814Y-110496565D01*
X103783504Y-110490000D01*
X103763542Y-110300072D01*
X103704527Y-110118444D01*
X103693697Y-110099685D01*
X103622222Y-109975888D01*
X103609040Y-109953056D01*
X103584773Y-109926104D01*
X103485675Y-109816045D01*
X103485674Y-109816044D01*
X103481253Y-109811134D01*
X103382157Y-109739136D01*
X103332094Y-109702763D01*
X103332093Y-109702762D01*
X103326752Y-109698882D01*
X103320724Y-109696198D01*
X103320722Y-109696197D01*
X103158319Y-109623891D01*
X103158318Y-109623891D01*
X103152288Y-109621206D01*
X103058888Y-109601353D01*
X102971944Y-109582872D01*
X102971939Y-109582872D01*
X102965487Y-109581500D01*
X102774513Y-109581500D01*
X102768061Y-109582872D01*
X102768056Y-109582872D01*
X102681112Y-109601353D01*
X102587712Y-109621206D01*
X102581682Y-109623891D01*
X102581681Y-109623891D01*
X102419278Y-109696197D01*
X102419276Y-109696198D01*
X102413248Y-109698882D01*
X102407907Y-109702762D01*
X102407906Y-109702763D01*
X102357843Y-109739136D01*
X102258747Y-109811134D01*
X102254326Y-109816044D01*
X102254325Y-109816045D01*
X102155228Y-109926104D01*
X102130960Y-109953056D01*
X102117778Y-109975888D01*
X102046304Y-110099685D01*
X102035473Y-110118444D01*
X101976458Y-110300072D01*
X101956496Y-110490000D01*
X72209146Y-110490000D01*
X72190908Y-110291519D01*
X72163856Y-110195598D01*
X72138373Y-110105244D01*
X72138372Y-110105242D01*
X72136805Y-110099685D01*
X72134127Y-110094253D01*
X72051205Y-109926104D01*
X72048650Y-109920923D01*
X71929393Y-109761219D01*
X71783030Y-109625922D01*
X71778147Y-109622841D01*
X71778143Y-109622838D01*
X71619346Y-109522645D01*
X71619341Y-109522643D01*
X71614462Y-109519564D01*
X71429334Y-109445705D01*
X71233847Y-109406820D01*
X71228072Y-109406744D01*
X71228068Y-109406744D01*
X71128588Y-109405442D01*
X71034547Y-109404211D01*
X71028850Y-109405190D01*
X71028849Y-109405190D01*
X71012805Y-109407947D01*
X70838108Y-109437966D01*
X70651111Y-109506953D01*
X70646149Y-109509905D01*
X70523502Y-109582872D01*
X70479816Y-109608862D01*
X70329961Y-109740281D01*
X70206565Y-109896809D01*
X70203876Y-109901920D01*
X70203874Y-109901923D01*
X70167401Y-109971247D01*
X70113760Y-110073202D01*
X70081334Y-110177631D01*
X70073290Y-110203538D01*
X70054654Y-110263554D01*
X70031227Y-110461489D01*
X58928500Y-110461489D01*
X58928500Y-107701470D01*
X83927966Y-107701470D01*
X83947928Y-107891398D01*
X84006943Y-108073026D01*
X84102430Y-108238414D01*
X84106848Y-108243321D01*
X84106849Y-108243322D01*
X84223210Y-108372554D01*
X84230217Y-108380336D01*
X84277735Y-108414860D01*
X84376950Y-108486944D01*
X84384718Y-108492588D01*
X84390746Y-108495272D01*
X84390748Y-108495273D01*
X84507509Y-108547258D01*
X84559182Y-108570264D01*
X84629775Y-108585269D01*
X84739526Y-108608598D01*
X84739531Y-108608598D01*
X84745983Y-108609970D01*
X84936957Y-108609970D01*
X84943409Y-108608598D01*
X84943414Y-108608598D01*
X85053165Y-108585269D01*
X85123758Y-108570264D01*
X85175431Y-108547258D01*
X85292192Y-108495273D01*
X85292194Y-108495272D01*
X85298222Y-108492588D01*
X85305991Y-108486944D01*
X85405205Y-108414860D01*
X85452723Y-108380336D01*
X85459730Y-108372554D01*
X85576091Y-108243322D01*
X85576092Y-108243321D01*
X85580510Y-108238414D01*
X85675997Y-108073026D01*
X85715971Y-107950000D01*
X90526496Y-107950000D01*
X90527186Y-107956565D01*
X90532305Y-108005265D01*
X90546458Y-108139928D01*
X90605473Y-108321556D01*
X90608776Y-108327278D01*
X90608777Y-108327279D01*
X90614284Y-108336817D01*
X90700960Y-108486944D01*
X90705378Y-108491851D01*
X90705379Y-108491852D01*
X90807472Y-108605238D01*
X90828747Y-108628866D01*
X90983248Y-108741118D01*
X90989276Y-108743802D01*
X90989278Y-108743803D01*
X91151681Y-108816109D01*
X91157712Y-108818794D01*
X91251113Y-108838647D01*
X91338056Y-108857128D01*
X91338061Y-108857128D01*
X91344513Y-108858500D01*
X91535487Y-108858500D01*
X91541939Y-108857128D01*
X91541944Y-108857128D01*
X91628887Y-108838647D01*
X91722288Y-108818794D01*
X91728319Y-108816109D01*
X91890722Y-108743803D01*
X91890724Y-108743802D01*
X91896752Y-108741118D01*
X92051253Y-108628866D01*
X92072528Y-108605238D01*
X92174621Y-108491852D01*
X92174622Y-108491851D01*
X92179040Y-108486944D01*
X92200194Y-108450305D01*
X134530565Y-108450305D01*
X134531892Y-108463368D01*
X134542750Y-108570264D01*
X134545684Y-108599151D01*
X134605434Y-108789811D01*
X134608528Y-108795393D01*
X134608529Y-108795395D01*
X134622260Y-108820166D01*
X134702300Y-108964562D01*
X134706456Y-108969411D01*
X134816297Y-109097565D01*
X134832326Y-109116267D01*
X134837363Y-109120174D01*
X134837365Y-109120176D01*
X134985158Y-109234816D01*
X134985161Y-109234818D01*
X134990202Y-109238728D01*
X134995928Y-109241546D01*
X134995932Y-109241548D01*
X135109010Y-109297189D01*
X135169476Y-109326942D01*
X135258971Y-109350254D01*
X135356645Y-109375696D01*
X135356648Y-109375696D01*
X135362827Y-109377306D01*
X135456321Y-109382206D01*
X135555976Y-109387429D01*
X135555980Y-109387429D01*
X135562357Y-109387763D01*
X135759913Y-109357885D01*
X135947426Y-109288894D01*
X136117237Y-109183606D01*
X136262409Y-109046324D01*
X136377011Y-108882655D01*
X136456363Y-108699285D01*
X136497221Y-108503705D01*
X136497565Y-108497142D01*
X136497565Y-108050437D01*
X136487363Y-107950000D01*
X136483091Y-107907937D01*
X136483090Y-107907933D01*
X136482446Y-107901591D01*
X136422696Y-107710931D01*
X136325830Y-107536180D01*
X136321041Y-107530593D01*
X136199956Y-107389319D01*
X136199955Y-107389318D01*
X136195804Y-107384475D01*
X136190765Y-107380566D01*
X136042972Y-107265926D01*
X136042969Y-107265924D01*
X136037928Y-107262014D01*
X136032202Y-107259196D01*
X136032198Y-107259194D01*
X135864383Y-107176619D01*
X135858654Y-107173800D01*
X135739862Y-107142857D01*
X135671485Y-107125046D01*
X135671482Y-107125046D01*
X135665303Y-107123436D01*
X135571809Y-107118536D01*
X135472154Y-107113313D01*
X135472150Y-107113313D01*
X135465773Y-107112979D01*
X135268217Y-107142857D01*
X135262230Y-107145060D01*
X135262229Y-107145060D01*
X135210901Y-107163945D01*
X135080704Y-107211848D01*
X134999795Y-107262014D01*
X134936984Y-107300959D01*
X134910893Y-107317136D01*
X134906260Y-107321517D01*
X134906259Y-107321518D01*
X134887898Y-107338881D01*
X134765721Y-107454418D01*
X134651119Y-107618087D01*
X134571767Y-107801457D01*
X134530909Y-107997037D01*
X134530565Y-108003600D01*
X134530565Y-108450305D01*
X92200194Y-108450305D01*
X92265716Y-108336817D01*
X92271223Y-108327279D01*
X92271224Y-108327278D01*
X92274527Y-108321556D01*
X92333542Y-108139928D01*
X92347696Y-108005265D01*
X92352814Y-107956565D01*
X92353504Y-107950000D01*
X92333542Y-107760072D01*
X92274527Y-107578444D01*
X92179040Y-107413056D01*
X92051253Y-107271134D01*
X91914352Y-107171669D01*
X91902094Y-107162763D01*
X91902093Y-107162762D01*
X91896752Y-107158882D01*
X91890724Y-107156198D01*
X91890722Y-107156197D01*
X91728319Y-107083891D01*
X91728318Y-107083891D01*
X91722288Y-107081206D01*
X91628887Y-107061353D01*
X91541944Y-107042872D01*
X91541939Y-107042872D01*
X91535487Y-107041500D01*
X91344513Y-107041500D01*
X91338061Y-107042872D01*
X91338056Y-107042872D01*
X91251113Y-107061353D01*
X91157712Y-107081206D01*
X91151682Y-107083891D01*
X91151681Y-107083891D01*
X90989278Y-107156197D01*
X90989276Y-107156198D01*
X90983248Y-107158882D01*
X90977907Y-107162762D01*
X90977906Y-107162763D01*
X90965648Y-107171669D01*
X90828747Y-107271134D01*
X90700960Y-107413056D01*
X90605473Y-107578444D01*
X90546458Y-107760072D01*
X90526496Y-107950000D01*
X85715971Y-107950000D01*
X85735012Y-107891398D01*
X85754974Y-107701470D01*
X85741442Y-107572721D01*
X85735702Y-107518105D01*
X85735702Y-107518103D01*
X85735012Y-107511542D01*
X85721724Y-107470646D01*
X85719696Y-107399679D01*
X85756359Y-107338881D01*
X85820071Y-107307555D01*
X85867754Y-107308463D01*
X86009526Y-107338598D01*
X86009531Y-107338598D01*
X86015983Y-107339970D01*
X86206957Y-107339970D01*
X86213409Y-107338598D01*
X86213414Y-107338598D01*
X86314382Y-107317136D01*
X86393758Y-107300264D01*
X86399789Y-107297579D01*
X86562192Y-107225273D01*
X86562194Y-107225272D01*
X86568222Y-107222588D01*
X86583005Y-107211848D01*
X86663562Y-107153319D01*
X86722723Y-107110336D01*
X86801717Y-107022604D01*
X86846091Y-106973322D01*
X86846092Y-106973321D01*
X86850510Y-106968414D01*
X86945997Y-106803026D01*
X87005012Y-106621398D01*
X87024974Y-106431470D01*
X87012956Y-106317128D01*
X87005702Y-106248105D01*
X87005702Y-106248103D01*
X87005012Y-106241542D01*
X86945997Y-106059914D01*
X86850510Y-105894526D01*
X86844874Y-105888266D01*
X86727145Y-105757515D01*
X86727144Y-105757514D01*
X86722723Y-105752604D01*
X86568222Y-105640352D01*
X86562194Y-105637668D01*
X86562192Y-105637667D01*
X86399789Y-105565361D01*
X86399788Y-105565361D01*
X86393758Y-105562676D01*
X86299402Y-105542620D01*
X86213414Y-105524342D01*
X86213409Y-105524342D01*
X86206957Y-105522970D01*
X86015983Y-105522970D01*
X86009531Y-105524342D01*
X86009526Y-105524342D01*
X85923538Y-105542620D01*
X85829182Y-105562676D01*
X85823152Y-105565361D01*
X85823151Y-105565361D01*
X85660748Y-105637667D01*
X85660746Y-105637668D01*
X85654718Y-105640352D01*
X85500217Y-105752604D01*
X85495796Y-105757514D01*
X85495795Y-105757515D01*
X85378067Y-105888266D01*
X85372430Y-105894526D01*
X85276943Y-106059914D01*
X85217928Y-106241542D01*
X85217238Y-106248103D01*
X85217238Y-106248105D01*
X85209984Y-106317128D01*
X85197966Y-106431470D01*
X85217928Y-106621398D01*
X85219968Y-106627676D01*
X85231216Y-106662294D01*
X85233244Y-106733261D01*
X85196581Y-106794059D01*
X85132869Y-106825385D01*
X85085186Y-106824477D01*
X84943414Y-106794342D01*
X84943409Y-106794342D01*
X84936957Y-106792970D01*
X84745983Y-106792970D01*
X84739531Y-106794342D01*
X84739526Y-106794342D01*
X84652583Y-106812823D01*
X84559182Y-106832676D01*
X84553152Y-106835361D01*
X84553151Y-106835361D01*
X84390748Y-106907667D01*
X84390746Y-106907668D01*
X84384718Y-106910352D01*
X84230217Y-107022604D01*
X84225796Y-107027514D01*
X84225795Y-107027515D01*
X84139428Y-107123436D01*
X84102430Y-107164526D01*
X84099129Y-107170244D01*
X84026496Y-107296048D01*
X84006943Y-107329914D01*
X83947928Y-107511542D01*
X83947238Y-107518103D01*
X83947238Y-107518105D01*
X83941498Y-107572721D01*
X83927966Y-107701470D01*
X58928500Y-107701470D01*
X58928500Y-106622093D01*
X78359237Y-106622093D01*
X78359927Y-106628658D01*
X78378254Y-106803026D01*
X78379199Y-106812021D01*
X78438214Y-106993649D01*
X78441517Y-106999371D01*
X78441518Y-106999372D01*
X78465841Y-107041500D01*
X78533701Y-107159037D01*
X78538119Y-107163944D01*
X78538120Y-107163945D01*
X78593340Y-107225273D01*
X78661488Y-107300959D01*
X78713683Y-107338881D01*
X78783105Y-107389319D01*
X78815989Y-107413211D01*
X78822017Y-107415895D01*
X78822019Y-107415896D01*
X78984422Y-107488202D01*
X78990453Y-107490887D01*
X79083854Y-107510740D01*
X79170797Y-107529221D01*
X79170802Y-107529221D01*
X79177254Y-107530593D01*
X79368228Y-107530593D01*
X79374680Y-107529221D01*
X79374685Y-107529221D01*
X79461628Y-107510740D01*
X79555029Y-107490887D01*
X79561060Y-107488202D01*
X79723463Y-107415896D01*
X79723465Y-107415895D01*
X79729493Y-107413211D01*
X79762378Y-107389319D01*
X79831799Y-107338881D01*
X79883994Y-107300959D01*
X79952142Y-107225273D01*
X80007362Y-107163945D01*
X80007363Y-107163944D01*
X80011781Y-107159037D01*
X80079641Y-107041500D01*
X80103964Y-106999372D01*
X80103965Y-106999371D01*
X80107268Y-106993649D01*
X80166283Y-106812021D01*
X80167229Y-106803026D01*
X80185555Y-106628658D01*
X80186245Y-106622093D01*
X80166283Y-106432165D01*
X80107268Y-106250537D01*
X80011781Y-106085149D01*
X79994719Y-106066199D01*
X79888416Y-105948138D01*
X79888415Y-105948137D01*
X79883994Y-105943227D01*
X79729493Y-105830975D01*
X79723465Y-105828291D01*
X79723463Y-105828290D01*
X79561060Y-105755984D01*
X79561059Y-105755984D01*
X79555029Y-105753299D01*
X79461628Y-105733446D01*
X79374685Y-105714965D01*
X79374680Y-105714965D01*
X79368228Y-105713593D01*
X79177254Y-105713593D01*
X79170802Y-105714965D01*
X79170797Y-105714965D01*
X79083854Y-105733446D01*
X78990453Y-105753299D01*
X78984423Y-105755984D01*
X78984422Y-105755984D01*
X78822019Y-105828290D01*
X78822017Y-105828291D01*
X78815989Y-105830975D01*
X78661488Y-105943227D01*
X78657067Y-105948137D01*
X78657066Y-105948138D01*
X78550764Y-106066199D01*
X78533701Y-106085149D01*
X78438214Y-106250537D01*
X78379199Y-106432165D01*
X78359237Y-106622093D01*
X58928500Y-106622093D01*
X58928500Y-104664315D01*
X82961767Y-104664315D01*
X82962457Y-104670880D01*
X82972154Y-104763138D01*
X82981729Y-104854243D01*
X83040744Y-105035871D01*
X83136231Y-105201259D01*
X83140649Y-105206166D01*
X83140650Y-105206167D01*
X83259596Y-105338270D01*
X83264018Y-105343181D01*
X83418519Y-105455433D01*
X83424547Y-105458117D01*
X83424549Y-105458118D01*
X83586952Y-105530424D01*
X83592983Y-105533109D01*
X83686383Y-105552962D01*
X83773327Y-105571443D01*
X83773332Y-105571443D01*
X83779784Y-105572815D01*
X83970758Y-105572815D01*
X83977210Y-105571443D01*
X83977215Y-105571443D01*
X84064158Y-105552962D01*
X84157559Y-105533109D01*
X84163590Y-105530424D01*
X84325993Y-105458118D01*
X84325995Y-105458117D01*
X84332023Y-105455433D01*
X84394556Y-105410000D01*
X89256496Y-105410000D01*
X89257186Y-105416565D01*
X89272399Y-105561304D01*
X89276458Y-105599928D01*
X89335473Y-105781556D01*
X89430960Y-105946944D01*
X89435378Y-105951851D01*
X89435379Y-105951852D01*
X89550981Y-106080241D01*
X89558747Y-106088866D01*
X89713248Y-106201118D01*
X89719276Y-106203802D01*
X89719278Y-106203803D01*
X89881681Y-106276109D01*
X89887712Y-106278794D01*
X89981112Y-106298647D01*
X90068056Y-106317128D01*
X90068061Y-106317128D01*
X90074513Y-106318500D01*
X90265487Y-106318500D01*
X90271939Y-106317128D01*
X90271944Y-106317128D01*
X90358887Y-106298647D01*
X90452288Y-106278794D01*
X90458319Y-106276109D01*
X90620722Y-106203803D01*
X90620724Y-106203802D01*
X90626752Y-106201118D01*
X90781253Y-106088866D01*
X90789019Y-106080241D01*
X90904621Y-105951852D01*
X90904622Y-105951851D01*
X90909040Y-105946944D01*
X91004527Y-105781556D01*
X91063542Y-105599928D01*
X91067602Y-105561304D01*
X91082814Y-105416565D01*
X91083504Y-105410000D01*
X91076821Y-105346414D01*
X93909047Y-105346414D01*
X93909737Y-105352979D01*
X93927604Y-105522970D01*
X93929009Y-105536342D01*
X93988024Y-105717970D01*
X94083511Y-105883358D01*
X94087929Y-105888265D01*
X94087930Y-105888266D01*
X94137417Y-105943227D01*
X94211298Y-106025280D01*
X94365799Y-106137532D01*
X94371827Y-106140216D01*
X94371829Y-106140217D01*
X94534232Y-106212523D01*
X94540263Y-106215208D01*
X94633664Y-106235061D01*
X94720607Y-106253542D01*
X94720612Y-106253542D01*
X94727064Y-106254914D01*
X94918038Y-106254914D01*
X94924490Y-106253542D01*
X94924495Y-106253542D01*
X95011438Y-106235061D01*
X95104839Y-106215208D01*
X95110870Y-106212523D01*
X95273273Y-106140217D01*
X95273275Y-106140216D01*
X95279303Y-106137532D01*
X95433804Y-106025280D01*
X95507685Y-105943227D01*
X95557172Y-105888266D01*
X95557173Y-105888265D01*
X95561591Y-105883358D01*
X95657078Y-105717970D01*
X95716093Y-105536342D01*
X95717499Y-105522970D01*
X95735365Y-105352979D01*
X95736055Y-105346414D01*
X95716093Y-105156486D01*
X95657078Y-104974858D01*
X95561591Y-104809470D01*
X95523527Y-104767195D01*
X95438226Y-104672459D01*
X95438225Y-104672458D01*
X95433804Y-104667548D01*
X95334708Y-104595550D01*
X95284645Y-104559177D01*
X95284644Y-104559176D01*
X95279303Y-104555296D01*
X95273275Y-104552612D01*
X95273273Y-104552611D01*
X95110870Y-104480305D01*
X95110869Y-104480305D01*
X95104839Y-104477620D01*
X95011438Y-104457767D01*
X94924495Y-104439286D01*
X94924490Y-104439286D01*
X94918038Y-104437914D01*
X94727064Y-104437914D01*
X94720612Y-104439286D01*
X94720607Y-104439286D01*
X94633663Y-104457767D01*
X94540263Y-104477620D01*
X94534233Y-104480305D01*
X94534232Y-104480305D01*
X94371829Y-104552611D01*
X94371827Y-104552612D01*
X94365799Y-104555296D01*
X94360458Y-104559176D01*
X94360457Y-104559177D01*
X94310394Y-104595550D01*
X94211298Y-104667548D01*
X94206877Y-104672458D01*
X94206876Y-104672459D01*
X94121576Y-104767195D01*
X94083511Y-104809470D01*
X93988024Y-104974858D01*
X93929009Y-105156486D01*
X93909047Y-105346414D01*
X91076821Y-105346414D01*
X91063542Y-105220072D01*
X91004527Y-105038444D01*
X90909040Y-104873056D01*
X90897754Y-104860521D01*
X90785675Y-104736045D01*
X90785674Y-104736044D01*
X90781253Y-104731134D01*
X90626752Y-104618882D01*
X90620724Y-104616198D01*
X90620722Y-104616197D01*
X90458319Y-104543891D01*
X90458318Y-104543891D01*
X90452288Y-104541206D01*
X90358887Y-104521353D01*
X90271944Y-104502872D01*
X90271939Y-104502872D01*
X90265487Y-104501500D01*
X90074513Y-104501500D01*
X90068061Y-104502872D01*
X90068056Y-104502872D01*
X89981112Y-104521353D01*
X89887712Y-104541206D01*
X89881682Y-104543891D01*
X89881681Y-104543891D01*
X89719278Y-104616197D01*
X89719276Y-104616198D01*
X89713248Y-104618882D01*
X89558747Y-104731134D01*
X89554326Y-104736044D01*
X89554325Y-104736045D01*
X89442247Y-104860521D01*
X89430960Y-104873056D01*
X89335473Y-105038444D01*
X89276458Y-105220072D01*
X89256496Y-105410000D01*
X84394556Y-105410000D01*
X84486524Y-105343181D01*
X84490946Y-105338270D01*
X84609892Y-105206167D01*
X84609893Y-105206166D01*
X84614311Y-105201259D01*
X84709798Y-105035871D01*
X84768813Y-104854243D01*
X84778389Y-104763138D01*
X84788085Y-104670880D01*
X84788775Y-104664315D01*
X84768813Y-104474387D01*
X84709798Y-104292759D01*
X84614311Y-104127371D01*
X84564847Y-104072435D01*
X84490946Y-103990360D01*
X84490945Y-103990359D01*
X84486524Y-103985449D01*
X84345041Y-103882655D01*
X84337365Y-103877078D01*
X84337364Y-103877077D01*
X84332023Y-103873197D01*
X84325995Y-103870513D01*
X84325993Y-103870512D01*
X84163590Y-103798206D01*
X84163589Y-103798206D01*
X84157559Y-103795521D01*
X84064158Y-103775668D01*
X83977215Y-103757187D01*
X83977210Y-103757187D01*
X83970758Y-103755815D01*
X83779784Y-103755815D01*
X83773332Y-103757187D01*
X83773327Y-103757187D01*
X83686383Y-103775668D01*
X83592983Y-103795521D01*
X83586953Y-103798206D01*
X83586952Y-103798206D01*
X83424549Y-103870512D01*
X83424547Y-103870513D01*
X83418519Y-103873197D01*
X83413178Y-103877077D01*
X83413177Y-103877078D01*
X83405501Y-103882655D01*
X83264018Y-103985449D01*
X83259597Y-103990359D01*
X83259596Y-103990360D01*
X83185696Y-104072435D01*
X83136231Y-104127371D01*
X83040744Y-104292759D01*
X82981729Y-104474387D01*
X82961767Y-104664315D01*
X58928500Y-104664315D01*
X58928500Y-102831816D01*
X94860164Y-102831816D01*
X94860854Y-102838381D01*
X94874819Y-102971247D01*
X94880126Y-103021744D01*
X94939141Y-103203372D01*
X95034628Y-103368760D01*
X95039046Y-103373667D01*
X95039047Y-103373668D01*
X95151725Y-103498810D01*
X95162415Y-103510682D01*
X95316916Y-103622934D01*
X95322944Y-103625618D01*
X95322946Y-103625619D01*
X95480042Y-103695562D01*
X95491380Y-103700610D01*
X95584781Y-103720463D01*
X95671724Y-103738944D01*
X95671729Y-103738944D01*
X95678181Y-103740316D01*
X95869155Y-103740316D01*
X95875607Y-103738944D01*
X95875612Y-103738944D01*
X95962555Y-103720463D01*
X96055956Y-103700610D01*
X96067294Y-103695562D01*
X96224390Y-103625619D01*
X96224392Y-103625618D01*
X96230420Y-103622934D01*
X96384921Y-103510682D01*
X96395611Y-103498810D01*
X96508289Y-103373668D01*
X96508290Y-103373667D01*
X96512708Y-103368760D01*
X96608195Y-103203372D01*
X96656307Y-103055301D01*
X106160087Y-103055301D01*
X106160777Y-103061866D01*
X106175960Y-103206321D01*
X106180049Y-103245229D01*
X106239064Y-103426857D01*
X106334551Y-103592245D01*
X106338969Y-103597152D01*
X106338970Y-103597153D01*
X106436711Y-103705705D01*
X106462338Y-103734167D01*
X106616839Y-103846419D01*
X106622867Y-103849103D01*
X106622869Y-103849104D01*
X106712635Y-103889070D01*
X106791303Y-103924095D01*
X106884704Y-103943948D01*
X106971647Y-103962429D01*
X106971652Y-103962429D01*
X106978104Y-103963801D01*
X107169078Y-103963801D01*
X107175530Y-103962429D01*
X107175535Y-103962429D01*
X107262478Y-103943948D01*
X107355879Y-103924095D01*
X107434547Y-103889070D01*
X107524313Y-103849104D01*
X107524315Y-103849103D01*
X107530343Y-103846419D01*
X107684844Y-103734167D01*
X107710471Y-103705705D01*
X107808212Y-103597153D01*
X107808213Y-103597152D01*
X107812631Y-103592245D01*
X107908118Y-103426857D01*
X107967133Y-103245229D01*
X107971223Y-103206321D01*
X107986405Y-103061866D01*
X107987095Y-103055301D01*
X107983270Y-103018904D01*
X107983038Y-103016696D01*
X108511099Y-103016696D01*
X108511789Y-103023261D01*
X108530059Y-103197087D01*
X108531061Y-103206624D01*
X108590076Y-103388252D01*
X108685563Y-103553640D01*
X108689981Y-103558547D01*
X108689982Y-103558548D01*
X108750373Y-103625619D01*
X108813350Y-103695562D01*
X108967851Y-103807814D01*
X108973879Y-103810498D01*
X108973881Y-103810499D01*
X109135947Y-103882655D01*
X109142315Y-103885490D01*
X109235716Y-103905343D01*
X109322659Y-103923824D01*
X109322664Y-103923824D01*
X109329116Y-103925196D01*
X109520090Y-103925196D01*
X109526542Y-103923824D01*
X109526547Y-103923824D01*
X109613491Y-103905343D01*
X109690049Y-103889070D01*
X132698919Y-103889070D01*
X132699609Y-103895635D01*
X132714898Y-104041098D01*
X132718881Y-104078998D01*
X132777896Y-104260626D01*
X132781199Y-104266348D01*
X132781200Y-104266349D01*
X132795489Y-104291098D01*
X132873383Y-104426014D01*
X132877801Y-104430921D01*
X132877802Y-104430922D01*
X132941351Y-104501500D01*
X133001170Y-104567936D01*
X133067595Y-104616197D01*
X133142860Y-104670880D01*
X133155671Y-104680188D01*
X133161699Y-104682872D01*
X133161701Y-104682873D01*
X133270098Y-104731134D01*
X133330135Y-104757864D01*
X133423536Y-104777717D01*
X133510479Y-104796198D01*
X133510484Y-104796198D01*
X133516936Y-104797570D01*
X133707910Y-104797570D01*
X133714362Y-104796198D01*
X133714367Y-104796198D01*
X133801311Y-104777717D01*
X133894711Y-104757864D01*
X133900738Y-104755181D01*
X133900746Y-104755178D01*
X134026643Y-104699125D01*
X134097010Y-104689691D01*
X134129139Y-104699125D01*
X134272913Y-104763137D01*
X134272921Y-104763140D01*
X134278948Y-104765823D01*
X134372348Y-104785676D01*
X134459292Y-104804157D01*
X134459297Y-104804157D01*
X134465749Y-104805529D01*
X134656723Y-104805529D01*
X134663175Y-104804157D01*
X134663180Y-104804157D01*
X134750123Y-104785676D01*
X134843524Y-104765823D01*
X134858319Y-104759236D01*
X135011958Y-104690832D01*
X135011960Y-104690831D01*
X135017988Y-104688147D01*
X135034285Y-104676307D01*
X135107981Y-104622763D01*
X135172489Y-104575895D01*
X135187542Y-104559177D01*
X135295857Y-104438881D01*
X135295858Y-104438880D01*
X135300276Y-104433973D01*
X135302080Y-104430848D01*
X135357425Y-104388174D01*
X135409728Y-104379764D01*
X135555976Y-104387429D01*
X135555980Y-104387429D01*
X135562357Y-104387763D01*
X135759913Y-104357885D01*
X135936922Y-104292759D01*
X135941436Y-104291098D01*
X135941437Y-104291098D01*
X135947426Y-104288894D01*
X136117237Y-104183606D01*
X136262409Y-104046324D01*
X136377011Y-103882655D01*
X136456363Y-103699285D01*
X136497221Y-103503705D01*
X136497565Y-103497142D01*
X136497565Y-103050437D01*
X136482446Y-102901591D01*
X136422696Y-102710931D01*
X136411111Y-102690030D01*
X136328925Y-102541764D01*
X136325830Y-102536180D01*
X136306347Y-102513449D01*
X136199956Y-102389319D01*
X136199955Y-102389318D01*
X136195804Y-102384475D01*
X136130664Y-102333947D01*
X136042972Y-102265926D01*
X136042969Y-102265924D01*
X136037928Y-102262014D01*
X136032202Y-102259196D01*
X136032198Y-102259194D01*
X135864383Y-102176619D01*
X135858654Y-102173800D01*
X135739862Y-102142857D01*
X135671485Y-102125046D01*
X135671482Y-102125046D01*
X135665303Y-102123436D01*
X135571809Y-102118536D01*
X135472154Y-102113313D01*
X135472150Y-102113313D01*
X135465773Y-102112979D01*
X135268217Y-102142857D01*
X135262230Y-102145060D01*
X135262229Y-102145060D01*
X135086694Y-102209644D01*
X135080704Y-102211848D01*
X134910893Y-102317136D01*
X134765721Y-102454418D01*
X134651119Y-102618087D01*
X134571767Y-102801457D01*
X134570461Y-102807707D01*
X134570461Y-102807708D01*
X134552593Y-102893237D01*
X134519083Y-102955828D01*
X134455453Y-102990716D01*
X134285414Y-103026860D01*
X134285409Y-103026862D01*
X134278948Y-103028235D01*
X134272921Y-103030918D01*
X134272913Y-103030921D01*
X134147016Y-103086974D01*
X134076649Y-103096408D01*
X134044520Y-103086974D01*
X133900746Y-103022962D01*
X133900738Y-103022959D01*
X133894711Y-103020276D01*
X133801311Y-103000423D01*
X133714367Y-102981942D01*
X133714362Y-102981942D01*
X133707910Y-102980570D01*
X133516936Y-102980570D01*
X133510484Y-102981942D01*
X133510479Y-102981942D01*
X133423536Y-103000423D01*
X133330135Y-103020276D01*
X133324105Y-103022961D01*
X133324104Y-103022961D01*
X133161701Y-103095267D01*
X133161699Y-103095268D01*
X133155671Y-103097952D01*
X133150330Y-103101832D01*
X133150329Y-103101833D01*
X133114055Y-103128188D01*
X133001170Y-103210204D01*
X132873383Y-103352126D01*
X132833866Y-103420572D01*
X132785869Y-103503705D01*
X132777896Y-103517514D01*
X132718881Y-103699142D01*
X132718191Y-103705703D01*
X132718191Y-103705705D01*
X132700587Y-103873197D01*
X132698919Y-103889070D01*
X109690049Y-103889070D01*
X109706891Y-103885490D01*
X109713259Y-103882655D01*
X109875325Y-103810499D01*
X109875327Y-103810498D01*
X109881355Y-103807814D01*
X110035856Y-103695562D01*
X110098833Y-103625619D01*
X110159224Y-103558548D01*
X110159225Y-103558547D01*
X110163643Y-103553640D01*
X110259130Y-103388252D01*
X110318145Y-103206624D01*
X110319148Y-103197087D01*
X110337417Y-103023261D01*
X110338107Y-103016696D01*
X110319366Y-102838381D01*
X110318835Y-102833331D01*
X110318835Y-102833329D01*
X110318145Y-102826768D01*
X110259130Y-102645140D01*
X110163643Y-102479752D01*
X110156851Y-102472208D01*
X110040278Y-102342741D01*
X110040277Y-102342740D01*
X110035856Y-102337830D01*
X109881355Y-102225578D01*
X109875327Y-102222894D01*
X109875325Y-102222893D01*
X109712922Y-102150587D01*
X109712921Y-102150587D01*
X109706891Y-102147902D01*
X109599363Y-102125046D01*
X109526547Y-102109568D01*
X109526542Y-102109568D01*
X109520090Y-102108196D01*
X109329116Y-102108196D01*
X109322664Y-102109568D01*
X109322659Y-102109568D01*
X109249843Y-102125046D01*
X109142315Y-102147902D01*
X109136285Y-102150587D01*
X109136284Y-102150587D01*
X108973881Y-102222893D01*
X108973879Y-102222894D01*
X108967851Y-102225578D01*
X108813350Y-102337830D01*
X108808929Y-102342740D01*
X108808928Y-102342741D01*
X108692356Y-102472208D01*
X108685563Y-102479752D01*
X108590076Y-102645140D01*
X108531061Y-102826768D01*
X108530371Y-102833329D01*
X108530371Y-102833331D01*
X108529840Y-102838381D01*
X108511099Y-103016696D01*
X107983038Y-103016696D01*
X107967823Y-102871936D01*
X107967823Y-102871934D01*
X107967133Y-102865373D01*
X107908118Y-102683745D01*
X107900479Y-102670513D01*
X107822921Y-102536180D01*
X107812631Y-102518357D01*
X107783020Y-102485470D01*
X107689266Y-102381346D01*
X107689265Y-102381345D01*
X107684844Y-102376435D01*
X107555897Y-102282749D01*
X107535685Y-102268064D01*
X107535684Y-102268063D01*
X107530343Y-102264183D01*
X107524315Y-102261499D01*
X107524313Y-102261498D01*
X107361910Y-102189192D01*
X107361909Y-102189192D01*
X107355879Y-102186507D01*
X107262479Y-102166654D01*
X107175535Y-102148173D01*
X107175530Y-102148173D01*
X107169078Y-102146801D01*
X106978104Y-102146801D01*
X106971652Y-102148173D01*
X106971647Y-102148173D01*
X106884703Y-102166654D01*
X106791303Y-102186507D01*
X106785273Y-102189192D01*
X106785272Y-102189192D01*
X106622869Y-102261498D01*
X106622867Y-102261499D01*
X106616839Y-102264183D01*
X106611498Y-102268063D01*
X106611497Y-102268064D01*
X106591285Y-102282749D01*
X106462338Y-102376435D01*
X106457917Y-102381345D01*
X106457916Y-102381346D01*
X106364163Y-102485470D01*
X106334551Y-102518357D01*
X106324261Y-102536180D01*
X106246704Y-102670513D01*
X106239064Y-102683745D01*
X106180049Y-102865373D01*
X106179359Y-102871934D01*
X106179359Y-102871936D01*
X106163912Y-103018904D01*
X106160087Y-103055301D01*
X96656307Y-103055301D01*
X96667210Y-103021744D01*
X96672518Y-102971247D01*
X96686482Y-102838381D01*
X96687172Y-102831816D01*
X96670219Y-102670513D01*
X96667900Y-102648451D01*
X96667900Y-102648449D01*
X96667210Y-102641888D01*
X96608195Y-102460260D01*
X96512708Y-102294872D01*
X96501793Y-102282749D01*
X96389343Y-102157861D01*
X96389342Y-102157860D01*
X96384921Y-102152950D01*
X96230420Y-102040698D01*
X96224392Y-102038014D01*
X96224390Y-102038013D01*
X96061987Y-101965707D01*
X96061986Y-101965707D01*
X96055956Y-101963022D01*
X95962555Y-101943169D01*
X95875612Y-101924688D01*
X95875607Y-101924688D01*
X95869155Y-101923316D01*
X95678181Y-101923316D01*
X95671729Y-101924688D01*
X95671724Y-101924688D01*
X95584781Y-101943169D01*
X95491380Y-101963022D01*
X95485350Y-101965707D01*
X95485349Y-101965707D01*
X95322946Y-102038013D01*
X95322944Y-102038014D01*
X95316916Y-102040698D01*
X95162415Y-102152950D01*
X95157994Y-102157860D01*
X95157993Y-102157861D01*
X95045544Y-102282749D01*
X95034628Y-102294872D01*
X94939141Y-102460260D01*
X94880126Y-102641888D01*
X94879436Y-102648449D01*
X94879436Y-102648451D01*
X94877117Y-102670513D01*
X94860164Y-102831816D01*
X58928500Y-102831816D01*
X58928500Y-100321313D01*
X78514533Y-100321313D01*
X78534495Y-100511241D01*
X78593510Y-100692869D01*
X78688997Y-100858257D01*
X78693415Y-100863164D01*
X78693416Y-100863165D01*
X78812362Y-100995268D01*
X78816784Y-101000179D01*
X78971285Y-101112431D01*
X78977313Y-101115115D01*
X78977315Y-101115116D01*
X79139718Y-101187422D01*
X79145749Y-101190107D01*
X79239149Y-101209960D01*
X79326093Y-101228441D01*
X79326098Y-101228441D01*
X79332550Y-101229813D01*
X79523524Y-101229813D01*
X79529976Y-101228441D01*
X79529981Y-101228441D01*
X79616925Y-101209960D01*
X79710325Y-101190107D01*
X79716356Y-101187422D01*
X79878759Y-101115116D01*
X79878761Y-101115115D01*
X79884789Y-101112431D01*
X80039290Y-101000179D01*
X80043712Y-100995268D01*
X80162658Y-100863165D01*
X80162659Y-100863164D01*
X80167077Y-100858257D01*
X80262564Y-100692869D01*
X80321579Y-100511241D01*
X80341541Y-100321313D01*
X80321579Y-100131385D01*
X80262564Y-99949757D01*
X80167077Y-99784369D01*
X80039290Y-99642447D01*
X79884789Y-99530195D01*
X79878761Y-99527511D01*
X79878759Y-99527510D01*
X79716356Y-99455204D01*
X79716355Y-99455204D01*
X79710325Y-99452519D01*
X79616924Y-99432666D01*
X79529981Y-99414185D01*
X79529976Y-99414185D01*
X79523524Y-99412813D01*
X79332550Y-99412813D01*
X79326098Y-99414185D01*
X79326093Y-99414185D01*
X79239150Y-99432666D01*
X79145749Y-99452519D01*
X79139719Y-99455204D01*
X79139718Y-99455204D01*
X78977315Y-99527510D01*
X78977313Y-99527511D01*
X78971285Y-99530195D01*
X78816784Y-99642447D01*
X78688997Y-99784369D01*
X78593510Y-99949757D01*
X78534495Y-100131385D01*
X78514533Y-100321313D01*
X58928500Y-100321313D01*
X58928500Y-97928976D01*
X76287229Y-97928976D01*
X76287919Y-97935541D01*
X76303956Y-98088120D01*
X76307191Y-98118904D01*
X76366206Y-98300532D01*
X76461693Y-98465920D01*
X76466111Y-98470827D01*
X76466112Y-98470828D01*
X76567835Y-98583803D01*
X76589480Y-98607842D01*
X76638935Y-98643773D01*
X76714260Y-98698500D01*
X76743981Y-98720094D01*
X76750009Y-98722778D01*
X76750011Y-98722779D01*
X76830714Y-98758710D01*
X76918445Y-98797770D01*
X77009898Y-98817209D01*
X77098789Y-98836104D01*
X77098794Y-98836104D01*
X77105246Y-98837476D01*
X77296220Y-98837476D01*
X77302672Y-98836104D01*
X77302677Y-98836104D01*
X77391568Y-98817209D01*
X77483021Y-98797770D01*
X77570752Y-98758710D01*
X77651455Y-98722779D01*
X77651457Y-98722778D01*
X77657485Y-98720094D01*
X77687207Y-98698500D01*
X77762531Y-98643773D01*
X77811986Y-98607842D01*
X77833631Y-98583803D01*
X77935354Y-98470828D01*
X77935355Y-98470827D01*
X77939773Y-98465920D01*
X78035260Y-98300532D01*
X78094275Y-98118904D01*
X78097511Y-98088120D01*
X78113547Y-97935541D01*
X78114237Y-97928976D01*
X78104550Y-97836806D01*
X78094965Y-97745611D01*
X78094965Y-97745609D01*
X78094275Y-97739048D01*
X78035260Y-97557420D01*
X77939773Y-97392032D01*
X77897939Y-97345570D01*
X77816408Y-97255021D01*
X77816407Y-97255020D01*
X77811986Y-97250110D01*
X77693173Y-97163787D01*
X77662827Y-97141739D01*
X77662826Y-97141738D01*
X77657485Y-97137858D01*
X77651457Y-97135174D01*
X77651455Y-97135173D01*
X77489052Y-97062867D01*
X77489051Y-97062867D01*
X77483021Y-97060182D01*
X77402201Y-97043003D01*
X78415300Y-97043003D01*
X78415990Y-97049568D01*
X78429112Y-97174413D01*
X78435262Y-97232931D01*
X78494277Y-97414559D01*
X78497580Y-97420281D01*
X78497581Y-97420282D01*
X78531490Y-97479013D01*
X78589764Y-97579947D01*
X78594182Y-97584854D01*
X78594183Y-97584855D01*
X78709371Y-97712784D01*
X78717551Y-97721869D01*
X78872052Y-97834121D01*
X78878080Y-97836805D01*
X78878082Y-97836806D01*
X79022209Y-97900975D01*
X79046516Y-97911797D01*
X79139917Y-97931650D01*
X79226860Y-97950131D01*
X79226865Y-97950131D01*
X79233317Y-97951503D01*
X79424291Y-97951503D01*
X79430743Y-97950131D01*
X79430748Y-97950131D01*
X79517692Y-97931650D01*
X79611092Y-97911797D01*
X79635399Y-97900975D01*
X79779526Y-97836806D01*
X79779528Y-97836805D01*
X79785556Y-97834121D01*
X79940057Y-97721869D01*
X79948237Y-97712784D01*
X80063425Y-97584855D01*
X80063426Y-97584854D01*
X80067844Y-97579947D01*
X80097016Y-97529419D01*
X104061008Y-97529419D01*
X104061698Y-97535984D01*
X104065899Y-97575950D01*
X104080970Y-97719347D01*
X104139985Y-97900975D01*
X104143288Y-97906697D01*
X104143289Y-97906698D01*
X104144683Y-97909112D01*
X104235472Y-98066363D01*
X104363259Y-98208285D01*
X104402596Y-98236865D01*
X104503552Y-98310214D01*
X104517760Y-98320537D01*
X104523788Y-98323221D01*
X104523790Y-98323222D01*
X104686193Y-98395528D01*
X104692224Y-98398213D01*
X104769921Y-98414728D01*
X104872568Y-98436547D01*
X104872573Y-98436547D01*
X104879025Y-98437919D01*
X105069999Y-98437919D01*
X105076451Y-98436547D01*
X105076456Y-98436547D01*
X105179103Y-98414728D01*
X105256800Y-98398213D01*
X105262831Y-98395528D01*
X105425234Y-98323222D01*
X105425236Y-98323221D01*
X105431264Y-98320537D01*
X105445473Y-98310214D01*
X105546428Y-98236865D01*
X105585765Y-98208285D01*
X105713552Y-98066363D01*
X105804341Y-97909112D01*
X105805735Y-97906698D01*
X105805736Y-97906697D01*
X105809039Y-97900975D01*
X105868054Y-97719347D01*
X105877711Y-97627465D01*
X106502306Y-97627465D01*
X106502996Y-97634030D01*
X106521011Y-97805429D01*
X106522268Y-97817393D01*
X106581283Y-97999021D01*
X106676770Y-98164409D01*
X106681188Y-98169316D01*
X106681189Y-98169317D01*
X106800135Y-98301420D01*
X106804557Y-98306331D01*
X106859955Y-98346580D01*
X106932910Y-98399585D01*
X106959058Y-98418583D01*
X106965086Y-98421267D01*
X106965088Y-98421268D01*
X107127491Y-98493574D01*
X107133522Y-98496259D01*
X107226833Y-98516093D01*
X107313866Y-98534593D01*
X107313871Y-98534593D01*
X107320323Y-98535965D01*
X107511297Y-98535965D01*
X107517749Y-98534593D01*
X107517754Y-98534593D01*
X107604787Y-98516093D01*
X107698098Y-98496259D01*
X107704129Y-98493574D01*
X107866532Y-98421268D01*
X107866534Y-98421267D01*
X107872562Y-98418583D01*
X107898711Y-98399585D01*
X107971665Y-98346580D01*
X108027063Y-98306331D01*
X108031485Y-98301420D01*
X108150431Y-98169317D01*
X108150432Y-98169316D01*
X108154850Y-98164409D01*
X108250337Y-97999021D01*
X108309352Y-97817393D01*
X108310610Y-97805429D01*
X108313810Y-97774979D01*
X108315683Y-97757153D01*
X108342696Y-97691497D01*
X108374438Y-97669346D01*
X108507758Y-97669346D01*
X108533007Y-97684246D01*
X108564937Y-97747656D01*
X108566303Y-97757153D01*
X108573985Y-97830240D01*
X108580851Y-97895567D01*
X108639866Y-98077195D01*
X108643169Y-98082917D01*
X108643170Y-98082918D01*
X108657552Y-98107828D01*
X108735353Y-98242583D01*
X108739771Y-98247490D01*
X108739772Y-98247491D01*
X108811312Y-98326944D01*
X108863140Y-98384505D01*
X108936658Y-98437919D01*
X108991493Y-98477759D01*
X109017641Y-98496757D01*
X109023669Y-98499441D01*
X109023671Y-98499442D01*
X109102622Y-98534593D01*
X109192105Y-98574433D01*
X109285505Y-98594286D01*
X109372449Y-98612767D01*
X109372454Y-98612767D01*
X109378906Y-98614139D01*
X109569880Y-98614139D01*
X109576332Y-98612767D01*
X109576337Y-98612767D01*
X109663280Y-98594286D01*
X109756681Y-98574433D01*
X109846164Y-98534593D01*
X109925115Y-98499442D01*
X109925117Y-98499441D01*
X109931145Y-98496757D01*
X109957294Y-98477759D01*
X110012128Y-98437919D01*
X110085646Y-98384505D01*
X110137474Y-98326944D01*
X110209014Y-98247491D01*
X110209015Y-98247490D01*
X110213433Y-98242583D01*
X110291234Y-98107828D01*
X110305616Y-98082918D01*
X110305617Y-98082917D01*
X110308920Y-98077195D01*
X110367935Y-97895567D01*
X110375492Y-97823671D01*
X110387207Y-97712204D01*
X110387897Y-97705639D01*
X110385649Y-97684246D01*
X110368625Y-97522274D01*
X110368625Y-97522272D01*
X110367935Y-97515711D01*
X110341344Y-97433873D01*
X117847946Y-97433873D01*
X117848636Y-97440438D01*
X117864708Y-97593351D01*
X117867908Y-97623801D01*
X117926923Y-97805429D01*
X117930226Y-97811151D01*
X117930227Y-97811152D01*
X117964136Y-97869883D01*
X118022410Y-97970817D01*
X118026828Y-97975724D01*
X118026829Y-97975725D01*
X118036266Y-97986206D01*
X118150197Y-98112739D01*
X118304698Y-98224991D01*
X118310726Y-98227675D01*
X118310728Y-98227676D01*
X118374067Y-98255876D01*
X118479162Y-98302667D01*
X118566475Y-98321226D01*
X118659506Y-98341001D01*
X118659511Y-98341001D01*
X118665963Y-98342373D01*
X118856937Y-98342373D01*
X118863389Y-98341001D01*
X118863394Y-98341001D01*
X118956425Y-98321226D01*
X119043738Y-98302667D01*
X119148833Y-98255876D01*
X119212172Y-98227676D01*
X119212174Y-98227675D01*
X119218202Y-98224991D01*
X119372703Y-98112739D01*
X119486634Y-97986206D01*
X119496071Y-97975725D01*
X119496072Y-97975724D01*
X119500490Y-97970817D01*
X119558764Y-97869883D01*
X119592673Y-97811152D01*
X119592674Y-97811151D01*
X119595977Y-97805429D01*
X119626711Y-97710841D01*
X119951802Y-97710841D01*
X119952492Y-97717406D01*
X119956670Y-97757153D01*
X119971764Y-97900769D01*
X120030779Y-98082397D01*
X120126266Y-98247785D01*
X120130684Y-98252692D01*
X120130685Y-98252693D01*
X120178981Y-98306331D01*
X120254053Y-98389707D01*
X120320411Y-98437919D01*
X120400709Y-98496259D01*
X120408554Y-98501959D01*
X120414582Y-98504643D01*
X120414584Y-98504644D01*
X120576987Y-98576950D01*
X120583018Y-98579635D01*
X120676419Y-98599488D01*
X120763362Y-98617969D01*
X120763367Y-98617969D01*
X120769819Y-98619341D01*
X120960793Y-98619341D01*
X120967245Y-98617969D01*
X120967250Y-98617969D01*
X121054193Y-98599488D01*
X121147594Y-98579635D01*
X121153625Y-98576950D01*
X121316028Y-98504644D01*
X121316030Y-98504643D01*
X121322058Y-98501959D01*
X121329904Y-98496259D01*
X121410201Y-98437919D01*
X121476559Y-98389707D01*
X121515393Y-98346578D01*
X121575835Y-98309340D01*
X121646818Y-98310691D01*
X121683087Y-98328954D01*
X121772051Y-98393590D01*
X121779099Y-98398711D01*
X121785127Y-98401395D01*
X121785129Y-98401396D01*
X121941077Y-98470828D01*
X121953563Y-98476387D01*
X122034421Y-98493574D01*
X122133907Y-98514721D01*
X122133912Y-98514721D01*
X122140364Y-98516093D01*
X122331338Y-98516093D01*
X122337790Y-98514721D01*
X122337795Y-98514721D01*
X122437281Y-98493574D01*
X122518139Y-98476387D01*
X122530625Y-98470828D01*
X122686573Y-98401396D01*
X122686575Y-98401395D01*
X122692603Y-98398711D01*
X122699652Y-98393590D01*
X122704634Y-98389970D01*
X122771502Y-98366111D01*
X122840654Y-98382192D01*
X122872329Y-98407593D01*
X122927499Y-98468866D01*
X123082000Y-98581118D01*
X123088028Y-98583802D01*
X123088030Y-98583803D01*
X123250433Y-98656109D01*
X123256464Y-98658794D01*
X123349865Y-98678647D01*
X123436808Y-98697128D01*
X123436813Y-98697128D01*
X123443265Y-98698500D01*
X123634239Y-98698500D01*
X123640691Y-98697128D01*
X123640696Y-98697128D01*
X123727639Y-98678647D01*
X123821040Y-98658794D01*
X123827071Y-98656109D01*
X123989474Y-98583803D01*
X123989476Y-98583802D01*
X123995504Y-98581118D01*
X124150005Y-98468866D01*
X124179105Y-98436547D01*
X124273373Y-98331852D01*
X124273374Y-98331851D01*
X124277792Y-98326944D01*
X124373279Y-98161556D01*
X124432294Y-97979928D01*
X124433873Y-97964907D01*
X125541246Y-97964907D01*
X125541936Y-97971472D01*
X125557432Y-98118904D01*
X125561208Y-98154835D01*
X125620223Y-98336463D01*
X125623526Y-98342185D01*
X125623527Y-98342186D01*
X125651115Y-98389970D01*
X125715710Y-98501851D01*
X125720128Y-98506758D01*
X125720129Y-98506759D01*
X125814641Y-98611725D01*
X125843497Y-98643773D01*
X125860476Y-98656109D01*
X125969385Y-98735236D01*
X125997998Y-98756025D01*
X126004026Y-98758709D01*
X126004028Y-98758710D01*
X126166431Y-98831016D01*
X126172462Y-98833701D01*
X126265862Y-98853554D01*
X126352806Y-98872035D01*
X126352811Y-98872035D01*
X126359263Y-98873407D01*
X126550237Y-98873407D01*
X126556689Y-98872036D01*
X126561929Y-98871485D01*
X126631767Y-98884259D01*
X126683613Y-98932762D01*
X126701005Y-99001596D01*
X126678421Y-99068905D01*
X126649158Y-99098730D01*
X126507976Y-99201305D01*
X126380189Y-99343227D01*
X126284702Y-99508615D01*
X126225687Y-99690243D01*
X126205725Y-99880171D01*
X126225687Y-100070099D01*
X126284702Y-100251727D01*
X126380189Y-100417115D01*
X126507976Y-100559037D01*
X126662477Y-100671289D01*
X126668505Y-100673973D01*
X126668507Y-100673974D01*
X126797053Y-100731206D01*
X126836941Y-100748965D01*
X126930342Y-100768818D01*
X127017285Y-100787299D01*
X127017290Y-100787299D01*
X127023742Y-100788671D01*
X127214716Y-100788671D01*
X127221168Y-100787299D01*
X127221173Y-100787299D01*
X127308116Y-100768818D01*
X127401517Y-100748965D01*
X127441405Y-100731206D01*
X127569951Y-100673974D01*
X127569953Y-100673973D01*
X127575981Y-100671289D01*
X127730482Y-100559037D01*
X127858269Y-100417115D01*
X127953756Y-100251727D01*
X128012771Y-100070099D01*
X128032733Y-99880171D01*
X128012771Y-99690243D01*
X127953756Y-99508615D01*
X127858269Y-99343227D01*
X127730482Y-99201305D01*
X127575981Y-99089053D01*
X127569953Y-99086369D01*
X127569951Y-99086368D01*
X127407548Y-99014062D01*
X127407547Y-99014062D01*
X127401517Y-99011377D01*
X127308117Y-98991524D01*
X127221173Y-98973043D01*
X127221168Y-98973043D01*
X127214716Y-98971671D01*
X127023742Y-98971671D01*
X127017290Y-98973042D01*
X127012050Y-98973593D01*
X126942212Y-98960819D01*
X126890366Y-98912316D01*
X126872974Y-98843482D01*
X126895558Y-98776173D01*
X126924821Y-98746348D01*
X127043440Y-98660166D01*
X127060659Y-98647656D01*
X127060661Y-98647654D01*
X127066003Y-98643773D01*
X127094859Y-98611725D01*
X127189371Y-98506759D01*
X127189372Y-98506758D01*
X127193790Y-98501851D01*
X127258385Y-98389970D01*
X127285973Y-98342186D01*
X127285974Y-98342185D01*
X127289277Y-98336463D01*
X127348292Y-98154835D01*
X127352069Y-98118904D01*
X127367564Y-97971472D01*
X127368254Y-97964907D01*
X127352060Y-97810830D01*
X127348982Y-97781542D01*
X127348982Y-97781540D01*
X127348292Y-97774979D01*
X127289277Y-97593351D01*
X127193790Y-97427963D01*
X127157019Y-97387124D01*
X127070425Y-97290952D01*
X127070424Y-97290951D01*
X127066003Y-97286041D01*
X126911502Y-97173789D01*
X126905474Y-97171105D01*
X126905472Y-97171104D01*
X126743069Y-97098798D01*
X126743068Y-97098798D01*
X126737038Y-97096113D01*
X126643637Y-97076260D01*
X126556694Y-97057779D01*
X126556689Y-97057779D01*
X126550237Y-97056407D01*
X126359263Y-97056407D01*
X126352811Y-97057779D01*
X126352806Y-97057779D01*
X126265863Y-97076260D01*
X126172462Y-97096113D01*
X126166432Y-97098798D01*
X126166431Y-97098798D01*
X126004028Y-97171104D01*
X126004026Y-97171105D01*
X125997998Y-97173789D01*
X125843497Y-97286041D01*
X125839076Y-97290951D01*
X125839075Y-97290952D01*
X125752482Y-97387124D01*
X125715710Y-97427963D01*
X125620223Y-97593351D01*
X125561208Y-97774979D01*
X125560518Y-97781540D01*
X125560518Y-97781542D01*
X125557440Y-97810830D01*
X125541246Y-97964907D01*
X124433873Y-97964907D01*
X124452256Y-97790000D01*
X124443246Y-97704276D01*
X124432984Y-97606635D01*
X124432984Y-97606633D01*
X124432294Y-97600072D01*
X124373279Y-97418444D01*
X124367408Y-97408274D01*
X124281093Y-97258774D01*
X124277792Y-97253056D01*
X124269589Y-97243945D01*
X124154427Y-97116045D01*
X124154426Y-97116044D01*
X124150005Y-97111134D01*
X124027114Y-97021848D01*
X124000846Y-97002763D01*
X124000845Y-97002762D01*
X123995504Y-96998882D01*
X123989476Y-96996198D01*
X123989474Y-96996197D01*
X123827071Y-96923891D01*
X123827070Y-96923891D01*
X123821040Y-96921206D01*
X123727640Y-96901353D01*
X123640696Y-96882872D01*
X123640691Y-96882872D01*
X123634239Y-96881500D01*
X123443265Y-96881500D01*
X123436813Y-96882872D01*
X123436808Y-96882872D01*
X123349864Y-96901353D01*
X123256464Y-96921206D01*
X123250434Y-96923891D01*
X123250433Y-96923891D01*
X123088030Y-96996197D01*
X123088028Y-96996198D01*
X123082000Y-96998882D01*
X123076659Y-97002762D01*
X123076658Y-97002763D01*
X123069969Y-97007623D01*
X123003101Y-97031482D01*
X122933949Y-97015401D01*
X122902274Y-96990000D01*
X122847104Y-96928727D01*
X122739507Y-96850553D01*
X122697945Y-96820356D01*
X122697944Y-96820355D01*
X122692603Y-96816475D01*
X122686575Y-96813791D01*
X122686573Y-96813790D01*
X122524170Y-96741484D01*
X122524169Y-96741484D01*
X122518139Y-96738799D01*
X122424739Y-96718946D01*
X122337795Y-96700465D01*
X122337790Y-96700465D01*
X122331338Y-96699093D01*
X122140364Y-96699093D01*
X122133912Y-96700465D01*
X122133907Y-96700465D01*
X122046964Y-96718946D01*
X121953563Y-96738799D01*
X121947533Y-96741484D01*
X121947532Y-96741484D01*
X121785129Y-96813790D01*
X121785127Y-96813791D01*
X121779099Y-96816475D01*
X121773758Y-96820355D01*
X121773757Y-96820356D01*
X121732195Y-96850553D01*
X121624598Y-96928727D01*
X121585764Y-96971856D01*
X121525322Y-97009094D01*
X121454339Y-97007743D01*
X121418070Y-96989480D01*
X121327400Y-96923604D01*
X121327399Y-96923603D01*
X121322058Y-96919723D01*
X121316030Y-96917039D01*
X121316028Y-96917038D01*
X121153625Y-96844732D01*
X121153624Y-96844732D01*
X121147594Y-96842047D01*
X121054193Y-96822194D01*
X120967250Y-96803713D01*
X120967245Y-96803713D01*
X120960793Y-96802341D01*
X120769819Y-96802341D01*
X120763367Y-96803713D01*
X120763362Y-96803713D01*
X120676418Y-96822194D01*
X120583018Y-96842047D01*
X120576988Y-96844732D01*
X120576987Y-96844732D01*
X120414584Y-96917038D01*
X120414582Y-96917039D01*
X120408554Y-96919723D01*
X120403213Y-96923603D01*
X120403212Y-96923604D01*
X120389407Y-96933634D01*
X120254053Y-97031975D01*
X120249632Y-97036885D01*
X120249631Y-97036886D01*
X120158716Y-97137858D01*
X120126266Y-97173897D01*
X120079429Y-97255021D01*
X120034285Y-97333213D01*
X120030779Y-97339285D01*
X119971764Y-97520913D01*
X119971074Y-97527474D01*
X119971074Y-97527476D01*
X119964104Y-97593794D01*
X119951802Y-97710841D01*
X119626711Y-97710841D01*
X119654992Y-97623801D01*
X119658193Y-97593351D01*
X119674264Y-97440438D01*
X119674954Y-97433873D01*
X119659933Y-97290952D01*
X119655682Y-97250508D01*
X119655682Y-97250506D01*
X119654992Y-97243945D01*
X119595977Y-97062317D01*
X119588617Y-97049568D01*
X119555654Y-96992475D01*
X119500490Y-96896929D01*
X119431544Y-96820356D01*
X119377125Y-96759918D01*
X119377124Y-96759917D01*
X119372703Y-96755007D01*
X119249816Y-96665724D01*
X119223544Y-96646636D01*
X119223543Y-96646635D01*
X119218202Y-96642755D01*
X119212174Y-96640071D01*
X119212172Y-96640070D01*
X119049769Y-96567764D01*
X119049768Y-96567764D01*
X119043738Y-96565079D01*
X118950338Y-96545226D01*
X118863394Y-96526745D01*
X118863389Y-96526745D01*
X118856937Y-96525373D01*
X118665963Y-96525373D01*
X118659511Y-96526745D01*
X118659506Y-96526745D01*
X118572562Y-96545226D01*
X118479162Y-96565079D01*
X118473132Y-96567764D01*
X118473131Y-96567764D01*
X118310728Y-96640070D01*
X118310726Y-96640071D01*
X118304698Y-96642755D01*
X118299357Y-96646635D01*
X118299356Y-96646636D01*
X118273084Y-96665724D01*
X118150197Y-96755007D01*
X118145776Y-96759917D01*
X118145775Y-96759918D01*
X118091357Y-96820356D01*
X118022410Y-96896929D01*
X117967246Y-96992475D01*
X117934284Y-97049568D01*
X117926923Y-97062317D01*
X117867908Y-97243945D01*
X117867218Y-97250506D01*
X117867218Y-97250508D01*
X117862967Y-97290952D01*
X117847946Y-97433873D01*
X110341344Y-97433873D01*
X110308920Y-97334083D01*
X110213433Y-97168695D01*
X110148194Y-97096239D01*
X110090068Y-97031684D01*
X110090067Y-97031683D01*
X110085646Y-97026773D01*
X109950698Y-96928727D01*
X109936487Y-96918402D01*
X109936486Y-96918401D01*
X109931145Y-96914521D01*
X109925117Y-96911837D01*
X109925115Y-96911836D01*
X109762712Y-96839530D01*
X109762711Y-96839530D01*
X109756681Y-96836845D01*
X109660848Y-96816475D01*
X109576337Y-96798511D01*
X109576332Y-96798511D01*
X109569880Y-96797139D01*
X109378906Y-96797139D01*
X109372454Y-96798511D01*
X109372449Y-96798511D01*
X109287938Y-96816475D01*
X109192105Y-96836845D01*
X109186075Y-96839530D01*
X109186074Y-96839530D01*
X109023671Y-96911836D01*
X109023669Y-96911837D01*
X109017641Y-96914521D01*
X109012300Y-96918401D01*
X109012299Y-96918402D01*
X108998088Y-96928727D01*
X108863140Y-97026773D01*
X108858719Y-97031683D01*
X108858718Y-97031684D01*
X108800593Y-97096239D01*
X108735353Y-97168695D01*
X108639866Y-97334083D01*
X108580851Y-97515711D01*
X108580161Y-97522272D01*
X108580161Y-97522274D01*
X108574520Y-97575950D01*
X108547507Y-97641607D01*
X108507758Y-97669346D01*
X108374438Y-97669346D01*
X108382445Y-97663758D01*
X108357196Y-97648858D01*
X108325266Y-97585448D01*
X108323900Y-97575951D01*
X108310042Y-97444100D01*
X108310042Y-97444098D01*
X108309352Y-97437537D01*
X108250337Y-97255909D01*
X108233282Y-97226368D01*
X108164509Y-97107251D01*
X108154850Y-97090521D01*
X108080317Y-97007743D01*
X108031485Y-96953510D01*
X108031484Y-96953509D01*
X108027063Y-96948599D01*
X107886945Y-96846797D01*
X107877904Y-96840228D01*
X107877903Y-96840227D01*
X107872562Y-96836347D01*
X107866534Y-96833663D01*
X107866532Y-96833662D01*
X107704129Y-96761356D01*
X107704128Y-96761356D01*
X107698098Y-96758671D01*
X107602265Y-96738301D01*
X107517754Y-96720337D01*
X107517749Y-96720337D01*
X107511297Y-96718965D01*
X107320323Y-96718965D01*
X107313871Y-96720337D01*
X107313866Y-96720337D01*
X107229355Y-96738301D01*
X107133522Y-96758671D01*
X107127492Y-96761356D01*
X107127491Y-96761356D01*
X106965088Y-96833662D01*
X106965086Y-96833663D01*
X106959058Y-96836347D01*
X106953717Y-96840227D01*
X106953716Y-96840228D01*
X106944675Y-96846797D01*
X106804557Y-96948599D01*
X106800136Y-96953509D01*
X106800135Y-96953510D01*
X106751304Y-97007743D01*
X106676770Y-97090521D01*
X106667111Y-97107251D01*
X106598339Y-97226368D01*
X106581283Y-97255909D01*
X106522268Y-97437537D01*
X106521578Y-97444098D01*
X106521578Y-97444100D01*
X106514165Y-97514635D01*
X106502306Y-97627465D01*
X105877711Y-97627465D01*
X105883126Y-97575950D01*
X105887326Y-97535984D01*
X105888016Y-97529419D01*
X105873576Y-97392032D01*
X105868744Y-97346054D01*
X105868744Y-97346052D01*
X105868054Y-97339491D01*
X105809039Y-97157863D01*
X105713552Y-96992475D01*
X105660572Y-96933634D01*
X105590187Y-96855464D01*
X105590186Y-96855463D01*
X105585765Y-96850553D01*
X105459301Y-96758671D01*
X105436606Y-96742182D01*
X105436605Y-96742181D01*
X105431264Y-96738301D01*
X105425236Y-96735617D01*
X105425234Y-96735616D01*
X105262831Y-96663310D01*
X105262830Y-96663310D01*
X105256800Y-96660625D01*
X105160097Y-96640070D01*
X105076456Y-96622291D01*
X105076451Y-96622291D01*
X105069999Y-96620919D01*
X104879025Y-96620919D01*
X104872573Y-96622291D01*
X104872568Y-96622291D01*
X104788927Y-96640070D01*
X104692224Y-96660625D01*
X104686194Y-96663310D01*
X104686193Y-96663310D01*
X104523790Y-96735616D01*
X104523788Y-96735617D01*
X104517760Y-96738301D01*
X104512419Y-96742181D01*
X104512418Y-96742182D01*
X104489723Y-96758671D01*
X104363259Y-96850553D01*
X104358838Y-96855463D01*
X104358837Y-96855464D01*
X104288453Y-96933634D01*
X104235472Y-96992475D01*
X104139985Y-97157863D01*
X104080970Y-97339491D01*
X104080280Y-97346052D01*
X104080280Y-97346054D01*
X104075448Y-97392032D01*
X104061008Y-97529419D01*
X80097016Y-97529419D01*
X80126118Y-97479013D01*
X80160027Y-97420282D01*
X80160028Y-97420281D01*
X80163331Y-97414559D01*
X80222346Y-97232931D01*
X80228497Y-97174413D01*
X80241618Y-97049568D01*
X80242308Y-97043003D01*
X80226955Y-96896929D01*
X80223036Y-96859638D01*
X80223036Y-96859636D01*
X80222346Y-96853075D01*
X80163331Y-96671447D01*
X80145216Y-96640070D01*
X80071145Y-96511777D01*
X80067844Y-96506059D01*
X79940057Y-96364137D01*
X79785556Y-96251885D01*
X79779528Y-96249201D01*
X79779526Y-96249200D01*
X79617123Y-96176894D01*
X79617122Y-96176894D01*
X79611092Y-96174209D01*
X79517692Y-96154356D01*
X79430748Y-96135875D01*
X79430743Y-96135875D01*
X79424291Y-96134503D01*
X79233317Y-96134503D01*
X79226865Y-96135875D01*
X79226860Y-96135875D01*
X79139916Y-96154356D01*
X79046516Y-96174209D01*
X79040486Y-96176894D01*
X79040485Y-96176894D01*
X78878082Y-96249200D01*
X78878080Y-96249201D01*
X78872052Y-96251885D01*
X78717551Y-96364137D01*
X78589764Y-96506059D01*
X78586463Y-96511777D01*
X78512393Y-96640070D01*
X78494277Y-96671447D01*
X78435262Y-96853075D01*
X78434572Y-96859636D01*
X78434572Y-96859638D01*
X78430653Y-96896929D01*
X78415300Y-97043003D01*
X77402201Y-97043003D01*
X77371315Y-97036438D01*
X77302677Y-97021848D01*
X77302672Y-97021848D01*
X77296220Y-97020476D01*
X77105246Y-97020476D01*
X77098794Y-97021848D01*
X77098789Y-97021848D01*
X77030151Y-97036438D01*
X76918445Y-97060182D01*
X76912415Y-97062867D01*
X76912414Y-97062867D01*
X76750011Y-97135173D01*
X76750009Y-97135174D01*
X76743981Y-97137858D01*
X76738640Y-97141738D01*
X76738639Y-97141739D01*
X76708293Y-97163787D01*
X76589480Y-97250110D01*
X76585059Y-97255020D01*
X76585058Y-97255021D01*
X76503528Y-97345570D01*
X76461693Y-97392032D01*
X76366206Y-97557420D01*
X76307191Y-97739048D01*
X76306501Y-97745609D01*
X76306501Y-97745611D01*
X76296916Y-97836806D01*
X76287229Y-97928976D01*
X58928500Y-97928976D01*
X58928500Y-93597588D01*
X97348730Y-93597588D01*
X97368692Y-93787516D01*
X97427707Y-93969144D01*
X97523194Y-94134532D01*
X97527612Y-94139439D01*
X97527613Y-94139440D01*
X97629479Y-94252574D01*
X97650981Y-94276454D01*
X97750077Y-94348452D01*
X97764655Y-94359043D01*
X97805482Y-94388706D01*
X97811510Y-94391390D01*
X97811512Y-94391391D01*
X97973915Y-94463697D01*
X97979946Y-94466382D01*
X98073347Y-94486235D01*
X98160290Y-94504716D01*
X98160295Y-94504716D01*
X98166747Y-94506088D01*
X98357721Y-94506088D01*
X98364173Y-94504716D01*
X98364178Y-94504716D01*
X98451122Y-94486235D01*
X98544522Y-94466382D01*
X98550553Y-94463697D01*
X98712956Y-94391391D01*
X98712958Y-94391390D01*
X98718986Y-94388706D01*
X98759814Y-94359043D01*
X98774391Y-94348452D01*
X98873487Y-94276454D01*
X98894989Y-94252574D01*
X98996855Y-94139440D01*
X98996856Y-94139439D01*
X99001274Y-94134532D01*
X99096761Y-93969144D01*
X99155776Y-93787516D01*
X99173199Y-93621745D01*
X132936240Y-93621745D01*
X132948424Y-93875392D01*
X132997965Y-94124451D01*
X132999544Y-94128849D01*
X132999546Y-94128856D01*
X133053934Y-94280337D01*
X133083775Y-94363452D01*
X133085992Y-94367578D01*
X133159679Y-94504716D01*
X133203969Y-94587145D01*
X133206764Y-94590888D01*
X133206766Y-94590891D01*
X133353115Y-94786876D01*
X133353120Y-94786882D01*
X133355907Y-94790614D01*
X133359216Y-94793894D01*
X133359221Y-94793900D01*
X133457803Y-94891625D01*
X133536251Y-94969391D01*
X133540013Y-94972149D01*
X133540016Y-94972152D01*
X133645708Y-95049648D01*
X133741038Y-95119547D01*
X133745173Y-95121723D01*
X133745177Y-95121725D01*
X133933081Y-95220586D01*
X133984053Y-95270005D01*
X134000216Y-95339138D01*
X133976437Y-95406034D01*
X133920266Y-95449454D01*
X133874413Y-95458094D01*
X133400810Y-95458094D01*
X133338628Y-95464849D01*
X133202239Y-95515979D01*
X133085683Y-95603333D01*
X132998329Y-95719889D01*
X132947199Y-95856278D01*
X132940444Y-95918460D01*
X132940444Y-98414728D01*
X132947199Y-98476910D01*
X132998329Y-98613299D01*
X133085683Y-98729855D01*
X133202239Y-98817209D01*
X133338628Y-98868339D01*
X133400810Y-98875094D01*
X135897078Y-98875094D01*
X135959260Y-98868339D01*
X136095649Y-98817209D01*
X136212205Y-98729855D01*
X136299559Y-98613299D01*
X136350689Y-98476910D01*
X136357444Y-98414728D01*
X136357444Y-95918460D01*
X136350689Y-95856278D01*
X136299559Y-95719889D01*
X136212205Y-95603333D01*
X136095649Y-95515979D01*
X135959260Y-95464849D01*
X135897078Y-95458094D01*
X135419908Y-95458094D01*
X135351787Y-95438092D01*
X135305294Y-95384436D01*
X135295190Y-95314162D01*
X135324684Y-95249582D01*
X135370169Y-95216327D01*
X135440054Y-95186302D01*
X135444034Y-95183839D01*
X135444038Y-95183837D01*
X135652008Y-95055141D01*
X135652010Y-95055139D01*
X135655991Y-95052676D01*
X135754372Y-94969391D01*
X135846233Y-94891625D01*
X135846235Y-94891623D01*
X135849806Y-94888600D01*
X136017239Y-94697678D01*
X136154613Y-94484106D01*
X136258911Y-94252574D01*
X136327840Y-94008169D01*
X136359887Y-93756261D01*
X136362235Y-93666594D01*
X136343416Y-93413353D01*
X136340708Y-93401382D01*
X136288403Y-93170233D01*
X136287372Y-93165676D01*
X136265440Y-93109278D01*
X136197028Y-92933356D01*
X136197027Y-92933354D01*
X136195335Y-92929003D01*
X136174810Y-92893092D01*
X136071646Y-92712591D01*
X136071644Y-92712589D01*
X136069327Y-92708534D01*
X135912115Y-92509111D01*
X135727153Y-92335117D01*
X135579299Y-92232547D01*
X135522337Y-92193031D01*
X135522334Y-92193029D01*
X135518505Y-92190373D01*
X135514328Y-92188313D01*
X135514321Y-92188309D01*
X135294940Y-92080122D01*
X135294936Y-92080121D01*
X135290754Y-92078058D01*
X135048904Y-92000641D01*
X135044299Y-91999891D01*
X134802879Y-91960574D01*
X134802878Y-91960574D01*
X134798267Y-91959823D01*
X134671308Y-91958161D01*
X134549027Y-91956560D01*
X134549024Y-91956560D01*
X134544350Y-91956499D01*
X134292731Y-91990743D01*
X134048937Y-92061802D01*
X133818324Y-92168116D01*
X133814415Y-92170679D01*
X133609872Y-92304783D01*
X133609867Y-92304787D01*
X133605959Y-92307349D01*
X133511232Y-92391896D01*
X133435531Y-92459462D01*
X133416506Y-92476442D01*
X133254127Y-92671681D01*
X133122391Y-92888776D01*
X133120582Y-92893090D01*
X133120581Y-92893092D01*
X133029927Y-93109278D01*
X133024190Y-93122959D01*
X133023039Y-93127491D01*
X133023038Y-93127494D01*
X132991961Y-93249861D01*
X132961682Y-93369084D01*
X132936240Y-93621745D01*
X99173199Y-93621745D01*
X99175738Y-93597588D01*
X99155776Y-93407660D01*
X99096761Y-93226032D01*
X99001274Y-93060644D01*
X98886664Y-92933356D01*
X98877909Y-92923633D01*
X98877908Y-92923632D01*
X98873487Y-92918722D01*
X98718986Y-92806470D01*
X98712958Y-92803786D01*
X98712956Y-92803785D01*
X98550553Y-92731479D01*
X98550552Y-92731479D01*
X98544522Y-92728794D01*
X98449207Y-92708534D01*
X98364178Y-92690460D01*
X98364173Y-92690460D01*
X98357721Y-92689088D01*
X98166747Y-92689088D01*
X98160295Y-92690460D01*
X98160290Y-92690460D01*
X98075261Y-92708534D01*
X97979946Y-92728794D01*
X97973916Y-92731479D01*
X97973915Y-92731479D01*
X97811512Y-92803785D01*
X97811510Y-92803786D01*
X97805482Y-92806470D01*
X97650981Y-92918722D01*
X97646560Y-92923632D01*
X97646559Y-92923633D01*
X97637805Y-92933356D01*
X97523194Y-93060644D01*
X97427707Y-93226032D01*
X97368692Y-93407660D01*
X97348730Y-93597588D01*
X58928500Y-93597588D01*
X58928500Y-89885205D01*
X77463527Y-89885205D01*
X77483489Y-90075133D01*
X77542504Y-90256761D01*
X77637991Y-90422149D01*
X77642409Y-90427056D01*
X77642410Y-90427057D01*
X77761356Y-90559160D01*
X77765778Y-90564071D01*
X77920279Y-90676323D01*
X77926308Y-90679007D01*
X77926311Y-90679009D01*
X77938520Y-90684445D01*
X77992615Y-90730427D01*
X78013263Y-90798354D01*
X77996388Y-90862551D01*
X77986021Y-90880507D01*
X77927006Y-91062135D01*
X77926316Y-91068696D01*
X77926316Y-91068698D01*
X77922844Y-91101730D01*
X77907044Y-91252063D01*
X77907734Y-91258628D01*
X77924900Y-91421950D01*
X77927006Y-91441991D01*
X77986021Y-91623619D01*
X78081508Y-91789007D01*
X78209295Y-91930929D01*
X78363796Y-92043181D01*
X78369824Y-92045865D01*
X78369826Y-92045866D01*
X78410024Y-92063763D01*
X78538260Y-92120857D01*
X78631661Y-92140710D01*
X78718604Y-92159191D01*
X78718609Y-92159191D01*
X78725061Y-92160563D01*
X78916035Y-92160563D01*
X78922487Y-92159191D01*
X78922492Y-92159191D01*
X79009435Y-92140710D01*
X79102836Y-92120857D01*
X79108863Y-92118174D01*
X79108871Y-92118171D01*
X79265238Y-92048552D01*
X79335605Y-92039118D01*
X79399902Y-92069225D01*
X79437715Y-92129314D01*
X79441796Y-92176829D01*
X79440373Y-92190373D01*
X79435250Y-92239112D01*
X79435940Y-92245677D01*
X79442750Y-92310466D01*
X79455212Y-92429040D01*
X79514227Y-92610668D01*
X79609714Y-92776056D01*
X79614132Y-92780963D01*
X79614133Y-92780964D01*
X79733079Y-92913067D01*
X79737501Y-92917978D01*
X79892002Y-93030230D01*
X79898030Y-93032914D01*
X79898032Y-93032915D01*
X79960313Y-93060644D01*
X80066466Y-93107906D01*
X80158620Y-93127494D01*
X80246810Y-93146240D01*
X80246815Y-93146240D01*
X80253267Y-93147612D01*
X80444241Y-93147612D01*
X80450693Y-93146240D01*
X80450698Y-93146240D01*
X80538888Y-93127494D01*
X80631042Y-93107906D01*
X80737195Y-93060644D01*
X80799476Y-93032915D01*
X80799478Y-93032914D01*
X80805506Y-93030230D01*
X80960007Y-92917978D01*
X80964429Y-92913067D01*
X81083375Y-92780964D01*
X81083376Y-92780963D01*
X81087794Y-92776056D01*
X81183281Y-92610668D01*
X81242296Y-92429040D01*
X81254759Y-92310466D01*
X81261568Y-92245677D01*
X81262258Y-92239112D01*
X81257135Y-92190373D01*
X81242986Y-92055747D01*
X81242986Y-92055745D01*
X81242296Y-92049184D01*
X81183281Y-91867556D01*
X81133075Y-91780596D01*
X100173715Y-91780596D01*
X100174405Y-91787161D01*
X100189924Y-91934812D01*
X100193677Y-91970524D01*
X100252692Y-92152152D01*
X100255995Y-92157874D01*
X100255996Y-92157875D01*
X100289905Y-92216606D01*
X100348179Y-92317540D01*
X100352597Y-92322447D01*
X100352598Y-92322448D01*
X100448574Y-92429040D01*
X100475966Y-92459462D01*
X100630467Y-92571714D01*
X100636495Y-92574398D01*
X100636497Y-92574399D01*
X100798900Y-92646705D01*
X100804931Y-92649390D01*
X100892888Y-92668086D01*
X100985275Y-92687724D01*
X100985280Y-92687724D01*
X100991732Y-92689096D01*
X101182706Y-92689096D01*
X101189158Y-92687724D01*
X101189163Y-92687724D01*
X101281550Y-92668086D01*
X101369507Y-92649390D01*
X101375538Y-92646705D01*
X101537941Y-92574399D01*
X101537943Y-92574398D01*
X101543971Y-92571714D01*
X101698472Y-92459462D01*
X101725864Y-92429040D01*
X101821840Y-92322448D01*
X101821841Y-92322447D01*
X101826259Y-92317540D01*
X101884533Y-92216606D01*
X101918442Y-92157875D01*
X101918443Y-92157874D01*
X101921746Y-92152152D01*
X101980761Y-91970524D01*
X101984515Y-91934812D01*
X102000033Y-91787161D01*
X102000723Y-91780596D01*
X101980761Y-91590668D01*
X101921746Y-91409040D01*
X101826259Y-91243652D01*
X101698472Y-91101730D01*
X101543971Y-90989478D01*
X101537943Y-90986794D01*
X101537941Y-90986793D01*
X101375538Y-90914487D01*
X101375537Y-90914487D01*
X101369507Y-90911802D01*
X101251845Y-90886792D01*
X101189163Y-90873468D01*
X101189158Y-90873468D01*
X101182706Y-90872096D01*
X100991732Y-90872096D01*
X100985280Y-90873468D01*
X100985275Y-90873468D01*
X100922593Y-90886792D01*
X100804931Y-90911802D01*
X100798901Y-90914487D01*
X100798900Y-90914487D01*
X100636497Y-90986793D01*
X100636495Y-90986794D01*
X100630467Y-90989478D01*
X100475966Y-91101730D01*
X100348179Y-91243652D01*
X100252692Y-91409040D01*
X100193677Y-91590668D01*
X100173715Y-91780596D01*
X81133075Y-91780596D01*
X81087794Y-91702168D01*
X80993309Y-91597231D01*
X80964429Y-91565157D01*
X80964428Y-91565156D01*
X80960007Y-91560246D01*
X80805506Y-91447994D01*
X80799478Y-91445310D01*
X80799476Y-91445309D01*
X80637073Y-91373003D01*
X80637072Y-91373003D01*
X80631042Y-91370318D01*
X80537641Y-91350465D01*
X80450698Y-91331984D01*
X80450693Y-91331984D01*
X80444241Y-91330612D01*
X80253267Y-91330612D01*
X80246815Y-91331984D01*
X80246810Y-91331984D01*
X80159867Y-91350465D01*
X80066466Y-91370318D01*
X80060439Y-91373001D01*
X80060431Y-91373004D01*
X79904064Y-91442623D01*
X79833697Y-91452057D01*
X79769400Y-91421950D01*
X79731587Y-91361861D01*
X79727506Y-91314346D01*
X79733362Y-91258628D01*
X79734052Y-91252063D01*
X79718252Y-91101730D01*
X79714780Y-91068698D01*
X79714780Y-91068696D01*
X79714090Y-91062135D01*
X79655075Y-90880507D01*
X79559588Y-90715119D01*
X79527075Y-90679009D01*
X79436223Y-90578108D01*
X79436222Y-90578107D01*
X79431801Y-90573197D01*
X79277300Y-90460945D01*
X79271271Y-90458261D01*
X79271268Y-90458259D01*
X79259059Y-90452823D01*
X79204964Y-90406841D01*
X79184316Y-90338914D01*
X79201191Y-90274717D01*
X79208254Y-90262484D01*
X79208255Y-90262483D01*
X79211558Y-90256761D01*
X79270573Y-90075133D01*
X79290535Y-89885205D01*
X79270573Y-89695277D01*
X79211558Y-89513649D01*
X79116071Y-89348261D01*
X79069966Y-89297056D01*
X95983024Y-89297056D01*
X96002986Y-89486984D01*
X96062001Y-89668612D01*
X96157488Y-89834000D01*
X96285275Y-89975922D01*
X96384371Y-90047920D01*
X96430468Y-90081411D01*
X96439776Y-90088174D01*
X96445804Y-90090858D01*
X96445806Y-90090859D01*
X96608209Y-90163165D01*
X96614240Y-90165850D01*
X96707640Y-90185703D01*
X96794584Y-90204184D01*
X96794589Y-90204184D01*
X96801041Y-90205556D01*
X96992015Y-90205556D01*
X96998467Y-90204184D01*
X96998472Y-90204184D01*
X97085416Y-90185703D01*
X97178816Y-90165850D01*
X97184847Y-90163165D01*
X97347250Y-90090859D01*
X97347252Y-90090858D01*
X97353280Y-90088174D01*
X97362589Y-90081411D01*
X97408685Y-90047920D01*
X97507781Y-89975922D01*
X97635568Y-89834000D01*
X97731055Y-89668612D01*
X97790070Y-89486984D01*
X97810032Y-89297056D01*
X97800089Y-89202456D01*
X97790760Y-89113691D01*
X97790760Y-89113689D01*
X97790070Y-89107128D01*
X97731055Y-88925500D01*
X97724968Y-88914956D01*
X97647028Y-88779961D01*
X97635568Y-88760112D01*
X97507781Y-88618190D01*
X97353280Y-88505938D01*
X97347252Y-88503254D01*
X97347250Y-88503253D01*
X97184847Y-88430947D01*
X97184846Y-88430947D01*
X97178816Y-88428262D01*
X97085415Y-88408409D01*
X96998472Y-88389928D01*
X96998467Y-88389928D01*
X96992015Y-88388556D01*
X96801041Y-88388556D01*
X96794589Y-88389928D01*
X96794584Y-88389928D01*
X96707641Y-88408409D01*
X96614240Y-88428262D01*
X96608210Y-88430947D01*
X96608209Y-88430947D01*
X96445806Y-88503253D01*
X96445804Y-88503254D01*
X96439776Y-88505938D01*
X96285275Y-88618190D01*
X96157488Y-88760112D01*
X96146028Y-88779961D01*
X96068089Y-88914956D01*
X96062001Y-88925500D01*
X96002986Y-89107128D01*
X96002296Y-89113689D01*
X96002296Y-89113691D01*
X95992967Y-89202456D01*
X95983024Y-89297056D01*
X79069966Y-89297056D01*
X78988284Y-89206339D01*
X78889188Y-89134341D01*
X78839125Y-89097968D01*
X78839124Y-89097967D01*
X78833783Y-89094087D01*
X78827755Y-89091403D01*
X78827753Y-89091402D01*
X78665350Y-89019096D01*
X78665349Y-89019096D01*
X78659319Y-89016411D01*
X78565919Y-88996558D01*
X78478975Y-88978077D01*
X78478970Y-88978077D01*
X78472518Y-88976705D01*
X78281544Y-88976705D01*
X78275092Y-88978077D01*
X78275087Y-88978077D01*
X78188143Y-88996558D01*
X78094743Y-89016411D01*
X78088713Y-89019096D01*
X78088712Y-89019096D01*
X77926309Y-89091402D01*
X77926307Y-89091403D01*
X77920279Y-89094087D01*
X77914938Y-89097967D01*
X77914937Y-89097968D01*
X77864874Y-89134341D01*
X77765778Y-89206339D01*
X77637991Y-89348261D01*
X77542504Y-89513649D01*
X77483489Y-89695277D01*
X77463527Y-89885205D01*
X58928500Y-89885205D01*
X58928500Y-87426535D01*
X75310710Y-87426535D01*
X75311400Y-87433100D01*
X75329570Y-87605975D01*
X75330672Y-87616463D01*
X75389687Y-87798091D01*
X75392990Y-87803813D01*
X75392991Y-87803814D01*
X75405919Y-87826206D01*
X75485174Y-87963479D01*
X75489592Y-87968386D01*
X75489593Y-87968387D01*
X75608539Y-88100490D01*
X75612961Y-88105401D01*
X75767462Y-88217653D01*
X75773490Y-88220337D01*
X75773492Y-88220338D01*
X75935895Y-88292644D01*
X75941926Y-88295329D01*
X76023880Y-88312749D01*
X76122270Y-88333663D01*
X76122275Y-88333663D01*
X76128727Y-88335035D01*
X76319701Y-88335035D01*
X76326153Y-88333663D01*
X76326158Y-88333663D01*
X76424548Y-88312749D01*
X76506502Y-88295329D01*
X76512533Y-88292644D01*
X76639556Y-88236090D01*
X80795005Y-88236090D01*
X80795695Y-88242655D01*
X80811030Y-88388556D01*
X80814967Y-88426018D01*
X80873982Y-88607646D01*
X80877285Y-88613368D01*
X80877286Y-88613369D01*
X80882905Y-88623101D01*
X80969469Y-88773034D01*
X81097256Y-88914956D01*
X81251757Y-89027208D01*
X81257785Y-89029892D01*
X81257787Y-89029893D01*
X81401970Y-89094087D01*
X81426221Y-89104884D01*
X81519621Y-89124737D01*
X81606565Y-89143218D01*
X81606570Y-89143218D01*
X81613022Y-89144590D01*
X81803996Y-89144590D01*
X81810448Y-89143218D01*
X81810453Y-89143218D01*
X81897397Y-89124737D01*
X81990797Y-89104884D01*
X82015048Y-89094087D01*
X82159231Y-89029893D01*
X82159233Y-89029892D01*
X82165261Y-89027208D01*
X82319762Y-88914956D01*
X82447549Y-88773034D01*
X82534113Y-88623101D01*
X82539732Y-88613369D01*
X82539733Y-88613368D01*
X82543036Y-88607646D01*
X82602051Y-88426018D01*
X82605989Y-88388556D01*
X82621323Y-88242655D01*
X82622013Y-88236090D01*
X82616142Y-88180234D01*
X84026431Y-88180234D01*
X84027121Y-88186799D01*
X84039951Y-88308866D01*
X84046393Y-88370162D01*
X84105408Y-88551790D01*
X84108711Y-88557512D01*
X84108712Y-88557513D01*
X84128937Y-88592544D01*
X84200895Y-88717178D01*
X84205313Y-88722085D01*
X84205314Y-88722086D01*
X84257425Y-88779961D01*
X84328682Y-88859100D01*
X84483183Y-88971352D01*
X84489211Y-88974036D01*
X84489213Y-88974037D01*
X84651616Y-89046343D01*
X84657647Y-89049028D01*
X84751048Y-89068881D01*
X84837991Y-89087362D01*
X84837996Y-89087362D01*
X84844448Y-89088734D01*
X85035422Y-89088734D01*
X85041874Y-89087362D01*
X85041879Y-89087362D01*
X85128822Y-89068881D01*
X85222223Y-89049028D01*
X85228254Y-89046343D01*
X85390657Y-88974037D01*
X85390659Y-88974036D01*
X85396687Y-88971352D01*
X85551188Y-88859100D01*
X85622445Y-88779961D01*
X85674556Y-88722086D01*
X85674557Y-88722085D01*
X85678975Y-88717178D01*
X85750933Y-88592544D01*
X85771158Y-88557513D01*
X85771159Y-88557512D01*
X85774462Y-88551790D01*
X85833477Y-88370162D01*
X85839920Y-88308866D01*
X85852749Y-88186799D01*
X85853439Y-88180234D01*
X85844287Y-88093160D01*
X85834167Y-87996869D01*
X85834167Y-87996867D01*
X85833477Y-87990306D01*
X85774462Y-87808678D01*
X85678975Y-87643290D01*
X85661098Y-87623435D01*
X85555610Y-87506279D01*
X85555609Y-87506278D01*
X85551188Y-87501368D01*
X85396687Y-87389116D01*
X85390659Y-87386432D01*
X85390657Y-87386431D01*
X85228254Y-87314125D01*
X85228253Y-87314125D01*
X85222223Y-87311440D01*
X85128822Y-87291587D01*
X85041879Y-87273106D01*
X85041874Y-87273106D01*
X85035422Y-87271734D01*
X84844448Y-87271734D01*
X84837996Y-87273106D01*
X84837991Y-87273106D01*
X84751048Y-87291587D01*
X84657647Y-87311440D01*
X84651617Y-87314125D01*
X84651616Y-87314125D01*
X84489213Y-87386431D01*
X84489211Y-87386432D01*
X84483183Y-87389116D01*
X84328682Y-87501368D01*
X84324261Y-87506278D01*
X84324260Y-87506279D01*
X84218773Y-87623435D01*
X84200895Y-87643290D01*
X84105408Y-87808678D01*
X84046393Y-87990306D01*
X84045703Y-87996867D01*
X84045703Y-87996869D01*
X84035583Y-88093160D01*
X84026431Y-88180234D01*
X82616142Y-88180234D01*
X82607761Y-88100490D01*
X82602741Y-88052725D01*
X82602741Y-88052723D01*
X82602051Y-88046162D01*
X82543036Y-87864534D01*
X82447549Y-87699146D01*
X82319762Y-87557224D01*
X82165261Y-87444972D01*
X82159233Y-87442288D01*
X82159231Y-87442287D01*
X81996828Y-87369981D01*
X81996827Y-87369981D01*
X81990797Y-87367296D01*
X81897397Y-87347443D01*
X81810453Y-87328962D01*
X81810448Y-87328962D01*
X81803996Y-87327590D01*
X81613022Y-87327590D01*
X81606570Y-87328962D01*
X81606565Y-87328962D01*
X81519621Y-87347443D01*
X81426221Y-87367296D01*
X81420191Y-87369981D01*
X81420190Y-87369981D01*
X81257787Y-87442287D01*
X81257785Y-87442288D01*
X81251757Y-87444972D01*
X81097256Y-87557224D01*
X80969469Y-87699146D01*
X80873982Y-87864534D01*
X80814967Y-88046162D01*
X80814277Y-88052723D01*
X80814277Y-88052725D01*
X80809257Y-88100490D01*
X80795005Y-88236090D01*
X76639556Y-88236090D01*
X76674936Y-88220338D01*
X76674938Y-88220337D01*
X76680966Y-88217653D01*
X76835467Y-88105401D01*
X76839889Y-88100490D01*
X76958835Y-87968387D01*
X76958836Y-87968386D01*
X76963254Y-87963479D01*
X77042509Y-87826206D01*
X77055437Y-87803814D01*
X77055438Y-87803813D01*
X77058741Y-87798091D01*
X77117756Y-87616463D01*
X77118859Y-87605975D01*
X77137028Y-87433100D01*
X77137718Y-87426535D01*
X77117756Y-87236607D01*
X77058741Y-87054979D01*
X76963254Y-86889591D01*
X76835467Y-86747669D01*
X76821032Y-86737181D01*
X85735135Y-86737181D01*
X85735825Y-86743746D01*
X85751927Y-86896944D01*
X85755097Y-86927109D01*
X85814112Y-87108737D01*
X85817415Y-87114459D01*
X85817416Y-87114460D01*
X85851325Y-87173191D01*
X85909599Y-87274125D01*
X85914017Y-87279032D01*
X85914018Y-87279033D01*
X85945615Y-87314125D01*
X86037386Y-87416047D01*
X86191887Y-87528299D01*
X86197915Y-87530983D01*
X86197917Y-87530984D01*
X86267884Y-87562135D01*
X86366351Y-87605975D01*
X86459751Y-87625828D01*
X86546695Y-87644309D01*
X86546700Y-87644309D01*
X86553152Y-87645681D01*
X86744126Y-87645681D01*
X86750578Y-87644309D01*
X86750583Y-87644309D01*
X86837527Y-87625828D01*
X86930927Y-87605975D01*
X87029394Y-87562135D01*
X87099361Y-87530984D01*
X87099363Y-87530983D01*
X87105391Y-87528299D01*
X87259892Y-87416047D01*
X87351663Y-87314125D01*
X87383260Y-87279033D01*
X87383261Y-87279032D01*
X87387679Y-87274125D01*
X87445953Y-87173191D01*
X87479862Y-87114460D01*
X87479863Y-87114459D01*
X87483166Y-87108737D01*
X87542181Y-86927109D01*
X87545352Y-86896944D01*
X87561453Y-86743746D01*
X87562143Y-86737181D01*
X87543566Y-86560426D01*
X87542871Y-86553816D01*
X87542871Y-86553814D01*
X87542181Y-86547253D01*
X87483166Y-86365625D01*
X87387679Y-86200237D01*
X87366428Y-86176635D01*
X87302005Y-86105086D01*
X87271287Y-86041079D01*
X87280052Y-85970625D01*
X87325515Y-85916094D01*
X87344390Y-85905670D01*
X87351220Y-85902629D01*
X87351223Y-85902627D01*
X87357252Y-85899943D01*
X87511753Y-85787691D01*
X87553866Y-85740920D01*
X87635121Y-85650677D01*
X87635122Y-85650676D01*
X87639540Y-85645769D01*
X87735027Y-85480381D01*
X87783475Y-85331273D01*
X87823549Y-85272668D01*
X87888945Y-85245031D01*
X87958902Y-85257138D01*
X88011208Y-85305144D01*
X88023141Y-85331273D01*
X88065473Y-85461556D01*
X88068776Y-85467278D01*
X88068777Y-85467279D01*
X88077858Y-85483007D01*
X88160960Y-85626944D01*
X88165378Y-85631851D01*
X88165379Y-85631852D01*
X88209753Y-85681134D01*
X88288747Y-85768866D01*
X88320002Y-85791574D01*
X88435352Y-85875381D01*
X88443248Y-85881118D01*
X88449276Y-85883802D01*
X88449278Y-85883803D01*
X88597834Y-85949944D01*
X88617712Y-85958794D01*
X88706276Y-85977619D01*
X88798056Y-85997128D01*
X88798061Y-85997128D01*
X88804513Y-85998500D01*
X88995487Y-85998500D01*
X89001939Y-85997128D01*
X89001944Y-85997128D01*
X89143716Y-85966993D01*
X89214507Y-85972395D01*
X89271139Y-86015212D01*
X89295633Y-86081850D01*
X89289746Y-86129176D01*
X89276458Y-86170072D01*
X89275768Y-86176633D01*
X89275768Y-86176635D01*
X89257186Y-86353435D01*
X89256496Y-86360000D01*
X89276458Y-86549928D01*
X89335473Y-86731556D01*
X89430960Y-86896944D01*
X89443338Y-86910691D01*
X89474054Y-86974697D01*
X89465290Y-87045150D01*
X89443339Y-87079307D01*
X89430960Y-87093056D01*
X89417718Y-87115992D01*
X89348081Y-87236607D01*
X89335473Y-87258444D01*
X89276458Y-87440072D01*
X89275768Y-87446633D01*
X89275768Y-87446635D01*
X89269499Y-87506279D01*
X89256496Y-87630000D01*
X89257186Y-87636565D01*
X89275276Y-87808678D01*
X89276458Y-87819928D01*
X89335473Y-88001556D01*
X89430960Y-88166944D01*
X89435378Y-88171851D01*
X89435379Y-88171852D01*
X89554325Y-88303955D01*
X89558747Y-88308866D01*
X89713248Y-88421118D01*
X89719276Y-88423802D01*
X89719278Y-88423803D01*
X89881681Y-88496109D01*
X89887712Y-88498794D01*
X89981113Y-88518647D01*
X90068056Y-88537128D01*
X90068061Y-88537128D01*
X90074513Y-88538500D01*
X90265487Y-88538500D01*
X90271939Y-88537128D01*
X90271944Y-88537128D01*
X90358887Y-88518647D01*
X90452288Y-88498794D01*
X90458319Y-88496109D01*
X90620722Y-88423803D01*
X90620724Y-88423802D01*
X90626752Y-88421118D01*
X90781253Y-88308866D01*
X90785675Y-88303955D01*
X90904621Y-88171852D01*
X90904622Y-88171851D01*
X90909040Y-88166944D01*
X91004527Y-88001556D01*
X91034342Y-87909795D01*
X103547878Y-87909795D01*
X103548568Y-87916360D01*
X103562211Y-88046162D01*
X103567840Y-88099723D01*
X103626855Y-88281351D01*
X103722342Y-88446739D01*
X103726760Y-88451646D01*
X103726761Y-88451647D01*
X103804964Y-88538500D01*
X103850129Y-88588661D01*
X104004630Y-88700913D01*
X104010658Y-88703597D01*
X104010660Y-88703598D01*
X104153774Y-88767316D01*
X104179094Y-88778589D01*
X104272494Y-88798442D01*
X104359438Y-88816923D01*
X104359443Y-88816923D01*
X104365895Y-88818295D01*
X104556869Y-88818295D01*
X104563321Y-88816923D01*
X104563326Y-88816923D01*
X104650270Y-88798442D01*
X104743670Y-88778589D01*
X104768990Y-88767316D01*
X104912104Y-88703598D01*
X104912106Y-88703597D01*
X104918134Y-88700913D01*
X105072635Y-88588661D01*
X105117800Y-88538500D01*
X105196003Y-88451647D01*
X105196004Y-88451646D01*
X105200422Y-88446739D01*
X105295909Y-88281351D01*
X105354924Y-88099723D01*
X105360554Y-88046162D01*
X105374196Y-87916360D01*
X105374886Y-87909795D01*
X105354924Y-87719867D01*
X105295909Y-87538239D01*
X105287930Y-87524418D01*
X105239232Y-87440072D01*
X105200422Y-87372851D01*
X105145128Y-87311440D01*
X105077057Y-87235840D01*
X105077056Y-87235839D01*
X105072635Y-87230929D01*
X104918134Y-87118677D01*
X104912106Y-87115993D01*
X104912104Y-87115992D01*
X104749701Y-87043686D01*
X104749700Y-87043686D01*
X104743670Y-87041001D01*
X104650269Y-87021148D01*
X104563326Y-87002667D01*
X104563321Y-87002667D01*
X104556869Y-87001295D01*
X104365895Y-87001295D01*
X104359443Y-87002667D01*
X104359438Y-87002667D01*
X104272495Y-87021148D01*
X104179094Y-87041001D01*
X104173064Y-87043686D01*
X104173063Y-87043686D01*
X104010660Y-87115992D01*
X104010658Y-87115993D01*
X104004630Y-87118677D01*
X103850129Y-87230929D01*
X103845708Y-87235839D01*
X103845707Y-87235840D01*
X103777637Y-87311440D01*
X103722342Y-87372851D01*
X103683532Y-87440072D01*
X103634835Y-87524418D01*
X103626855Y-87538239D01*
X103567840Y-87719867D01*
X103547878Y-87909795D01*
X91034342Y-87909795D01*
X91063542Y-87819928D01*
X91064725Y-87808678D01*
X91082814Y-87636565D01*
X91083504Y-87630000D01*
X91070501Y-87506279D01*
X91064232Y-87446635D01*
X91064232Y-87446633D01*
X91063542Y-87440072D01*
X91004527Y-87258444D01*
X90991920Y-87236607D01*
X90922282Y-87115992D01*
X90909040Y-87093056D01*
X90896662Y-87079309D01*
X90865946Y-87015303D01*
X90874710Y-86944850D01*
X90896661Y-86910693D01*
X90909040Y-86896944D01*
X91004527Y-86731556D01*
X91063542Y-86549928D01*
X91083504Y-86360000D01*
X91082814Y-86353435D01*
X91064232Y-86176635D01*
X91064232Y-86176633D01*
X91063542Y-86170072D01*
X91004527Y-85988444D01*
X90909040Y-85823056D01*
X90872776Y-85782780D01*
X90785675Y-85686045D01*
X90785674Y-85686044D01*
X90781253Y-85681134D01*
X90626752Y-85568882D01*
X90620724Y-85566198D01*
X90620722Y-85566197D01*
X90458319Y-85493891D01*
X90458318Y-85493891D01*
X90452288Y-85491206D01*
X90339721Y-85467279D01*
X90271944Y-85452872D01*
X90271939Y-85452872D01*
X90265487Y-85451500D01*
X90074513Y-85451500D01*
X90068061Y-85452872D01*
X90068056Y-85452872D01*
X89926284Y-85483007D01*
X89855493Y-85477605D01*
X89798861Y-85434788D01*
X89774367Y-85368150D01*
X89780254Y-85320824D01*
X89791502Y-85286206D01*
X89793542Y-85279928D01*
X89813504Y-85090000D01*
X91796496Y-85090000D01*
X91816458Y-85279928D01*
X91875473Y-85461556D01*
X91878776Y-85467278D01*
X91878777Y-85467279D01*
X91887858Y-85483007D01*
X91970960Y-85626944D01*
X91975378Y-85631851D01*
X91975379Y-85631852D01*
X92019753Y-85681134D01*
X92098747Y-85768866D01*
X92130002Y-85791574D01*
X92245352Y-85875381D01*
X92253248Y-85881118D01*
X92259276Y-85883802D01*
X92259278Y-85883803D01*
X92407834Y-85949944D01*
X92427712Y-85958794D01*
X92516276Y-85977619D01*
X92608056Y-85997128D01*
X92608061Y-85997128D01*
X92614513Y-85998500D01*
X92805487Y-85998500D01*
X92811939Y-85997128D01*
X92811944Y-85997128D01*
X92903724Y-85977619D01*
X92992288Y-85958794D01*
X93012166Y-85949944D01*
X93160722Y-85883803D01*
X93160724Y-85883802D01*
X93166752Y-85881118D01*
X93174649Y-85875381D01*
X93289998Y-85791574D01*
X93321253Y-85768866D01*
X93400247Y-85681134D01*
X93444621Y-85631852D01*
X93444622Y-85631851D01*
X93449040Y-85626944D01*
X93532142Y-85483007D01*
X93541223Y-85467279D01*
X93541224Y-85467278D01*
X93544527Y-85461556D01*
X93603542Y-85279928D01*
X93623504Y-85090000D01*
X93606284Y-84926157D01*
X93604232Y-84906635D01*
X93604232Y-84906633D01*
X93603542Y-84900072D01*
X93544527Y-84718444D01*
X93449040Y-84553056D01*
X93367971Y-84463019D01*
X93325675Y-84416045D01*
X93325674Y-84416044D01*
X93321253Y-84411134D01*
X93166752Y-84298882D01*
X93160724Y-84296198D01*
X93160722Y-84296197D01*
X92998319Y-84223891D01*
X92998318Y-84223891D01*
X92992288Y-84221206D01*
X92894051Y-84200325D01*
X92811944Y-84182872D01*
X92811939Y-84182872D01*
X92805487Y-84181500D01*
X92614513Y-84181500D01*
X92608061Y-84182872D01*
X92608056Y-84182872D01*
X92525949Y-84200325D01*
X92427712Y-84221206D01*
X92421682Y-84223891D01*
X92421681Y-84223891D01*
X92259278Y-84296197D01*
X92259276Y-84296198D01*
X92253248Y-84298882D01*
X92098747Y-84411134D01*
X92094326Y-84416044D01*
X92094325Y-84416045D01*
X92052030Y-84463019D01*
X91970960Y-84553056D01*
X91875473Y-84718444D01*
X91816458Y-84900072D01*
X91815768Y-84906633D01*
X91815768Y-84906635D01*
X91813716Y-84926157D01*
X91796496Y-85090000D01*
X89813504Y-85090000D01*
X89796284Y-84926157D01*
X89794232Y-84906635D01*
X89794232Y-84906633D01*
X89793542Y-84900072D01*
X89734527Y-84718444D01*
X89639040Y-84553056D01*
X89557971Y-84463019D01*
X89515675Y-84416045D01*
X89515674Y-84416044D01*
X89511253Y-84411134D01*
X89356752Y-84298882D01*
X89350724Y-84296198D01*
X89350722Y-84296197D01*
X89188319Y-84223891D01*
X89188318Y-84223891D01*
X89182288Y-84221206D01*
X89084051Y-84200325D01*
X89001944Y-84182872D01*
X89001939Y-84182872D01*
X88995487Y-84181500D01*
X88804513Y-84181500D01*
X88798061Y-84182872D01*
X88798056Y-84182872D01*
X88715949Y-84200325D01*
X88617712Y-84221206D01*
X88611682Y-84223891D01*
X88611681Y-84223891D01*
X88449278Y-84296197D01*
X88449276Y-84296198D01*
X88443248Y-84298882D01*
X88288747Y-84411134D01*
X88284326Y-84416044D01*
X88284325Y-84416045D01*
X88242030Y-84463019D01*
X88160960Y-84553056D01*
X88065473Y-84718444D01*
X88027740Y-84834575D01*
X88017025Y-84867551D01*
X87976951Y-84926157D01*
X87911555Y-84953794D01*
X87841598Y-84941687D01*
X87789292Y-84893681D01*
X87777359Y-84867552D01*
X87754188Y-84796241D01*
X87735027Y-84737269D01*
X87724159Y-84718444D01*
X87642841Y-84577599D01*
X87639540Y-84571881D01*
X87627739Y-84558774D01*
X87516175Y-84434870D01*
X87516174Y-84434869D01*
X87511753Y-84429959D01*
X87357252Y-84317707D01*
X87351224Y-84315023D01*
X87351222Y-84315022D01*
X87188819Y-84242716D01*
X87188818Y-84242716D01*
X87182788Y-84240031D01*
X87087769Y-84219834D01*
X87002444Y-84201697D01*
X87002439Y-84201697D01*
X86995987Y-84200325D01*
X86805013Y-84200325D01*
X86798561Y-84201697D01*
X86798556Y-84201697D01*
X86713231Y-84219834D01*
X86618212Y-84240031D01*
X86612182Y-84242716D01*
X86612181Y-84242716D01*
X86449778Y-84315022D01*
X86449776Y-84315023D01*
X86443748Y-84317707D01*
X86289247Y-84429959D01*
X86284826Y-84434869D01*
X86284825Y-84434870D01*
X86173262Y-84558774D01*
X86161460Y-84571881D01*
X86158159Y-84577599D01*
X86076842Y-84718444D01*
X86065973Y-84737269D01*
X86006958Y-84918897D01*
X85986996Y-85108825D01*
X85987686Y-85115390D01*
X86004290Y-85273365D01*
X86006958Y-85298753D01*
X86065973Y-85480381D01*
X86161460Y-85645769D01*
X86165878Y-85650676D01*
X86165879Y-85650677D01*
X86247134Y-85740920D01*
X86277852Y-85804927D01*
X86269087Y-85875381D01*
X86223624Y-85929912D01*
X86204749Y-85940336D01*
X86197919Y-85943377D01*
X86197916Y-85943379D01*
X86191887Y-85946063D01*
X86037386Y-86058315D01*
X86032965Y-86063225D01*
X86032964Y-86063226D01*
X85936760Y-86170072D01*
X85909599Y-86200237D01*
X85814112Y-86365625D01*
X85755097Y-86547253D01*
X85754407Y-86553814D01*
X85754407Y-86553816D01*
X85753712Y-86560426D01*
X85735135Y-86737181D01*
X76821032Y-86737181D01*
X76680966Y-86635417D01*
X76674938Y-86632733D01*
X76674936Y-86632732D01*
X76512533Y-86560426D01*
X76512532Y-86560426D01*
X76506502Y-86557741D01*
X76413101Y-86537888D01*
X76326158Y-86519407D01*
X76326153Y-86519407D01*
X76319701Y-86518035D01*
X76128727Y-86518035D01*
X76122275Y-86519407D01*
X76122270Y-86519407D01*
X76035327Y-86537888D01*
X75941926Y-86557741D01*
X75935896Y-86560426D01*
X75935895Y-86560426D01*
X75773492Y-86632732D01*
X75773490Y-86632733D01*
X75767462Y-86635417D01*
X75612961Y-86747669D01*
X75485174Y-86889591D01*
X75389687Y-87054979D01*
X75330672Y-87236607D01*
X75310710Y-87426535D01*
X58928500Y-87426535D01*
X58928500Y-83926075D01*
X74528970Y-83926075D01*
X74548932Y-84116003D01*
X74607947Y-84297631D01*
X74611250Y-84303353D01*
X74611251Y-84303354D01*
X74645160Y-84362085D01*
X74703434Y-84463019D01*
X74707852Y-84467926D01*
X74707853Y-84467927D01*
X74789652Y-84558774D01*
X74831221Y-84604941D01*
X74985722Y-84717193D01*
X74991750Y-84719877D01*
X74991752Y-84719878D01*
X75044923Y-84743551D01*
X75160186Y-84794869D01*
X75253587Y-84814722D01*
X75340530Y-84833203D01*
X75340535Y-84833203D01*
X75346987Y-84834575D01*
X75537961Y-84834575D01*
X75544413Y-84833203D01*
X75544418Y-84833203D01*
X75631361Y-84814722D01*
X75724762Y-84794869D01*
X75840025Y-84743551D01*
X75893196Y-84719878D01*
X75893198Y-84719877D01*
X75899226Y-84717193D01*
X76053727Y-84604941D01*
X76095296Y-84558774D01*
X76177095Y-84467927D01*
X76177096Y-84467926D01*
X76181514Y-84463019D01*
X76239788Y-84362085D01*
X76273697Y-84303354D01*
X76273698Y-84303353D01*
X76277001Y-84297631D01*
X76336016Y-84116003D01*
X76355978Y-83926075D01*
X76336016Y-83736147D01*
X76277001Y-83554519D01*
X76181514Y-83389131D01*
X76053727Y-83247209D01*
X75899226Y-83134957D01*
X75893198Y-83132273D01*
X75893196Y-83132272D01*
X75730793Y-83059966D01*
X75730792Y-83059966D01*
X75724762Y-83057281D01*
X75631361Y-83037428D01*
X75544418Y-83018947D01*
X75544413Y-83018947D01*
X75537961Y-83017575D01*
X75346987Y-83017575D01*
X75340535Y-83018947D01*
X75340530Y-83018947D01*
X75253587Y-83037428D01*
X75160186Y-83057281D01*
X75154156Y-83059966D01*
X75154155Y-83059966D01*
X74991752Y-83132272D01*
X74991750Y-83132273D01*
X74985722Y-83134957D01*
X74831221Y-83247209D01*
X74703434Y-83389131D01*
X74607947Y-83554519D01*
X74548932Y-83736147D01*
X74528970Y-83926075D01*
X58928500Y-83926075D01*
X58928500Y-82589482D01*
X80768947Y-82589482D01*
X80788909Y-82779410D01*
X80847924Y-82961038D01*
X80943411Y-83126426D01*
X81071198Y-83268348D01*
X81225699Y-83380600D01*
X81231727Y-83383284D01*
X81231729Y-83383285D01*
X81394132Y-83455591D01*
X81400163Y-83458276D01*
X81493564Y-83478129D01*
X81580507Y-83496610D01*
X81580512Y-83496610D01*
X81586964Y-83497982D01*
X81777938Y-83497982D01*
X81784390Y-83496610D01*
X81784395Y-83496610D01*
X81871338Y-83478129D01*
X81964739Y-83458276D01*
X81970770Y-83455591D01*
X82133173Y-83383285D01*
X82133175Y-83383284D01*
X82139203Y-83380600D01*
X82293704Y-83268348D01*
X82421491Y-83126426D01*
X82516978Y-82961038D01*
X82575993Y-82779410D01*
X82595955Y-82589482D01*
X82575993Y-82399554D01*
X82516978Y-82217926D01*
X82421491Y-82052538D01*
X82293704Y-81910616D01*
X82139203Y-81798364D01*
X82133175Y-81795680D01*
X82133173Y-81795679D01*
X81970770Y-81723373D01*
X81970769Y-81723373D01*
X81964739Y-81720688D01*
X81871339Y-81700835D01*
X81784395Y-81682354D01*
X81784390Y-81682354D01*
X81777938Y-81680982D01*
X81586964Y-81680982D01*
X81580512Y-81682354D01*
X81580507Y-81682354D01*
X81493563Y-81700835D01*
X81400163Y-81720688D01*
X81394133Y-81723373D01*
X81394132Y-81723373D01*
X81231729Y-81795679D01*
X81231727Y-81795680D01*
X81225699Y-81798364D01*
X81071198Y-81910616D01*
X80943411Y-82052538D01*
X80847924Y-82217926D01*
X80788909Y-82399554D01*
X80768947Y-82589482D01*
X58928500Y-82589482D01*
X58928500Y-78343017D01*
X58948502Y-78274896D01*
X59002158Y-78228403D01*
X59072432Y-78218299D01*
X59137012Y-78247793D01*
X59167213Y-78286698D01*
X59272161Y-78496731D01*
X59294231Y-78540901D01*
X59518974Y-78905502D01*
X59775239Y-79248682D01*
X59777100Y-79250760D01*
X59777101Y-79250761D01*
X60059127Y-79565637D01*
X60059133Y-79565643D01*
X60060995Y-79567722D01*
X60373981Y-79860098D01*
X60711719Y-80123493D01*
X61071533Y-80355822D01*
X61074012Y-80357126D01*
X61074015Y-80357128D01*
X61448077Y-80553932D01*
X61448083Y-80553935D01*
X61450577Y-80555247D01*
X61453175Y-80556331D01*
X61453179Y-80556333D01*
X61843263Y-80719109D01*
X61843268Y-80719111D01*
X61845847Y-80720187D01*
X61848512Y-80721030D01*
X61848518Y-80721032D01*
X62070561Y-80791254D01*
X62254214Y-80849336D01*
X62672446Y-80941673D01*
X62675220Y-80942031D01*
X62675221Y-80942031D01*
X63094460Y-80996109D01*
X63094467Y-80996110D01*
X63097230Y-80996466D01*
X63100017Y-80996576D01*
X63100023Y-80996576D01*
X63348238Y-81006328D01*
X63525203Y-81013281D01*
X63527995Y-81013142D01*
X63528000Y-81013142D01*
X63950172Y-80992125D01*
X63950181Y-80992124D01*
X63952976Y-80991985D01*
X63955753Y-80991597D01*
X63955755Y-80991597D01*
X64030066Y-80981219D01*
X64377163Y-80932747D01*
X64794404Y-80836036D01*
X65008307Y-80765915D01*
X65198744Y-80703487D01*
X65198750Y-80703485D01*
X65201397Y-80702617D01*
X65594918Y-80533547D01*
X65971852Y-80330164D01*
X66329214Y-80094080D01*
X66664175Y-79827162D01*
X66974082Y-79531525D01*
X66975919Y-79529431D01*
X66975927Y-79529422D01*
X67254635Y-79211616D01*
X67256482Y-79209510D01*
X67328043Y-79111556D01*
X67507490Y-78865923D01*
X67509139Y-78863666D01*
X67579640Y-78746565D01*
X67583592Y-78740000D01*
X113386496Y-78740000D01*
X113406458Y-78929928D01*
X113465473Y-79111556D01*
X113560960Y-79276944D01*
X113688747Y-79418866D01*
X113843248Y-79531118D01*
X113849276Y-79533802D01*
X113849278Y-79533803D01*
X113920779Y-79565637D01*
X114017712Y-79608794D01*
X114111113Y-79628647D01*
X114198056Y-79647128D01*
X114198061Y-79647128D01*
X114204513Y-79648500D01*
X114395487Y-79648500D01*
X114401939Y-79647128D01*
X114401944Y-79647128D01*
X114488887Y-79628647D01*
X114582288Y-79608794D01*
X114679221Y-79565637D01*
X114750722Y-79533803D01*
X114750724Y-79533802D01*
X114756752Y-79531118D01*
X114911253Y-79418866D01*
X115039040Y-79276944D01*
X115134527Y-79111556D01*
X115193542Y-78929928D01*
X115213504Y-78740000D01*
X115926496Y-78740000D01*
X115946458Y-78929928D01*
X116005473Y-79111556D01*
X116100960Y-79276944D01*
X116228747Y-79418866D01*
X116383248Y-79531118D01*
X116389276Y-79533802D01*
X116389278Y-79533803D01*
X116460779Y-79565637D01*
X116557712Y-79608794D01*
X116651113Y-79628647D01*
X116738056Y-79647128D01*
X116738061Y-79647128D01*
X116744513Y-79648500D01*
X116935487Y-79648500D01*
X116941939Y-79647128D01*
X116941944Y-79647128D01*
X117028887Y-79628647D01*
X117122288Y-79608794D01*
X117219221Y-79565637D01*
X117290722Y-79533803D01*
X117290724Y-79533802D01*
X117296752Y-79531118D01*
X117400940Y-79455421D01*
X117467806Y-79431563D01*
X117536958Y-79447643D01*
X117549056Y-79455418D01*
X117653248Y-79531118D01*
X117659276Y-79533802D01*
X117659278Y-79533803D01*
X117730779Y-79565637D01*
X117827712Y-79608794D01*
X117921113Y-79628647D01*
X118008056Y-79647128D01*
X118008061Y-79647128D01*
X118014513Y-79648500D01*
X118205487Y-79648500D01*
X118211939Y-79647128D01*
X118211944Y-79647128D01*
X118298887Y-79628647D01*
X118392288Y-79608794D01*
X118489221Y-79565637D01*
X118560722Y-79533803D01*
X118560724Y-79533802D01*
X118566752Y-79531118D01*
X118721253Y-79418866D01*
X118849040Y-79276944D01*
X118944527Y-79111556D01*
X119003542Y-78929928D01*
X119023504Y-78740000D01*
X119003542Y-78550072D01*
X118944527Y-78368444D01*
X118849040Y-78203056D01*
X118803744Y-78152749D01*
X118725675Y-78066045D01*
X118725674Y-78066044D01*
X118721253Y-78061134D01*
X118566752Y-77948882D01*
X118560724Y-77946198D01*
X118560722Y-77946197D01*
X118398319Y-77873891D01*
X118398318Y-77873891D01*
X118392288Y-77871206D01*
X118279721Y-77847279D01*
X118211944Y-77832872D01*
X118211939Y-77832872D01*
X118205487Y-77831500D01*
X118014513Y-77831500D01*
X118008061Y-77832872D01*
X118008056Y-77832872D01*
X117940279Y-77847279D01*
X117827712Y-77871206D01*
X117821682Y-77873891D01*
X117821681Y-77873891D01*
X117659278Y-77946197D01*
X117659276Y-77946198D01*
X117653248Y-77948882D01*
X117549060Y-78024579D01*
X117482194Y-78048437D01*
X117413042Y-78032357D01*
X117400944Y-78024582D01*
X117296752Y-77948882D01*
X117290724Y-77946198D01*
X117290722Y-77946197D01*
X117128319Y-77873891D01*
X117128318Y-77873891D01*
X117122288Y-77871206D01*
X117009721Y-77847279D01*
X116941944Y-77832872D01*
X116941939Y-77832872D01*
X116935487Y-77831500D01*
X116744513Y-77831500D01*
X116738061Y-77832872D01*
X116738056Y-77832872D01*
X116670279Y-77847279D01*
X116557712Y-77871206D01*
X116551682Y-77873891D01*
X116551681Y-77873891D01*
X116389278Y-77946197D01*
X116389276Y-77946198D01*
X116383248Y-77948882D01*
X116228747Y-78061134D01*
X116224326Y-78066044D01*
X116224325Y-78066045D01*
X116146257Y-78152749D01*
X116100960Y-78203056D01*
X116005473Y-78368444D01*
X115946458Y-78550072D01*
X115926496Y-78740000D01*
X115213504Y-78740000D01*
X115193542Y-78550072D01*
X115134527Y-78368444D01*
X115039040Y-78203056D01*
X114993744Y-78152749D01*
X114915675Y-78066045D01*
X114915674Y-78066044D01*
X114911253Y-78061134D01*
X114756752Y-77948882D01*
X114750724Y-77946198D01*
X114750722Y-77946197D01*
X114588319Y-77873891D01*
X114588318Y-77873891D01*
X114582288Y-77871206D01*
X114469721Y-77847279D01*
X114401944Y-77832872D01*
X114401939Y-77832872D01*
X114395487Y-77831500D01*
X114204513Y-77831500D01*
X114198061Y-77832872D01*
X114198056Y-77832872D01*
X114130279Y-77847279D01*
X114017712Y-77871206D01*
X114011682Y-77873891D01*
X114011681Y-77873891D01*
X113849278Y-77946197D01*
X113849276Y-77946198D01*
X113843248Y-77948882D01*
X113688747Y-78061134D01*
X113684326Y-78066044D01*
X113684325Y-78066045D01*
X113606257Y-78152749D01*
X113560960Y-78203056D01*
X113465473Y-78368444D01*
X113406458Y-78550072D01*
X113386496Y-78740000D01*
X67583592Y-78740000D01*
X67728601Y-78499142D01*
X67728606Y-78499133D01*
X67730052Y-78496731D01*
X67865551Y-78218299D01*
X67916238Y-78114145D01*
X67916239Y-78114142D01*
X67917471Y-78111611D01*
X68009555Y-77869834D01*
X68068918Y-77713971D01*
X68068920Y-77713964D01*
X68069914Y-77711355D01*
X68137983Y-77470000D01*
X87536995Y-77470000D01*
X87556957Y-77659928D01*
X87615972Y-77841556D01*
X87711459Y-78006944D01*
X87715877Y-78011851D01*
X87715878Y-78011852D01*
X87805701Y-78111611D01*
X87839246Y-78148866D01*
X87993747Y-78261118D01*
X87999775Y-78263802D01*
X87999777Y-78263803D01*
X88064102Y-78292442D01*
X88168211Y-78338794D01*
X88261611Y-78358647D01*
X88348555Y-78377128D01*
X88348560Y-78377128D01*
X88355012Y-78378500D01*
X88545986Y-78378500D01*
X88552438Y-78377128D01*
X88552443Y-78377128D01*
X88639387Y-78358647D01*
X88732787Y-78338794D01*
X88836896Y-78292442D01*
X88901221Y-78263803D01*
X88901223Y-78263802D01*
X88907251Y-78261118D01*
X89061752Y-78148866D01*
X89095297Y-78111611D01*
X89185120Y-78011852D01*
X89185121Y-78011851D01*
X89189539Y-78006944D01*
X89285026Y-77841556D01*
X89344041Y-77659928D01*
X89364003Y-77470000D01*
X89344041Y-77280072D01*
X89285026Y-77098444D01*
X89189539Y-76933056D01*
X89185051Y-76928071D01*
X89066174Y-76796045D01*
X89066173Y-76796044D01*
X89061752Y-76791134D01*
X88907251Y-76678882D01*
X88901223Y-76676198D01*
X88901221Y-76676197D01*
X88738818Y-76603891D01*
X88738817Y-76603891D01*
X88732787Y-76601206D01*
X88620220Y-76577279D01*
X88552443Y-76562872D01*
X88552438Y-76562872D01*
X88545986Y-76561500D01*
X88355012Y-76561500D01*
X88348560Y-76562872D01*
X88348555Y-76562872D01*
X88280778Y-76577279D01*
X88168211Y-76601206D01*
X88162181Y-76603891D01*
X88162180Y-76603891D01*
X87999777Y-76676197D01*
X87999775Y-76676198D01*
X87993747Y-76678882D01*
X87839246Y-76791134D01*
X87834825Y-76796044D01*
X87834824Y-76796045D01*
X87715948Y-76928071D01*
X87711459Y-76933056D01*
X87615972Y-77098444D01*
X87556957Y-77280072D01*
X87536995Y-77470000D01*
X68137983Y-77470000D01*
X68186173Y-77299132D01*
X68229488Y-77068794D01*
X68264811Y-76880954D01*
X68264813Y-76880942D01*
X68265327Y-76878207D01*
X68306750Y-76451911D01*
X68310949Y-76291564D01*
X68313289Y-76202234D01*
X68313289Y-76202220D01*
X68313347Y-76200000D01*
X68294291Y-75772121D01*
X68237275Y-75347630D01*
X68236064Y-75342275D01*
X68143368Y-74932618D01*
X68143368Y-74932617D01*
X68142750Y-74929887D01*
X68133605Y-74901489D01*
X70031227Y-74901489D01*
X70033096Y-74930000D01*
X70044263Y-75100380D01*
X70045684Y-75105976D01*
X70045685Y-75105981D01*
X70074946Y-75221193D01*
X70093326Y-75293564D01*
X70095743Y-75298807D01*
X70159610Y-75437346D01*
X70176772Y-75474573D01*
X70180105Y-75479289D01*
X70288085Y-75632077D01*
X70291807Y-75637344D01*
X70434578Y-75776425D01*
X70600304Y-75887160D01*
X70605607Y-75889438D01*
X70605610Y-75889440D01*
X70778128Y-75963559D01*
X70783435Y-75965839D01*
X70855516Y-75982149D01*
X70972201Y-76008553D01*
X70972207Y-76008554D01*
X70977838Y-76009828D01*
X70983609Y-76010055D01*
X70983611Y-76010055D01*
X71044556Y-76012449D01*
X71177001Y-76017653D01*
X71276959Y-76003160D01*
X71368535Y-75989883D01*
X71368540Y-75989882D01*
X71374256Y-75989053D01*
X71379728Y-75987195D01*
X71379730Y-75987195D01*
X71557532Y-75926839D01*
X71557534Y-75926838D01*
X71562996Y-75924984D01*
X71736899Y-75827594D01*
X71890143Y-75700143D01*
X72017594Y-75546899D01*
X72114984Y-75372996D01*
X72124526Y-75344888D01*
X72177195Y-75189730D01*
X72177195Y-75189728D01*
X72179053Y-75184256D01*
X72179882Y-75178540D01*
X72179883Y-75178535D01*
X72203396Y-75016360D01*
X72207653Y-74987001D01*
X72209146Y-74930000D01*
X72192367Y-74747393D01*
X72191437Y-74737273D01*
X72191436Y-74737270D01*
X72190908Y-74731519D01*
X72171918Y-74664183D01*
X72167090Y-74647064D01*
X83749015Y-74647064D01*
X83778133Y-74839599D01*
X83780336Y-74845585D01*
X83780337Y-74845591D01*
X83843168Y-75016360D01*
X83843170Y-75016365D01*
X83845371Y-75022346D01*
X83848733Y-75027768D01*
X83942213Y-75178535D01*
X83947982Y-75187840D01*
X83952363Y-75192473D01*
X83952364Y-75192474D01*
X83961481Y-75202115D01*
X84081774Y-75329322D01*
X84087004Y-75332984D01*
X84087005Y-75332985D01*
X84111892Y-75350411D01*
X84241283Y-75441011D01*
X84247146Y-75443548D01*
X84414133Y-75515810D01*
X84414137Y-75515811D01*
X84419992Y-75518345D01*
X84426239Y-75519650D01*
X84426242Y-75519651D01*
X84605865Y-75557176D01*
X84605870Y-75557177D01*
X84610601Y-75558165D01*
X84616993Y-75558500D01*
X84759971Y-75558500D01*
X84830490Y-75551337D01*
X84898686Y-75544410D01*
X84898687Y-75544410D01*
X84905035Y-75543765D01*
X84961580Y-75526045D01*
X85084759Y-75487444D01*
X85084764Y-75487442D01*
X85090849Y-75485535D01*
X85177783Y-75437346D01*
X85255579Y-75394223D01*
X85255582Y-75394221D01*
X85261158Y-75391130D01*
X85265999Y-75386981D01*
X85266003Y-75386978D01*
X85404163Y-75268560D01*
X85409006Y-75264409D01*
X85528354Y-75110547D01*
X85569087Y-75027768D01*
X85611508Y-74941556D01*
X85614326Y-74935829D01*
X85633427Y-74862500D01*
X85661800Y-74753575D01*
X85661800Y-74753572D01*
X85663410Y-74747393D01*
X85668668Y-74647064D01*
X86749015Y-74647064D01*
X86778133Y-74839599D01*
X86780336Y-74845585D01*
X86780337Y-74845591D01*
X86843168Y-75016360D01*
X86843170Y-75016365D01*
X86845371Y-75022346D01*
X86848733Y-75027768D01*
X86942213Y-75178535D01*
X86947982Y-75187840D01*
X86952363Y-75192473D01*
X86952364Y-75192474D01*
X86961481Y-75202115D01*
X87081774Y-75329322D01*
X87087004Y-75332984D01*
X87087005Y-75332985D01*
X87111892Y-75350411D01*
X87241283Y-75441011D01*
X87247146Y-75443548D01*
X87414133Y-75515810D01*
X87414137Y-75515811D01*
X87419992Y-75518345D01*
X87426239Y-75519650D01*
X87426242Y-75519651D01*
X87605865Y-75557176D01*
X87605870Y-75557177D01*
X87610601Y-75558165D01*
X87616993Y-75558500D01*
X87759971Y-75558500D01*
X87830490Y-75551337D01*
X87898686Y-75544410D01*
X87898687Y-75544410D01*
X87905035Y-75543765D01*
X87961580Y-75526045D01*
X88084759Y-75487444D01*
X88084764Y-75487442D01*
X88090849Y-75485535D01*
X88177783Y-75437346D01*
X88255579Y-75394223D01*
X88255582Y-75394221D01*
X88261158Y-75391130D01*
X88265999Y-75386981D01*
X88266003Y-75386978D01*
X88404163Y-75268560D01*
X88409006Y-75264409D01*
X88460545Y-75197966D01*
X95178257Y-75197966D01*
X95208565Y-75332446D01*
X95211645Y-75342275D01*
X95291770Y-75539603D01*
X95296413Y-75548794D01*
X95407694Y-75730388D01*
X95413777Y-75738699D01*
X95553213Y-75899667D01*
X95560580Y-75906883D01*
X95724434Y-76042916D01*
X95732881Y-76048831D01*
X95916756Y-76156279D01*
X95926042Y-76160729D01*
X96125001Y-76236703D01*
X96134899Y-76239579D01*
X96238250Y-76260606D01*
X96252299Y-76259410D01*
X96256000Y-76249065D01*
X96256000Y-76248517D01*
X96764000Y-76248517D01*
X96768064Y-76262359D01*
X96781478Y-76264393D01*
X96788184Y-76263534D01*
X96798262Y-76261392D01*
X97002255Y-76200191D01*
X97011842Y-76196433D01*
X97203095Y-76102739D01*
X97211945Y-76097464D01*
X97385328Y-75973792D01*
X97393200Y-75967139D01*
X97544052Y-75816812D01*
X97550730Y-75808965D01*
X97678022Y-75631819D01*
X97679279Y-75632722D01*
X97726373Y-75589362D01*
X97796311Y-75577145D01*
X97861751Y-75604678D01*
X97889579Y-75636511D01*
X97892562Y-75641379D01*
X97949987Y-75735088D01*
X98096250Y-75903938D01*
X98268126Y-76046632D01*
X98461000Y-76159338D01*
X98669692Y-76239030D01*
X98674760Y-76240061D01*
X98674763Y-76240062D01*
X98769862Y-76259410D01*
X98888597Y-76283567D01*
X98893772Y-76283757D01*
X98893774Y-76283757D01*
X99106673Y-76291564D01*
X99106677Y-76291564D01*
X99111837Y-76291753D01*
X99116957Y-76291097D01*
X99116959Y-76291097D01*
X99328288Y-76264025D01*
X99328289Y-76264025D01*
X99333416Y-76263368D01*
X99338366Y-76261883D01*
X99542429Y-76200661D01*
X99542434Y-76200659D01*
X99547384Y-76199174D01*
X99747994Y-76100896D01*
X99929860Y-75971173D01*
X100088096Y-75813489D01*
X100112423Y-75779635D01*
X100218453Y-75632077D01*
X100219776Y-75633028D01*
X100266645Y-75589857D01*
X100336580Y-75577625D01*
X100402026Y-75605144D01*
X100429875Y-75636994D01*
X100432562Y-75641379D01*
X100489987Y-75735088D01*
X100636250Y-75903938D01*
X100808126Y-76046632D01*
X101001000Y-76159338D01*
X101209692Y-76239030D01*
X101214760Y-76240061D01*
X101214763Y-76240062D01*
X101309862Y-76259410D01*
X101428597Y-76283567D01*
X101433772Y-76283757D01*
X101433774Y-76283757D01*
X101646673Y-76291564D01*
X101646677Y-76291564D01*
X101651837Y-76291753D01*
X101656957Y-76291097D01*
X101656959Y-76291097D01*
X101868288Y-76264025D01*
X101868289Y-76264025D01*
X101873416Y-76263368D01*
X101878366Y-76261883D01*
X102082429Y-76200661D01*
X102082434Y-76200659D01*
X102087384Y-76199174D01*
X102287994Y-76100896D01*
X102469860Y-75971173D01*
X102578091Y-75863319D01*
X102640462Y-75829404D01*
X102711268Y-75834592D01*
X102768030Y-75877238D01*
X102785012Y-75908341D01*
X102806567Y-75965839D01*
X102829385Y-76026705D01*
X102916739Y-76143261D01*
X103033295Y-76230615D01*
X103041704Y-76233767D01*
X103041705Y-76233768D01*
X103164832Y-76279926D01*
X103221597Y-76322567D01*
X103242963Y-76377204D01*
X103244394Y-76376900D01*
X103245768Y-76383364D01*
X103246458Y-76389928D01*
X103305473Y-76571556D01*
X103400960Y-76736944D01*
X103405378Y-76741851D01*
X103405379Y-76741852D01*
X103449753Y-76791134D01*
X103528747Y-76878866D01*
X103683248Y-76991118D01*
X103689276Y-76993802D01*
X103689278Y-76993803D01*
X103851681Y-77066109D01*
X103857712Y-77068794D01*
X103951113Y-77088647D01*
X104038056Y-77107128D01*
X104038061Y-77107128D01*
X104044513Y-77108500D01*
X104235487Y-77108500D01*
X104241939Y-77107128D01*
X104241944Y-77107128D01*
X104328887Y-77088647D01*
X104422288Y-77068794D01*
X104428319Y-77066109D01*
X104590722Y-76993803D01*
X104590724Y-76993802D01*
X104596752Y-76991118D01*
X104751253Y-76878866D01*
X104830247Y-76791134D01*
X104874621Y-76741852D01*
X104874622Y-76741851D01*
X104879040Y-76736944D01*
X104974527Y-76571556D01*
X105033542Y-76389928D01*
X105034908Y-76376931D01*
X105061922Y-76311274D01*
X105115988Y-76272121D01*
X105177490Y-76249065D01*
X105226705Y-76230615D01*
X105267554Y-76200000D01*
X107036496Y-76200000D01*
X107037186Y-76206565D01*
X107055121Y-76377204D01*
X107056458Y-76389928D01*
X107115473Y-76571556D01*
X107210960Y-76736944D01*
X107215378Y-76741851D01*
X107215379Y-76741852D01*
X107259753Y-76791134D01*
X107338747Y-76878866D01*
X107493248Y-76991118D01*
X107499276Y-76993802D01*
X107499278Y-76993803D01*
X107661681Y-77066109D01*
X107667712Y-77068794D01*
X107761113Y-77088647D01*
X107848056Y-77107128D01*
X107848061Y-77107128D01*
X107854513Y-77108500D01*
X108045487Y-77108500D01*
X108051939Y-77107128D01*
X108051944Y-77107128D01*
X108138887Y-77088647D01*
X108232288Y-77068794D01*
X108238319Y-77066109D01*
X108400722Y-76993803D01*
X108400724Y-76993802D01*
X108406752Y-76991118D01*
X108561253Y-76878866D01*
X108640247Y-76791134D01*
X108684621Y-76741852D01*
X108684622Y-76741851D01*
X108689040Y-76736944D01*
X108784527Y-76571556D01*
X108843542Y-76389928D01*
X108844880Y-76377204D01*
X108862814Y-76206565D01*
X108863504Y-76200000D01*
X109576496Y-76200000D01*
X109577186Y-76206565D01*
X109595121Y-76377204D01*
X109596458Y-76389928D01*
X109655473Y-76571556D01*
X109750960Y-76736944D01*
X109755378Y-76741851D01*
X109755379Y-76741852D01*
X109799753Y-76791134D01*
X109878747Y-76878866D01*
X110033248Y-76991118D01*
X110039276Y-76993802D01*
X110039278Y-76993803D01*
X110201681Y-77066109D01*
X110207712Y-77068794D01*
X110301113Y-77088647D01*
X110388056Y-77107128D01*
X110388061Y-77107128D01*
X110394513Y-77108500D01*
X110585487Y-77108500D01*
X110591939Y-77107128D01*
X110591944Y-77107128D01*
X110678887Y-77088647D01*
X110772288Y-77068794D01*
X110778319Y-77066109D01*
X110940722Y-76993803D01*
X110940724Y-76993802D01*
X110946752Y-76991118D01*
X111101253Y-76878866D01*
X111180247Y-76791134D01*
X111224621Y-76741852D01*
X111224622Y-76741851D01*
X111229040Y-76736944D01*
X111324527Y-76571556D01*
X111383542Y-76389928D01*
X111384880Y-76377204D01*
X111402814Y-76206565D01*
X111403504Y-76200000D01*
X111392727Y-76097464D01*
X111384232Y-76016635D01*
X111384232Y-76016633D01*
X111383542Y-76010072D01*
X111324527Y-75828444D01*
X111229040Y-75663056D01*
X111201147Y-75632077D01*
X111105675Y-75526045D01*
X111105674Y-75526044D01*
X111101253Y-75521134D01*
X111002157Y-75449136D01*
X110952094Y-75412763D01*
X110952093Y-75412762D01*
X110946752Y-75408882D01*
X110940724Y-75406198D01*
X110940722Y-75406197D01*
X110778319Y-75333891D01*
X110778318Y-75333891D01*
X110772288Y-75331206D01*
X110678887Y-75311353D01*
X110591944Y-75292872D01*
X110591939Y-75292872D01*
X110585487Y-75291500D01*
X110394513Y-75291500D01*
X110388061Y-75292872D01*
X110388056Y-75292872D01*
X110301113Y-75311353D01*
X110207712Y-75331206D01*
X110201682Y-75333891D01*
X110201681Y-75333891D01*
X110039278Y-75406197D01*
X110039276Y-75406198D01*
X110033248Y-75408882D01*
X110027907Y-75412762D01*
X110027906Y-75412763D01*
X109977843Y-75449136D01*
X109878747Y-75521134D01*
X109874326Y-75526044D01*
X109874325Y-75526045D01*
X109778854Y-75632077D01*
X109750960Y-75663056D01*
X109655473Y-75828444D01*
X109596458Y-76010072D01*
X109595768Y-76016633D01*
X109595768Y-76016635D01*
X109587273Y-76097464D01*
X109576496Y-76200000D01*
X108863504Y-76200000D01*
X108852727Y-76097464D01*
X108844232Y-76016635D01*
X108844232Y-76016633D01*
X108843542Y-76010072D01*
X108784527Y-75828444D01*
X108689040Y-75663056D01*
X108661147Y-75632077D01*
X108565675Y-75526045D01*
X108565674Y-75526044D01*
X108561253Y-75521134D01*
X108462157Y-75449136D01*
X108412094Y-75412763D01*
X108412093Y-75412762D01*
X108406752Y-75408882D01*
X108400724Y-75406198D01*
X108400722Y-75406197D01*
X108238319Y-75333891D01*
X108238318Y-75333891D01*
X108232288Y-75331206D01*
X108138887Y-75311353D01*
X108051944Y-75292872D01*
X108051939Y-75292872D01*
X108045487Y-75291500D01*
X107854513Y-75291500D01*
X107848061Y-75292872D01*
X107848056Y-75292872D01*
X107761113Y-75311353D01*
X107667712Y-75331206D01*
X107661682Y-75333891D01*
X107661681Y-75333891D01*
X107499278Y-75406197D01*
X107499276Y-75406198D01*
X107493248Y-75408882D01*
X107487907Y-75412762D01*
X107487906Y-75412763D01*
X107437843Y-75449136D01*
X107338747Y-75521134D01*
X107334326Y-75526044D01*
X107334325Y-75526045D01*
X107238854Y-75632077D01*
X107210960Y-75663056D01*
X107115473Y-75828444D01*
X107056458Y-76010072D01*
X107055768Y-76016633D01*
X107055768Y-76016635D01*
X107047273Y-76097464D01*
X107036496Y-76200000D01*
X105267554Y-76200000D01*
X105343261Y-76143261D01*
X105430615Y-76026705D01*
X105481745Y-75890316D01*
X105488500Y-75828134D01*
X105488500Y-74901489D01*
X127181227Y-74901489D01*
X127183096Y-74930000D01*
X127194263Y-75100380D01*
X127195684Y-75105976D01*
X127195685Y-75105981D01*
X127224946Y-75221193D01*
X127243326Y-75293564D01*
X127245743Y-75298807D01*
X127309610Y-75437346D01*
X127326772Y-75474573D01*
X127330105Y-75479289D01*
X127438085Y-75632077D01*
X127441807Y-75637344D01*
X127584578Y-75776425D01*
X127750304Y-75887160D01*
X127755607Y-75889438D01*
X127755610Y-75889440D01*
X127928128Y-75963559D01*
X127933435Y-75965839D01*
X128005516Y-75982149D01*
X128122201Y-76008553D01*
X128122207Y-76008554D01*
X128127838Y-76009828D01*
X128133609Y-76010055D01*
X128133611Y-76010055D01*
X128194556Y-76012449D01*
X128327001Y-76017653D01*
X128426959Y-76003160D01*
X128518535Y-75989883D01*
X128518540Y-75989882D01*
X128524256Y-75989053D01*
X128529728Y-75987195D01*
X128529730Y-75987195D01*
X128707532Y-75926839D01*
X128707534Y-75926838D01*
X128712996Y-75924984D01*
X128886899Y-75827594D01*
X129040143Y-75700143D01*
X129167594Y-75546899D01*
X129264984Y-75372996D01*
X129274526Y-75344888D01*
X129327195Y-75189730D01*
X129327195Y-75189728D01*
X129329053Y-75184256D01*
X129329882Y-75178540D01*
X129329883Y-75178535D01*
X129353396Y-75016360D01*
X129357653Y-74987001D01*
X129359146Y-74930000D01*
X129342367Y-74747393D01*
X129341437Y-74737273D01*
X129341436Y-74737270D01*
X129340908Y-74731519D01*
X129321918Y-74664183D01*
X129288373Y-74545244D01*
X129288372Y-74545242D01*
X129286805Y-74539685D01*
X129279493Y-74524856D01*
X129201205Y-74366104D01*
X129198650Y-74360923D01*
X129079393Y-74201219D01*
X128933030Y-74065922D01*
X128928147Y-74062841D01*
X128928143Y-74062838D01*
X128769346Y-73962645D01*
X128769341Y-73962643D01*
X128764462Y-73959564D01*
X128579334Y-73885705D01*
X128383847Y-73846820D01*
X128378072Y-73846744D01*
X128378068Y-73846744D01*
X128278588Y-73845442D01*
X128184547Y-73844211D01*
X128178850Y-73845190D01*
X128178849Y-73845190D01*
X127993805Y-73876987D01*
X127988108Y-73877966D01*
X127801111Y-73946953D01*
X127796149Y-73949905D01*
X127691193Y-74012347D01*
X127629816Y-74048862D01*
X127479961Y-74180281D01*
X127356565Y-74336809D01*
X127353876Y-74341920D01*
X127353874Y-74341923D01*
X127322196Y-74402134D01*
X127263760Y-74513202D01*
X127249441Y-74559317D01*
X127213210Y-74676000D01*
X127204654Y-74703554D01*
X127181227Y-74901489D01*
X105488500Y-74901489D01*
X105488500Y-74031866D01*
X105481745Y-73969684D01*
X105430615Y-73833295D01*
X105343261Y-73716739D01*
X105226705Y-73629385D01*
X105115988Y-73587879D01*
X105059224Y-73545237D01*
X105034908Y-73483069D01*
X105034232Y-73476634D01*
X105034231Y-73476631D01*
X105033542Y-73470072D01*
X104974527Y-73288444D01*
X104879040Y-73123056D01*
X104815807Y-73052828D01*
X104755675Y-72986045D01*
X104755674Y-72986044D01*
X104751253Y-72981134D01*
X104596752Y-72868882D01*
X104590724Y-72866198D01*
X104590722Y-72866197D01*
X104428319Y-72793891D01*
X104428318Y-72793891D01*
X104422288Y-72791206D01*
X104328887Y-72771353D01*
X104241944Y-72752872D01*
X104241939Y-72752872D01*
X104235487Y-72751500D01*
X104044513Y-72751500D01*
X104038061Y-72752872D01*
X104038056Y-72752872D01*
X103951113Y-72771353D01*
X103857712Y-72791206D01*
X103851682Y-72793891D01*
X103851681Y-72793891D01*
X103689278Y-72866197D01*
X103689276Y-72866198D01*
X103683248Y-72868882D01*
X103528747Y-72981134D01*
X103524326Y-72986044D01*
X103524325Y-72986045D01*
X103464194Y-73052828D01*
X103400960Y-73123056D01*
X103305473Y-73288444D01*
X103246458Y-73470072D01*
X103245768Y-73476636D01*
X103244394Y-73483100D01*
X103242823Y-73482766D01*
X103218907Y-73540910D01*
X103164832Y-73580074D01*
X103041705Y-73626232D01*
X103041704Y-73626233D01*
X103033295Y-73629385D01*
X102916739Y-73716739D01*
X102829385Y-73833295D01*
X102826233Y-73841703D01*
X102784919Y-73951907D01*
X102742277Y-74008671D01*
X102675716Y-74033371D01*
X102606367Y-74018163D01*
X102573743Y-73992476D01*
X102523151Y-73936875D01*
X102523142Y-73936866D01*
X102519670Y-73933051D01*
X102515619Y-73929852D01*
X102515615Y-73929848D01*
X102348414Y-73797800D01*
X102348410Y-73797798D01*
X102344359Y-73794598D01*
X102308028Y-73774542D01*
X102263220Y-73749807D01*
X102148789Y-73686638D01*
X102143920Y-73684914D01*
X102143916Y-73684912D01*
X101943087Y-73613795D01*
X101943083Y-73613794D01*
X101938212Y-73612069D01*
X101933119Y-73611162D01*
X101933116Y-73611161D01*
X101723373Y-73573800D01*
X101723367Y-73573799D01*
X101718284Y-73572894D01*
X101644452Y-73571992D01*
X101500081Y-73570228D01*
X101500079Y-73570228D01*
X101494911Y-73570165D01*
X101274091Y-73603955D01*
X101061756Y-73673357D01*
X100988757Y-73711358D01*
X100910147Y-73752280D01*
X100863607Y-73776507D01*
X100859474Y-73779610D01*
X100859471Y-73779612D01*
X100689100Y-73907530D01*
X100684965Y-73910635D01*
X100659541Y-73937240D01*
X100591280Y-74008671D01*
X100530629Y-74072138D01*
X100423201Y-74229621D01*
X100368293Y-74274621D01*
X100297768Y-74282792D01*
X100234021Y-74251538D01*
X100213324Y-74227054D01*
X100132822Y-74102617D01*
X100132820Y-74102614D01*
X100130014Y-74098277D01*
X99979670Y-73933051D01*
X99975619Y-73929852D01*
X99975615Y-73929848D01*
X99808414Y-73797800D01*
X99808410Y-73797798D01*
X99804359Y-73794598D01*
X99768028Y-73774542D01*
X99723220Y-73749807D01*
X99608789Y-73686638D01*
X99603920Y-73684914D01*
X99603916Y-73684912D01*
X99403087Y-73613795D01*
X99403083Y-73613794D01*
X99398212Y-73612069D01*
X99393119Y-73611162D01*
X99393116Y-73611161D01*
X99183373Y-73573800D01*
X99183367Y-73573799D01*
X99178284Y-73572894D01*
X99104452Y-73571992D01*
X98960081Y-73570228D01*
X98960079Y-73570228D01*
X98954911Y-73570165D01*
X98734091Y-73603955D01*
X98521756Y-73673357D01*
X98448757Y-73711358D01*
X98370147Y-73752280D01*
X98323607Y-73776507D01*
X98319474Y-73779610D01*
X98319471Y-73779612D01*
X98149100Y-73907530D01*
X98144965Y-73910635D01*
X98119541Y-73937240D01*
X98051280Y-74008671D01*
X97990629Y-74072138D01*
X97987720Y-74076403D01*
X97987714Y-74076411D01*
X97975404Y-74094457D01*
X97883204Y-74229618D01*
X97882898Y-74230066D01*
X97827987Y-74275069D01*
X97757462Y-74283240D01*
X97693715Y-74251986D01*
X97673018Y-74227502D01*
X97592426Y-74102926D01*
X97586136Y-74094757D01*
X97442806Y-73937240D01*
X97435273Y-73930215D01*
X97268139Y-73798222D01*
X97259552Y-73792517D01*
X97073117Y-73689599D01*
X97063705Y-73685369D01*
X96862959Y-73614280D01*
X96852988Y-73611646D01*
X96781837Y-73598972D01*
X96768540Y-73600432D01*
X96764000Y-73614989D01*
X96764000Y-76248517D01*
X96256000Y-76248517D01*
X96256000Y-75202115D01*
X96251525Y-75186876D01*
X96250135Y-75185671D01*
X96242452Y-75184000D01*
X95193225Y-75184000D01*
X95179694Y-75187973D01*
X95178257Y-75197966D01*
X88460545Y-75197966D01*
X88528354Y-75110547D01*
X88569087Y-75027768D01*
X88611508Y-74941556D01*
X88614326Y-74935829D01*
X88633427Y-74862500D01*
X88661800Y-74753575D01*
X88661800Y-74753572D01*
X88663410Y-74747393D01*
X88667771Y-74664183D01*
X95174389Y-74664183D01*
X95175912Y-74672607D01*
X95188292Y-74676000D01*
X96237885Y-74676000D01*
X96253124Y-74671525D01*
X96254329Y-74670135D01*
X96256000Y-74662452D01*
X96256000Y-73613102D01*
X96252082Y-73599758D01*
X96237806Y-73597771D01*
X96199324Y-73603660D01*
X96189288Y-73606051D01*
X95986868Y-73672212D01*
X95977359Y-73676209D01*
X95788463Y-73774542D01*
X95779738Y-73780036D01*
X95609433Y-73907905D01*
X95601726Y-73914748D01*
X95454590Y-74068717D01*
X95448104Y-74076727D01*
X95328098Y-74252649D01*
X95323000Y-74261623D01*
X95233338Y-74454783D01*
X95229775Y-74464470D01*
X95174389Y-74664183D01*
X88667771Y-74664183D01*
X88673601Y-74552936D01*
X88644483Y-74360401D01*
X88642280Y-74354415D01*
X88642279Y-74354409D01*
X88579448Y-74183640D01*
X88579446Y-74183635D01*
X88577245Y-74177654D01*
X88514667Y-74076727D01*
X88477996Y-74017582D01*
X88477995Y-74017581D01*
X88474634Y-74012160D01*
X88353987Y-73884578D01*
X88345227Y-73875315D01*
X88340842Y-73870678D01*
X88287454Y-73833295D01*
X88203545Y-73774542D01*
X88181333Y-73758989D01*
X88100291Y-73723919D01*
X88008483Y-73684190D01*
X88008479Y-73684189D01*
X88002624Y-73681655D01*
X87996377Y-73680350D01*
X87996374Y-73680349D01*
X87816751Y-73642824D01*
X87816746Y-73642823D01*
X87812015Y-73641835D01*
X87805623Y-73641500D01*
X87662645Y-73641500D01*
X87631772Y-73644636D01*
X87523930Y-73655590D01*
X87523929Y-73655590D01*
X87517581Y-73656235D01*
X87468072Y-73671750D01*
X87337857Y-73712556D01*
X87337852Y-73712558D01*
X87331767Y-73714465D01*
X87314712Y-73723919D01*
X87167037Y-73805777D01*
X87167034Y-73805779D01*
X87161458Y-73808870D01*
X87156617Y-73813019D01*
X87156613Y-73813022D01*
X87038365Y-73914373D01*
X87013610Y-73935591D01*
X87009699Y-73940633D01*
X87009698Y-73940634D01*
X86992904Y-73962285D01*
X86894262Y-74089453D01*
X86891446Y-74095176D01*
X86891444Y-74095179D01*
X86812729Y-74255150D01*
X86808290Y-74264171D01*
X86806681Y-74270349D01*
X86806680Y-74270351D01*
X86762124Y-74441406D01*
X86759206Y-74452607D01*
X86749015Y-74647064D01*
X85668668Y-74647064D01*
X85673601Y-74552936D01*
X85644483Y-74360401D01*
X85642280Y-74354415D01*
X85642279Y-74354409D01*
X85579448Y-74183640D01*
X85579446Y-74183635D01*
X85577245Y-74177654D01*
X85514667Y-74076727D01*
X85477996Y-74017582D01*
X85477995Y-74017581D01*
X85474634Y-74012160D01*
X85353987Y-73884578D01*
X85345227Y-73875315D01*
X85340842Y-73870678D01*
X85287454Y-73833295D01*
X85203545Y-73774542D01*
X85181333Y-73758989D01*
X85100291Y-73723919D01*
X85008483Y-73684190D01*
X85008479Y-73684189D01*
X85002624Y-73681655D01*
X84996377Y-73680350D01*
X84996374Y-73680349D01*
X84816751Y-73642824D01*
X84816746Y-73642823D01*
X84812015Y-73641835D01*
X84805623Y-73641500D01*
X84662645Y-73641500D01*
X84631772Y-73644636D01*
X84523930Y-73655590D01*
X84523929Y-73655590D01*
X84517581Y-73656235D01*
X84468072Y-73671750D01*
X84337857Y-73712556D01*
X84337852Y-73712558D01*
X84331767Y-73714465D01*
X84314712Y-73723919D01*
X84167037Y-73805777D01*
X84167034Y-73805779D01*
X84161458Y-73808870D01*
X84156617Y-73813019D01*
X84156613Y-73813022D01*
X84038365Y-73914373D01*
X84013610Y-73935591D01*
X84009699Y-73940633D01*
X84009698Y-73940634D01*
X83992904Y-73962285D01*
X83894262Y-74089453D01*
X83891446Y-74095176D01*
X83891444Y-74095179D01*
X83812729Y-74255150D01*
X83808290Y-74264171D01*
X83806681Y-74270349D01*
X83806680Y-74270351D01*
X83762124Y-74441406D01*
X83759206Y-74452607D01*
X83749015Y-74647064D01*
X72167090Y-74647064D01*
X72138373Y-74545244D01*
X72138372Y-74545242D01*
X72136805Y-74539685D01*
X72129493Y-74524856D01*
X72051205Y-74366104D01*
X72048650Y-74360923D01*
X71929393Y-74201219D01*
X71783030Y-74065922D01*
X71778147Y-74062841D01*
X71778143Y-74062838D01*
X71619346Y-73962645D01*
X71619341Y-73962643D01*
X71614462Y-73959564D01*
X71429334Y-73885705D01*
X71233847Y-73846820D01*
X71228072Y-73846744D01*
X71228068Y-73846744D01*
X71128588Y-73845442D01*
X71034547Y-73844211D01*
X71028850Y-73845190D01*
X71028849Y-73845190D01*
X70843805Y-73876987D01*
X70838108Y-73877966D01*
X70651111Y-73946953D01*
X70646149Y-73949905D01*
X70541193Y-74012347D01*
X70479816Y-74048862D01*
X70329961Y-74180281D01*
X70206565Y-74336809D01*
X70203876Y-74341920D01*
X70203874Y-74341923D01*
X70172196Y-74402134D01*
X70113760Y-74513202D01*
X70099441Y-74559317D01*
X70063210Y-74676000D01*
X70054654Y-74703554D01*
X70031227Y-74901489D01*
X68133605Y-74901489D01*
X68081927Y-74741014D01*
X68012318Y-74524856D01*
X68012316Y-74524849D01*
X68011463Y-74522202D01*
X67877505Y-74205849D01*
X67845550Y-74130384D01*
X67845548Y-74130379D01*
X67844456Y-74127801D01*
X67643050Y-73749807D01*
X67600193Y-73684190D01*
X67410381Y-73393573D01*
X67410378Y-73393569D01*
X67408840Y-73391214D01*
X67143680Y-73054860D01*
X66849670Y-72743409D01*
X66847579Y-72741556D01*
X66847571Y-72741548D01*
X66531237Y-72461188D01*
X66531235Y-72461186D01*
X66529137Y-72459327D01*
X66184621Y-72204863D01*
X65991733Y-72087355D01*
X65821237Y-71983487D01*
X65821230Y-71983483D01*
X65818848Y-71982032D01*
X65701514Y-71924169D01*
X65686022Y-71916529D01*
X65586612Y-71867506D01*
X65534363Y-71819438D01*
X65516396Y-71750752D01*
X65538415Y-71683256D01*
X65593430Y-71638380D01*
X65642340Y-71628500D01*
X132476422Y-71628500D01*
X132544543Y-71648502D01*
G37*
%TD.AperFunction*%
%TD*%
M02*
