%TF.GenerationSoftware,KiCad,Pcbnew,(6.0.6)*%
%TF.CreationDate,2023-08-27T23:28:48-04:00*%
%TF.ProjectId,STM32,53544d33-322e-46b6-9963-61645f706362,rev?*%
%TF.SameCoordinates,Original*%
%TF.FileFunction,Legend,Top*%
%TF.FilePolarity,Positive*%
%FSLAX46Y46*%
G04 Gerber Fmt 4.6, Leading zero omitted, Abs format (unit mm)*
G04 Created by KiCad (PCBNEW (6.0.6)) date 2023-08-27 23:28:48*
%MOMM*%
%LPD*%
G01*
G04 APERTURE LIST*
%ADD10C,0.150000*%
%ADD11C,0.125000*%
%ADD12C,0.120000*%
G04 APERTURE END LIST*
D10*
X119386328Y-79478451D02*
G75*
G03*
X119386328Y-79478451I-1J0D01*
G01*
X101891087Y-91762725D02*
G75*
G03*
X101891087Y-91762725I-1J0D01*
G01*
X82037880Y-92697344D02*
G75*
G03*
X82037880Y-92697344I-15211J0D01*
G01*
X126161716Y-97183421D02*
G75*
G03*
X126161716Y-97183421I-58705J0D01*
G01*
D11*
X70334285Y-119415714D02*
X70715238Y-119415714D01*
X70524761Y-119606190D02*
X70524761Y-119225238D01*
X70905714Y-119106190D02*
X71215238Y-119106190D01*
X71048571Y-119296666D01*
X71120000Y-119296666D01*
X71167619Y-119320476D01*
X71191428Y-119344285D01*
X71215238Y-119391904D01*
X71215238Y-119510952D01*
X71191428Y-119558571D01*
X71167619Y-119582380D01*
X71120000Y-119606190D01*
X70977142Y-119606190D01*
X70929523Y-119582380D01*
X70905714Y-119558571D01*
X71429523Y-119558571D02*
X71453333Y-119582380D01*
X71429523Y-119606190D01*
X71405714Y-119582380D01*
X71429523Y-119558571D01*
X71429523Y-119606190D01*
X71620000Y-119106190D02*
X71929523Y-119106190D01*
X71762857Y-119296666D01*
X71834285Y-119296666D01*
X71881904Y-119320476D01*
X71905714Y-119344285D01*
X71929523Y-119391904D01*
X71929523Y-119510952D01*
X71905714Y-119558571D01*
X71881904Y-119582380D01*
X71834285Y-119606190D01*
X71691428Y-119606190D01*
X71643809Y-119582380D01*
X71620000Y-119558571D01*
D10*
X130818095Y-108672380D02*
X130818095Y-109481904D01*
X130865714Y-109577142D01*
X130913333Y-109624761D01*
X131008571Y-109672380D01*
X131199047Y-109672380D01*
X131294285Y-109624761D01*
X131341904Y-109577142D01*
X131389523Y-109481904D01*
X131389523Y-108672380D01*
X131818095Y-109624761D02*
X131960952Y-109672380D01*
X132199047Y-109672380D01*
X132294285Y-109624761D01*
X132341904Y-109577142D01*
X132389523Y-109481904D01*
X132389523Y-109386666D01*
X132341904Y-109291428D01*
X132294285Y-109243809D01*
X132199047Y-109196190D01*
X132008571Y-109148571D01*
X131913333Y-109100952D01*
X131865714Y-109053333D01*
X131818095Y-108958095D01*
X131818095Y-108862857D01*
X131865714Y-108767619D01*
X131913333Y-108720000D01*
X132008571Y-108672380D01*
X132246666Y-108672380D01*
X132389523Y-108720000D01*
X133151428Y-109148571D02*
X133294285Y-109196190D01*
X133341904Y-109243809D01*
X133389523Y-109339047D01*
X133389523Y-109481904D01*
X133341904Y-109577142D01*
X133294285Y-109624761D01*
X133199047Y-109672380D01*
X132818095Y-109672380D01*
X132818095Y-108672380D01*
X133151428Y-108672380D01*
X133246666Y-108720000D01*
X133294285Y-108767619D01*
X133341904Y-108862857D01*
X133341904Y-108958095D01*
X133294285Y-109053333D01*
X133246666Y-109100952D01*
X133151428Y-109148571D01*
X132818095Y-109148571D01*
X124825070Y-92767082D02*
X125586975Y-92767082D01*
X125206023Y-93148034D02*
X125206023Y-92386130D01*
D11*
X67758571Y-120876190D02*
X67758571Y-120376190D01*
X68044285Y-120876190D01*
X68044285Y-120376190D01*
X68282380Y-120828571D02*
X68306190Y-120852380D01*
X68282380Y-120876190D01*
X68258571Y-120852380D01*
X68282380Y-120828571D01*
X68282380Y-120876190D01*
X68901428Y-120876190D02*
X68901428Y-120376190D01*
X69091904Y-120376190D01*
X69139523Y-120400000D01*
X69163333Y-120423809D01*
X69187142Y-120471428D01*
X69187142Y-120542857D01*
X69163333Y-120590476D01*
X69139523Y-120614285D01*
X69091904Y-120638095D01*
X68901428Y-120638095D01*
X69401428Y-120828571D02*
X69425238Y-120852380D01*
X69401428Y-120876190D01*
X69377619Y-120852380D01*
X69401428Y-120828571D01*
X69401428Y-120876190D01*
D10*
X121279830Y-92532156D02*
X122041735Y-92532156D01*
X121660783Y-92913108D02*
X121660783Y-92151204D01*
X112096666Y-120966666D02*
X112096666Y-120266666D01*
X112363333Y-120266666D01*
X112430000Y-120300000D01*
X112463333Y-120333333D01*
X112496666Y-120400000D01*
X112496666Y-120500000D01*
X112463333Y-120566666D01*
X112430000Y-120600000D01*
X112363333Y-120633333D01*
X112096666Y-120633333D01*
X113196666Y-120966666D02*
X112963333Y-120633333D01*
X112796666Y-120966666D02*
X112796666Y-120266666D01*
X113063333Y-120266666D01*
X113130000Y-120300000D01*
X113163333Y-120333333D01*
X113196666Y-120400000D01*
X113196666Y-120500000D01*
X113163333Y-120566666D01*
X113130000Y-120600000D01*
X113063333Y-120633333D01*
X112796666Y-120633333D01*
X113496666Y-120600000D02*
X113730000Y-120600000D01*
X113830000Y-120966666D02*
X113496666Y-120966666D01*
X113496666Y-120266666D01*
X113830000Y-120266666D01*
X114130000Y-120966666D02*
X114130000Y-120266666D01*
X114296666Y-120266666D01*
X114396666Y-120300000D01*
X114463333Y-120366666D01*
X114496666Y-120433333D01*
X114530000Y-120566666D01*
X114530000Y-120666666D01*
X114496666Y-120800000D01*
X114463333Y-120866666D01*
X114396666Y-120933333D01*
X114296666Y-120966666D01*
X114130000Y-120966666D01*
X114830000Y-120600000D02*
X115063333Y-120600000D01*
X115163333Y-120966666D02*
X114830000Y-120966666D01*
X114830000Y-120266666D01*
X115163333Y-120266666D01*
X115463333Y-120600000D02*
X115696666Y-120600000D01*
X115796666Y-120966666D02*
X115463333Y-120966666D01*
X115463333Y-120266666D01*
X115796666Y-120266666D01*
X116096666Y-120966666D02*
X116096666Y-120266666D01*
X116363333Y-120266666D01*
X116430000Y-120300000D01*
X116463333Y-120333333D01*
X116496666Y-120400000D01*
X116496666Y-120500000D01*
X116463333Y-120566666D01*
X116430000Y-120600000D01*
X116363333Y-120633333D01*
X116096666Y-120633333D01*
X117563333Y-120600000D02*
X117663333Y-120633333D01*
X117696666Y-120666666D01*
X117730000Y-120733333D01*
X117730000Y-120833333D01*
X117696666Y-120900000D01*
X117663333Y-120933333D01*
X117596666Y-120966666D01*
X117330000Y-120966666D01*
X117330000Y-120266666D01*
X117563333Y-120266666D01*
X117630000Y-120300000D01*
X117663333Y-120333333D01*
X117696666Y-120400000D01*
X117696666Y-120466666D01*
X117663333Y-120533333D01*
X117630000Y-120566666D01*
X117563333Y-120600000D01*
X117330000Y-120600000D01*
X117996666Y-120766666D02*
X118330000Y-120766666D01*
X117930000Y-120966666D02*
X118163333Y-120266666D01*
X118396666Y-120966666D01*
X118963333Y-120966666D02*
X118630000Y-120966666D01*
X118630000Y-120266666D01*
X119163333Y-120766666D02*
X119496666Y-120766666D01*
X119096666Y-120966666D02*
X119330000Y-120266666D01*
X119563333Y-120966666D01*
X119763333Y-120933333D02*
X119863333Y-120966666D01*
X120030000Y-120966666D01*
X120096666Y-120933333D01*
X120130000Y-120900000D01*
X120163333Y-120833333D01*
X120163333Y-120766666D01*
X120130000Y-120700000D01*
X120096666Y-120666666D01*
X120030000Y-120633333D01*
X119896666Y-120600000D01*
X119830000Y-120566666D01*
X119796666Y-120533333D01*
X119763333Y-120466666D01*
X119763333Y-120400000D01*
X119796666Y-120333333D01*
X119830000Y-120300000D01*
X119896666Y-120266666D01*
X120063333Y-120266666D01*
X120163333Y-120300000D01*
X120463333Y-120266666D02*
X120463333Y-120833333D01*
X120496666Y-120900000D01*
X120530000Y-120933333D01*
X120596666Y-120966666D01*
X120730000Y-120966666D01*
X120796666Y-120933333D01*
X120830000Y-120900000D01*
X120863333Y-120833333D01*
X120863333Y-120266666D01*
X121430000Y-120600000D02*
X121530000Y-120633333D01*
X121563333Y-120666666D01*
X121596666Y-120733333D01*
X121596666Y-120833333D01*
X121563333Y-120900000D01*
X121530000Y-120933333D01*
X121463333Y-120966666D01*
X121196666Y-120966666D01*
X121196666Y-120266666D01*
X121430000Y-120266666D01*
X121496666Y-120300000D01*
X121530000Y-120333333D01*
X121563333Y-120400000D01*
X121563333Y-120466666D01*
X121530000Y-120533333D01*
X121496666Y-120566666D01*
X121430000Y-120600000D01*
X121196666Y-120600000D01*
X122296666Y-120966666D02*
X122063333Y-120633333D01*
X121896666Y-120966666D02*
X121896666Y-120266666D01*
X122163333Y-120266666D01*
X122230000Y-120300000D01*
X122263333Y-120333333D01*
X122296666Y-120400000D01*
X122296666Y-120500000D01*
X122263333Y-120566666D01*
X122230000Y-120600000D01*
X122163333Y-120633333D01*
X121896666Y-120633333D01*
X122563333Y-120766666D02*
X122896666Y-120766666D01*
X122496666Y-120966666D02*
X122730000Y-120266666D01*
X122963333Y-120966666D01*
X123196666Y-120966666D02*
X123196666Y-120266666D01*
X123430000Y-120766666D01*
X123663333Y-120266666D01*
X123663333Y-120966666D01*
X123963333Y-120766666D02*
X124296666Y-120766666D01*
X123896666Y-120966666D02*
X124130000Y-120266666D01*
X124363333Y-120966666D01*
X124596666Y-120966666D02*
X124596666Y-120266666D01*
X124996666Y-120966666D01*
X124996666Y-120266666D01*
X125330000Y-120966666D02*
X125330000Y-120266666D01*
X125630000Y-120766666D02*
X125963333Y-120766666D01*
X125563333Y-120966666D02*
X125796666Y-120266666D01*
X126030000Y-120966666D01*
X126263333Y-120966666D02*
X126263333Y-120266666D01*
X126663333Y-120966666D01*
X126663333Y-120266666D01*
D11*
X126500000Y-119606190D02*
X126500000Y-119106190D01*
X126738095Y-119606190D02*
X126738095Y-119106190D01*
X127023809Y-119606190D01*
X127023809Y-119106190D01*
X127523809Y-119606190D02*
X127238095Y-119606190D01*
X127380952Y-119606190D02*
X127380952Y-119106190D01*
X127333333Y-119177619D01*
X127285714Y-119225238D01*
X127238095Y-119249047D01*
X118880000Y-119606190D02*
X118880000Y-119106190D01*
X119118095Y-119606190D02*
X119118095Y-119106190D01*
X119403809Y-119606190D01*
X119403809Y-119106190D01*
X119856190Y-119272857D02*
X119856190Y-119606190D01*
X119737142Y-119082380D02*
X119618095Y-119439523D01*
X119927619Y-119439523D01*
X84470952Y-119463333D02*
X84709047Y-119463333D01*
X84423333Y-119606190D02*
X84590000Y-119106190D01*
X84756666Y-119606190D01*
X84923333Y-119606190D02*
X84923333Y-119106190D01*
X85209047Y-119606190D01*
X85209047Y-119106190D01*
X85423333Y-119153809D02*
X85447142Y-119130000D01*
X85494761Y-119106190D01*
X85613809Y-119106190D01*
X85661428Y-119130000D01*
X85685238Y-119153809D01*
X85709047Y-119201428D01*
X85709047Y-119249047D01*
X85685238Y-119320476D01*
X85399523Y-119606190D01*
X85709047Y-119606190D01*
D10*
X73953809Y-121102380D02*
X73953809Y-120102380D01*
X74382380Y-120197619D02*
X74430000Y-120150000D01*
X74525238Y-120102380D01*
X74763333Y-120102380D01*
X74858571Y-120150000D01*
X74906190Y-120197619D01*
X74953809Y-120292857D01*
X74953809Y-120388095D01*
X74906190Y-120530952D01*
X74334761Y-121102380D01*
X74953809Y-121102380D01*
X75953809Y-121007142D02*
X75906190Y-121054761D01*
X75763333Y-121102380D01*
X75668095Y-121102380D01*
X75525238Y-121054761D01*
X75430000Y-120959523D01*
X75382380Y-120864285D01*
X75334761Y-120673809D01*
X75334761Y-120530952D01*
X75382380Y-120340476D01*
X75430000Y-120245238D01*
X75525238Y-120150000D01*
X75668095Y-120102380D01*
X75763333Y-120102380D01*
X75906190Y-120150000D01*
X75953809Y-120197619D01*
X91550634Y-77163477D02*
X91217301Y-76687287D01*
X90979206Y-77163477D02*
X90979206Y-76163477D01*
X91360158Y-76163477D01*
X91455396Y-76211097D01*
X91503015Y-76258716D01*
X91550634Y-76353954D01*
X91550634Y-76496811D01*
X91503015Y-76592049D01*
X91455396Y-76639668D01*
X91360158Y-76687287D01*
X90979206Y-76687287D01*
X91979206Y-76163477D02*
X91979206Y-76973001D01*
X92026825Y-77068239D01*
X92074444Y-77115858D01*
X92169682Y-77163477D01*
X92360158Y-77163477D01*
X92455396Y-77115858D01*
X92503015Y-77068239D01*
X92550634Y-76973001D01*
X92550634Y-76163477D01*
X93026825Y-77163477D02*
X93026825Y-76163477D01*
X93598253Y-77163477D01*
X93598253Y-76163477D01*
D11*
X103401904Y-119106190D02*
X103497142Y-119106190D01*
X103544761Y-119130000D01*
X103592380Y-119177619D01*
X103616190Y-119272857D01*
X103616190Y-119439523D01*
X103592380Y-119534761D01*
X103544761Y-119582380D01*
X103497142Y-119606190D01*
X103401904Y-119606190D01*
X103354285Y-119582380D01*
X103306666Y-119534761D01*
X103282857Y-119439523D01*
X103282857Y-119272857D01*
X103306666Y-119177619D01*
X103354285Y-119130000D01*
X103401904Y-119106190D01*
X103830476Y-119106190D02*
X103830476Y-119510952D01*
X103854285Y-119558571D01*
X103878095Y-119582380D01*
X103925714Y-119606190D01*
X104020952Y-119606190D01*
X104068571Y-119582380D01*
X104092380Y-119558571D01*
X104116190Y-119510952D01*
X104116190Y-119106190D01*
X104282857Y-119106190D02*
X104568571Y-119106190D01*
X104425714Y-119606190D02*
X104425714Y-119106190D01*
X104973333Y-119106190D02*
X104735238Y-119106190D01*
X104711428Y-119344285D01*
X104735238Y-119320476D01*
X104782857Y-119296666D01*
X104901904Y-119296666D01*
X104949523Y-119320476D01*
X104973333Y-119344285D01*
X104997142Y-119391904D01*
X104997142Y-119510952D01*
X104973333Y-119558571D01*
X104949523Y-119582380D01*
X104901904Y-119606190D01*
X104782857Y-119606190D01*
X104735238Y-119582380D01*
X104711428Y-119558571D01*
X92329047Y-119130000D02*
X92281428Y-119106190D01*
X92210000Y-119106190D01*
X92138571Y-119130000D01*
X92090952Y-119177619D01*
X92067142Y-119225238D01*
X92043333Y-119320476D01*
X92043333Y-119391904D01*
X92067142Y-119487142D01*
X92090952Y-119534761D01*
X92138571Y-119582380D01*
X92210000Y-119606190D01*
X92257619Y-119606190D01*
X92329047Y-119582380D01*
X92352857Y-119558571D01*
X92352857Y-119391904D01*
X92257619Y-119391904D01*
X92567142Y-119606190D02*
X92567142Y-119106190D01*
X92852857Y-119606190D01*
X92852857Y-119106190D01*
X93090952Y-119606190D02*
X93090952Y-119106190D01*
X93210000Y-119106190D01*
X93281428Y-119130000D01*
X93329047Y-119177619D01*
X93352857Y-119225238D01*
X93376666Y-119320476D01*
X93376666Y-119391904D01*
X93352857Y-119487142D01*
X93329047Y-119534761D01*
X93281428Y-119582380D01*
X93210000Y-119606190D01*
X93090952Y-119606190D01*
X73052857Y-119582380D02*
X73124285Y-119606190D01*
X73243333Y-119606190D01*
X73290952Y-119582380D01*
X73314761Y-119558571D01*
X73338571Y-119510952D01*
X73338571Y-119463333D01*
X73314761Y-119415714D01*
X73290952Y-119391904D01*
X73243333Y-119368095D01*
X73148095Y-119344285D01*
X73100476Y-119320476D01*
X73076666Y-119296666D01*
X73052857Y-119249047D01*
X73052857Y-119201428D01*
X73076666Y-119153809D01*
X73100476Y-119130000D01*
X73148095Y-119106190D01*
X73267142Y-119106190D01*
X73338571Y-119130000D01*
X73552857Y-119606190D02*
X73552857Y-119106190D01*
X73671904Y-119106190D01*
X73743333Y-119130000D01*
X73790952Y-119177619D01*
X73814761Y-119225238D01*
X73838571Y-119320476D01*
X73838571Y-119391904D01*
X73814761Y-119487142D01*
X73790952Y-119534761D01*
X73743333Y-119582380D01*
X73671904Y-119606190D01*
X73552857Y-119606190D01*
X74029047Y-119463333D02*
X74267142Y-119463333D01*
X73981428Y-119606190D02*
X74148095Y-119106190D01*
X74314761Y-119606190D01*
X94464285Y-119415714D02*
X94845238Y-119415714D01*
X94654761Y-119606190D02*
X94654761Y-119225238D01*
X95035714Y-119106190D02*
X95345238Y-119106190D01*
X95178571Y-119296666D01*
X95250000Y-119296666D01*
X95297619Y-119320476D01*
X95321428Y-119344285D01*
X95345238Y-119391904D01*
X95345238Y-119510952D01*
X95321428Y-119558571D01*
X95297619Y-119582380D01*
X95250000Y-119606190D01*
X95107142Y-119606190D01*
X95059523Y-119582380D01*
X95035714Y-119558571D01*
X95559523Y-119558571D02*
X95583333Y-119582380D01*
X95559523Y-119606190D01*
X95535714Y-119582380D01*
X95559523Y-119558571D01*
X95559523Y-119606190D01*
X95750000Y-119106190D02*
X96059523Y-119106190D01*
X95892857Y-119296666D01*
X95964285Y-119296666D01*
X96011904Y-119320476D01*
X96035714Y-119344285D01*
X96059523Y-119391904D01*
X96059523Y-119510952D01*
X96035714Y-119558571D01*
X96011904Y-119582380D01*
X95964285Y-119606190D01*
X95821428Y-119606190D01*
X95773809Y-119582380D01*
X95750000Y-119558571D01*
X123960000Y-119606190D02*
X123960000Y-119106190D01*
X124198095Y-119606190D02*
X124198095Y-119106190D01*
X124483809Y-119606190D01*
X124483809Y-119106190D01*
X124698095Y-119153809D02*
X124721904Y-119130000D01*
X124769523Y-119106190D01*
X124888571Y-119106190D01*
X124936190Y-119130000D01*
X124960000Y-119153809D01*
X124983809Y-119201428D01*
X124983809Y-119249047D01*
X124960000Y-119320476D01*
X124674285Y-119606190D01*
X124983809Y-119606190D01*
X75604761Y-119582380D02*
X75676190Y-119606190D01*
X75795238Y-119606190D01*
X75842857Y-119582380D01*
X75866666Y-119558571D01*
X75890476Y-119510952D01*
X75890476Y-119463333D01*
X75866666Y-119415714D01*
X75842857Y-119391904D01*
X75795238Y-119368095D01*
X75700000Y-119344285D01*
X75652380Y-119320476D01*
X75628571Y-119296666D01*
X75604761Y-119249047D01*
X75604761Y-119201428D01*
X75628571Y-119153809D01*
X75652380Y-119130000D01*
X75700000Y-119106190D01*
X75819047Y-119106190D01*
X75890476Y-119130000D01*
X76390476Y-119558571D02*
X76366666Y-119582380D01*
X76295238Y-119606190D01*
X76247619Y-119606190D01*
X76176190Y-119582380D01*
X76128571Y-119534761D01*
X76104761Y-119487142D01*
X76080952Y-119391904D01*
X76080952Y-119320476D01*
X76104761Y-119225238D01*
X76128571Y-119177619D01*
X76176190Y-119130000D01*
X76247619Y-119106190D01*
X76295238Y-119106190D01*
X76366666Y-119130000D01*
X76390476Y-119153809D01*
X76842857Y-119606190D02*
X76604761Y-119606190D01*
X76604761Y-119106190D01*
X116340000Y-119606190D02*
X116340000Y-119106190D01*
X116578095Y-119606190D02*
X116578095Y-119106190D01*
X116863809Y-119606190D01*
X116863809Y-119106190D01*
X117340000Y-119106190D02*
X117101904Y-119106190D01*
X117078095Y-119344285D01*
X117101904Y-119320476D01*
X117149523Y-119296666D01*
X117268571Y-119296666D01*
X117316190Y-119320476D01*
X117340000Y-119344285D01*
X117363809Y-119391904D01*
X117363809Y-119510952D01*
X117340000Y-119558571D01*
X117316190Y-119582380D01*
X117268571Y-119606190D01*
X117149523Y-119606190D01*
X117101904Y-119582380D01*
X117078095Y-119558571D01*
D10*
X98734761Y-78192380D02*
X98734761Y-79001904D01*
X98782380Y-79097142D01*
X98830000Y-79144761D01*
X98925238Y-79192380D01*
X99115714Y-79192380D01*
X99210952Y-79144761D01*
X99258571Y-79097142D01*
X99306190Y-79001904D01*
X99306190Y-78192380D01*
X99734761Y-78906666D02*
X100210952Y-78906666D01*
X99639523Y-79192380D02*
X99972857Y-78192380D01*
X100306190Y-79192380D01*
X101210952Y-79192380D02*
X100877619Y-78716190D01*
X100639523Y-79192380D02*
X100639523Y-78192380D01*
X101020476Y-78192380D01*
X101115714Y-78240000D01*
X101163333Y-78287619D01*
X101210952Y-78382857D01*
X101210952Y-78525714D01*
X101163333Y-78620952D01*
X101115714Y-78668571D01*
X101020476Y-78716190D01*
X100639523Y-78716190D01*
X101496666Y-78192380D02*
X102068095Y-78192380D01*
X101782380Y-79192380D02*
X101782380Y-78192380D01*
X71513546Y-107981540D02*
X72275451Y-107981540D01*
X71894499Y-108362492D02*
X71894499Y-107600588D01*
D11*
X111021904Y-119106190D02*
X111117142Y-119106190D01*
X111164761Y-119130000D01*
X111212380Y-119177619D01*
X111236190Y-119272857D01*
X111236190Y-119439523D01*
X111212380Y-119534761D01*
X111164761Y-119582380D01*
X111117142Y-119606190D01*
X111021904Y-119606190D01*
X110974285Y-119582380D01*
X110926666Y-119534761D01*
X110902857Y-119439523D01*
X110902857Y-119272857D01*
X110926666Y-119177619D01*
X110974285Y-119130000D01*
X111021904Y-119106190D01*
X111450476Y-119106190D02*
X111450476Y-119510952D01*
X111474285Y-119558571D01*
X111498095Y-119582380D01*
X111545714Y-119606190D01*
X111640952Y-119606190D01*
X111688571Y-119582380D01*
X111712380Y-119558571D01*
X111736190Y-119510952D01*
X111736190Y-119106190D01*
X111902857Y-119106190D02*
X112188571Y-119106190D01*
X112045714Y-119606190D02*
X112045714Y-119106190D01*
X112331428Y-119153809D02*
X112355238Y-119130000D01*
X112402857Y-119106190D01*
X112521904Y-119106190D01*
X112569523Y-119130000D01*
X112593333Y-119153809D01*
X112617142Y-119201428D01*
X112617142Y-119249047D01*
X112593333Y-119320476D01*
X112307619Y-119606190D01*
X112617142Y-119606190D01*
X121420000Y-119606190D02*
X121420000Y-119106190D01*
X121658095Y-119606190D02*
X121658095Y-119106190D01*
X121943809Y-119606190D01*
X121943809Y-119106190D01*
X122134285Y-119106190D02*
X122443809Y-119106190D01*
X122277142Y-119296666D01*
X122348571Y-119296666D01*
X122396190Y-119320476D01*
X122420000Y-119344285D01*
X122443809Y-119391904D01*
X122443809Y-119510952D01*
X122420000Y-119558571D01*
X122396190Y-119582380D01*
X122348571Y-119606190D01*
X122205714Y-119606190D01*
X122158095Y-119582380D01*
X122134285Y-119558571D01*
X98274285Y-119415714D02*
X98655238Y-119415714D01*
X98464761Y-119606190D02*
X98464761Y-119225238D01*
X98845714Y-119106190D02*
X99155238Y-119106190D01*
X98988571Y-119296666D01*
X99060000Y-119296666D01*
X99107619Y-119320476D01*
X99131428Y-119344285D01*
X99155238Y-119391904D01*
X99155238Y-119510952D01*
X99131428Y-119558571D01*
X99107619Y-119582380D01*
X99060000Y-119606190D01*
X98917142Y-119606190D01*
X98869523Y-119582380D01*
X98845714Y-119558571D01*
X99369523Y-119558571D02*
X99393333Y-119582380D01*
X99369523Y-119606190D01*
X99345714Y-119582380D01*
X99369523Y-119558571D01*
X99369523Y-119606190D01*
X99560000Y-119106190D02*
X99869523Y-119106190D01*
X99702857Y-119296666D01*
X99774285Y-119296666D01*
X99821904Y-119320476D01*
X99845714Y-119344285D01*
X99869523Y-119391904D01*
X99869523Y-119510952D01*
X99845714Y-119558571D01*
X99821904Y-119582380D01*
X99774285Y-119606190D01*
X99631428Y-119606190D01*
X99583809Y-119582380D01*
X99560000Y-119558571D01*
D10*
X85002857Y-78668571D02*
X85145714Y-78716190D01*
X85193333Y-78763809D01*
X85240952Y-78859047D01*
X85240952Y-79001904D01*
X85193333Y-79097142D01*
X85145714Y-79144761D01*
X85050476Y-79192380D01*
X84669523Y-79192380D01*
X84669523Y-78192380D01*
X85002857Y-78192380D01*
X85098095Y-78240000D01*
X85145714Y-78287619D01*
X85193333Y-78382857D01*
X85193333Y-78478095D01*
X85145714Y-78573333D01*
X85098095Y-78620952D01*
X85002857Y-78668571D01*
X84669523Y-78668571D01*
X85860000Y-78192380D02*
X86050476Y-78192380D01*
X86145714Y-78240000D01*
X86240952Y-78335238D01*
X86288571Y-78525714D01*
X86288571Y-78859047D01*
X86240952Y-79049523D01*
X86145714Y-79144761D01*
X86050476Y-79192380D01*
X85860000Y-79192380D01*
X85764761Y-79144761D01*
X85669523Y-79049523D01*
X85621904Y-78859047D01*
X85621904Y-78525714D01*
X85669523Y-78335238D01*
X85764761Y-78240000D01*
X85860000Y-78192380D01*
X86907619Y-78192380D02*
X87098095Y-78192380D01*
X87193333Y-78240000D01*
X87288571Y-78335238D01*
X87336190Y-78525714D01*
X87336190Y-78859047D01*
X87288571Y-79049523D01*
X87193333Y-79144761D01*
X87098095Y-79192380D01*
X86907619Y-79192380D01*
X86812380Y-79144761D01*
X86717142Y-79049523D01*
X86669523Y-78859047D01*
X86669523Y-78525714D01*
X86717142Y-78335238D01*
X86812380Y-78240000D01*
X86907619Y-78192380D01*
X87621904Y-78192380D02*
X88193333Y-78192380D01*
X87907619Y-79192380D02*
X87907619Y-78192380D01*
D11*
X86994261Y-119439030D02*
X87232356Y-119439030D01*
X86946642Y-119581887D02*
X87113309Y-119081887D01*
X87279975Y-119581887D01*
X87446642Y-119581887D02*
X87446642Y-119081887D01*
X87732356Y-119581887D01*
X87732356Y-119081887D01*
X87922832Y-119081887D02*
X88232356Y-119081887D01*
X88065689Y-119272363D01*
X88137118Y-119272363D01*
X88184737Y-119296173D01*
X88208547Y-119319982D01*
X88232356Y-119367601D01*
X88232356Y-119486649D01*
X88208547Y-119534268D01*
X88184737Y-119558077D01*
X88137118Y-119581887D01*
X87994261Y-119581887D01*
X87946642Y-119558077D01*
X87922832Y-119534268D01*
X108481904Y-119106190D02*
X108577142Y-119106190D01*
X108624761Y-119130000D01*
X108672380Y-119177619D01*
X108696190Y-119272857D01*
X108696190Y-119439523D01*
X108672380Y-119534761D01*
X108624761Y-119582380D01*
X108577142Y-119606190D01*
X108481904Y-119606190D01*
X108434285Y-119582380D01*
X108386666Y-119534761D01*
X108362857Y-119439523D01*
X108362857Y-119272857D01*
X108386666Y-119177619D01*
X108434285Y-119130000D01*
X108481904Y-119106190D01*
X108910476Y-119106190D02*
X108910476Y-119510952D01*
X108934285Y-119558571D01*
X108958095Y-119582380D01*
X109005714Y-119606190D01*
X109100952Y-119606190D01*
X109148571Y-119582380D01*
X109172380Y-119558571D01*
X109196190Y-119510952D01*
X109196190Y-119106190D01*
X109362857Y-119106190D02*
X109648571Y-119106190D01*
X109505714Y-119606190D02*
X109505714Y-119106190D01*
X109767619Y-119106190D02*
X110077142Y-119106190D01*
X109910476Y-119296666D01*
X109981904Y-119296666D01*
X110029523Y-119320476D01*
X110053333Y-119344285D01*
X110077142Y-119391904D01*
X110077142Y-119510952D01*
X110053333Y-119558571D01*
X110029523Y-119582380D01*
X109981904Y-119606190D01*
X109839047Y-119606190D01*
X109791428Y-119582380D01*
X109767619Y-119558571D01*
X89550952Y-119463333D02*
X89789047Y-119463333D01*
X89503333Y-119606190D02*
X89670000Y-119106190D01*
X89836666Y-119606190D01*
X90003333Y-119606190D02*
X90003333Y-119106190D01*
X90289047Y-119606190D01*
X90289047Y-119106190D01*
X90741428Y-119272857D02*
X90741428Y-119606190D01*
X90622380Y-119082380D02*
X90503333Y-119439523D01*
X90812857Y-119439523D01*
D10*
X129929361Y-93066078D02*
X130691266Y-93066078D01*
X130310314Y-93447030D02*
X130310314Y-92685126D01*
X85204761Y-96081904D02*
X85204761Y-96653333D01*
X85166666Y-96767619D01*
X85090476Y-96843809D01*
X84976190Y-96881904D01*
X84900000Y-96881904D01*
X85966666Y-96881904D02*
X85585714Y-96881904D01*
X85585714Y-96081904D01*
X86690476Y-96805714D02*
X86652380Y-96843809D01*
X86538095Y-96881904D01*
X86461904Y-96881904D01*
X86347619Y-96843809D01*
X86271428Y-96767619D01*
X86233333Y-96691428D01*
X86195238Y-96539047D01*
X86195238Y-96424761D01*
X86233333Y-96272380D01*
X86271428Y-96196190D01*
X86347619Y-96120000D01*
X86461904Y-96081904D01*
X86538095Y-96081904D01*
X86652380Y-96120000D01*
X86690476Y-96158095D01*
X87261904Y-96081904D02*
X87261904Y-96653333D01*
X87223809Y-96767619D01*
X87147619Y-96843809D01*
X87033333Y-96881904D01*
X86957142Y-96881904D01*
X88023809Y-96881904D02*
X87642857Y-96881904D01*
X87642857Y-96081904D01*
X88747619Y-96805714D02*
X88709523Y-96843809D01*
X88595238Y-96881904D01*
X88519047Y-96881904D01*
X88404761Y-96843809D01*
X88328571Y-96767619D01*
X88290476Y-96691428D01*
X88252380Y-96539047D01*
X88252380Y-96424761D01*
X88290476Y-96272380D01*
X88328571Y-96196190D01*
X88404761Y-96120000D01*
X88519047Y-96081904D01*
X88595238Y-96081904D01*
X88709523Y-96120000D01*
X88747619Y-96158095D01*
X89319047Y-96081904D02*
X89319047Y-96653333D01*
X89280952Y-96767619D01*
X89204761Y-96843809D01*
X89090476Y-96881904D01*
X89014285Y-96881904D01*
X90080952Y-96881904D02*
X89700000Y-96881904D01*
X89700000Y-96081904D01*
X90804761Y-96805714D02*
X90766666Y-96843809D01*
X90652380Y-96881904D01*
X90576190Y-96881904D01*
X90461904Y-96843809D01*
X90385714Y-96767619D01*
X90347619Y-96691428D01*
X90309523Y-96539047D01*
X90309523Y-96424761D01*
X90347619Y-96272380D01*
X90385714Y-96196190D01*
X90461904Y-96120000D01*
X90576190Y-96081904D01*
X90652380Y-96081904D01*
X90766666Y-96120000D01*
X90804761Y-96158095D01*
X91376190Y-96081904D02*
X91376190Y-96653333D01*
X91338095Y-96767619D01*
X91261904Y-96843809D01*
X91147619Y-96881904D01*
X91071428Y-96881904D01*
X92138095Y-96881904D02*
X91757142Y-96881904D01*
X91757142Y-96081904D01*
X92861904Y-96805714D02*
X92823809Y-96843809D01*
X92709523Y-96881904D01*
X92633333Y-96881904D01*
X92519047Y-96843809D01*
X92442857Y-96767619D01*
X92404761Y-96691428D01*
X92366666Y-96539047D01*
X92366666Y-96424761D01*
X92404761Y-96272380D01*
X92442857Y-96196190D01*
X92519047Y-96120000D01*
X92633333Y-96081904D01*
X92709523Y-96081904D01*
X92823809Y-96120000D01*
X92861904Y-96158095D01*
D11*
X81930952Y-119463333D02*
X82169047Y-119463333D01*
X81883333Y-119606190D02*
X82050000Y-119106190D01*
X82216666Y-119606190D01*
X82383333Y-119606190D02*
X82383333Y-119106190D01*
X82669047Y-119606190D01*
X82669047Y-119106190D01*
X83169047Y-119606190D02*
X82883333Y-119606190D01*
X83026190Y-119606190D02*
X83026190Y-119106190D01*
X82978571Y-119177619D01*
X82930952Y-119225238D01*
X82883333Y-119249047D01*
X113561904Y-119106190D02*
X113657142Y-119106190D01*
X113704761Y-119130000D01*
X113752380Y-119177619D01*
X113776190Y-119272857D01*
X113776190Y-119439523D01*
X113752380Y-119534761D01*
X113704761Y-119582380D01*
X113657142Y-119606190D01*
X113561904Y-119606190D01*
X113514285Y-119582380D01*
X113466666Y-119534761D01*
X113442857Y-119439523D01*
X113442857Y-119272857D01*
X113466666Y-119177619D01*
X113514285Y-119130000D01*
X113561904Y-119106190D01*
X113990476Y-119106190D02*
X113990476Y-119510952D01*
X114014285Y-119558571D01*
X114038095Y-119582380D01*
X114085714Y-119606190D01*
X114180952Y-119606190D01*
X114228571Y-119582380D01*
X114252380Y-119558571D01*
X114276190Y-119510952D01*
X114276190Y-119106190D01*
X114442857Y-119106190D02*
X114728571Y-119106190D01*
X114585714Y-119606190D02*
X114585714Y-119106190D01*
X115157142Y-119606190D02*
X114871428Y-119606190D01*
X115014285Y-119606190D02*
X115014285Y-119106190D01*
X114966666Y-119177619D01*
X114919047Y-119225238D01*
X114871428Y-119249047D01*
X105941904Y-119106190D02*
X106037142Y-119106190D01*
X106084761Y-119130000D01*
X106132380Y-119177619D01*
X106156190Y-119272857D01*
X106156190Y-119439523D01*
X106132380Y-119534761D01*
X106084761Y-119582380D01*
X106037142Y-119606190D01*
X105941904Y-119606190D01*
X105894285Y-119582380D01*
X105846666Y-119534761D01*
X105822857Y-119439523D01*
X105822857Y-119272857D01*
X105846666Y-119177619D01*
X105894285Y-119130000D01*
X105941904Y-119106190D01*
X106370476Y-119106190D02*
X106370476Y-119510952D01*
X106394285Y-119558571D01*
X106418095Y-119582380D01*
X106465714Y-119606190D01*
X106560952Y-119606190D01*
X106608571Y-119582380D01*
X106632380Y-119558571D01*
X106656190Y-119510952D01*
X106656190Y-119106190D01*
X106822857Y-119106190D02*
X107108571Y-119106190D01*
X106965714Y-119606190D02*
X106965714Y-119106190D01*
X107489523Y-119272857D02*
X107489523Y-119606190D01*
X107370476Y-119082380D02*
X107251428Y-119439523D01*
X107560952Y-119439523D01*
X101219047Y-119130000D02*
X101171428Y-119106190D01*
X101100000Y-119106190D01*
X101028571Y-119130000D01*
X100980952Y-119177619D01*
X100957142Y-119225238D01*
X100933333Y-119320476D01*
X100933333Y-119391904D01*
X100957142Y-119487142D01*
X100980952Y-119534761D01*
X101028571Y-119582380D01*
X101100000Y-119606190D01*
X101147619Y-119606190D01*
X101219047Y-119582380D01*
X101242857Y-119558571D01*
X101242857Y-119391904D01*
X101147619Y-119391904D01*
X101457142Y-119606190D02*
X101457142Y-119106190D01*
X101742857Y-119606190D01*
X101742857Y-119106190D01*
X101980952Y-119606190D02*
X101980952Y-119106190D01*
X102100000Y-119106190D01*
X102171428Y-119130000D01*
X102219047Y-119177619D01*
X102242857Y-119225238D01*
X102266666Y-119320476D01*
X102266666Y-119391904D01*
X102242857Y-119487142D01*
X102219047Y-119534761D01*
X102171428Y-119582380D01*
X102100000Y-119606190D01*
X101980952Y-119606190D01*
D10*
X132858095Y-90241428D02*
X133620000Y-90241428D01*
X133239047Y-90622380D02*
X133239047Y-89860476D01*
X134620000Y-90622380D02*
X134048571Y-90622380D01*
X134334285Y-90622380D02*
X134334285Y-89622380D01*
X134239047Y-89765238D01*
X134143809Y-89860476D01*
X134048571Y-89908095D01*
X135000952Y-89717619D02*
X135048571Y-89670000D01*
X135143809Y-89622380D01*
X135381904Y-89622380D01*
X135477142Y-89670000D01*
X135524761Y-89717619D01*
X135572380Y-89812857D01*
X135572380Y-89908095D01*
X135524761Y-90050952D01*
X134953333Y-90622380D01*
X135572380Y-90622380D01*
X135858095Y-89622380D02*
X136191428Y-90622380D01*
X136524761Y-89622380D01*
D11*
X78359047Y-119130000D02*
X78311428Y-119106190D01*
X78240000Y-119106190D01*
X78168571Y-119130000D01*
X78120952Y-119177619D01*
X78097142Y-119225238D01*
X78073333Y-119320476D01*
X78073333Y-119391904D01*
X78097142Y-119487142D01*
X78120952Y-119534761D01*
X78168571Y-119582380D01*
X78240000Y-119606190D01*
X78287619Y-119606190D01*
X78359047Y-119582380D01*
X78382857Y-119558571D01*
X78382857Y-119391904D01*
X78287619Y-119391904D01*
X78597142Y-119606190D02*
X78597142Y-119106190D01*
X78882857Y-119606190D01*
X78882857Y-119106190D01*
X79120952Y-119606190D02*
X79120952Y-119106190D01*
X79240000Y-119106190D01*
X79311428Y-119130000D01*
X79359047Y-119177619D01*
X79382857Y-119225238D01*
X79406666Y-119320476D01*
X79406666Y-119391904D01*
X79382857Y-119487142D01*
X79359047Y-119534761D01*
X79311428Y-119582380D01*
X79240000Y-119606190D01*
X79120952Y-119606190D01*
%TO.C,G\u002A\u002A\u002A*%
G36*
X74350000Y-89060000D02*
G01*
X74350000Y-93460000D01*
X63310000Y-93460000D01*
X63310000Y-95740000D01*
X60310000Y-95740000D01*
X60310000Y-93756568D01*
X60750000Y-93756568D01*
X60750764Y-93985328D01*
X60755088Y-94154624D01*
X60766022Y-94284995D01*
X60786613Y-94396974D01*
X60819911Y-94511098D01*
X60868964Y-94647903D01*
X60891033Y-94706568D01*
X60952922Y-94870735D01*
X61005059Y-95009577D01*
X61040342Y-95104155D01*
X61050586Y-95132105D01*
X61097570Y-95164988D01*
X61211406Y-95174555D01*
X61277869Y-95172105D01*
X61486632Y-95160000D01*
X61638203Y-94760000D01*
X61696924Y-94602715D01*
X61738105Y-94479016D01*
X61764861Y-94368572D01*
X61780307Y-94251051D01*
X61787557Y-94106123D01*
X61789727Y-93913457D01*
X61789886Y-93770000D01*
X61789957Y-93400000D01*
X62110000Y-93400000D01*
X62112015Y-93525770D01*
X62125220Y-93591233D01*
X62160356Y-93616079D01*
X62228164Y-93619999D01*
X62230000Y-93620000D01*
X62350000Y-93620000D01*
X62350000Y-95180000D01*
X62750000Y-95180000D01*
X62750000Y-93180000D01*
X62110000Y-93180000D01*
X62110000Y-93400000D01*
X61789957Y-93400000D01*
X61790000Y-93180000D01*
X61390000Y-93180000D01*
X61390000Y-93714031D01*
X61384183Y-93999990D01*
X61367280Y-94226714D01*
X61340114Y-94388709D01*
X61303506Y-94480481D01*
X61272418Y-94500000D01*
X61233295Y-94461735D01*
X61199984Y-94353651D01*
X61173999Y-94185815D01*
X61156850Y-93968290D01*
X61150052Y-93711143D01*
X61150000Y-93685359D01*
X61150000Y-93180000D01*
X60750000Y-93180000D01*
X60750000Y-93756568D01*
X60310000Y-93756568D01*
X60310000Y-92940000D01*
X60790000Y-92940000D01*
X61510000Y-92940000D01*
X61510000Y-91900000D01*
X61870000Y-91900000D01*
X61870000Y-92940000D01*
X62550000Y-92940000D01*
X63070000Y-92940000D01*
X63787537Y-92940000D01*
X63798768Y-92450000D01*
X63810000Y-91960000D01*
X64078078Y-92940000D01*
X64434039Y-92940000D01*
X64591602Y-92937357D01*
X64713440Y-92930283D01*
X64781607Y-92920060D01*
X64790000Y-92914577D01*
X64779842Y-92868656D01*
X64752022Y-92760740D01*
X64710518Y-92605851D01*
X64659310Y-92419012D01*
X64646561Y-92373038D01*
X64503123Y-91856922D01*
X64611408Y-91771745D01*
X64684125Y-91705944D01*
X64738962Y-91630415D01*
X64778348Y-91533359D01*
X64804714Y-91402981D01*
X64815713Y-91280624D01*
X65390062Y-91280624D01*
X65390567Y-91657966D01*
X65393142Y-91963869D01*
X65399310Y-92206888D01*
X65410593Y-92395582D01*
X65428516Y-92538509D01*
X65454602Y-92644225D01*
X65490374Y-92721290D01*
X65537356Y-92778260D01*
X65597072Y-92823693D01*
X65671045Y-92866146D01*
X65672466Y-92866909D01*
X65795379Y-92906860D01*
X65973828Y-92932978D01*
X66184557Y-92945261D01*
X66404307Y-92943710D01*
X66453862Y-92940000D01*
X67670000Y-92940000D01*
X68348906Y-92940000D01*
X68370000Y-90320000D01*
X68730000Y-90320000D01*
X68740546Y-91630000D01*
X68751093Y-92940000D01*
X69430000Y-92940000D01*
X69430000Y-91469375D01*
X69429870Y-91280624D01*
X69950062Y-91280624D01*
X69950567Y-91657966D01*
X69953142Y-91963869D01*
X69959310Y-92206888D01*
X69970593Y-92395582D01*
X69988516Y-92538509D01*
X70014602Y-92644225D01*
X70050374Y-92721290D01*
X70097356Y-92778260D01*
X70157072Y-92823693D01*
X70231045Y-92866146D01*
X70232466Y-92866909D01*
X70355379Y-92906860D01*
X70533828Y-92932978D01*
X70744557Y-92945261D01*
X70964307Y-92943710D01*
X71169820Y-92928324D01*
X71337839Y-92899105D01*
X71427533Y-92866909D01*
X71501274Y-92824798D01*
X71560928Y-92779994D01*
X71607987Y-92724013D01*
X71643942Y-92648371D01*
X71670284Y-92544586D01*
X71688505Y-92404173D01*
X71695599Y-92290624D01*
X72270000Y-92290624D01*
X72298786Y-92533572D01*
X72385023Y-92721245D01*
X72528528Y-92853269D01*
X72552466Y-92866909D01*
X72675379Y-92906860D01*
X72853828Y-92932978D01*
X73064557Y-92945261D01*
X73284307Y-92943710D01*
X73489820Y-92928324D01*
X73657839Y-92899105D01*
X73747533Y-92866909D01*
X73858411Y-92792357D01*
X73937278Y-92697445D01*
X73988887Y-92568596D01*
X74017990Y-92392234D01*
X74029340Y-92154781D01*
X74030000Y-92059999D01*
X74019311Y-91768509D01*
X73982620Y-91546343D01*
X73912988Y-91385128D01*
X73803475Y-91276494D01*
X73647144Y-91212070D01*
X73437056Y-91183483D01*
X73300624Y-91180000D01*
X72990000Y-91180000D01*
X72990000Y-90300000D01*
X73350000Y-90300000D01*
X73350000Y-90620000D01*
X74030000Y-90620000D01*
X74030000Y-90309375D01*
X74017207Y-90068222D01*
X73973239Y-89884341D01*
X73889712Y-89750811D01*
X73758241Y-89660709D01*
X73570442Y-89607114D01*
X73317932Y-89583103D01*
X73146539Y-89580000D01*
X72941127Y-89581518D01*
X72797566Y-89587900D01*
X72697739Y-89601884D01*
X72623524Y-89626211D01*
X72556802Y-89663617D01*
X72545915Y-89670797D01*
X72454357Y-89739380D01*
X72385389Y-89814365D01*
X72335911Y-89907801D01*
X72302825Y-90031741D01*
X72283031Y-90198237D01*
X72273429Y-90419340D01*
X72270920Y-90707101D01*
X72270940Y-90740000D01*
X72272401Y-91004419D01*
X72276877Y-91202656D01*
X72285564Y-91348505D01*
X72299661Y-91455764D01*
X72320362Y-91538229D01*
X72345804Y-91603034D01*
X72427211Y-91733549D01*
X72540951Y-91822427D01*
X72700093Y-91875375D01*
X72917704Y-91898096D01*
X73026045Y-91900000D01*
X73350000Y-91900000D01*
X73350000Y-92220000D01*
X73170000Y-92220000D01*
X73057514Y-92214765D01*
X73004323Y-92193030D01*
X72990068Y-92145747D01*
X72990000Y-92140000D01*
X72983984Y-92101991D01*
X72955787Y-92078372D01*
X72890182Y-92065762D01*
X72771943Y-92060774D01*
X72630000Y-92060000D01*
X72270000Y-92060000D01*
X72270000Y-92290624D01*
X71695599Y-92290624D01*
X71700095Y-92218649D01*
X71706546Y-91979531D01*
X71709349Y-91678335D01*
X71709996Y-91306578D01*
X71710000Y-91259999D01*
X71709655Y-90905024D01*
X71708304Y-90620928D01*
X71705470Y-90398596D01*
X71700676Y-90228908D01*
X71693444Y-90102747D01*
X71683298Y-90010997D01*
X71669762Y-89944537D01*
X71652358Y-89894252D01*
X71636909Y-89862466D01*
X71562727Y-89751949D01*
X71468437Y-89673244D01*
X71340490Y-89621629D01*
X71165333Y-89592378D01*
X70929417Y-89580769D01*
X70826539Y-89580000D01*
X70621127Y-89581518D01*
X70477566Y-89587900D01*
X70377739Y-89601884D01*
X70303524Y-89626211D01*
X70236802Y-89663617D01*
X70225915Y-89670797D01*
X70153229Y-89721863D01*
X70094576Y-89773754D01*
X70048452Y-89835247D01*
X70013352Y-89915116D01*
X69987773Y-90022138D01*
X69970212Y-90165090D01*
X69959164Y-90352746D01*
X69953126Y-90593884D01*
X69950593Y-90897280D01*
X69950062Y-91271709D01*
X69950062Y-91280624D01*
X69429870Y-91280624D01*
X69429735Y-91084178D01*
X69428691Y-90770658D01*
X69426487Y-90520495D01*
X69422746Y-90325367D01*
X69417089Y-90176955D01*
X69409138Y-90066936D01*
X69398513Y-89986990D01*
X69384837Y-89928796D01*
X69367732Y-89884032D01*
X69356909Y-89862466D01*
X69282727Y-89751949D01*
X69188437Y-89673244D01*
X69060490Y-89621629D01*
X68885333Y-89592378D01*
X68649417Y-89580769D01*
X68546539Y-89580000D01*
X68341127Y-89581518D01*
X68197566Y-89587900D01*
X68097739Y-89601884D01*
X68023524Y-89626211D01*
X67956802Y-89663617D01*
X67945915Y-89670797D01*
X67877702Y-89718012D01*
X67821779Y-89765135D01*
X67776925Y-89820216D01*
X67741919Y-89891308D01*
X67715540Y-89986463D01*
X67696567Y-90113733D01*
X67683779Y-90281170D01*
X67675956Y-90496826D01*
X67671876Y-90768753D01*
X67670318Y-91105003D01*
X67670062Y-91490000D01*
X67670000Y-92940000D01*
X66453862Y-92940000D01*
X66609820Y-92928324D01*
X66777839Y-92899105D01*
X66867533Y-92866909D01*
X66941274Y-92824798D01*
X67000928Y-92779994D01*
X67047987Y-92724013D01*
X67083942Y-92648371D01*
X67110284Y-92544586D01*
X67128505Y-92404173D01*
X67140095Y-92218649D01*
X67146546Y-91979531D01*
X67149349Y-91678335D01*
X67149996Y-91306578D01*
X67150000Y-91259999D01*
X67149655Y-90905024D01*
X67148304Y-90620928D01*
X67145470Y-90398596D01*
X67140676Y-90228908D01*
X67133444Y-90102747D01*
X67123298Y-90010997D01*
X67109762Y-89944537D01*
X67092358Y-89894252D01*
X67076909Y-89862466D01*
X67002727Y-89751949D01*
X66908437Y-89673244D01*
X66780490Y-89621629D01*
X66605333Y-89592378D01*
X66369417Y-89580769D01*
X66266539Y-89580000D01*
X66061127Y-89581518D01*
X65917566Y-89587900D01*
X65817739Y-89601884D01*
X65743524Y-89626211D01*
X65676802Y-89663617D01*
X65665915Y-89670797D01*
X65593229Y-89721863D01*
X65534576Y-89773754D01*
X65488452Y-89835247D01*
X65453352Y-89915116D01*
X65427773Y-90022138D01*
X65410212Y-90165090D01*
X65399164Y-90352746D01*
X65393126Y-90593884D01*
X65390593Y-90897280D01*
X65390062Y-91271709D01*
X65390062Y-91280624D01*
X64815713Y-91280624D01*
X64820490Y-91227483D01*
X64828107Y-90995067D01*
X64830000Y-90710660D01*
X64827276Y-90380743D01*
X64813542Y-90122117D01*
X64780446Y-89926117D01*
X64719642Y-89784077D01*
X64622780Y-89687333D01*
X64481512Y-89627219D01*
X64287488Y-89595070D01*
X64032361Y-89582223D01*
X63740624Y-89580000D01*
X63070000Y-89580000D01*
X63070000Y-92940000D01*
X62550000Y-92940000D01*
X62550000Y-91773846D01*
X62433076Y-91656923D01*
X62316153Y-91540000D01*
X62433076Y-91423076D01*
X62550000Y-91306153D01*
X62550000Y-89580000D01*
X61870000Y-89580000D01*
X61870000Y-91180000D01*
X61510000Y-91180000D01*
X61510000Y-89580000D01*
X60790000Y-89580000D01*
X60790000Y-92940000D01*
X60310000Y-92940000D01*
X60310000Y-89060000D01*
X74350000Y-89060000D01*
G37*
G36*
X64150000Y-91180000D02*
G01*
X63790000Y-91180000D01*
X63790000Y-90300000D01*
X64150000Y-90300000D01*
X64150000Y-91180000D01*
G37*
G36*
X66470000Y-92220000D02*
G01*
X66110000Y-92220000D01*
X66110000Y-90300000D01*
X66470000Y-90300000D01*
X66470000Y-92220000D01*
G37*
G36*
X71030000Y-92220000D02*
G01*
X70670000Y-92220000D01*
X70670000Y-90300000D01*
X71030000Y-90300000D01*
X71030000Y-92220000D01*
G37*
D12*
%TO.C,R3*%
X104975196Y-89814766D02*
X104975196Y-89340250D01*
X103930196Y-89814766D02*
X103930196Y-89340250D01*
%TO.C,J4*%
X113665000Y-74130000D02*
X113605000Y-74130000D01*
X120075000Y-74130000D02*
X120015000Y-74130000D01*
X113605000Y-74130000D02*
X113605000Y-76790000D01*
X120075000Y-76790000D02*
X120015000Y-76790000D01*
X120075000Y-74130000D02*
X120075000Y-76790000D01*
X120015000Y-76790000D02*
X120015000Y-78250000D01*
X113665000Y-76790000D02*
X113605000Y-76790000D01*
%TO.C,L1*%
X112025503Y-91280000D02*
X112025503Y-92430000D01*
X117625503Y-96680000D02*
X117625503Y-95530000D01*
X112025503Y-96680000D02*
X112025503Y-95530000D01*
X112025503Y-91280000D02*
X117625503Y-91280000D01*
X112025503Y-96680000D02*
X117625503Y-96680000D01*
X117625503Y-91280000D02*
X117625503Y-92430000D01*
%TO.C,J6*%
X102860000Y-73600000D02*
X95180000Y-73600000D01*
X102860000Y-73600000D02*
X102860000Y-76260000D01*
X105460000Y-73600000D02*
X105460000Y-74930000D01*
X104130000Y-73600000D02*
X105460000Y-73600000D01*
X95180000Y-73600000D02*
X95180000Y-76260000D01*
X102860000Y-76260000D02*
X95180000Y-76260000D01*
%TO.C,Crystal1*%
X79317265Y-92222981D02*
X76017265Y-92222981D01*
X76017265Y-92222981D02*
X76017265Y-96222981D01*
%TO.C,R12*%
X85751664Y-83419580D02*
X85751664Y-83112298D01*
X86511664Y-83419580D02*
X86511664Y-83112298D01*
%TO.C,R16*%
X80590970Y-94929226D02*
X80898252Y-94929226D01*
X80590970Y-95689226D02*
X80898252Y-95689226D01*
%TO.C,C17*%
X96160000Y-90577503D02*
X96160000Y-90361831D01*
X96880000Y-90577503D02*
X96880000Y-90361831D01*
%TO.C,SW1*%
X87611308Y-73200000D02*
X87611308Y-71910000D01*
X87811308Y-76050000D02*
X86111308Y-76050000D01*
X86311308Y-71910000D02*
X86511308Y-71700000D01*
X87611308Y-71910000D02*
X87411308Y-71700000D01*
X87411308Y-71700000D02*
X86511308Y-71700000D01*
X86311308Y-71910000D02*
X86311308Y-73200000D01*
X89061308Y-73200000D02*
X83361308Y-73200000D01*
X84811308Y-76050000D02*
X84611308Y-76050000D01*
X82761308Y-74210000D02*
X82761308Y-75000000D01*
X89661308Y-75000000D02*
X89661308Y-74210000D01*
%TO.C,C9*%
X81199845Y-90872353D02*
X80918685Y-90872353D01*
X81199845Y-91892353D02*
X80918685Y-91892353D01*
%TO.C,J1*%
X131488944Y-98976594D02*
X139208944Y-98976594D01*
X135829944Y-94641594D02*
X135922944Y-94735594D01*
X133373944Y-92596594D02*
X133467944Y-92690594D01*
X131488944Y-98976594D02*
X131488944Y-91856594D01*
X139208944Y-98976594D02*
X139208944Y-91856594D01*
X131488944Y-91856594D02*
X139208944Y-91856594D01*
X133579944Y-92391594D02*
X133707944Y-92520594D01*
X138808944Y-99216594D02*
X139448944Y-99216594D01*
X137648944Y-98976594D02*
X137648944Y-91856594D01*
X138748944Y-98976594D02*
X138748944Y-91856594D01*
X139448944Y-99216594D02*
X139448944Y-98816594D01*
X135589944Y-94811594D02*
X135717944Y-94940594D01*
X136088944Y-98032594D02*
G75*
G03*
X136329043Y-97137920I-1440014J866003D01*
G01*
X136328944Y-97166594D02*
G75*
G03*
X136073665Y-96276330I-1679990J3D01*
G01*
X135539944Y-95741594D02*
G75*
G03*
X133758751Y-95741090I-891000J-1425003D01*
G01*
X133782944Y-98606595D02*
G75*
G03*
X135538838Y-98591952I866000J1439999D01*
G01*
X133208943Y-96300594D02*
G75*
G03*
X133223586Y-98056488I1439999J-866000D01*
G01*
X136328944Y-93666594D02*
G75*
G03*
X136328944Y-93666594I-1680000J0D01*
G01*
%TO.C,R11*%
X82947539Y-105073722D02*
X83422055Y-105073722D01*
X82947539Y-106118722D02*
X83422055Y-106118722D01*
%TO.C,U4*%
X83790000Y-101630000D02*
X83790000Y-100680000D01*
X83790000Y-92360000D02*
X82450000Y-92360000D01*
X93060000Y-91410000D02*
X94010000Y-91410000D01*
X84740000Y-101630000D02*
X83790000Y-101630000D01*
X94010000Y-101630000D02*
X94010000Y-100680000D01*
X93060000Y-101630000D02*
X94010000Y-101630000D01*
X84740000Y-91410000D02*
X83790000Y-91410000D01*
X94010000Y-91410000D02*
X94010000Y-92360000D01*
X83790000Y-91410000D02*
X83790000Y-92360000D01*
%TO.C,R17*%
X77432742Y-107162500D02*
X77907258Y-107162500D01*
X77432742Y-106117500D02*
X77907258Y-106117500D01*
%TO.C,D3*%
X82852703Y-104343284D02*
X82852703Y-102058284D01*
X81382703Y-104343284D02*
X82852703Y-104343284D01*
X81382703Y-102058284D02*
X81382703Y-104343284D01*
%TO.C,C15*%
X94474857Y-103229102D02*
X94690529Y-103229102D01*
X94474857Y-102509102D02*
X94690529Y-102509102D01*
%TO.C,D1*%
X121727845Y-98743495D02*
X121727845Y-102643495D01*
X119727845Y-98743495D02*
X119727845Y-102643495D01*
X121727845Y-98743495D02*
X119727845Y-98743495D01*
%TO.C,C11*%
X84479509Y-88824616D02*
X84695181Y-88824616D01*
X84479509Y-89544616D02*
X84695181Y-89544616D01*
%TO.C,R8*%
X93541369Y-90030488D02*
X93541369Y-89723206D01*
X94301369Y-90030488D02*
X94301369Y-89723206D01*
%TO.C,R4*%
X106461158Y-99819789D02*
X106461158Y-100294305D01*
X105416158Y-99819789D02*
X105416158Y-100294305D01*
%TO.C,R10*%
X85955785Y-88134021D02*
X85955785Y-88441303D01*
X86715785Y-88134021D02*
X86715785Y-88441303D01*
%TO.C,R15*%
X76550147Y-113307611D02*
X76857429Y-113307611D01*
X76550147Y-112547611D02*
X76857429Y-112547611D01*
%TO.C,U1*%
X102467123Y-94018493D02*
X102467123Y-92218493D01*
X99347123Y-94018493D02*
X99347123Y-94818493D01*
X102467123Y-94018493D02*
X102467123Y-94818493D01*
X99347123Y-94018493D02*
X99347123Y-93218493D01*
%TO.C,F2*%
X115930000Y-100176748D02*
X115930000Y-101380876D01*
X117750000Y-100176748D02*
X117750000Y-101380876D01*
%TO.C,R5*%
X103069541Y-96993890D02*
X103544057Y-96993890D01*
X103069541Y-98038890D02*
X103544057Y-98038890D01*
%TO.C,J5*%
X83820000Y-115510000D02*
X96580000Y-115510000D01*
X81220000Y-118170000D02*
X81220000Y-116840000D01*
X83820000Y-118170000D02*
X83820000Y-115510000D01*
X83820000Y-118170000D02*
X96580000Y-118170000D01*
X82550000Y-118170000D02*
X81220000Y-118170000D01*
X96580000Y-118170000D02*
X96580000Y-115510000D01*
%TO.C,R14*%
X73406611Y-112556297D02*
X73099329Y-112556297D01*
X73406611Y-113316297D02*
X73099329Y-113316297D01*
%TO.C,C8*%
X84631833Y-86773570D02*
X84631833Y-87054730D01*
X83611833Y-86773570D02*
X83611833Y-87054730D01*
%TO.C,C13*%
X93899971Y-104964008D02*
X94181131Y-104964008D01*
X93899971Y-103944008D02*
X94181131Y-103944008D01*
%TO.C,C10*%
X77544694Y-90902492D02*
X77760366Y-90902492D01*
X77544694Y-91622492D02*
X77760366Y-91622492D01*
%TO.C,C1*%
X107339667Y-100093978D02*
X107339667Y-101516482D01*
X109159667Y-100093978D02*
X109159667Y-101516482D01*
%TO.C,R6*%
X93090000Y-87724682D02*
X93090000Y-87417400D01*
X92330000Y-87724682D02*
X92330000Y-87417400D01*
%TO.C,Q1*%
X123952206Y-100054755D02*
X123952206Y-100704755D01*
X123952206Y-100054755D02*
X123952206Y-99404755D01*
X127072206Y-100054755D02*
X127072206Y-100704755D01*
X127072206Y-100054755D02*
X127072206Y-98379755D01*
%TO.C,J2*%
X125730000Y-118170000D02*
X97730000Y-118170000D01*
X128330000Y-115510000D02*
X128330000Y-116840000D01*
X127000000Y-115510000D02*
X128330000Y-115510000D01*
X125730000Y-115510000D02*
X97730000Y-115510000D01*
X97730000Y-115510000D02*
X97730000Y-118170000D01*
X125730000Y-115510000D02*
X125730000Y-118170000D01*
%TO.C,R2*%
X102881869Y-89296820D02*
X102881869Y-89771336D01*
X101836869Y-89296820D02*
X101836869Y-89771336D01*
%TO.C,C19*%
X81060537Y-98373066D02*
X81060537Y-98157394D01*
X80340537Y-98373066D02*
X80340537Y-98157394D01*
%TO.C,C21*%
X80887859Y-96886186D02*
X80672187Y-96886186D01*
X80887859Y-96166186D02*
X80672187Y-96166186D01*
%TO.C,C7*%
X76601586Y-86137402D02*
X76601586Y-86353074D01*
X75881586Y-86137402D02*
X75881586Y-86353074D01*
%TO.C,FB1*%
X112845503Y-99930378D02*
X112845503Y-100729622D01*
X111725503Y-99930378D02*
X111725503Y-100729622D01*
%TO.C,R13*%
X85146143Y-85229208D02*
X85146143Y-85536490D01*
X85906143Y-85229208D02*
X85906143Y-85536490D01*
%TO.C,C5*%
X75827132Y-83347662D02*
X75827132Y-83066502D01*
X76847132Y-83347662D02*
X76847132Y-83066502D01*
%TO.C,R9*%
X95649215Y-90571192D02*
X95649215Y-90263910D01*
X94889215Y-90571192D02*
X94889215Y-90263910D01*
%TO.C,U2*%
X128270000Y-106686291D02*
X127470000Y-106686291D01*
X128270000Y-103566291D02*
X129070000Y-103566291D01*
X128270000Y-106686291D02*
X130070000Y-106686291D01*
X128270000Y-103566291D02*
X127470000Y-103566291D01*
%TO.C,R7*%
X89280000Y-88326041D02*
X89280000Y-88018759D01*
X88520000Y-88326041D02*
X88520000Y-88018759D01*
%TO.C,C20*%
X78989232Y-98372289D02*
X78989232Y-98156617D01*
X79709232Y-98372289D02*
X79709232Y-98156617D01*
%TO.C,C2*%
X120918151Y-94576967D02*
X120918151Y-95999471D01*
X119098151Y-94576967D02*
X119098151Y-95999471D01*
%TO.C,C14*%
X77799673Y-96837715D02*
X77584001Y-96837715D01*
X77799673Y-97557715D02*
X77584001Y-97557715D01*
%TO.C,D4*%
X72860000Y-107415000D02*
X75145000Y-107415000D01*
X75145000Y-105945000D02*
X72860000Y-105945000D01*
X75145000Y-107415000D02*
X75145000Y-105945000D01*
%TO.C,J7*%
X77470000Y-115510000D02*
X77470000Y-118170000D01*
X69790000Y-115510000D02*
X69790000Y-118170000D01*
X77470000Y-118170000D02*
X69790000Y-118170000D01*
X80070000Y-115510000D02*
X80070000Y-116840000D01*
X77470000Y-115510000D02*
X69790000Y-115510000D01*
X78740000Y-115510000D02*
X80070000Y-115510000D01*
%TO.C,C16*%
X97316542Y-93220000D02*
X97597702Y-93220000D01*
X97316542Y-92200000D02*
X97597702Y-92200000D01*
%TO.C,C3*%
X105331734Y-92961351D02*
X105331734Y-94383855D01*
X103511734Y-92961351D02*
X103511734Y-94383855D01*
D10*
%TO.C,U3*%
X78287447Y-83275068D02*
X78287447Y-83800068D01*
X78287447Y-83275068D02*
X78812447Y-83275068D01*
X82587447Y-87575068D02*
X82062447Y-87575068D01*
X78287447Y-87575068D02*
X78812447Y-87575068D01*
X82587447Y-83275068D02*
X82587447Y-83800068D01*
X82587447Y-87575068D02*
X82587447Y-87050068D01*
X78287447Y-87575068D02*
X78287447Y-87050068D01*
D12*
%TO.C,J3*%
X139204065Y-101990371D02*
X139604065Y-101990371D01*
X139604065Y-109510371D02*
X139204065Y-109510371D01*
X137234065Y-109510371D02*
X135254065Y-109510371D01*
X137234065Y-101990371D02*
X135254065Y-101990371D01*
X135024065Y-107510371D02*
X134574065Y-107510371D01*
X135254065Y-101990371D02*
X135254065Y-102410371D01*
X135254065Y-109510371D02*
X135254065Y-109090371D01*
X134574065Y-107060371D02*
X134574065Y-107510371D01*
%TO.C,C4*%
X124253676Y-94603177D02*
X124253676Y-96025681D01*
X122433676Y-94603177D02*
X122433676Y-96025681D01*
%TO.C,C18*%
X78127629Y-99970000D02*
X78343301Y-99970000D01*
X78127629Y-100690000D02*
X78343301Y-100690000D01*
%TO.C,D2*%
X109438259Y-93410085D02*
X107438259Y-93410085D01*
X107438259Y-93410085D02*
X107438259Y-97310085D01*
X109438259Y-93410085D02*
X109438259Y-97310085D01*
%TO.C,C12*%
X86013632Y-104412653D02*
X85797960Y-104412653D01*
X86013632Y-103692653D02*
X85797960Y-103692653D01*
%TO.C,R1*%
X98927630Y-91396066D02*
X99402146Y-91396066D01*
X98927630Y-90351066D02*
X99402146Y-90351066D01*
%TO.C,C6*%
X79637836Y-89537047D02*
X79422164Y-89537047D01*
X79637836Y-90257047D02*
X79422164Y-90257047D01*
%TD*%
M02*
